M48
; DRILL file {KiCad 5.1.5} date Mon 16 Mar 2020 12:35:54 AM EDT
; FORMAT={-:-/ absolute / inch / decimal}
; #@! TF.CreationDate,2020-03-16T00:35:54-04:00
; #@! TF.GenerationSoftware,Kicad,Pcbnew,5.1.5
; #@! TF.FileFunction,Plated,1,2,PTH
FMAT,2
INCH
T1C0.0157
T2C0.0197
T3C0.0217
T4C0.0400
T5C0.0591
%
G90
G05
T1
X4.98Y-3.42
X5.1559Y-3.9459
X5.18Y-3.89
X5.2Y-4.15
X5.2358Y-3.8856
X5.26Y-3.59
X5.27Y-3.84
X5.29Y-3.485
X5.3Y-4.15
X5.3846Y-3.9839
X5.3972Y-3.6222
X5.4Y-3.375
X5.4Y-4.15
X5.4029Y-3.949
X5.41Y-3.77
X5.41Y-3.82
X5.415Y-3.535
X5.4195Y-3.6945
X5.425Y-3.65
X5.43Y-3.9839
X5.445Y-3.4
X5.4512Y-3.7179
X5.4571Y-3.7568
X5.46Y-3.595
X5.4792Y-3.9471
X5.489Y-3.78
X5.5Y-3.3
X5.5Y-4.1513
X5.5048Y-4.0017
X5.5157Y-3.8093
X5.5364Y-3.95
X5.6Y-4.15
X5.6072Y-3.9755
X5.64Y-3.51
X5.6645Y-3.9524
X5.6949Y-4.1492
X5.7Y-3.98
X5.72Y-3.55
X5.7252Y-3.775
X5.7299Y-3.9432
X5.75Y-4.15
X5.76Y-3.22
X5.7601Y-3.9685
X5.765Y-3.105
X5.78Y-3.93
X5.8Y-3.375
X5.8052Y-3.87
X5.825Y-3.575
X5.85Y-3.93
X5.875Y-3.38
X5.92Y-3.95
X5.93Y-3.11
X5.94Y-3.82
X5.9418Y-3.9172
X5.99Y-4.05
T4
X5.175Y-3.625
X5.175Y-3.725
X5.9Y-4.225
X5.9Y-4.325
X5.9Y-4.425
X5.8Y-4.225
X5.8Y-4.325
X5.8Y-4.425
X5.025Y-3.625
X5.025Y-3.725
X5.025Y-3.825
X5.025Y-3.925
X5.4Y-4.225
X5.4Y-4.325
X5.4Y-4.425
X5.6Y-4.225
X5.6Y-4.325
X5.6Y-4.425
X5.2Y-4.225
X5.2Y-4.325
X5.2Y-4.425
X5.3Y-4.225
X5.3Y-4.325
X5.3Y-4.425
X5.5Y-4.225
X5.5Y-4.325
X5.5Y-4.425
X5.7Y-4.225
X5.7Y-4.325
X5.7Y-4.425
T5
X6.075Y-4.075
X5.025Y-4.075
X5.025Y-4.25
X6.075Y-4.25
T2
G00X5.4122Y-3.1174
M15
G01X5.4122Y-3.143
M16
G05
G00X5.6878Y-3.1174
M15
G01X5.6878Y-3.143
M16
G05
T3
G00X5.4575Y-3.2365
M15
G01X5.4457Y-3.2365
M16
G05
G00X5.6544Y-3.2365
M15
G01X5.6426Y-3.2365
M16
G05
T0
M30
