G04 #@! TF.GenerationSoftware,KiCad,Pcbnew,5.0.0*
G04 #@! TF.CreationDate,2018-11-12T22:36:05-05:00*
G04 #@! TF.ProjectId,dot-driver,646F742D6472697665722E6B69636164,rev?*
G04 #@! TF.SameCoordinates,Original*
G04 #@! TF.FileFunction,Legend,Bot*
G04 #@! TF.FilePolarity,Positive*
%FSLAX46Y46*%
G04 Gerber Fmt 4.6, Leading zero omitted, Abs format (unit mm)*
G04 Created by KiCad (PCBNEW 5.0.0) date Mon Nov 12 22:36:05 2018*
%MOMM*%
%LPD*%
G01*
G04 APERTURE LIST*
%ADD10C,0.150000*%
%ADD11C,0.200000*%
%ADD12C,0.300000*%
G04 APERTURE END LIST*
D10*
X153021666Y-92181666D02*
X152988333Y-92115000D01*
X152955000Y-92081666D01*
X152888333Y-92048333D01*
X152855000Y-92048333D01*
X152788333Y-92081666D01*
X152755000Y-92115000D01*
X152721666Y-92181666D01*
X152721666Y-92315000D01*
X152755000Y-92381666D01*
X152788333Y-92415000D01*
X152855000Y-92448333D01*
X152888333Y-92448333D01*
X152955000Y-92415000D01*
X152988333Y-92381666D01*
X153021666Y-92315000D01*
X153021666Y-92181666D01*
X153055000Y-92115000D01*
X153088333Y-92081666D01*
X153155000Y-92048333D01*
X153288333Y-92048333D01*
X153355000Y-92081666D01*
X153388333Y-92115000D01*
X153421666Y-92181666D01*
X153421666Y-92315000D01*
X153388333Y-92381666D01*
X153355000Y-92415000D01*
X153288333Y-92448333D01*
X153155000Y-92448333D01*
X153088333Y-92415000D01*
X153055000Y-92381666D01*
X153021666Y-92315000D01*
X153388333Y-93048333D02*
X153421666Y-92981666D01*
X153421666Y-92848333D01*
X153388333Y-92781666D01*
X153355000Y-92748333D01*
X153288333Y-92715000D01*
X153088333Y-92715000D01*
X153021666Y-92748333D01*
X152988333Y-92781666D01*
X152955000Y-92848333D01*
X152955000Y-92981666D01*
X152988333Y-93048333D01*
X153421666Y-93348333D02*
X152721666Y-93348333D01*
X153421666Y-93648333D02*
X153055000Y-93648333D01*
X152988333Y-93615000D01*
X152955000Y-93548333D01*
X152955000Y-93448333D01*
X152988333Y-93381666D01*
X153021666Y-93348333D01*
X153421666Y-94815000D02*
X152721666Y-94815000D01*
X153388333Y-94815000D02*
X153421666Y-94748333D01*
X153421666Y-94615000D01*
X153388333Y-94548333D01*
X153355000Y-94515000D01*
X153288333Y-94481666D01*
X153088333Y-94481666D01*
X153021666Y-94515000D01*
X152988333Y-94548333D01*
X152955000Y-94615000D01*
X152955000Y-94748333D01*
X152988333Y-94815000D01*
X153421666Y-95148333D02*
X152955000Y-95148333D01*
X153088333Y-95148333D02*
X153021666Y-95181666D01*
X152988333Y-95215000D01*
X152955000Y-95281666D01*
X152955000Y-95348333D01*
X153421666Y-95581666D02*
X152955000Y-95581666D01*
X152721666Y-95581666D02*
X152755000Y-95548333D01*
X152788333Y-95581666D01*
X152755000Y-95615000D01*
X152721666Y-95581666D01*
X152788333Y-95581666D01*
X152955000Y-95848333D02*
X153421666Y-96015000D01*
X152955000Y-96181666D01*
X153388333Y-96715000D02*
X153421666Y-96648333D01*
X153421666Y-96515000D01*
X153388333Y-96448333D01*
X153321666Y-96415000D01*
X153055000Y-96415000D01*
X152988333Y-96448333D01*
X152955000Y-96515000D01*
X152955000Y-96648333D01*
X152988333Y-96715000D01*
X153055000Y-96748333D01*
X153121666Y-96748333D01*
X153188333Y-96415000D01*
X153421666Y-97048333D02*
X152955000Y-97048333D01*
X153088333Y-97048333D02*
X153021666Y-97081666D01*
X152988333Y-97115000D01*
X152955000Y-97181666D01*
X152955000Y-97248333D01*
X154621666Y-93398333D02*
X154155000Y-93398333D01*
X154288333Y-93398333D02*
X154221666Y-93431666D01*
X154188333Y-93465000D01*
X154155000Y-93531666D01*
X154155000Y-93598333D01*
X154588333Y-94098333D02*
X154621666Y-94031666D01*
X154621666Y-93898333D01*
X154588333Y-93831666D01*
X154521666Y-93798333D01*
X154255000Y-93798333D01*
X154188333Y-93831666D01*
X154155000Y-93898333D01*
X154155000Y-94031666D01*
X154188333Y-94098333D01*
X154255000Y-94131666D01*
X154321666Y-94131666D01*
X154388333Y-93798333D01*
X154155000Y-94365000D02*
X154621666Y-94531666D01*
X154155000Y-94698333D01*
X154621666Y-95865000D02*
X154621666Y-95465000D01*
X154621666Y-95665000D02*
X153921666Y-95665000D01*
X154021666Y-95598333D01*
X154088333Y-95531666D01*
X154121666Y-95465000D01*
X155821666Y-89948333D02*
X155121666Y-89948333D01*
X155388333Y-89948333D02*
X155355000Y-90015000D01*
X155355000Y-90148333D01*
X155388333Y-90215000D01*
X155421666Y-90248333D01*
X155488333Y-90281666D01*
X155688333Y-90281666D01*
X155755000Y-90248333D01*
X155788333Y-90215000D01*
X155821666Y-90148333D01*
X155821666Y-90015000D01*
X155788333Y-89948333D01*
X155355000Y-90515000D02*
X155821666Y-90681666D01*
X155355000Y-90848333D02*
X155821666Y-90681666D01*
X155988333Y-90615000D01*
X156021666Y-90581666D01*
X156055000Y-90515000D01*
X155455000Y-91648333D02*
X155455000Y-91881666D01*
X155821666Y-91981666D02*
X155821666Y-91648333D01*
X155121666Y-91648333D01*
X155121666Y-91981666D01*
X155821666Y-92281666D02*
X155355000Y-92281666D01*
X155488333Y-92281666D02*
X155421666Y-92315000D01*
X155388333Y-92348333D01*
X155355000Y-92415000D01*
X155355000Y-92481666D01*
X155821666Y-92715000D02*
X155355000Y-92715000D01*
X155121666Y-92715000D02*
X155155000Y-92681666D01*
X155188333Y-92715000D01*
X155155000Y-92748333D01*
X155121666Y-92715000D01*
X155188333Y-92715000D01*
X155788333Y-93348333D02*
X155821666Y-93281666D01*
X155821666Y-93148333D01*
X155788333Y-93081666D01*
X155755000Y-93048333D01*
X155688333Y-93015000D01*
X155488333Y-93015000D01*
X155421666Y-93048333D01*
X155388333Y-93081666D01*
X155355000Y-93148333D01*
X155355000Y-93281666D01*
X155388333Y-93348333D01*
X155121666Y-94081666D02*
X155821666Y-94315000D01*
X155121666Y-94548333D01*
X155821666Y-95081666D02*
X155455000Y-95081666D01*
X155388333Y-95048333D01*
X155355000Y-94981666D01*
X155355000Y-94848333D01*
X155388333Y-94781666D01*
X155788333Y-95081666D02*
X155821666Y-95015000D01*
X155821666Y-94848333D01*
X155788333Y-94781666D01*
X155721666Y-94748333D01*
X155655000Y-94748333D01*
X155588333Y-94781666D01*
X155555000Y-94848333D01*
X155555000Y-95015000D01*
X155521666Y-95081666D01*
X155355000Y-95415000D02*
X155821666Y-95415000D01*
X155421666Y-95415000D02*
X155388333Y-95448333D01*
X155355000Y-95515000D01*
X155355000Y-95615000D01*
X155388333Y-95681666D01*
X155455000Y-95715000D01*
X155821666Y-95715000D01*
X155621666Y-96548333D02*
X155621666Y-96881666D01*
X155821666Y-96481666D02*
X155121666Y-96715000D01*
X155821666Y-96948333D01*
X155821666Y-97281666D02*
X155788333Y-97215000D01*
X155721666Y-97181666D01*
X155121666Y-97181666D01*
X155821666Y-97548333D02*
X155121666Y-97548333D01*
X155388333Y-97548333D02*
X155355000Y-97615000D01*
X155355000Y-97748333D01*
X155388333Y-97815000D01*
X155421666Y-97848333D01*
X155488333Y-97881666D01*
X155688333Y-97881666D01*
X155755000Y-97848333D01*
X155788333Y-97815000D01*
X155821666Y-97748333D01*
X155821666Y-97615000D01*
X155788333Y-97548333D01*
X155788333Y-98448333D02*
X155821666Y-98381666D01*
X155821666Y-98248333D01*
X155788333Y-98181666D01*
X155721666Y-98148333D01*
X155455000Y-98148333D01*
X155388333Y-98181666D01*
X155355000Y-98248333D01*
X155355000Y-98381666D01*
X155388333Y-98448333D01*
X155455000Y-98481666D01*
X155521666Y-98481666D01*
X155588333Y-98148333D01*
X155821666Y-98781666D02*
X155355000Y-98781666D01*
X155488333Y-98781666D02*
X155421666Y-98815000D01*
X155388333Y-98848333D01*
X155355000Y-98915000D01*
X155355000Y-98981666D01*
X155355000Y-99115000D02*
X155355000Y-99381666D01*
X155121666Y-99215000D02*
X155721666Y-99215000D01*
X155788333Y-99248333D01*
X155821666Y-99315000D01*
X155821666Y-99381666D01*
D11*
X152217380Y-89900714D02*
X151741190Y-89567380D01*
X152217380Y-89329285D02*
X151217380Y-89329285D01*
X151217380Y-89710238D01*
X151265000Y-89805476D01*
X151312619Y-89853095D01*
X151407857Y-89900714D01*
X151550714Y-89900714D01*
X151645952Y-89853095D01*
X151693571Y-89805476D01*
X151741190Y-89710238D01*
X151741190Y-89329285D01*
X152217380Y-90757857D02*
X151693571Y-90757857D01*
X151598333Y-90710238D01*
X151550714Y-90615000D01*
X151550714Y-90424523D01*
X151598333Y-90329285D01*
X152169761Y-90757857D02*
X152217380Y-90662619D01*
X152217380Y-90424523D01*
X152169761Y-90329285D01*
X152074523Y-90281666D01*
X151979285Y-90281666D01*
X151884047Y-90329285D01*
X151836428Y-90424523D01*
X151836428Y-90662619D01*
X151788809Y-90757857D01*
X152217380Y-91234047D02*
X151550714Y-91234047D01*
X151217380Y-91234047D02*
X151265000Y-91186428D01*
X151312619Y-91234047D01*
X151265000Y-91281666D01*
X151217380Y-91234047D01*
X151312619Y-91234047D01*
X151550714Y-91710238D02*
X152217380Y-91710238D01*
X151645952Y-91710238D02*
X151598333Y-91757857D01*
X151550714Y-91853095D01*
X151550714Y-91995952D01*
X151598333Y-92091190D01*
X151693571Y-92138809D01*
X152217380Y-92138809D01*
X152217380Y-92615000D02*
X151217380Y-92615000D01*
X151598333Y-92615000D02*
X151550714Y-92710238D01*
X151550714Y-92900714D01*
X151598333Y-92995952D01*
X151645952Y-93043571D01*
X151741190Y-93091190D01*
X152026904Y-93091190D01*
X152122142Y-93043571D01*
X152169761Y-92995952D01*
X152217380Y-92900714D01*
X152217380Y-92710238D01*
X152169761Y-92615000D01*
X152217380Y-93662619D02*
X152169761Y-93567380D01*
X152122142Y-93519761D01*
X152026904Y-93472142D01*
X151741190Y-93472142D01*
X151645952Y-93519761D01*
X151598333Y-93567380D01*
X151550714Y-93662619D01*
X151550714Y-93805476D01*
X151598333Y-93900714D01*
X151645952Y-93948333D01*
X151741190Y-93995952D01*
X152026904Y-93995952D01*
X152122142Y-93948333D01*
X152169761Y-93900714D01*
X152217380Y-93805476D01*
X152217380Y-93662619D01*
X151550714Y-94329285D02*
X152217380Y-94519761D01*
X151741190Y-94710238D01*
X152217380Y-94900714D01*
X151550714Y-95091190D01*
X151217380Y-96091190D02*
X152217380Y-96424523D01*
X151217380Y-96757857D01*
X152217380Y-97234047D02*
X152169761Y-97138809D01*
X152122142Y-97091190D01*
X152026904Y-97043571D01*
X151741190Y-97043571D01*
X151645952Y-97091190D01*
X151598333Y-97138809D01*
X151550714Y-97234047D01*
X151550714Y-97376904D01*
X151598333Y-97472142D01*
X151645952Y-97519761D01*
X151741190Y-97567380D01*
X152026904Y-97567380D01*
X152122142Y-97519761D01*
X152169761Y-97472142D01*
X152217380Y-97376904D01*
X152217380Y-97234047D01*
X152217380Y-97995952D02*
X151550714Y-97995952D01*
X151645952Y-97995952D02*
X151598333Y-98043571D01*
X151550714Y-98138809D01*
X151550714Y-98281666D01*
X151598333Y-98376904D01*
X151693571Y-98424523D01*
X152217380Y-98424523D01*
X151693571Y-98424523D02*
X151598333Y-98472142D01*
X151550714Y-98567380D01*
X151550714Y-98710238D01*
X151598333Y-98805476D01*
X151693571Y-98853095D01*
X152217380Y-98853095D01*
X152217380Y-99329285D02*
X151550714Y-99329285D01*
X151217380Y-99329285D02*
X151265000Y-99281666D01*
X151312619Y-99329285D01*
X151265000Y-99376904D01*
X151217380Y-99329285D01*
X151312619Y-99329285D01*
X151550714Y-99662619D02*
X151550714Y-100043571D01*
X151217380Y-99805476D02*
X152074523Y-99805476D01*
X152169761Y-99853095D01*
X152217380Y-99948333D01*
X152217380Y-100043571D01*
X130809904Y-116467000D02*
X130905142Y-116419380D01*
X131048000Y-116419380D01*
X131190857Y-116467000D01*
X131286095Y-116562238D01*
X131333714Y-116657476D01*
X131381333Y-116847952D01*
X131381333Y-116990809D01*
X131333714Y-117181285D01*
X131286095Y-117276523D01*
X131190857Y-117371761D01*
X131048000Y-117419380D01*
X130952761Y-117419380D01*
X130809904Y-117371761D01*
X130762285Y-117324142D01*
X130762285Y-116990809D01*
X130952761Y-116990809D01*
X130333714Y-117419380D02*
X130333714Y-116419380D01*
X129762285Y-117419380D01*
X129762285Y-116419380D01*
X129286095Y-117419380D02*
X129286095Y-116419380D01*
X129048000Y-116419380D01*
X128905142Y-116467000D01*
X128809904Y-116562238D01*
X128762285Y-116657476D01*
X128714666Y-116847952D01*
X128714666Y-116990809D01*
X128762285Y-117181285D01*
X128809904Y-117276523D01*
X128905142Y-117371761D01*
X129048000Y-117419380D01*
X129286095Y-117419380D01*
X152653904Y-116467000D02*
X152749142Y-116419380D01*
X152892000Y-116419380D01*
X153034857Y-116467000D01*
X153130095Y-116562238D01*
X153177714Y-116657476D01*
X153225333Y-116847952D01*
X153225333Y-116990809D01*
X153177714Y-117181285D01*
X153130095Y-117276523D01*
X153034857Y-117371761D01*
X152892000Y-117419380D01*
X152796761Y-117419380D01*
X152653904Y-117371761D01*
X152606285Y-117324142D01*
X152606285Y-116990809D01*
X152796761Y-116990809D01*
X152177714Y-117419380D02*
X152177714Y-116419380D01*
X151606285Y-117419380D01*
X151606285Y-116419380D01*
X151130095Y-117419380D02*
X151130095Y-116419380D01*
X150892000Y-116419380D01*
X150749142Y-116467000D01*
X150653904Y-116562238D01*
X150606285Y-116657476D01*
X150558666Y-116847952D01*
X150558666Y-116990809D01*
X150606285Y-117181285D01*
X150653904Y-117276523D01*
X150749142Y-117371761D01*
X150892000Y-117419380D01*
X151130095Y-117419380D01*
X151955476Y-105497380D02*
X152431666Y-105497380D01*
X152479285Y-105973571D01*
X152431666Y-105925952D01*
X152336428Y-105878333D01*
X152098333Y-105878333D01*
X152003095Y-105925952D01*
X151955476Y-105973571D01*
X151907857Y-106068809D01*
X151907857Y-106306904D01*
X151955476Y-106402142D01*
X152003095Y-106449761D01*
X152098333Y-106497380D01*
X152336428Y-106497380D01*
X152431666Y-106449761D01*
X152479285Y-106402142D01*
X151622142Y-105497380D02*
X151288809Y-106497380D01*
X150955476Y-105497380D01*
D12*
X150260000Y-107673857D02*
X149460000Y-107673857D01*
X149974285Y-108873857D01*
X147091428Y-107673857D02*
X147320000Y-107673857D01*
X147434285Y-107731000D01*
X147491428Y-107788142D01*
X147605714Y-107959571D01*
X147662857Y-108188142D01*
X147662857Y-108645285D01*
X147605714Y-108759571D01*
X147548571Y-108816714D01*
X147434285Y-108873857D01*
X147205714Y-108873857D01*
X147091428Y-108816714D01*
X147034285Y-108759571D01*
X146977142Y-108645285D01*
X146977142Y-108359571D01*
X147034285Y-108245285D01*
X147091428Y-108188142D01*
X147205714Y-108131000D01*
X147434285Y-108131000D01*
X147548571Y-108188142D01*
X147605714Y-108245285D01*
X147662857Y-108359571D01*
X144494285Y-107673857D02*
X145065714Y-107673857D01*
X145122857Y-108245285D01*
X145065714Y-108188142D01*
X144951428Y-108131000D01*
X144665714Y-108131000D01*
X144551428Y-108188142D01*
X144494285Y-108245285D01*
X144437142Y-108359571D01*
X144437142Y-108645285D01*
X144494285Y-108759571D01*
X144551428Y-108816714D01*
X144665714Y-108873857D01*
X144951428Y-108873857D01*
X145065714Y-108816714D01*
X145122857Y-108759571D01*
X142011428Y-108073857D02*
X142011428Y-108873857D01*
X142297142Y-107616714D02*
X142582857Y-108473857D01*
X141840000Y-108473857D01*
X140100000Y-107673857D02*
X139357142Y-107673857D01*
X139757142Y-108131000D01*
X139585714Y-108131000D01*
X139471428Y-108188142D01*
X139414285Y-108245285D01*
X139357142Y-108359571D01*
X139357142Y-108645285D01*
X139414285Y-108759571D01*
X139471428Y-108816714D01*
X139585714Y-108873857D01*
X139928571Y-108873857D01*
X140042857Y-108816714D01*
X140100000Y-108759571D01*
X137502857Y-107788142D02*
X137445714Y-107731000D01*
X137331428Y-107673857D01*
X137045714Y-107673857D01*
X136931428Y-107731000D01*
X136874285Y-107788142D01*
X136817142Y-107902428D01*
X136817142Y-108016714D01*
X136874285Y-108188142D01*
X137560000Y-108873857D01*
X136817142Y-108873857D01*
X134277142Y-108873857D02*
X134962857Y-108873857D01*
X134620000Y-108873857D02*
X134620000Y-107673857D01*
X134734285Y-107845285D01*
X134848571Y-107959571D01*
X134962857Y-108016714D01*
X132137142Y-107673857D02*
X132022857Y-107673857D01*
X131908571Y-107731000D01*
X131851428Y-107788142D01*
X131794285Y-107902428D01*
X131737142Y-108131000D01*
X131737142Y-108416714D01*
X131794285Y-108645285D01*
X131851428Y-108759571D01*
X131908571Y-108816714D01*
X132022857Y-108873857D01*
X132137142Y-108873857D01*
X132251428Y-108816714D01*
X132308571Y-108759571D01*
X132365714Y-108645285D01*
X132422857Y-108416714D01*
X132422857Y-108131000D01*
X132365714Y-107902428D01*
X132308571Y-107788142D01*
X132251428Y-107731000D01*
X132137142Y-107673857D01*
D11*
X130365476Y-105497380D02*
X130841666Y-105497380D01*
X130889285Y-105973571D01*
X130841666Y-105925952D01*
X130746428Y-105878333D01*
X130508333Y-105878333D01*
X130413095Y-105925952D01*
X130365476Y-105973571D01*
X130317857Y-106068809D01*
X130317857Y-106306904D01*
X130365476Y-106402142D01*
X130413095Y-106449761D01*
X130508333Y-106497380D01*
X130746428Y-106497380D01*
X130841666Y-106449761D01*
X130889285Y-106402142D01*
X130032142Y-105497380D02*
X129698809Y-106497380D01*
X129365476Y-105497380D01*
D10*
G04 #@! TO.C,U2*
X135795000Y-88240000D02*
X136870000Y-88240000D01*
X135795000Y-98590000D02*
X136870000Y-98590000D01*
X146145000Y-98590000D02*
X145070000Y-98590000D01*
X146145000Y-88240000D02*
X145070000Y-88240000D01*
X135795000Y-88240000D02*
X135795000Y-89315000D01*
X146145000Y-88240000D02*
X146145000Y-89315000D01*
X146145000Y-98590000D02*
X146145000Y-97515000D01*
X135795000Y-98590000D02*
X135795000Y-97515000D01*
X136870000Y-88240000D02*
X136870000Y-87215000D01*
G04 #@! TO.C,C1*
X148940000Y-86395000D02*
X148240000Y-86395000D01*
X148240000Y-87595000D02*
X148940000Y-87595000D01*
G04 #@! TO.C,C2*
X148240000Y-85055000D02*
X148940000Y-85055000D01*
X148940000Y-83855000D02*
X148240000Y-83855000D01*
G04 #@! TO.C,C3*
X130140000Y-85325000D02*
X130140000Y-84625000D01*
X128940000Y-84625000D02*
X128940000Y-85325000D01*
G04 #@! TO.C,C4*
X133000000Y-79340000D02*
X133700000Y-79340000D01*
X133700000Y-78140000D02*
X133000000Y-78140000D01*
G04 #@! TO.C,D1*
X151765000Y-84070000D02*
X151765000Y-84320000D01*
X151765000Y-83570000D02*
X151765000Y-83320000D01*
X151765000Y-83570000D02*
X151415000Y-84070000D01*
X151415000Y-84070000D02*
X152115000Y-84070000D01*
X152115000Y-84070000D02*
X151765000Y-83570000D01*
X151415000Y-83570000D02*
X152115000Y-83570000D01*
X152565000Y-82520000D02*
X152565000Y-84920000D01*
X150965000Y-82520000D02*
X150965000Y-84920000D01*
G04 #@! TO.C,D2*
X146080000Y-84290000D02*
X143680000Y-84290000D01*
X146080000Y-85890000D02*
X143680000Y-85890000D01*
X145030000Y-84740000D02*
X145030000Y-85440000D01*
X144530000Y-85440000D02*
X145030000Y-85090000D01*
X144530000Y-84740000D02*
X144530000Y-85440000D01*
X145030000Y-85090000D02*
X144530000Y-84740000D01*
X145030000Y-85090000D02*
X145280000Y-85090000D01*
X144530000Y-85090000D02*
X144280000Y-85090000D01*
G04 #@! TO.C,R1*
X131405000Y-105545000D02*
X131405000Y-106545000D01*
X132755000Y-106545000D02*
X132755000Y-105545000D01*
G04 #@! TO.C,R3*
X135295000Y-106545000D02*
X135295000Y-105545000D01*
X133945000Y-105545000D02*
X133945000Y-106545000D01*
G04 #@! TO.C,R6*
X136485000Y-105545000D02*
X136485000Y-106545000D01*
X137835000Y-106545000D02*
X137835000Y-105545000D01*
G04 #@! TO.C,R9*
X140375000Y-106545000D02*
X140375000Y-105545000D01*
X139025000Y-105545000D02*
X139025000Y-106545000D01*
G04 #@! TO.C,R11*
X141565000Y-105545000D02*
X141565000Y-106545000D01*
X142915000Y-106545000D02*
X142915000Y-105545000D01*
G04 #@! TO.C,R13*
X145455000Y-106545000D02*
X145455000Y-105545000D01*
X144105000Y-105545000D02*
X144105000Y-106545000D01*
G04 #@! TO.C,R15*
X146645000Y-105545000D02*
X146645000Y-106545000D01*
X147995000Y-106545000D02*
X147995000Y-105545000D01*
G04 #@! TO.C,R17*
X149185000Y-105545000D02*
X149185000Y-106545000D01*
X150535000Y-106545000D02*
X150535000Y-105545000D01*
G04 #@! TO.C,U1*
X147290840Y-80629760D02*
X147339100Y-80629760D01*
X150089820Y-81330800D02*
X150089820Y-80629760D01*
X150089820Y-80629760D02*
X149840900Y-80629760D01*
X147290840Y-80629760D02*
X147090180Y-80629760D01*
X147090180Y-80629760D02*
X147090180Y-81330800D01*
G04 #@! TO.C,Y1*
X133150000Y-86420000D02*
X133150000Y-87120000D01*
X131650000Y-84520000D02*
X131150000Y-84520000D01*
X131650000Y-83117920D02*
X131650000Y-84520000D01*
X135050000Y-84521040D02*
X135050000Y-83118960D01*
X133150000Y-81220000D02*
X133550000Y-81220000D01*
X133150000Y-86420000D02*
X133550000Y-86420000D01*
G04 #@! TO.C,C5*
X130845000Y-89820000D02*
X130845000Y-90520000D01*
X132045000Y-90520000D02*
X132045000Y-89820000D01*
G04 #@! TO.C,C6*
X149825000Y-93175000D02*
X149825000Y-92475000D01*
X148625000Y-92475000D02*
X148625000Y-93175000D01*
G04 #@! TO.C,U2*
X133386666Y-92881666D02*
X133953333Y-92881666D01*
X134020000Y-92915000D01*
X134053333Y-92948333D01*
X134086666Y-93015000D01*
X134086666Y-93148333D01*
X134053333Y-93215000D01*
X134020000Y-93248333D01*
X133953333Y-93281666D01*
X133386666Y-93281666D01*
X133453333Y-93581666D02*
X133420000Y-93615000D01*
X133386666Y-93681666D01*
X133386666Y-93848333D01*
X133420000Y-93915000D01*
X133453333Y-93948333D01*
X133520000Y-93981666D01*
X133586666Y-93981666D01*
X133686666Y-93948333D01*
X134086666Y-93548333D01*
X134086666Y-93981666D01*
G04 #@! TO.C,C1*
X148706666Y-88515000D02*
X148740000Y-88548333D01*
X148840000Y-88581666D01*
X148906666Y-88581666D01*
X149006666Y-88548333D01*
X149073333Y-88481666D01*
X149106666Y-88415000D01*
X149140000Y-88281666D01*
X149140000Y-88181666D01*
X149106666Y-88048333D01*
X149073333Y-87981666D01*
X149006666Y-87915000D01*
X148906666Y-87881666D01*
X148840000Y-87881666D01*
X148740000Y-87915000D01*
X148706666Y-87948333D01*
X148040000Y-88581666D02*
X148440000Y-88581666D01*
X148240000Y-88581666D02*
X148240000Y-87881666D01*
X148306666Y-87981666D01*
X148373333Y-88048333D01*
X148440000Y-88081666D01*
G04 #@! TO.C,C2*
X148706666Y-85975000D02*
X148740000Y-86008333D01*
X148840000Y-86041666D01*
X148906666Y-86041666D01*
X149006666Y-86008333D01*
X149073333Y-85941666D01*
X149106666Y-85875000D01*
X149140000Y-85741666D01*
X149140000Y-85641666D01*
X149106666Y-85508333D01*
X149073333Y-85441666D01*
X149006666Y-85375000D01*
X148906666Y-85341666D01*
X148840000Y-85341666D01*
X148740000Y-85375000D01*
X148706666Y-85408333D01*
X148440000Y-85408333D02*
X148406666Y-85375000D01*
X148340000Y-85341666D01*
X148173333Y-85341666D01*
X148106666Y-85375000D01*
X148073333Y-85408333D01*
X148040000Y-85475000D01*
X148040000Y-85541666D01*
X148073333Y-85641666D01*
X148473333Y-86041666D01*
X148040000Y-86041666D01*
G04 #@! TO.C,C3*
X129656666Y-82800000D02*
X129690000Y-82833333D01*
X129790000Y-82866666D01*
X129856666Y-82866666D01*
X129956666Y-82833333D01*
X130023333Y-82766666D01*
X130056666Y-82700000D01*
X130090000Y-82566666D01*
X130090000Y-82466666D01*
X130056666Y-82333333D01*
X130023333Y-82266666D01*
X129956666Y-82200000D01*
X129856666Y-82166666D01*
X129790000Y-82166666D01*
X129690000Y-82200000D01*
X129656666Y-82233333D01*
X129423333Y-82166666D02*
X128990000Y-82166666D01*
X129223333Y-82433333D01*
X129123333Y-82433333D01*
X129056666Y-82466666D01*
X129023333Y-82500000D01*
X128990000Y-82566666D01*
X128990000Y-82733333D01*
X129023333Y-82800000D01*
X129056666Y-82833333D01*
X129123333Y-82866666D01*
X129323333Y-82866666D01*
X129390000Y-82833333D01*
X129423333Y-82800000D01*
G04 #@! TO.C,C4*
X136006666Y-78990000D02*
X136040000Y-79023333D01*
X136140000Y-79056666D01*
X136206666Y-79056666D01*
X136306666Y-79023333D01*
X136373333Y-78956666D01*
X136406666Y-78890000D01*
X136440000Y-78756666D01*
X136440000Y-78656666D01*
X136406666Y-78523333D01*
X136373333Y-78456666D01*
X136306666Y-78390000D01*
X136206666Y-78356666D01*
X136140000Y-78356666D01*
X136040000Y-78390000D01*
X136006666Y-78423333D01*
X135406666Y-78590000D02*
X135406666Y-79056666D01*
X135573333Y-78323333D02*
X135740000Y-78823333D01*
X135306666Y-78823333D01*
G04 #@! TO.C,D1*
X152281666Y-86295666D02*
X152281666Y-85595666D01*
X152115000Y-85595666D01*
X152015000Y-85629000D01*
X151948333Y-85695666D01*
X151915000Y-85762333D01*
X151881666Y-85895666D01*
X151881666Y-85995666D01*
X151915000Y-86129000D01*
X151948333Y-86195666D01*
X152015000Y-86262333D01*
X152115000Y-86295666D01*
X152281666Y-86295666D01*
X151215000Y-86295666D02*
X151615000Y-86295666D01*
X151415000Y-86295666D02*
X151415000Y-85595666D01*
X151481666Y-85695666D01*
X151548333Y-85762333D01*
X151615000Y-85795666D01*
G04 #@! TO.C,D2*
X143010666Y-85406666D02*
X143010666Y-84706666D01*
X142844000Y-84706666D01*
X142744000Y-84740000D01*
X142677333Y-84806666D01*
X142644000Y-84873333D01*
X142610666Y-85006666D01*
X142610666Y-85106666D01*
X142644000Y-85240000D01*
X142677333Y-85306666D01*
X142744000Y-85373333D01*
X142844000Y-85406666D01*
X143010666Y-85406666D01*
X142344000Y-84773333D02*
X142310666Y-84740000D01*
X142244000Y-84706666D01*
X142077333Y-84706666D01*
X142010666Y-84740000D01*
X141977333Y-84773333D01*
X141944000Y-84840000D01*
X141944000Y-84906666D01*
X141977333Y-85006666D01*
X142377333Y-85406666D01*
X141944000Y-85406666D01*
G04 #@! TO.C,R1*
X132196666Y-104456666D02*
X132430000Y-104123333D01*
X132596666Y-104456666D02*
X132596666Y-103756666D01*
X132330000Y-103756666D01*
X132263333Y-103790000D01*
X132230000Y-103823333D01*
X132196666Y-103890000D01*
X132196666Y-103990000D01*
X132230000Y-104056666D01*
X132263333Y-104090000D01*
X132330000Y-104123333D01*
X132596666Y-104123333D01*
X131530000Y-104456666D02*
X131930000Y-104456666D01*
X131730000Y-104456666D02*
X131730000Y-103756666D01*
X131796666Y-103856666D01*
X131863333Y-103923333D01*
X131930000Y-103956666D01*
G04 #@! TO.C,R3*
X134736666Y-104456666D02*
X134970000Y-104123333D01*
X135136666Y-104456666D02*
X135136666Y-103756666D01*
X134870000Y-103756666D01*
X134803333Y-103790000D01*
X134770000Y-103823333D01*
X134736666Y-103890000D01*
X134736666Y-103990000D01*
X134770000Y-104056666D01*
X134803333Y-104090000D01*
X134870000Y-104123333D01*
X135136666Y-104123333D01*
X134503333Y-103756666D02*
X134070000Y-103756666D01*
X134303333Y-104023333D01*
X134203333Y-104023333D01*
X134136666Y-104056666D01*
X134103333Y-104090000D01*
X134070000Y-104156666D01*
X134070000Y-104323333D01*
X134103333Y-104390000D01*
X134136666Y-104423333D01*
X134203333Y-104456666D01*
X134403333Y-104456666D01*
X134470000Y-104423333D01*
X134503333Y-104390000D01*
G04 #@! TO.C,R6*
X137276666Y-104456666D02*
X137510000Y-104123333D01*
X137676666Y-104456666D02*
X137676666Y-103756666D01*
X137410000Y-103756666D01*
X137343333Y-103790000D01*
X137310000Y-103823333D01*
X137276666Y-103890000D01*
X137276666Y-103990000D01*
X137310000Y-104056666D01*
X137343333Y-104090000D01*
X137410000Y-104123333D01*
X137676666Y-104123333D01*
X136676666Y-103756666D02*
X136810000Y-103756666D01*
X136876666Y-103790000D01*
X136910000Y-103823333D01*
X136976666Y-103923333D01*
X137010000Y-104056666D01*
X137010000Y-104323333D01*
X136976666Y-104390000D01*
X136943333Y-104423333D01*
X136876666Y-104456666D01*
X136743333Y-104456666D01*
X136676666Y-104423333D01*
X136643333Y-104390000D01*
X136610000Y-104323333D01*
X136610000Y-104156666D01*
X136643333Y-104090000D01*
X136676666Y-104056666D01*
X136743333Y-104023333D01*
X136876666Y-104023333D01*
X136943333Y-104056666D01*
X136976666Y-104090000D01*
X137010000Y-104156666D01*
G04 #@! TO.C,R9*
X139816666Y-104456666D02*
X140050000Y-104123333D01*
X140216666Y-104456666D02*
X140216666Y-103756666D01*
X139950000Y-103756666D01*
X139883333Y-103790000D01*
X139850000Y-103823333D01*
X139816666Y-103890000D01*
X139816666Y-103990000D01*
X139850000Y-104056666D01*
X139883333Y-104090000D01*
X139950000Y-104123333D01*
X140216666Y-104123333D01*
X139483333Y-104456666D02*
X139350000Y-104456666D01*
X139283333Y-104423333D01*
X139250000Y-104390000D01*
X139183333Y-104290000D01*
X139150000Y-104156666D01*
X139150000Y-103890000D01*
X139183333Y-103823333D01*
X139216666Y-103790000D01*
X139283333Y-103756666D01*
X139416666Y-103756666D01*
X139483333Y-103790000D01*
X139516666Y-103823333D01*
X139550000Y-103890000D01*
X139550000Y-104056666D01*
X139516666Y-104123333D01*
X139483333Y-104156666D01*
X139416666Y-104190000D01*
X139283333Y-104190000D01*
X139216666Y-104156666D01*
X139183333Y-104123333D01*
X139150000Y-104056666D01*
G04 #@! TO.C,R11*
X142690000Y-104456666D02*
X142923333Y-104123333D01*
X143090000Y-104456666D02*
X143090000Y-103756666D01*
X142823333Y-103756666D01*
X142756666Y-103790000D01*
X142723333Y-103823333D01*
X142690000Y-103890000D01*
X142690000Y-103990000D01*
X142723333Y-104056666D01*
X142756666Y-104090000D01*
X142823333Y-104123333D01*
X143090000Y-104123333D01*
X142023333Y-104456666D02*
X142423333Y-104456666D01*
X142223333Y-104456666D02*
X142223333Y-103756666D01*
X142290000Y-103856666D01*
X142356666Y-103923333D01*
X142423333Y-103956666D01*
X141356666Y-104456666D02*
X141756666Y-104456666D01*
X141556666Y-104456666D02*
X141556666Y-103756666D01*
X141623333Y-103856666D01*
X141690000Y-103923333D01*
X141756666Y-103956666D01*
G04 #@! TO.C,R13*
X145230000Y-104456666D02*
X145463333Y-104123333D01*
X145630000Y-104456666D02*
X145630000Y-103756666D01*
X145363333Y-103756666D01*
X145296666Y-103790000D01*
X145263333Y-103823333D01*
X145230000Y-103890000D01*
X145230000Y-103990000D01*
X145263333Y-104056666D01*
X145296666Y-104090000D01*
X145363333Y-104123333D01*
X145630000Y-104123333D01*
X144563333Y-104456666D02*
X144963333Y-104456666D01*
X144763333Y-104456666D02*
X144763333Y-103756666D01*
X144830000Y-103856666D01*
X144896666Y-103923333D01*
X144963333Y-103956666D01*
X144330000Y-103756666D02*
X143896666Y-103756666D01*
X144130000Y-104023333D01*
X144030000Y-104023333D01*
X143963333Y-104056666D01*
X143930000Y-104090000D01*
X143896666Y-104156666D01*
X143896666Y-104323333D01*
X143930000Y-104390000D01*
X143963333Y-104423333D01*
X144030000Y-104456666D01*
X144230000Y-104456666D01*
X144296666Y-104423333D01*
X144330000Y-104390000D01*
G04 #@! TO.C,R15*
X147770000Y-104456666D02*
X148003333Y-104123333D01*
X148170000Y-104456666D02*
X148170000Y-103756666D01*
X147903333Y-103756666D01*
X147836666Y-103790000D01*
X147803333Y-103823333D01*
X147770000Y-103890000D01*
X147770000Y-103990000D01*
X147803333Y-104056666D01*
X147836666Y-104090000D01*
X147903333Y-104123333D01*
X148170000Y-104123333D01*
X147103333Y-104456666D02*
X147503333Y-104456666D01*
X147303333Y-104456666D02*
X147303333Y-103756666D01*
X147370000Y-103856666D01*
X147436666Y-103923333D01*
X147503333Y-103956666D01*
X146470000Y-103756666D02*
X146803333Y-103756666D01*
X146836666Y-104090000D01*
X146803333Y-104056666D01*
X146736666Y-104023333D01*
X146570000Y-104023333D01*
X146503333Y-104056666D01*
X146470000Y-104090000D01*
X146436666Y-104156666D01*
X146436666Y-104323333D01*
X146470000Y-104390000D01*
X146503333Y-104423333D01*
X146570000Y-104456666D01*
X146736666Y-104456666D01*
X146803333Y-104423333D01*
X146836666Y-104390000D01*
G04 #@! TO.C,R17*
X150310000Y-104456666D02*
X150543333Y-104123333D01*
X150710000Y-104456666D02*
X150710000Y-103756666D01*
X150443333Y-103756666D01*
X150376666Y-103790000D01*
X150343333Y-103823333D01*
X150310000Y-103890000D01*
X150310000Y-103990000D01*
X150343333Y-104056666D01*
X150376666Y-104090000D01*
X150443333Y-104123333D01*
X150710000Y-104123333D01*
X149643333Y-104456666D02*
X150043333Y-104456666D01*
X149843333Y-104456666D02*
X149843333Y-103756666D01*
X149910000Y-103856666D01*
X149976666Y-103923333D01*
X150043333Y-103956666D01*
X149410000Y-103756666D02*
X148943333Y-103756666D01*
X149243333Y-104456666D01*
G04 #@! TO.C,U1*
X146583333Y-80896666D02*
X146583333Y-81463333D01*
X146550000Y-81530000D01*
X146516666Y-81563333D01*
X146450000Y-81596666D01*
X146316666Y-81596666D01*
X146250000Y-81563333D01*
X146216666Y-81530000D01*
X146183333Y-81463333D01*
X146183333Y-80896666D01*
X145483333Y-81596666D02*
X145883333Y-81596666D01*
X145683333Y-81596666D02*
X145683333Y-80896666D01*
X145750000Y-80996666D01*
X145816666Y-81063333D01*
X145883333Y-81096666D01*
G04 #@! TO.C,Y1*
X133683333Y-88121333D02*
X133683333Y-88454666D01*
X133916666Y-87754666D02*
X133683333Y-88121333D01*
X133450000Y-87754666D01*
X132850000Y-88454666D02*
X133250000Y-88454666D01*
X133050000Y-88454666D02*
X133050000Y-87754666D01*
X133116666Y-87854666D01*
X133183333Y-87921333D01*
X133250000Y-87954666D01*
G04 #@! TO.C,C5*
X130425000Y-90053333D02*
X130458333Y-90020000D01*
X130491666Y-89920000D01*
X130491666Y-89853333D01*
X130458333Y-89753333D01*
X130391666Y-89686666D01*
X130325000Y-89653333D01*
X130191666Y-89620000D01*
X130091666Y-89620000D01*
X129958333Y-89653333D01*
X129891666Y-89686666D01*
X129825000Y-89753333D01*
X129791666Y-89853333D01*
X129791666Y-89920000D01*
X129825000Y-90020000D01*
X129858333Y-90053333D01*
X129791666Y-90686666D02*
X129791666Y-90353333D01*
X130125000Y-90320000D01*
X130091666Y-90353333D01*
X130058333Y-90420000D01*
X130058333Y-90586666D01*
X130091666Y-90653333D01*
X130125000Y-90686666D01*
X130191666Y-90720000D01*
X130358333Y-90720000D01*
X130425000Y-90686666D01*
X130458333Y-90653333D01*
X130491666Y-90586666D01*
X130491666Y-90420000D01*
X130458333Y-90353333D01*
X130425000Y-90320000D01*
G04 #@! TO.C,C6*
X149341666Y-91055000D02*
X149375000Y-91088333D01*
X149475000Y-91121666D01*
X149541666Y-91121666D01*
X149641666Y-91088333D01*
X149708333Y-91021666D01*
X149741666Y-90955000D01*
X149775000Y-90821666D01*
X149775000Y-90721666D01*
X149741666Y-90588333D01*
X149708333Y-90521666D01*
X149641666Y-90455000D01*
X149541666Y-90421666D01*
X149475000Y-90421666D01*
X149375000Y-90455000D01*
X149341666Y-90488333D01*
X148741666Y-90421666D02*
X148875000Y-90421666D01*
X148941666Y-90455000D01*
X148975000Y-90488333D01*
X149041666Y-90588333D01*
X149075000Y-90721666D01*
X149075000Y-90988333D01*
X149041666Y-91055000D01*
X149008333Y-91088333D01*
X148941666Y-91121666D01*
X148808333Y-91121666D01*
X148741666Y-91088333D01*
X148708333Y-91055000D01*
X148675000Y-90988333D01*
X148675000Y-90821666D01*
X148708333Y-90755000D01*
X148741666Y-90721666D01*
X148808333Y-90688333D01*
X148941666Y-90688333D01*
X149008333Y-90721666D01*
X149041666Y-90755000D01*
X149075000Y-90821666D01*
G04 #@! TD*
M02*
