G04 #@! TF.GenerationSoftware,KiCad,Pcbnew,5.0.0*
G04 #@! TF.CreationDate,2018-11-12T22:36:05-05:00*
G04 #@! TF.ProjectId,dot-driver,646F742D6472697665722E6B69636164,rev?*
G04 #@! TF.SameCoordinates,Original*
G04 #@! TF.FileFunction,Paste,Top*
G04 #@! TF.FilePolarity,Positive*
%FSLAX46Y46*%
G04 Gerber Fmt 4.6, Leading zero omitted, Abs format (unit mm)*
G04 Created by KiCad (PCBNEW 5.0.0) date Mon Nov 12 22:36:05 2018*
%MOMM*%
%LPD*%
G01*
G04 APERTURE LIST*
%ADD10R,0.797560X0.797560*%
%ADD11R,0.400000X1.350000*%
%ADD12R,0.900000X0.500000*%
%ADD13R,0.500000X0.900000*%
%ADD14R,1.000000X1.700000*%
%ADD15R,1.900000X1.300000*%
%ADD16R,2.800000X1.000000*%
%ADD17R,0.800000X1.000000*%
%ADD18R,1.200000X1.000000*%
%ADD19R,1.200000X0.700000*%
G04 APERTURE END LIST*
D10*
G04 #@! TO.C,D8*
X142240000Y-106794300D03*
X142240000Y-105295700D03*
G04 #@! TD*
G04 #@! TO.C,D5*
X137160000Y-106794300D03*
X137160000Y-105295700D03*
G04 #@! TD*
G04 #@! TO.C,D3*
X132080000Y-105295700D03*
X132080000Y-106794300D03*
G04 #@! TD*
G04 #@! TO.C,D4*
X134620000Y-105295700D03*
X134620000Y-106794300D03*
G04 #@! TD*
G04 #@! TO.C,D6*
X147320000Y-79895700D03*
X147320000Y-81394300D03*
G04 #@! TD*
G04 #@! TO.C,D7*
X139700000Y-106794300D03*
X139700000Y-105295700D03*
G04 #@! TD*
G04 #@! TO.C,D9*
X144780000Y-105295700D03*
X144780000Y-106794300D03*
G04 #@! TD*
G04 #@! TO.C,D10*
X147320000Y-106794300D03*
X147320000Y-105295700D03*
G04 #@! TD*
G04 #@! TO.C,D11*
X149860000Y-105295700D03*
X149860000Y-106794300D03*
G04 #@! TD*
D11*
G04 #@! TO.C,J5*
X142270900Y-82207540D03*
X141620900Y-82207540D03*
X140970900Y-82207540D03*
X140320900Y-82207540D03*
X139670900Y-82207540D03*
G04 #@! TD*
D12*
G04 #@! TO.C,R2*
X132080000Y-103620000D03*
X132080000Y-102120000D03*
G04 #@! TD*
G04 #@! TO.C,R4*
X134620000Y-103620000D03*
X134620000Y-102120000D03*
G04 #@! TD*
D13*
G04 #@! TO.C,R5*
X133175000Y-93980000D03*
X131675000Y-93980000D03*
G04 #@! TD*
D12*
G04 #@! TO.C,R7*
X149860000Y-81395000D03*
X149860000Y-79895000D03*
G04 #@! TD*
G04 #@! TO.C,R8*
X137160000Y-102120000D03*
X137160000Y-103620000D03*
G04 #@! TD*
G04 #@! TO.C,R10*
X139700000Y-103620000D03*
X139700000Y-102120000D03*
G04 #@! TD*
G04 #@! TO.C,R12*
X142240000Y-102120000D03*
X142240000Y-103620000D03*
G04 #@! TD*
G04 #@! TO.C,R14*
X144780000Y-103620000D03*
X144780000Y-102120000D03*
G04 #@! TD*
G04 #@! TO.C,R16*
X147320000Y-102120000D03*
X147320000Y-103620000D03*
G04 #@! TD*
G04 #@! TO.C,R18*
X149860000Y-103620000D03*
X149860000Y-102120000D03*
G04 #@! TD*
D14*
G04 #@! TO.C,SW1*
X127640000Y-91415000D03*
X127640000Y-85115000D03*
X131440000Y-91415000D03*
X131440000Y-85115000D03*
G04 #@! TD*
D15*
G04 #@! TO.C,J14*
X150885000Y-84765000D03*
D16*
X150435000Y-98265000D03*
D17*
X146285000Y-98265000D03*
D18*
X140085000Y-98265000D03*
X135785000Y-87115000D03*
D19*
X135785000Y-95265000D03*
X135785000Y-94165000D03*
X135785000Y-93065000D03*
X135785000Y-91965000D03*
X135785000Y-90865000D03*
X135785000Y-89765000D03*
X135785000Y-88665000D03*
X135785000Y-96365000D03*
X135785000Y-97315000D03*
G04 #@! TD*
D10*
G04 #@! TO.C,D12*
X155168600Y-100965000D03*
X153670000Y-100965000D03*
G04 #@! TD*
D13*
G04 #@! TO.C,R19*
X153670000Y-102870000D03*
X155170000Y-102870000D03*
G04 #@! TD*
M02*
