G04 #@! TF.GenerationSoftware,KiCad,Pcbnew,5.1.5*
G04 #@! TF.CreationDate,2020-03-16T00:35:52-04:00*
G04 #@! TF.ProjectId,dot-driver,646f742d-6472-4697-9665-722e6b696361,rev?*
G04 #@! TF.SameCoordinates,Original*
G04 #@! TF.FileFunction,Legend,Bot*
G04 #@! TF.FilePolarity,Positive*
%FSLAX46Y46*%
G04 Gerber Fmt 4.6, Leading zero omitted, Abs format (unit mm)*
G04 Created by KiCad (PCBNEW 5.1.5) date 2020-03-16 00:35:52*
%MOMM*%
%LPD*%
G04 APERTURE LIST*
%ADD10C,0.150000*%
%ADD11C,0.200000*%
%ADD12C,0.300000*%
%ADD13C,0.600000*%
G04 APERTURE END LIST*
D10*
X148884666Y-91696000D02*
X148551333Y-91462666D01*
X148884666Y-91296000D02*
X148184666Y-91296000D01*
X148184666Y-91562666D01*
X148218000Y-91629333D01*
X148251333Y-91662666D01*
X148318000Y-91696000D01*
X148418000Y-91696000D01*
X148484666Y-91662666D01*
X148518000Y-91629333D01*
X148551333Y-91562666D01*
X148551333Y-91296000D01*
X148884666Y-92296000D02*
X148518000Y-92296000D01*
X148451333Y-92262666D01*
X148418000Y-92196000D01*
X148418000Y-92062666D01*
X148451333Y-91996000D01*
X148851333Y-92296000D02*
X148884666Y-92229333D01*
X148884666Y-92062666D01*
X148851333Y-91996000D01*
X148784666Y-91962666D01*
X148718000Y-91962666D01*
X148651333Y-91996000D01*
X148618000Y-92062666D01*
X148618000Y-92229333D01*
X148584666Y-92296000D01*
X148884666Y-92629333D02*
X148418000Y-92629333D01*
X148184666Y-92629333D02*
X148218000Y-92596000D01*
X148251333Y-92629333D01*
X148218000Y-92662666D01*
X148184666Y-92629333D01*
X148251333Y-92629333D01*
X148418000Y-92962666D02*
X148884666Y-92962666D01*
X148484666Y-92962666D02*
X148451333Y-92996000D01*
X148418000Y-93062666D01*
X148418000Y-93162666D01*
X148451333Y-93229333D01*
X148518000Y-93262666D01*
X148884666Y-93262666D01*
X148884666Y-93596000D02*
X148184666Y-93596000D01*
X148451333Y-93596000D02*
X148418000Y-93662666D01*
X148418000Y-93796000D01*
X148451333Y-93862666D01*
X148484666Y-93896000D01*
X148551333Y-93929333D01*
X148751333Y-93929333D01*
X148818000Y-93896000D01*
X148851333Y-93862666D01*
X148884666Y-93796000D01*
X148884666Y-93662666D01*
X148851333Y-93596000D01*
X148884666Y-94329333D02*
X148851333Y-94262666D01*
X148818000Y-94229333D01*
X148751333Y-94196000D01*
X148551333Y-94196000D01*
X148484666Y-94229333D01*
X148451333Y-94262666D01*
X148418000Y-94329333D01*
X148418000Y-94429333D01*
X148451333Y-94496000D01*
X148484666Y-94529333D01*
X148551333Y-94562666D01*
X148751333Y-94562666D01*
X148818000Y-94529333D01*
X148851333Y-94496000D01*
X148884666Y-94429333D01*
X148884666Y-94329333D01*
X148418000Y-94796000D02*
X148884666Y-94929333D01*
X148551333Y-95062666D01*
X148884666Y-95196000D01*
X148418000Y-95329333D01*
X148184666Y-96029333D02*
X148884666Y-96262666D01*
X148184666Y-96496000D01*
X148884666Y-96829333D02*
X148851333Y-96762666D01*
X148818000Y-96729333D01*
X148751333Y-96696000D01*
X148551333Y-96696000D01*
X148484666Y-96729333D01*
X148451333Y-96762666D01*
X148418000Y-96829333D01*
X148418000Y-96929333D01*
X148451333Y-96996000D01*
X148484666Y-97029333D01*
X148551333Y-97062666D01*
X148751333Y-97062666D01*
X148818000Y-97029333D01*
X148851333Y-96996000D01*
X148884666Y-96929333D01*
X148884666Y-96829333D01*
X148884666Y-97362666D02*
X148418000Y-97362666D01*
X148484666Y-97362666D02*
X148451333Y-97396000D01*
X148418000Y-97462666D01*
X148418000Y-97562666D01*
X148451333Y-97629333D01*
X148518000Y-97662666D01*
X148884666Y-97662666D01*
X148518000Y-97662666D02*
X148451333Y-97696000D01*
X148418000Y-97762666D01*
X148418000Y-97862666D01*
X148451333Y-97929333D01*
X148518000Y-97962666D01*
X148884666Y-97962666D01*
X148884666Y-98296000D02*
X148418000Y-98296000D01*
X148184666Y-98296000D02*
X148218000Y-98262666D01*
X148251333Y-98296000D01*
X148218000Y-98329333D01*
X148184666Y-98296000D01*
X148251333Y-98296000D01*
X148418000Y-98529333D02*
X148418000Y-98796000D01*
X148184666Y-98629333D02*
X148784666Y-98629333D01*
X148851333Y-98662666D01*
X148884666Y-98729333D01*
X148884666Y-98796000D01*
X149684666Y-92562666D02*
X149651333Y-92496000D01*
X149618000Y-92462666D01*
X149551333Y-92429333D01*
X149518000Y-92429333D01*
X149451333Y-92462666D01*
X149418000Y-92496000D01*
X149384666Y-92562666D01*
X149384666Y-92696000D01*
X149418000Y-92762666D01*
X149451333Y-92796000D01*
X149518000Y-92829333D01*
X149551333Y-92829333D01*
X149618000Y-92796000D01*
X149651333Y-92762666D01*
X149684666Y-92696000D01*
X149684666Y-92562666D01*
X149718000Y-92496000D01*
X149751333Y-92462666D01*
X149818000Y-92429333D01*
X149951333Y-92429333D01*
X150018000Y-92462666D01*
X150051333Y-92496000D01*
X150084666Y-92562666D01*
X150084666Y-92696000D01*
X150051333Y-92762666D01*
X150018000Y-92796000D01*
X149951333Y-92829333D01*
X149818000Y-92829333D01*
X149751333Y-92796000D01*
X149718000Y-92762666D01*
X149684666Y-92696000D01*
X150051333Y-93429333D02*
X150084666Y-93362666D01*
X150084666Y-93229333D01*
X150051333Y-93162666D01*
X150018000Y-93129333D01*
X149951333Y-93096000D01*
X149751333Y-93096000D01*
X149684666Y-93129333D01*
X149651333Y-93162666D01*
X149618000Y-93229333D01*
X149618000Y-93362666D01*
X149651333Y-93429333D01*
X150084666Y-93729333D02*
X149384666Y-93729333D01*
X150084666Y-94029333D02*
X149718000Y-94029333D01*
X149651333Y-93996000D01*
X149618000Y-93929333D01*
X149618000Y-93829333D01*
X149651333Y-93762666D01*
X149684666Y-93729333D01*
X150084666Y-95196000D02*
X149384666Y-95196000D01*
X150051333Y-95196000D02*
X150084666Y-95129333D01*
X150084666Y-94996000D01*
X150051333Y-94929333D01*
X150018000Y-94896000D01*
X149951333Y-94862666D01*
X149751333Y-94862666D01*
X149684666Y-94896000D01*
X149651333Y-94929333D01*
X149618000Y-94996000D01*
X149618000Y-95129333D01*
X149651333Y-95196000D01*
X150084666Y-95529333D02*
X149618000Y-95529333D01*
X149751333Y-95529333D02*
X149684666Y-95562666D01*
X149651333Y-95596000D01*
X149618000Y-95662666D01*
X149618000Y-95729333D01*
X150084666Y-95962666D02*
X149618000Y-95962666D01*
X149384666Y-95962666D02*
X149418000Y-95929333D01*
X149451333Y-95962666D01*
X149418000Y-95996000D01*
X149384666Y-95962666D01*
X149451333Y-95962666D01*
X149618000Y-96229333D02*
X150084666Y-96396000D01*
X149618000Y-96562666D01*
X150051333Y-97096000D02*
X150084666Y-97029333D01*
X150084666Y-96896000D01*
X150051333Y-96829333D01*
X149984666Y-96796000D01*
X149718000Y-96796000D01*
X149651333Y-96829333D01*
X149618000Y-96896000D01*
X149618000Y-97029333D01*
X149651333Y-97096000D01*
X149718000Y-97129333D01*
X149784666Y-97129333D01*
X149851333Y-96796000D01*
X150084666Y-97429333D02*
X149618000Y-97429333D01*
X149751333Y-97429333D02*
X149684666Y-97462666D01*
X149651333Y-97496000D01*
X149618000Y-97562666D01*
X149618000Y-97629333D01*
X151284666Y-93779333D02*
X150818000Y-93779333D01*
X150951333Y-93779333D02*
X150884666Y-93812666D01*
X150851333Y-93846000D01*
X150818000Y-93912666D01*
X150818000Y-93979333D01*
X151251333Y-94479333D02*
X151284666Y-94412666D01*
X151284666Y-94279333D01*
X151251333Y-94212666D01*
X151184666Y-94179333D01*
X150918000Y-94179333D01*
X150851333Y-94212666D01*
X150818000Y-94279333D01*
X150818000Y-94412666D01*
X150851333Y-94479333D01*
X150918000Y-94512666D01*
X150984666Y-94512666D01*
X151051333Y-94179333D01*
X150818000Y-94746000D02*
X151284666Y-94912666D01*
X150818000Y-95079333D01*
X150651333Y-95846000D02*
X150618000Y-95879333D01*
X150584666Y-95946000D01*
X150584666Y-96112666D01*
X150618000Y-96179333D01*
X150651333Y-96212666D01*
X150718000Y-96246000D01*
X150784666Y-96246000D01*
X150884666Y-96212666D01*
X151284666Y-95812666D01*
X151284666Y-96246000D01*
X152484666Y-90329333D02*
X151784666Y-90329333D01*
X152051333Y-90329333D02*
X152018000Y-90396000D01*
X152018000Y-90529333D01*
X152051333Y-90596000D01*
X152084666Y-90629333D01*
X152151333Y-90662666D01*
X152351333Y-90662666D01*
X152418000Y-90629333D01*
X152451333Y-90596000D01*
X152484666Y-90529333D01*
X152484666Y-90396000D01*
X152451333Y-90329333D01*
X152018000Y-90896000D02*
X152484666Y-91062666D01*
X152018000Y-91229333D02*
X152484666Y-91062666D01*
X152651333Y-90996000D01*
X152684666Y-90962666D01*
X152718000Y-90896000D01*
X152118000Y-92029333D02*
X152118000Y-92262666D01*
X152484666Y-92362666D02*
X152484666Y-92029333D01*
X151784666Y-92029333D01*
X151784666Y-92362666D01*
X152484666Y-92662666D02*
X152018000Y-92662666D01*
X152151333Y-92662666D02*
X152084666Y-92696000D01*
X152051333Y-92729333D01*
X152018000Y-92796000D01*
X152018000Y-92862666D01*
X152484666Y-93096000D02*
X152018000Y-93096000D01*
X151784666Y-93096000D02*
X151818000Y-93062666D01*
X151851333Y-93096000D01*
X151818000Y-93129333D01*
X151784666Y-93096000D01*
X151851333Y-93096000D01*
X152451333Y-93729333D02*
X152484666Y-93662666D01*
X152484666Y-93529333D01*
X152451333Y-93462666D01*
X152418000Y-93429333D01*
X152351333Y-93396000D01*
X152151333Y-93396000D01*
X152084666Y-93429333D01*
X152051333Y-93462666D01*
X152018000Y-93529333D01*
X152018000Y-93662666D01*
X152051333Y-93729333D01*
X151784666Y-94462666D02*
X152484666Y-94696000D01*
X151784666Y-94929333D01*
X152484666Y-95462666D02*
X152118000Y-95462666D01*
X152051333Y-95429333D01*
X152018000Y-95362666D01*
X152018000Y-95229333D01*
X152051333Y-95162666D01*
X152451333Y-95462666D02*
X152484666Y-95396000D01*
X152484666Y-95229333D01*
X152451333Y-95162666D01*
X152384666Y-95129333D01*
X152318000Y-95129333D01*
X152251333Y-95162666D01*
X152218000Y-95229333D01*
X152218000Y-95396000D01*
X152184666Y-95462666D01*
X152018000Y-95796000D02*
X152484666Y-95796000D01*
X152084666Y-95796000D02*
X152051333Y-95829333D01*
X152018000Y-95896000D01*
X152018000Y-95996000D01*
X152051333Y-96062666D01*
X152118000Y-96096000D01*
X152484666Y-96096000D01*
X152284666Y-96929333D02*
X152284666Y-97262666D01*
X152484666Y-96862666D02*
X151784666Y-97096000D01*
X152484666Y-97329333D01*
X152484666Y-97662666D02*
X152451333Y-97596000D01*
X152384666Y-97562666D01*
X151784666Y-97562666D01*
X152484666Y-97929333D02*
X151784666Y-97929333D01*
X152051333Y-97929333D02*
X152018000Y-97996000D01*
X152018000Y-98129333D01*
X152051333Y-98196000D01*
X152084666Y-98229333D01*
X152151333Y-98262666D01*
X152351333Y-98262666D01*
X152418000Y-98229333D01*
X152451333Y-98196000D01*
X152484666Y-98129333D01*
X152484666Y-97996000D01*
X152451333Y-97929333D01*
X152451333Y-98829333D02*
X152484666Y-98762666D01*
X152484666Y-98629333D01*
X152451333Y-98562666D01*
X152384666Y-98529333D01*
X152118000Y-98529333D01*
X152051333Y-98562666D01*
X152018000Y-98629333D01*
X152018000Y-98762666D01*
X152051333Y-98829333D01*
X152118000Y-98862666D01*
X152184666Y-98862666D01*
X152251333Y-98529333D01*
X152484666Y-99162666D02*
X152018000Y-99162666D01*
X152151333Y-99162666D02*
X152084666Y-99196000D01*
X152051333Y-99229333D01*
X152018000Y-99296000D01*
X152018000Y-99362666D01*
X152018000Y-99496000D02*
X152018000Y-99762666D01*
X151784666Y-99596000D02*
X152384666Y-99596000D01*
X152451333Y-99629333D01*
X152484666Y-99696000D01*
X152484666Y-99762666D01*
D11*
X127761904Y-109990000D02*
X127857142Y-109942380D01*
X128000000Y-109942380D01*
X128142857Y-109990000D01*
X128238095Y-110085238D01*
X128285714Y-110180476D01*
X128333333Y-110370952D01*
X128333333Y-110513809D01*
X128285714Y-110704285D01*
X128238095Y-110799523D01*
X128142857Y-110894761D01*
X128000000Y-110942380D01*
X127904761Y-110942380D01*
X127761904Y-110894761D01*
X127714285Y-110847142D01*
X127714285Y-110513809D01*
X127904761Y-110513809D01*
X127285714Y-110942380D02*
X127285714Y-109942380D01*
X126714285Y-110942380D01*
X126714285Y-109942380D01*
X126238095Y-110942380D02*
X126238095Y-109942380D01*
X126000000Y-109942380D01*
X125857142Y-109990000D01*
X125761904Y-110085238D01*
X125714285Y-110180476D01*
X125666666Y-110370952D01*
X125666666Y-110513809D01*
X125714285Y-110704285D01*
X125761904Y-110799523D01*
X125857142Y-110894761D01*
X126000000Y-110942380D01*
X126238095Y-110942380D01*
X155701904Y-109990000D02*
X155797142Y-109942380D01*
X155940000Y-109942380D01*
X156082857Y-109990000D01*
X156178095Y-110085238D01*
X156225714Y-110180476D01*
X156273333Y-110370952D01*
X156273333Y-110513809D01*
X156225714Y-110704285D01*
X156178095Y-110799523D01*
X156082857Y-110894761D01*
X155940000Y-110942380D01*
X155844761Y-110942380D01*
X155701904Y-110894761D01*
X155654285Y-110847142D01*
X155654285Y-110513809D01*
X155844761Y-110513809D01*
X155225714Y-110942380D02*
X155225714Y-109942380D01*
X154654285Y-110942380D01*
X154654285Y-109942380D01*
X154178095Y-110942380D02*
X154178095Y-109942380D01*
X153940000Y-109942380D01*
X153797142Y-109990000D01*
X153701904Y-110085238D01*
X153654285Y-110180476D01*
X153606666Y-110370952D01*
X153606666Y-110513809D01*
X153654285Y-110704285D01*
X153701904Y-110799523D01*
X153797142Y-110894761D01*
X153940000Y-110942380D01*
X154178095Y-110942380D01*
X154622476Y-105116380D02*
X155098666Y-105116380D01*
X155146285Y-105592571D01*
X155098666Y-105544952D01*
X155003428Y-105497333D01*
X154765333Y-105497333D01*
X154670095Y-105544952D01*
X154622476Y-105592571D01*
X154574857Y-105687809D01*
X154574857Y-105925904D01*
X154622476Y-106021142D01*
X154670095Y-106068761D01*
X154765333Y-106116380D01*
X155003428Y-106116380D01*
X155098666Y-106068761D01*
X155146285Y-106021142D01*
X154289142Y-105116380D02*
X153955809Y-106116380D01*
X153622476Y-105116380D01*
D12*
X150260000Y-104498857D02*
X149460000Y-104498857D01*
X149974285Y-105698857D01*
X147091428Y-104498857D02*
X147320000Y-104498857D01*
X147434285Y-104556000D01*
X147491428Y-104613142D01*
X147605714Y-104784571D01*
X147662857Y-105013142D01*
X147662857Y-105470285D01*
X147605714Y-105584571D01*
X147548571Y-105641714D01*
X147434285Y-105698857D01*
X147205714Y-105698857D01*
X147091428Y-105641714D01*
X147034285Y-105584571D01*
X146977142Y-105470285D01*
X146977142Y-105184571D01*
X147034285Y-105070285D01*
X147091428Y-105013142D01*
X147205714Y-104956000D01*
X147434285Y-104956000D01*
X147548571Y-105013142D01*
X147605714Y-105070285D01*
X147662857Y-105184571D01*
X144494285Y-104498857D02*
X145065714Y-104498857D01*
X145122857Y-105070285D01*
X145065714Y-105013142D01*
X144951428Y-104956000D01*
X144665714Y-104956000D01*
X144551428Y-105013142D01*
X144494285Y-105070285D01*
X144437142Y-105184571D01*
X144437142Y-105470285D01*
X144494285Y-105584571D01*
X144551428Y-105641714D01*
X144665714Y-105698857D01*
X144951428Y-105698857D01*
X145065714Y-105641714D01*
X145122857Y-105584571D01*
X142011428Y-104898857D02*
X142011428Y-105698857D01*
X142297142Y-104441714D02*
X142582857Y-105298857D01*
X141840000Y-105298857D01*
X140100000Y-104498857D02*
X139357142Y-104498857D01*
X139757142Y-104956000D01*
X139585714Y-104956000D01*
X139471428Y-105013142D01*
X139414285Y-105070285D01*
X139357142Y-105184571D01*
X139357142Y-105470285D01*
X139414285Y-105584571D01*
X139471428Y-105641714D01*
X139585714Y-105698857D01*
X139928571Y-105698857D01*
X140042857Y-105641714D01*
X140100000Y-105584571D01*
X137502857Y-104613142D02*
X137445714Y-104556000D01*
X137331428Y-104498857D01*
X137045714Y-104498857D01*
X136931428Y-104556000D01*
X136874285Y-104613142D01*
X136817142Y-104727428D01*
X136817142Y-104841714D01*
X136874285Y-105013142D01*
X137560000Y-105698857D01*
X136817142Y-105698857D01*
X134277142Y-105698857D02*
X134962857Y-105698857D01*
X134620000Y-105698857D02*
X134620000Y-104498857D01*
X134734285Y-104670285D01*
X134848571Y-104784571D01*
X134962857Y-104841714D01*
X132137142Y-104498857D02*
X132022857Y-104498857D01*
X131908571Y-104556000D01*
X131851428Y-104613142D01*
X131794285Y-104727428D01*
X131737142Y-104956000D01*
X131737142Y-105241714D01*
X131794285Y-105470285D01*
X131851428Y-105584571D01*
X131908571Y-105641714D01*
X132022857Y-105698857D01*
X132137142Y-105698857D01*
X132251428Y-105641714D01*
X132308571Y-105584571D01*
X132365714Y-105470285D01*
X132422857Y-105241714D01*
X132422857Y-104956000D01*
X132365714Y-104727428D01*
X132308571Y-104613142D01*
X132251428Y-104556000D01*
X132137142Y-104498857D01*
D11*
X127698476Y-105116380D02*
X128174666Y-105116380D01*
X128222285Y-105592571D01*
X128174666Y-105544952D01*
X128079428Y-105497333D01*
X127841333Y-105497333D01*
X127746095Y-105544952D01*
X127698476Y-105592571D01*
X127650857Y-105687809D01*
X127650857Y-105925904D01*
X127698476Y-106021142D01*
X127746095Y-106068761D01*
X127841333Y-106116380D01*
X128079428Y-106116380D01*
X128174666Y-106068761D01*
X128222285Y-106021142D01*
X127365142Y-105116380D02*
X127031809Y-106116380D01*
X126698476Y-105116380D01*
D10*
X135795000Y-88240000D02*
X136652000Y-88240000D01*
X135795000Y-98590000D02*
X136870000Y-98590000D01*
X146145000Y-98590000D02*
X145070000Y-98590000D01*
X146145000Y-88240000D02*
X145070000Y-88240000D01*
X135795000Y-88240000D02*
X135795000Y-89315000D01*
X146145000Y-88240000D02*
X146145000Y-89315000D01*
X146145000Y-98590000D02*
X146145000Y-97515000D01*
X135795000Y-98590000D02*
X135795000Y-97515000D01*
X136652000Y-88240000D02*
X136652000Y-87215000D01*
D13*
X137460000Y-86049000D02*
G75*
G03X137460000Y-86049000I-300000J0D01*
G01*
D10*
X148090000Y-79669000D02*
X149090000Y-79669000D01*
X149090000Y-78319000D02*
X148090000Y-78319000D01*
X133150000Y-86420000D02*
X133150000Y-87120000D01*
X131650000Y-84520000D02*
X131150000Y-84520000D01*
X131650000Y-83117920D02*
X131650000Y-84520000D01*
X135050000Y-84521040D02*
X135050000Y-83118960D01*
X133150000Y-81220000D02*
X133550000Y-81220000D01*
X133150000Y-86420000D02*
X133550000Y-86420000D01*
X148760000Y-87595000D02*
X149460000Y-87595000D01*
X149460000Y-86395000D02*
X148760000Y-86395000D01*
X147945000Y-102080000D02*
X147945000Y-103130000D01*
X151595000Y-102080000D02*
X151595000Y-103130000D01*
X130345000Y-102080000D02*
X130345000Y-103130000D01*
X133995000Y-102080000D02*
X133995000Y-103130000D01*
X143092180Y-84328000D02*
X143092180Y-85029040D01*
X143292840Y-84328000D02*
X143092180Y-84328000D01*
X146091820Y-84328000D02*
X145842900Y-84328000D01*
X146091820Y-85029040D02*
X146091820Y-84328000D01*
X143292840Y-84328000D02*
X143341100Y-84328000D01*
X147955000Y-83221820D02*
X148656040Y-83221820D01*
X147955000Y-83021160D02*
X147955000Y-83221820D01*
X147955000Y-80222180D02*
X147955000Y-80471100D01*
X148656040Y-80222180D02*
X147955000Y-80222180D01*
X147955000Y-83021160D02*
X147955000Y-82972900D01*
X148240000Y-85055000D02*
X148940000Y-85055000D01*
X148940000Y-83855000D02*
X148240000Y-83855000D01*
X130140000Y-85325000D02*
X130140000Y-84625000D01*
X128940000Y-84625000D02*
X128940000Y-85325000D01*
X133000000Y-79340000D02*
X133700000Y-79340000D01*
X133700000Y-78140000D02*
X133000000Y-78140000D01*
X128611000Y-87777000D02*
X128611000Y-88777000D01*
X129961000Y-88777000D02*
X129961000Y-87777000D01*
X130845000Y-88665000D02*
X130845000Y-89365000D01*
X132045000Y-89365000D02*
X132045000Y-88665000D01*
X149460000Y-88300000D02*
X148760000Y-88300000D01*
X148760000Y-89500000D02*
X149460000Y-89500000D01*
X139217333Y-85722666D02*
X139217333Y-86289333D01*
X139184000Y-86356000D01*
X139150666Y-86389333D01*
X139084000Y-86422666D01*
X138950666Y-86422666D01*
X138884000Y-86389333D01*
X138850666Y-86356000D01*
X138817333Y-86289333D01*
X138817333Y-85722666D01*
X138517333Y-85789333D02*
X138484000Y-85756000D01*
X138417333Y-85722666D01*
X138250666Y-85722666D01*
X138184000Y-85756000D01*
X138150666Y-85789333D01*
X138117333Y-85856000D01*
X138117333Y-85922666D01*
X138150666Y-86022666D01*
X138550666Y-86422666D01*
X138117333Y-86422666D01*
X147001666Y-78877333D02*
X146668333Y-78644000D01*
X147001666Y-78477333D02*
X146301666Y-78477333D01*
X146301666Y-78744000D01*
X146335000Y-78810666D01*
X146368333Y-78844000D01*
X146435000Y-78877333D01*
X146535000Y-78877333D01*
X146601666Y-78844000D01*
X146635000Y-78810666D01*
X146668333Y-78744000D01*
X146668333Y-78477333D01*
X146368333Y-79144000D02*
X146335000Y-79177333D01*
X146301666Y-79244000D01*
X146301666Y-79410666D01*
X146335000Y-79477333D01*
X146368333Y-79510666D01*
X146435000Y-79544000D01*
X146501666Y-79544000D01*
X146601666Y-79510666D01*
X147001666Y-79110666D01*
X147001666Y-79544000D01*
X133683333Y-87867333D02*
X133683333Y-88200666D01*
X133916666Y-87500666D02*
X133683333Y-87867333D01*
X133450000Y-87500666D01*
X132850000Y-88200666D02*
X133250000Y-88200666D01*
X133050000Y-88200666D02*
X133050000Y-87500666D01*
X133116666Y-87600666D01*
X133183333Y-87667333D01*
X133250000Y-87700666D01*
X151380000Y-87005333D02*
X151413333Y-86972000D01*
X151446666Y-86872000D01*
X151446666Y-86805333D01*
X151413333Y-86705333D01*
X151346666Y-86638666D01*
X151280000Y-86605333D01*
X151146666Y-86572000D01*
X151046666Y-86572000D01*
X150913333Y-86605333D01*
X150846666Y-86638666D01*
X150780000Y-86705333D01*
X150746666Y-86805333D01*
X150746666Y-86872000D01*
X150780000Y-86972000D01*
X150813333Y-87005333D01*
X151446666Y-87672000D02*
X151446666Y-87272000D01*
X151446666Y-87472000D02*
X150746666Y-87472000D01*
X150846666Y-87405333D01*
X150913333Y-87338666D01*
X150946666Y-87272000D01*
X147382666Y-102132666D02*
X147049333Y-101899333D01*
X147382666Y-101732666D02*
X146682666Y-101732666D01*
X146682666Y-101999333D01*
X146716000Y-102066000D01*
X146749333Y-102099333D01*
X146816000Y-102132666D01*
X146916000Y-102132666D01*
X146982666Y-102099333D01*
X147016000Y-102066000D01*
X147049333Y-101999333D01*
X147049333Y-101732666D01*
X147382666Y-102432666D02*
X146682666Y-102432666D01*
X147382666Y-102832666D01*
X146682666Y-102832666D01*
X146749333Y-103132666D02*
X146716000Y-103166000D01*
X146682666Y-103232666D01*
X146682666Y-103399333D01*
X146716000Y-103466000D01*
X146749333Y-103499333D01*
X146816000Y-103532666D01*
X146882666Y-103532666D01*
X146982666Y-103499333D01*
X147382666Y-103099333D01*
X147382666Y-103532666D01*
X135190666Y-102132666D02*
X134857333Y-101899333D01*
X135190666Y-101732666D02*
X134490666Y-101732666D01*
X134490666Y-101999333D01*
X134524000Y-102066000D01*
X134557333Y-102099333D01*
X134624000Y-102132666D01*
X134724000Y-102132666D01*
X134790666Y-102099333D01*
X134824000Y-102066000D01*
X134857333Y-101999333D01*
X134857333Y-101732666D01*
X135190666Y-102432666D02*
X134490666Y-102432666D01*
X135190666Y-102832666D01*
X134490666Y-102832666D01*
X135190666Y-103532666D02*
X135190666Y-103132666D01*
X135190666Y-103332666D02*
X134490666Y-103332666D01*
X134590666Y-103266000D01*
X134657333Y-103199333D01*
X134690666Y-103132666D01*
X141856666Y-84556666D02*
X142423333Y-84556666D01*
X142490000Y-84590000D01*
X142523333Y-84623333D01*
X142556666Y-84690000D01*
X142556666Y-84823333D01*
X142523333Y-84890000D01*
X142490000Y-84923333D01*
X142423333Y-84956666D01*
X141856666Y-84956666D01*
X142556666Y-85656666D02*
X142556666Y-85256666D01*
X142556666Y-85456666D02*
X141856666Y-85456666D01*
X141956666Y-85390000D01*
X142023333Y-85323333D01*
X142056666Y-85256666D01*
X146738573Y-81655333D02*
X146705240Y-81588666D01*
X146638573Y-81522000D01*
X146538573Y-81422000D01*
X146505240Y-81355333D01*
X146505240Y-81288666D01*
X146671906Y-81322000D02*
X146638573Y-81255333D01*
X146571906Y-81188666D01*
X146438573Y-81155333D01*
X146205240Y-81155333D01*
X146071906Y-81188666D01*
X146005240Y-81255333D01*
X145971906Y-81322000D01*
X145971906Y-81455333D01*
X146005240Y-81522000D01*
X146071906Y-81588666D01*
X146205240Y-81622000D01*
X146438573Y-81622000D01*
X146571906Y-81588666D01*
X146638573Y-81522000D01*
X146671906Y-81455333D01*
X146671906Y-81322000D01*
X146671906Y-82288666D02*
X146671906Y-81888666D01*
X146671906Y-82088666D02*
X145971906Y-82088666D01*
X146071906Y-82022000D01*
X146138573Y-81955333D01*
X146171906Y-81888666D01*
X150872000Y-84211333D02*
X150905333Y-84178000D01*
X150938666Y-84078000D01*
X150938666Y-84011333D01*
X150905333Y-83911333D01*
X150838666Y-83844666D01*
X150772000Y-83811333D01*
X150638666Y-83778000D01*
X150538666Y-83778000D01*
X150405333Y-83811333D01*
X150338666Y-83844666D01*
X150272000Y-83911333D01*
X150238666Y-84011333D01*
X150238666Y-84078000D01*
X150272000Y-84178000D01*
X150305333Y-84211333D01*
X150305333Y-84478000D02*
X150272000Y-84511333D01*
X150238666Y-84578000D01*
X150238666Y-84744666D01*
X150272000Y-84811333D01*
X150305333Y-84844666D01*
X150372000Y-84878000D01*
X150438666Y-84878000D01*
X150538666Y-84844666D01*
X150938666Y-84444666D01*
X150938666Y-84878000D01*
X129656666Y-83054000D02*
X129690000Y-83087333D01*
X129790000Y-83120666D01*
X129856666Y-83120666D01*
X129956666Y-83087333D01*
X130023333Y-83020666D01*
X130056666Y-82954000D01*
X130090000Y-82820666D01*
X130090000Y-82720666D01*
X130056666Y-82587333D01*
X130023333Y-82520666D01*
X129956666Y-82454000D01*
X129856666Y-82420666D01*
X129790000Y-82420666D01*
X129690000Y-82454000D01*
X129656666Y-82487333D01*
X129023333Y-82420666D02*
X129356666Y-82420666D01*
X129390000Y-82754000D01*
X129356666Y-82720666D01*
X129290000Y-82687333D01*
X129123333Y-82687333D01*
X129056666Y-82720666D01*
X129023333Y-82754000D01*
X128990000Y-82820666D01*
X128990000Y-82987333D01*
X129023333Y-83054000D01*
X129056666Y-83087333D01*
X129123333Y-83120666D01*
X129290000Y-83120666D01*
X129356666Y-83087333D01*
X129390000Y-83054000D01*
X131568000Y-78623333D02*
X131601333Y-78590000D01*
X131634666Y-78490000D01*
X131634666Y-78423333D01*
X131601333Y-78323333D01*
X131534666Y-78256666D01*
X131468000Y-78223333D01*
X131334666Y-78190000D01*
X131234666Y-78190000D01*
X131101333Y-78223333D01*
X131034666Y-78256666D01*
X130968000Y-78323333D01*
X130934666Y-78423333D01*
X130934666Y-78490000D01*
X130968000Y-78590000D01*
X131001333Y-78623333D01*
X130934666Y-79223333D02*
X130934666Y-79090000D01*
X130968000Y-79023333D01*
X131001333Y-78990000D01*
X131101333Y-78923333D01*
X131234666Y-78890000D01*
X131501333Y-78890000D01*
X131568000Y-78923333D01*
X131601333Y-78956666D01*
X131634666Y-79023333D01*
X131634666Y-79156666D01*
X131601333Y-79223333D01*
X131568000Y-79256666D01*
X131501333Y-79290000D01*
X131334666Y-79290000D01*
X131268000Y-79256666D01*
X131234666Y-79223333D01*
X131201333Y-79156666D01*
X131201333Y-79023333D01*
X131234666Y-78956666D01*
X131268000Y-78923333D01*
X131334666Y-78890000D01*
X129402666Y-90613666D02*
X129636000Y-90280333D01*
X129802666Y-90613666D02*
X129802666Y-89913666D01*
X129536000Y-89913666D01*
X129469333Y-89947000D01*
X129436000Y-89980333D01*
X129402666Y-90047000D01*
X129402666Y-90147000D01*
X129436000Y-90213666D01*
X129469333Y-90247000D01*
X129536000Y-90280333D01*
X129802666Y-90280333D01*
X128736000Y-90613666D02*
X129136000Y-90613666D01*
X128936000Y-90613666D02*
X128936000Y-89913666D01*
X129002666Y-90013666D01*
X129069333Y-90080333D01*
X129136000Y-90113666D01*
X133092000Y-89545333D02*
X133125333Y-89512000D01*
X133158666Y-89412000D01*
X133158666Y-89345333D01*
X133125333Y-89245333D01*
X133058666Y-89178666D01*
X132992000Y-89145333D01*
X132858666Y-89112000D01*
X132758666Y-89112000D01*
X132625333Y-89145333D01*
X132558666Y-89178666D01*
X132492000Y-89245333D01*
X132458666Y-89345333D01*
X132458666Y-89412000D01*
X132492000Y-89512000D01*
X132525333Y-89545333D01*
X132458666Y-89778666D02*
X132458666Y-90212000D01*
X132725333Y-89978666D01*
X132725333Y-90078666D01*
X132758666Y-90145333D01*
X132792000Y-90178666D01*
X132858666Y-90212000D01*
X133025333Y-90212000D01*
X133092000Y-90178666D01*
X133125333Y-90145333D01*
X133158666Y-90078666D01*
X133158666Y-89878666D01*
X133125333Y-89812000D01*
X133092000Y-89778666D01*
X151380000Y-88783333D02*
X151413333Y-88750000D01*
X151446666Y-88650000D01*
X151446666Y-88583333D01*
X151413333Y-88483333D01*
X151346666Y-88416666D01*
X151280000Y-88383333D01*
X151146666Y-88350000D01*
X151046666Y-88350000D01*
X150913333Y-88383333D01*
X150846666Y-88416666D01*
X150780000Y-88483333D01*
X150746666Y-88583333D01*
X150746666Y-88650000D01*
X150780000Y-88750000D01*
X150813333Y-88783333D01*
X150980000Y-89383333D02*
X151446666Y-89383333D01*
X150713333Y-89216666D02*
X151213333Y-89050000D01*
X151213333Y-89483333D01*
M02*
