G04 #@! TF.GenerationSoftware,KiCad,Pcbnew,5.1.5*
G04 #@! TF.CreationDate,2020-03-16T00:35:52-04:00*
G04 #@! TF.ProjectId,dot-driver,646f742d-6472-4697-9665-722e6b696361,rev?*
G04 #@! TF.SameCoordinates,Original*
G04 #@! TF.FileFunction,Soldermask,Top*
G04 #@! TF.FilePolarity,Negative*
%FSLAX46Y46*%
G04 Gerber Fmt 4.6, Leading zero omitted, Abs format (unit mm)*
G04 Created by KiCad (PCBNEW 5.1.5) date 2020-03-16 00:35:52*
%MOMM*%
%LPD*%
G04 APERTURE LIST*
%ADD10C,0.100000*%
%ADD11R,1.197560X1.197560*%
%ADD12O,2.127200X2.127200*%
%ADD13R,2.127200X2.127200*%
%ADD14C,4.700000*%
%ADD15R,2.300000X1.700000*%
%ADD16R,3.200000X1.400000*%
%ADD17R,1.200000X1.400000*%
%ADD18R,1.600000X1.400000*%
%ADD19R,1.600000X1.100000*%
%ADD20O,2.432000X2.432000*%
%ADD21R,2.432000X2.432000*%
%ADD22C,4.800000*%
%ADD23R,2.432000X2.127200*%
%ADD24O,2.432000X2.127200*%
%ADD25R,2.635200X2.635200*%
%ADD26R,0.800000X1.750000*%
%ADD27O,1.650000X1.350000*%
%ADD28O,1.400000X1.950000*%
%ADD29R,2.100000X1.400000*%
G04 APERTURE END LIST*
D10*
G36*
X157734000Y-123063000D02*
G01*
X157734000Y-126619000D01*
X124206000Y-126619000D01*
X124206000Y-123063000D01*
X130302000Y-115443000D01*
X151638000Y-115443000D01*
X157734000Y-123063000D01*
G37*
X157734000Y-123063000D02*
X157734000Y-126619000D01*
X124206000Y-126619000D01*
X124206000Y-123063000D01*
X130302000Y-115443000D01*
X151638000Y-115443000D01*
X157734000Y-123063000D01*
D11*
X132080000Y-102641400D03*
X132080000Y-104140000D03*
X149860000Y-102641400D03*
X149860000Y-104140000D03*
D12*
X139700000Y-107315000D03*
X139700000Y-109855000D03*
D13*
X139700000Y-112395000D03*
D11*
X134620000Y-102755700D03*
X134620000Y-104254300D03*
X139700000Y-104140000D03*
X139700000Y-102641400D03*
D14*
X153670000Y-123190000D03*
X147320000Y-123190000D03*
X150495000Y-118745000D03*
X140970000Y-123190000D03*
X144145000Y-118745000D03*
X134620000Y-123190000D03*
X137795000Y-118745000D03*
X128270000Y-123190000D03*
X131445000Y-118745000D03*
D11*
X147599400Y-78867000D03*
X149098000Y-78867000D03*
D15*
X150885000Y-84765000D03*
D16*
X150435000Y-98265000D03*
D17*
X146285000Y-98265000D03*
D18*
X140085000Y-98265000D03*
X135785000Y-87115000D03*
D19*
X135785000Y-95265000D03*
X135785000Y-94165000D03*
X135785000Y-93065000D03*
X135785000Y-91965000D03*
X135785000Y-90865000D03*
X135785000Y-89765000D03*
X135785000Y-88665000D03*
X135785000Y-96365000D03*
X135785000Y-97315000D03*
D20*
X131445000Y-94615000D03*
D21*
X131445000Y-92075000D03*
D22*
X127635000Y-80010000D03*
X154305000Y-80010000D03*
X127635000Y-113665000D03*
X154305000Y-113665000D03*
D11*
X142240000Y-104140000D03*
X142240000Y-102641400D03*
X137160000Y-104140000D03*
X137160000Y-102641400D03*
D13*
X149860000Y-112395000D03*
D12*
X149860000Y-109855000D03*
X149860000Y-107315000D03*
X147320000Y-107315000D03*
X147320000Y-109855000D03*
D13*
X147320000Y-112395000D03*
D12*
X144780000Y-107315000D03*
X144780000Y-109855000D03*
D13*
X144780000Y-112395000D03*
X142240000Y-112395000D03*
D12*
X142240000Y-109855000D03*
X142240000Y-107315000D03*
D13*
X137160000Y-112395000D03*
D12*
X137160000Y-109855000D03*
X137160000Y-107315000D03*
X134620000Y-107315000D03*
X134620000Y-109855000D03*
D13*
X134620000Y-112395000D03*
X132080000Y-112395000D03*
D12*
X132080000Y-109855000D03*
X132080000Y-107315000D03*
D23*
X127635000Y-92075000D03*
D24*
X127635000Y-94615000D03*
X127635000Y-97155000D03*
X127635000Y-99695000D03*
D11*
X144780000Y-102641400D03*
X144780000Y-104140000D03*
X147320000Y-104254300D03*
X147320000Y-102755700D03*
D25*
X127635000Y-103505000D03*
X154305000Y-103505000D03*
X127635000Y-107950000D03*
X154305000Y-107950000D03*
D26*
X142270900Y-82207540D03*
X141620900Y-82207540D03*
X140970900Y-82207540D03*
X140320900Y-82207540D03*
X139670900Y-82207540D03*
D27*
X143470900Y-82207540D03*
X138470900Y-82207540D03*
D28*
X144470900Y-79507540D03*
X137470900Y-79507540D03*
D29*
X126390000Y-84460000D03*
X132690000Y-84460000D03*
X126390000Y-88260000D03*
X132690000Y-88260000D03*
M02*
