G04 #@! TF.GenerationSoftware,KiCad,Pcbnew,5.0.0*
G04 #@! TF.CreationDate,2018-11-12T22:36:05-05:00*
G04 #@! TF.ProjectId,dot-driver,646F742D6472697665722E6B69636164,rev?*
G04 #@! TF.SameCoordinates,Original*
G04 #@! TF.FileFunction,Copper,L1,Top,Signal*
G04 #@! TF.FilePolarity,Positive*
%FSLAX46Y46*%
G04 Gerber Fmt 4.6, Leading zero omitted, Abs format (unit mm)*
G04 Created by KiCad (PCBNEW 5.0.0) date Mon Nov 12 22:36:05 2018*
%MOMM*%
%LPD*%
G01*
G04 APERTURE LIST*
G04 #@! TA.AperFunction,SMDPad,CuDef*
%ADD10R,0.797560X0.797560*%
G04 #@! TD*
G04 #@! TA.AperFunction,ComponentPad*
%ADD11R,1.727200X1.727200*%
G04 #@! TD*
G04 #@! TA.AperFunction,ComponentPad*
%ADD12O,1.727200X1.727200*%
G04 #@! TD*
G04 #@! TA.AperFunction,ComponentPad*
%ADD13R,2.032000X1.727200*%
G04 #@! TD*
G04 #@! TA.AperFunction,ComponentPad*
%ADD14O,2.032000X1.727200*%
G04 #@! TD*
G04 #@! TA.AperFunction,ComponentPad*
%ADD15R,2.235200X2.235200*%
G04 #@! TD*
G04 #@! TA.AperFunction,SMDPad,CuDef*
%ADD16R,0.400000X1.350000*%
G04 #@! TD*
G04 #@! TA.AperFunction,ComponentPad*
%ADD17O,1.250000X0.950000*%
G04 #@! TD*
G04 #@! TA.AperFunction,ComponentPad*
%ADD18O,1.000000X1.550000*%
G04 #@! TD*
G04 #@! TA.AperFunction,SMDPad,CuDef*
%ADD19R,0.900000X0.500000*%
G04 #@! TD*
G04 #@! TA.AperFunction,SMDPad,CuDef*
%ADD20R,0.500000X0.900000*%
G04 #@! TD*
G04 #@! TA.AperFunction,SMDPad,CuDef*
%ADD21R,1.000000X1.700000*%
G04 #@! TD*
G04 #@! TA.AperFunction,SMDPad,CuDef*
%ADD22R,1.900000X1.300000*%
G04 #@! TD*
G04 #@! TA.AperFunction,SMDPad,CuDef*
%ADD23R,2.800000X1.000000*%
G04 #@! TD*
G04 #@! TA.AperFunction,SMDPad,CuDef*
%ADD24R,0.800000X1.000000*%
G04 #@! TD*
G04 #@! TA.AperFunction,SMDPad,CuDef*
%ADD25R,1.200000X1.000000*%
G04 #@! TD*
G04 #@! TA.AperFunction,SMDPad,CuDef*
%ADD26R,1.200000X0.700000*%
G04 #@! TD*
G04 #@! TA.AperFunction,ViaPad*
%ADD27C,0.800000*%
G04 #@! TD*
G04 #@! TA.AperFunction,Conductor*
%ADD28C,0.200000*%
G04 #@! TD*
G04 #@! TA.AperFunction,Conductor*
%ADD29C,0.300000*%
G04 #@! TD*
G04 APERTURE END LIST*
D10*
G04 #@! TO.P,D8,1*
G04 #@! TO.N,GND*
X142240000Y-106794300D03*
G04 #@! TO.P,D8,2*
G04 #@! TO.N,Net-(D8-Pad2)*
X142240000Y-105295700D03*
G04 #@! TD*
G04 #@! TO.P,D5,1*
G04 #@! TO.N,GND*
X137160000Y-106794300D03*
G04 #@! TO.P,D5,2*
G04 #@! TO.N,Net-(D5-Pad2)*
X137160000Y-105295700D03*
G04 #@! TD*
D11*
G04 #@! TO.P,J13,1*
G04 #@! TO.N,GND*
X149860000Y-115570000D03*
D12*
G04 #@! TO.P,J13,2*
G04 #@! TO.N,/LED7*
X149860000Y-113030000D03*
G04 #@! TO.P,J13,3*
G04 #@! TO.N,+5VL*
X149860000Y-110490000D03*
G04 #@! TD*
G04 #@! TO.P,J12,3*
G04 #@! TO.N,+5VL*
X147320000Y-110490000D03*
G04 #@! TO.P,J12,2*
G04 #@! TO.N,/LED6*
X147320000Y-113030000D03*
D11*
G04 #@! TO.P,J12,1*
G04 #@! TO.N,GND*
X147320000Y-115570000D03*
G04 #@! TD*
D12*
G04 #@! TO.P,J11,3*
G04 #@! TO.N,+5VL*
X144780000Y-110490000D03*
G04 #@! TO.P,J11,2*
G04 #@! TO.N,/LED5*
X144780000Y-113030000D03*
D11*
G04 #@! TO.P,J11,1*
G04 #@! TO.N,GND*
X144780000Y-115570000D03*
G04 #@! TD*
G04 #@! TO.P,J10,1*
G04 #@! TO.N,GND*
X142240000Y-115570000D03*
D12*
G04 #@! TO.P,J10,2*
G04 #@! TO.N,/LED4*
X142240000Y-113030000D03*
G04 #@! TO.P,J10,3*
G04 #@! TO.N,+5VL*
X142240000Y-110490000D03*
G04 #@! TD*
G04 #@! TO.P,J9,3*
G04 #@! TO.N,+5VL*
X139700000Y-110490000D03*
G04 #@! TO.P,J9,2*
G04 #@! TO.N,/LED3*
X139700000Y-113030000D03*
D11*
G04 #@! TO.P,J9,1*
G04 #@! TO.N,GND*
X139700000Y-115570000D03*
G04 #@! TD*
G04 #@! TO.P,J8,1*
G04 #@! TO.N,GND*
X137160000Y-115570000D03*
D12*
G04 #@! TO.P,J8,2*
G04 #@! TO.N,/LED2*
X137160000Y-113030000D03*
G04 #@! TO.P,J8,3*
G04 #@! TO.N,+5VL*
X137160000Y-110490000D03*
G04 #@! TD*
G04 #@! TO.P,J7,3*
G04 #@! TO.N,+5VL*
X134620000Y-110490000D03*
G04 #@! TO.P,J7,2*
G04 #@! TO.N,/LED1*
X134620000Y-113030000D03*
D11*
G04 #@! TO.P,J7,1*
G04 #@! TO.N,GND*
X134620000Y-115570000D03*
G04 #@! TD*
G04 #@! TO.P,J6,1*
G04 #@! TO.N,GND*
X132080000Y-115570000D03*
D12*
G04 #@! TO.P,J6,2*
G04 #@! TO.N,/LED0*
X132080000Y-113030000D03*
G04 #@! TO.P,J6,3*
G04 #@! TO.N,+5VL*
X132080000Y-110490000D03*
G04 #@! TD*
D13*
G04 #@! TO.P,J15,1*
G04 #@! TO.N,+3V3*
X127000000Y-95250000D03*
D14*
G04 #@! TO.P,J15,2*
G04 #@! TO.N,/SWCLK*
X127000000Y-97790000D03*
G04 #@! TO.P,J15,3*
G04 #@! TO.N,GND*
X127000000Y-100330000D03*
G04 #@! TO.P,J15,4*
G04 #@! TO.N,/SWDIO*
X127000000Y-102870000D03*
G04 #@! TD*
D10*
G04 #@! TO.P,D3,2*
G04 #@! TO.N,Net-(D3-Pad2)*
X132080000Y-105295700D03*
G04 #@! TO.P,D3,1*
G04 #@! TO.N,GND*
X132080000Y-106794300D03*
G04 #@! TD*
G04 #@! TO.P,D4,2*
G04 #@! TO.N,Net-(D4-Pad2)*
X134620000Y-105295700D03*
G04 #@! TO.P,D4,1*
G04 #@! TO.N,GND*
X134620000Y-106794300D03*
G04 #@! TD*
G04 #@! TO.P,D6,2*
G04 #@! TO.N,Net-(D6-Pad2)*
X147320000Y-79895700D03*
G04 #@! TO.P,D6,1*
G04 #@! TO.N,GND*
X147320000Y-81394300D03*
G04 #@! TD*
G04 #@! TO.P,D7,1*
G04 #@! TO.N,GND*
X139700000Y-106794300D03*
G04 #@! TO.P,D7,2*
G04 #@! TO.N,Net-(D7-Pad2)*
X139700000Y-105295700D03*
G04 #@! TD*
G04 #@! TO.P,D9,2*
G04 #@! TO.N,Net-(D9-Pad2)*
X144780000Y-105295700D03*
G04 #@! TO.P,D9,1*
G04 #@! TO.N,GND*
X144780000Y-106794300D03*
G04 #@! TD*
G04 #@! TO.P,D10,1*
G04 #@! TO.N,GND*
X147320000Y-106794300D03*
G04 #@! TO.P,D10,2*
G04 #@! TO.N,Net-(D10-Pad2)*
X147320000Y-105295700D03*
G04 #@! TD*
G04 #@! TO.P,D11,2*
G04 #@! TO.N,Net-(D11-Pad2)*
X149860000Y-105295700D03*
G04 #@! TO.P,D11,1*
G04 #@! TO.N,GND*
X149860000Y-106794300D03*
G04 #@! TD*
D15*
G04 #@! TO.P,J1,1*
G04 #@! TO.N,+5VL*
X127635000Y-106680000D03*
G04 #@! TD*
G04 #@! TO.P,J2,1*
G04 #@! TO.N,+5VL*
X154305000Y-106680000D03*
G04 #@! TD*
G04 #@! TO.P,J3,1*
G04 #@! TO.N,GND*
X127635000Y-115570000D03*
G04 #@! TD*
G04 #@! TO.P,J4,1*
G04 #@! TO.N,GND*
X154305000Y-115570000D03*
G04 #@! TD*
D16*
G04 #@! TO.P,J5,1*
G04 #@! TO.N,/VBUS*
X142270900Y-82207540D03*
G04 #@! TO.P,J5,2*
G04 #@! TO.N,/USB_DM*
X141620900Y-82207540D03*
G04 #@! TO.P,J5,3*
G04 #@! TO.N,/USB_DP*
X140970900Y-82207540D03*
G04 #@! TO.P,J5,4*
G04 #@! TO.N,Net-(J5-Pad4)*
X140320900Y-82207540D03*
G04 #@! TO.P,J5,5*
G04 #@! TO.N,GND*
X139670900Y-82207540D03*
D17*
G04 #@! TO.P,J5,6*
X143470900Y-82207540D03*
X138470900Y-82207540D03*
D18*
X144470900Y-79507540D03*
X137470900Y-79507540D03*
G04 #@! TD*
D19*
G04 #@! TO.P,R2,1*
G04 #@! TO.N,Net-(D3-Pad2)*
X132080000Y-103620000D03*
G04 #@! TO.P,R2,2*
G04 #@! TO.N,/IND0*
X132080000Y-102120000D03*
G04 #@! TD*
G04 #@! TO.P,R4,1*
G04 #@! TO.N,Net-(D4-Pad2)*
X134620000Y-103620000D03*
G04 #@! TO.P,R4,2*
G04 #@! TO.N,/IND1*
X134620000Y-102120000D03*
G04 #@! TD*
D20*
G04 #@! TO.P,R5,2*
G04 #@! TO.N,GND*
X133175000Y-93980000D03*
G04 #@! TO.P,R5,1*
G04 #@! TO.N,/BUTTON*
X131675000Y-93980000D03*
G04 #@! TD*
D19*
G04 #@! TO.P,R7,1*
G04 #@! TO.N,/VBUS*
X149860000Y-81395000D03*
G04 #@! TO.P,R7,2*
G04 #@! TO.N,Net-(D6-Pad2)*
X149860000Y-79895000D03*
G04 #@! TD*
G04 #@! TO.P,R8,2*
G04 #@! TO.N,/IND2*
X137160000Y-102120000D03*
G04 #@! TO.P,R8,1*
G04 #@! TO.N,Net-(D5-Pad2)*
X137160000Y-103620000D03*
G04 #@! TD*
G04 #@! TO.P,R10,1*
G04 #@! TO.N,Net-(D7-Pad2)*
X139700000Y-103620000D03*
G04 #@! TO.P,R10,2*
G04 #@! TO.N,/IND3*
X139700000Y-102120000D03*
G04 #@! TD*
G04 #@! TO.P,R12,2*
G04 #@! TO.N,/IND4*
X142240000Y-102120000D03*
G04 #@! TO.P,R12,1*
G04 #@! TO.N,Net-(D8-Pad2)*
X142240000Y-103620000D03*
G04 #@! TD*
G04 #@! TO.P,R14,1*
G04 #@! TO.N,Net-(D9-Pad2)*
X144780000Y-103620000D03*
G04 #@! TO.P,R14,2*
G04 #@! TO.N,/IND5*
X144780000Y-102120000D03*
G04 #@! TD*
G04 #@! TO.P,R16,2*
G04 #@! TO.N,/IND6*
X147320000Y-102120000D03*
G04 #@! TO.P,R16,1*
G04 #@! TO.N,Net-(D10-Pad2)*
X147320000Y-103620000D03*
G04 #@! TD*
G04 #@! TO.P,R18,1*
G04 #@! TO.N,Net-(D11-Pad2)*
X149860000Y-103620000D03*
G04 #@! TO.P,R18,2*
G04 #@! TO.N,/IND7*
X149860000Y-102120000D03*
G04 #@! TD*
D21*
G04 #@! TO.P,SW1,1*
G04 #@! TO.N,+3V3*
X127640000Y-91415000D03*
X127640000Y-85115000D03*
G04 #@! TO.P,SW1,2*
G04 #@! TO.N,/BUTTON*
X131440000Y-91415000D03*
X131440000Y-85115000D03*
G04 #@! TD*
D22*
G04 #@! TO.P,J14,11*
G04 #@! TO.N,GND*
X150885000Y-84765000D03*
D23*
X150435000Y-98265000D03*
D24*
G04 #@! TO.P,J14,10*
G04 #@! TO.N,/DETECT*
X146285000Y-98265000D03*
D25*
G04 #@! TO.P,J14,11*
G04 #@! TO.N,GND*
X140085000Y-98265000D03*
X135785000Y-87115000D03*
D26*
G04 #@! TO.P,J14,7*
G04 #@! TO.N,/MISO*
X135785000Y-95265000D03*
G04 #@! TO.P,J14,6*
G04 #@! TO.N,GND*
X135785000Y-94165000D03*
G04 #@! TO.P,J14,5*
G04 #@! TO.N,/SCK*
X135785000Y-93065000D03*
G04 #@! TO.P,J14,4*
G04 #@! TO.N,VDD*
X135785000Y-91965000D03*
G04 #@! TO.P,J14,3*
G04 #@! TO.N,/MOSI*
X135785000Y-90865000D03*
G04 #@! TO.P,J14,2*
G04 #@! TO.N,/NSS*
X135785000Y-89765000D03*
G04 #@! TO.P,J14,1*
G04 #@! TO.N,Net-(J14-Pad1)*
X135785000Y-88665000D03*
G04 #@! TO.P,J14,8*
G04 #@! TO.N,Net-(J14-Pad8)*
X135785000Y-96365000D03*
G04 #@! TO.P,J14,9*
G04 #@! TO.N,GND*
X135785000Y-97315000D03*
G04 #@! TD*
D10*
G04 #@! TO.P,D12,2*
G04 #@! TO.N,Net-(D12-Pad2)*
X155168600Y-100965000D03*
G04 #@! TO.P,D12,1*
G04 #@! TO.N,GND*
X153670000Y-100965000D03*
G04 #@! TD*
D20*
G04 #@! TO.P,R19,1*
G04 #@! TO.N,+5VL*
X153670000Y-102870000D03*
G04 #@! TO.P,R19,2*
G04 #@! TO.N,Net-(D12-Pad2)*
X155170000Y-102870000D03*
G04 #@! TD*
D27*
G04 #@! TO.N,GND*
X139700000Y-83820000D03*
X137160000Y-85725000D03*
X137160000Y-93980000D03*
X137795000Y-97155000D03*
X150495000Y-96520000D03*
X151130000Y-107315000D03*
X152400000Y-100965000D03*
X144780000Y-83820000D03*
X148525000Y-99695000D03*
X153670000Y-84455000D03*
X130737885Y-107242885D03*
G04 #@! TO.N,+5V*
X149860000Y-100330000D03*
X153035000Y-99060000D03*
G04 #@! TO.N,+3V3*
X133350000Y-89535000D03*
X137795000Y-100965000D03*
X147955000Y-90805000D03*
X147320000Y-85725000D03*
X144780000Y-95885000D03*
G04 #@! TO.N,/VBUS*
X142240000Y-85090000D03*
X143510000Y-96022115D03*
G04 #@! TO.N,/USB_DM*
X140065003Y-96520000D03*
G04 #@! TO.N,/USB_DP*
X139065000Y-96520000D03*
G04 #@! TO.N,/LED0*
X131445000Y-107950000D03*
G04 #@! TO.N,/LED1*
X133350000Y-107950000D03*
G04 #@! TO.N,/LED2*
X135890000Y-107950000D03*
G04 #@! TO.N,/LED3*
X138430000Y-107950000D03*
G04 #@! TO.N,/LED4*
X140970000Y-107950000D03*
G04 #@! TO.N,/LED5*
X143510000Y-107950000D03*
G04 #@! TO.N,/LED6*
X146050000Y-107950000D03*
G04 #@! TO.N,/LED7*
X148590000Y-107950000D03*
G04 #@! TO.N,/SWCLK*
X134750002Y-99695000D03*
G04 #@! TO.N,/SWDIO*
X135395018Y-100824982D03*
G04 #@! TO.N,/IND0*
X132080000Y-101030010D03*
G04 #@! TO.N,/IND1*
X133350000Y-101030010D03*
G04 #@! TO.N,/BUTTON*
X133350000Y-91440000D03*
G04 #@! TO.N,/IND2*
X135890000Y-99695000D03*
G04 #@! TO.N,/IND3*
X139700000Y-100965000D03*
G04 #@! TO.N,/IND4*
X143779933Y-100965000D03*
G04 #@! TO.N,/IND5*
X144779936Y-100965000D03*
G04 #@! TO.N,/IND6*
X146122123Y-100257893D03*
G04 #@! TO.N,/IND7*
X147320000Y-99695000D03*
G04 #@! TO.N,/NSS*
X139065008Y-90805000D03*
G04 #@! TO.N,/SCK*
X144779982Y-91440000D03*
X144145000Y-93980000D03*
X139065000Y-93980000D03*
G04 #@! TO.N,/MISO*
X144806172Y-92660096D03*
X139065000Y-95250000D03*
X144907079Y-94893095D03*
G04 #@! TO.N,/MOSI*
X139065000Y-92075000D03*
G04 #@! TO.N,/DETECT*
X147783601Y-98425000D03*
G04 #@! TD*
D28*
G04 #@! TO.N,GND*
X139670900Y-82207540D02*
X139670900Y-83790900D01*
X139670900Y-83790900D02*
X139700000Y-83820000D01*
X137160000Y-85840000D02*
X137160000Y-85725000D01*
X135785000Y-87115000D02*
X135885000Y-87115000D01*
X135885000Y-87115000D02*
X137160000Y-85840000D01*
X135785000Y-94165000D02*
X136975000Y-94165000D01*
X136975000Y-94165000D02*
X137160000Y-93980000D01*
X135785000Y-97315000D02*
X137635000Y-97315000D01*
X137635000Y-97315000D02*
X137795000Y-97155000D01*
X139065000Y-97345000D02*
X138620000Y-97345000D01*
X140085000Y-98265000D02*
X139985000Y-98265000D01*
X139985000Y-98265000D02*
X139065000Y-97345000D01*
X138430000Y-97155000D02*
X137795000Y-97155000D01*
X138620000Y-97345000D02*
X138430000Y-97155000D01*
X150435000Y-98265000D02*
X150435000Y-96580000D01*
X150435000Y-96580000D02*
X150495000Y-96520000D01*
X149860000Y-106794300D02*
X150609300Y-106794300D01*
X150609300Y-106794300D02*
X151130000Y-107315000D01*
X153670000Y-100965000D02*
X152400000Y-100965000D01*
X147320000Y-81394300D02*
X147320000Y-81993080D01*
X145493080Y-83820000D02*
X144780000Y-83820000D01*
X147320000Y-81993080D02*
X145493080Y-83820000D01*
X148525000Y-99275000D02*
X148525000Y-99695000D01*
X149535000Y-98265000D02*
X148525000Y-99275000D01*
X150435000Y-98265000D02*
X149535000Y-98265000D01*
X150885000Y-84765000D02*
X153360000Y-84765000D01*
X153360000Y-84765000D02*
X153670000Y-84455000D01*
D29*
X151023600Y-115570000D02*
X149860000Y-115570000D01*
X151384000Y-115209600D02*
X151023600Y-115570000D01*
X151384000Y-107569000D02*
X151384000Y-115209600D01*
X151130000Y-107315000D02*
X151384000Y-107569000D01*
D28*
X135600000Y-93980000D02*
X135785000Y-94165000D01*
X133175000Y-93980000D02*
X135600000Y-93980000D01*
X132080000Y-106794300D02*
X132678780Y-106794300D01*
X132678780Y-106794300D02*
X149860000Y-106794300D01*
X131186470Y-106794300D02*
X131137884Y-106842886D01*
X132080000Y-106794300D02*
X131186470Y-106794300D01*
X131137884Y-106842886D02*
X130737885Y-107242885D01*
G04 #@! TO.N,+5V*
X149860000Y-100330000D02*
X151765000Y-100330000D01*
X151765000Y-100330000D02*
X152635001Y-99459999D01*
X152635001Y-99459999D02*
X153035000Y-99060000D01*
G04 #@! TO.N,+5VL*
X153670000Y-106045000D02*
X154305000Y-106680000D01*
X153670000Y-102870000D02*
X153670000Y-106045000D01*
D29*
G04 #@! TO.N,/VBUS*
X142270900Y-83182540D02*
X142240000Y-83213440D01*
X142270900Y-82207540D02*
X142270900Y-83182540D01*
X142240000Y-83213440D02*
X142240000Y-85090000D01*
D28*
X143510000Y-94381002D02*
X142875000Y-93746002D01*
X143510000Y-96022115D02*
X143510000Y-94381002D01*
X142875000Y-85725000D02*
X142240000Y-85090000D01*
X142875000Y-93746002D02*
X142875000Y-85725000D01*
X149860000Y-81845000D02*
X149860000Y-81395000D01*
X146615000Y-85090000D02*
X149860000Y-81845000D01*
X142240000Y-85090000D02*
X146615000Y-85090000D01*
G04 #@! TO.N,Net-(D3-Pad2)*
X132080000Y-103620000D02*
X132080000Y-105295700D01*
G04 #@! TO.N,Net-(D4-Pad2)*
X134620000Y-103620000D02*
X134620000Y-105295700D01*
G04 #@! TO.N,Net-(D5-Pad2)*
X137160000Y-103620000D02*
X137160000Y-105295700D01*
G04 #@! TO.N,Net-(D6-Pad2)*
X147320700Y-79895000D02*
X147320000Y-79895700D01*
X149860000Y-79895000D02*
X147320700Y-79895000D01*
G04 #@! TO.N,Net-(D7-Pad2)*
X139700000Y-103620000D02*
X139700000Y-105295700D01*
G04 #@! TO.N,Net-(D8-Pad2)*
X142240000Y-103620000D02*
X142240000Y-105295700D01*
G04 #@! TO.N,Net-(D9-Pad2)*
X144780000Y-103620000D02*
X144780000Y-105295700D01*
G04 #@! TO.N,Net-(D10-Pad2)*
X147320000Y-103620000D02*
X147320000Y-105295700D01*
G04 #@! TO.N,Net-(D11-Pad2)*
X149860000Y-103620000D02*
X149860000Y-105295700D01*
G04 #@! TO.N,/USB_DM*
X141620900Y-83864816D02*
X140335000Y-85150716D01*
X141620900Y-82207540D02*
X141620900Y-83864816D01*
X140335000Y-85150716D02*
X140335000Y-96250003D01*
X140335000Y-96250003D02*
X140065003Y-96520000D01*
G04 #@! TO.N,/USB_DP*
X140970900Y-83949118D02*
X140970900Y-82207540D01*
X139765009Y-85155009D02*
X140970900Y-83949118D01*
X139065000Y-96520000D02*
X139765009Y-95819991D01*
X139765009Y-95819991D02*
X139765009Y-85155009D01*
G04 #@! TO.N,/LED0*
X130810000Y-111760000D02*
X131216401Y-112166401D01*
X131216401Y-112166401D02*
X132080000Y-113030000D01*
X131445000Y-107950000D02*
X130810000Y-108585000D01*
X130810000Y-108585000D02*
X130810000Y-111760000D01*
G04 #@! TO.N,/LED1*
X133756401Y-112166401D02*
X134620000Y-113030000D01*
X133350000Y-107950000D02*
X133350000Y-111760000D01*
X133350000Y-111760000D02*
X133756401Y-112166401D01*
G04 #@! TO.N,/LED2*
X136296401Y-112166401D02*
X137160000Y-113030000D01*
X135890000Y-111760000D02*
X136296401Y-112166401D01*
X135890000Y-109220000D02*
X135890000Y-111760000D01*
X135890000Y-107950000D02*
X135890000Y-109220000D01*
G04 #@! TO.N,/LED3*
X138836401Y-112166401D02*
X139700000Y-113030000D01*
X138430000Y-111760000D02*
X138836401Y-112166401D01*
X138430000Y-109220000D02*
X138430000Y-111760000D01*
X138430000Y-107950000D02*
X138430000Y-109220000D01*
G04 #@! TO.N,/LED4*
X140970000Y-109220000D02*
X140970000Y-107950000D01*
X142240000Y-113030000D02*
X140970000Y-111760000D01*
X140970000Y-111760000D02*
X140970000Y-109220000D01*
G04 #@! TO.N,/LED5*
X143510000Y-109220000D02*
X143510000Y-107950000D01*
X144780000Y-113030000D02*
X143510000Y-111760000D01*
X143510000Y-111760000D02*
X143510000Y-109220000D01*
G04 #@! TO.N,/LED6*
X146050000Y-109220000D02*
X146050000Y-107950000D01*
X147320000Y-113030000D02*
X146050000Y-111760000D01*
X146050000Y-111760000D02*
X146050000Y-109220000D01*
G04 #@! TO.N,/LED7*
X148590000Y-109220000D02*
X148590000Y-107950000D01*
X149860000Y-113030000D02*
X148590000Y-111760000D01*
X148590000Y-111760000D02*
X148590000Y-109220000D01*
G04 #@! TO.N,/SWCLK*
X134750002Y-99695000D02*
X130810000Y-99695000D01*
X128905000Y-97790000D02*
X127000000Y-97790000D01*
X130810000Y-99695000D02*
X128905000Y-97790000D01*
G04 #@! TO.N,/SWDIO*
X130756000Y-100330000D02*
X133985000Y-100330000D01*
X127000000Y-102870000D02*
X128216000Y-102870000D01*
X128216000Y-102870000D02*
X130756000Y-100330000D01*
X134479982Y-100824982D02*
X135395018Y-100824982D01*
X133985000Y-100330000D02*
X134479982Y-100824982D01*
G04 #@! TO.N,/IND0*
X132080000Y-102120000D02*
X132080000Y-101030010D01*
G04 #@! TO.N,/IND1*
X133350000Y-101050000D02*
X133350000Y-101030010D01*
X134420000Y-102120000D02*
X133350000Y-101050000D01*
X134620000Y-102120000D02*
X134420000Y-102120000D01*
G04 #@! TO.N,/BUTTON*
X131465000Y-91440000D02*
X131440000Y-91415000D01*
X133350000Y-91440000D02*
X131465000Y-91440000D01*
X131675000Y-91650000D02*
X131440000Y-91415000D01*
X131440000Y-91415000D02*
X131440000Y-85115000D01*
X131440000Y-93745000D02*
X131675000Y-93980000D01*
X131440000Y-91415000D02*
X131440000Y-93745000D01*
G04 #@! TO.N,/IND2*
X137160000Y-101600000D02*
X135890000Y-100330000D01*
X135890000Y-100330000D02*
X135890000Y-99695000D01*
X137160000Y-102120000D02*
X137160000Y-101600000D01*
G04 #@! TO.N,/IND3*
X139700000Y-102120000D02*
X139700000Y-100965000D01*
G04 #@! TO.N,/IND4*
X142240000Y-102120000D02*
X142355000Y-102120000D01*
X143779933Y-100965000D02*
X142875000Y-100965000D01*
X142240000Y-101600000D02*
X142240000Y-102120000D01*
X142875000Y-100965000D02*
X142240000Y-101600000D01*
G04 #@! TO.N,/IND5*
X144780000Y-102120000D02*
X144780000Y-100965064D01*
X144780000Y-100965064D02*
X144779936Y-100965000D01*
G04 #@! TO.N,/IND6*
X146522122Y-100657892D02*
X146122123Y-100257893D01*
X147320000Y-102120000D02*
X147320000Y-101455770D01*
X147320000Y-101455770D02*
X146522122Y-100657892D01*
G04 #@! TO.N,/IND7*
X149660000Y-102120000D02*
X147320000Y-99780000D01*
X147320000Y-99780000D02*
X147320000Y-99695000D01*
X149860000Y-102120000D02*
X149660000Y-102120000D01*
G04 #@! TO.N,/NSS*
X138025008Y-89765000D02*
X135785000Y-89765000D01*
X139065008Y-90805000D02*
X138025008Y-89765000D01*
G04 #@! TO.N,/SCK*
X143745001Y-93580001D02*
X144145000Y-93980000D01*
X143745001Y-92474981D02*
X143745001Y-93580001D01*
X144779982Y-91440000D02*
X143745001Y-92474981D01*
X138150000Y-93065000D02*
X139065000Y-93980000D01*
X135785000Y-93065000D02*
X138150000Y-93065000D01*
G04 #@! TO.N,/MISO*
X135800000Y-95250000D02*
X135785000Y-95265000D01*
X139065000Y-95250000D02*
X135800000Y-95250000D01*
X144907079Y-94327410D02*
X144907079Y-94893095D01*
X144806172Y-92660096D02*
X144806172Y-93225781D01*
X144806172Y-93225781D02*
X144907079Y-93326688D01*
X144907079Y-93326688D02*
X144907079Y-94327410D01*
G04 #@! TO.N,/MOSI*
X137855000Y-90865000D02*
X135785000Y-90865000D01*
X139065000Y-92075000D02*
X137855000Y-90865000D01*
G04 #@! TO.N,/DETECT*
X146285000Y-98265000D02*
X147623601Y-98265000D01*
X147623601Y-98265000D02*
X147783601Y-98425000D01*
G04 #@! TO.N,Net-(D12-Pad2)*
X155170000Y-100966400D02*
X155168600Y-100965000D01*
X155170000Y-102870000D02*
X155170000Y-100966400D01*
G04 #@! TD*
G04 #@! TO.N,+3V3*
G36*
X154919238Y-77306406D02*
X155502958Y-77509679D01*
X156027127Y-77837216D01*
X156465708Y-78272746D01*
X156796899Y-78794620D01*
X157004239Y-79376899D01*
X157080001Y-80012251D01*
X157080000Y-101858578D01*
X155725877Y-103212701D01*
X155725877Y-102420000D01*
X155702593Y-102302946D01*
X155636288Y-102203712D01*
X155570000Y-102159420D01*
X155570000Y-101669136D01*
X155684434Y-101646373D01*
X155783668Y-101580068D01*
X155849973Y-101480834D01*
X155873257Y-101363780D01*
X155873257Y-100566220D01*
X155849973Y-100449166D01*
X155783668Y-100349932D01*
X155684434Y-100283627D01*
X155567380Y-100260343D01*
X154769820Y-100260343D01*
X154652766Y-100283627D01*
X154553532Y-100349932D01*
X154487227Y-100449166D01*
X154463943Y-100566220D01*
X154463943Y-101363780D01*
X154487227Y-101480834D01*
X154553532Y-101580068D01*
X154652766Y-101646373D01*
X154769820Y-101669657D01*
X154770001Y-101669657D01*
X154770000Y-102159420D01*
X154703712Y-102203712D01*
X154637407Y-102302946D01*
X154614123Y-102420000D01*
X154614123Y-103320000D01*
X154637407Y-103437054D01*
X154703712Y-103536288D01*
X154802946Y-103602593D01*
X154920000Y-103625877D01*
X155312701Y-103625877D01*
X154070000Y-104868578D01*
X154070000Y-103580580D01*
X154136288Y-103536288D01*
X154202593Y-103437054D01*
X154225877Y-103320000D01*
X154225877Y-102420000D01*
X154202593Y-102302946D01*
X154136288Y-102203712D01*
X154037054Y-102137407D01*
X153920000Y-102114123D01*
X153420000Y-102114123D01*
X153302946Y-102137407D01*
X153203712Y-102203712D01*
X153137407Y-102302946D01*
X153114123Y-102420000D01*
X153114123Y-103320000D01*
X153137407Y-103437054D01*
X153203712Y-103536288D01*
X153270000Y-103580580D01*
X153270001Y-105256523D01*
X153187400Y-105256523D01*
X153070346Y-105279807D01*
X152971112Y-105346112D01*
X152904807Y-105445346D01*
X152881523Y-105562400D01*
X152881523Y-106057055D01*
X151810323Y-107128255D01*
X151723432Y-106918482D01*
X151526518Y-106721568D01*
X151269239Y-106615000D01*
X150995684Y-106615000D01*
X150920003Y-106539318D01*
X150897684Y-106505916D01*
X150765372Y-106417509D01*
X150648694Y-106394300D01*
X150609300Y-106386464D01*
X150569906Y-106394300D01*
X150564414Y-106394300D01*
X150541373Y-106278466D01*
X150475068Y-106179232D01*
X150375834Y-106112927D01*
X150258780Y-106089643D01*
X149461220Y-106089643D01*
X149344166Y-106112927D01*
X149244932Y-106179232D01*
X149178627Y-106278466D01*
X149155586Y-106394300D01*
X148024414Y-106394300D01*
X148001373Y-106278466D01*
X147935068Y-106179232D01*
X147835834Y-106112927D01*
X147718780Y-106089643D01*
X146921220Y-106089643D01*
X146804166Y-106112927D01*
X146704932Y-106179232D01*
X146638627Y-106278466D01*
X146615586Y-106394300D01*
X145484414Y-106394300D01*
X145461373Y-106278466D01*
X145395068Y-106179232D01*
X145295834Y-106112927D01*
X145178780Y-106089643D01*
X144381220Y-106089643D01*
X144264166Y-106112927D01*
X144164932Y-106179232D01*
X144098627Y-106278466D01*
X144075586Y-106394300D01*
X142944414Y-106394300D01*
X142921373Y-106278466D01*
X142855068Y-106179232D01*
X142755834Y-106112927D01*
X142638780Y-106089643D01*
X141841220Y-106089643D01*
X141724166Y-106112927D01*
X141624932Y-106179232D01*
X141558627Y-106278466D01*
X141535586Y-106394300D01*
X140404414Y-106394300D01*
X140381373Y-106278466D01*
X140315068Y-106179232D01*
X140215834Y-106112927D01*
X140098780Y-106089643D01*
X139301220Y-106089643D01*
X139184166Y-106112927D01*
X139084932Y-106179232D01*
X139018627Y-106278466D01*
X138995586Y-106394300D01*
X137864414Y-106394300D01*
X137841373Y-106278466D01*
X137775068Y-106179232D01*
X137675834Y-106112927D01*
X137558780Y-106089643D01*
X136761220Y-106089643D01*
X136644166Y-106112927D01*
X136544932Y-106179232D01*
X136478627Y-106278466D01*
X136455586Y-106394300D01*
X135324414Y-106394300D01*
X135301373Y-106278466D01*
X135235068Y-106179232D01*
X135135834Y-106112927D01*
X135018780Y-106089643D01*
X134221220Y-106089643D01*
X134104166Y-106112927D01*
X134004932Y-106179232D01*
X133938627Y-106278466D01*
X133915586Y-106394300D01*
X132784414Y-106394300D01*
X132761373Y-106278466D01*
X132695068Y-106179232D01*
X132595834Y-106112927D01*
X132478780Y-106089643D01*
X131681220Y-106089643D01*
X131564166Y-106112927D01*
X131464932Y-106179232D01*
X131398627Y-106278466D01*
X131375586Y-106394300D01*
X131225864Y-106394300D01*
X131186470Y-106386464D01*
X131147076Y-106394300D01*
X131030398Y-106417509D01*
X130898086Y-106505916D01*
X130875769Y-106539316D01*
X130872200Y-106542885D01*
X130598646Y-106542885D01*
X130341367Y-106649453D01*
X130144453Y-106846367D01*
X130057562Y-107056140D01*
X129058477Y-106057055D01*
X129058477Y-105562400D01*
X129035193Y-105445346D01*
X128968888Y-105346112D01*
X128869654Y-105279807D01*
X128752600Y-105256523D01*
X128257945Y-105256523D01*
X127035022Y-104033600D01*
X127267003Y-104033600D01*
X127606414Y-103966087D01*
X127991309Y-103708909D01*
X128217760Y-103370000D01*
X131324123Y-103370000D01*
X131324123Y-103870000D01*
X131347407Y-103987054D01*
X131413712Y-104086288D01*
X131512946Y-104152593D01*
X131630000Y-104175877D01*
X131680000Y-104175877D01*
X131680001Y-104591286D01*
X131564166Y-104614327D01*
X131464932Y-104680632D01*
X131398627Y-104779866D01*
X131375343Y-104896920D01*
X131375343Y-105694480D01*
X131398627Y-105811534D01*
X131464932Y-105910768D01*
X131564166Y-105977073D01*
X131681220Y-106000357D01*
X132478780Y-106000357D01*
X132595834Y-105977073D01*
X132695068Y-105910768D01*
X132761373Y-105811534D01*
X132784657Y-105694480D01*
X132784657Y-104896920D01*
X132761373Y-104779866D01*
X132695068Y-104680632D01*
X132595834Y-104614327D01*
X132480000Y-104591286D01*
X132480000Y-104175877D01*
X132530000Y-104175877D01*
X132647054Y-104152593D01*
X132746288Y-104086288D01*
X132812593Y-103987054D01*
X132835877Y-103870000D01*
X132835877Y-103370000D01*
X133864123Y-103370000D01*
X133864123Y-103870000D01*
X133887407Y-103987054D01*
X133953712Y-104086288D01*
X134052946Y-104152593D01*
X134170000Y-104175877D01*
X134220000Y-104175877D01*
X134220001Y-104591286D01*
X134104166Y-104614327D01*
X134004932Y-104680632D01*
X133938627Y-104779866D01*
X133915343Y-104896920D01*
X133915343Y-105694480D01*
X133938627Y-105811534D01*
X134004932Y-105910768D01*
X134104166Y-105977073D01*
X134221220Y-106000357D01*
X135018780Y-106000357D01*
X135135834Y-105977073D01*
X135235068Y-105910768D01*
X135301373Y-105811534D01*
X135324657Y-105694480D01*
X135324657Y-104896920D01*
X135301373Y-104779866D01*
X135235068Y-104680632D01*
X135135834Y-104614327D01*
X135020000Y-104591286D01*
X135020000Y-104175877D01*
X135070000Y-104175877D01*
X135187054Y-104152593D01*
X135286288Y-104086288D01*
X135352593Y-103987054D01*
X135375877Y-103870000D01*
X135375877Y-103370000D01*
X136404123Y-103370000D01*
X136404123Y-103870000D01*
X136427407Y-103987054D01*
X136493712Y-104086288D01*
X136592946Y-104152593D01*
X136710000Y-104175877D01*
X136760000Y-104175877D01*
X136760001Y-104591286D01*
X136644166Y-104614327D01*
X136544932Y-104680632D01*
X136478627Y-104779866D01*
X136455343Y-104896920D01*
X136455343Y-105694480D01*
X136478627Y-105811534D01*
X136544932Y-105910768D01*
X136644166Y-105977073D01*
X136761220Y-106000357D01*
X137558780Y-106000357D01*
X137675834Y-105977073D01*
X137775068Y-105910768D01*
X137841373Y-105811534D01*
X137864657Y-105694480D01*
X137864657Y-104896920D01*
X137841373Y-104779866D01*
X137775068Y-104680632D01*
X137675834Y-104614327D01*
X137560000Y-104591286D01*
X137560000Y-104175877D01*
X137610000Y-104175877D01*
X137727054Y-104152593D01*
X137826288Y-104086288D01*
X137892593Y-103987054D01*
X137915877Y-103870000D01*
X137915877Y-103370000D01*
X138944123Y-103370000D01*
X138944123Y-103870000D01*
X138967407Y-103987054D01*
X139033712Y-104086288D01*
X139132946Y-104152593D01*
X139250000Y-104175877D01*
X139300000Y-104175877D01*
X139300001Y-104591286D01*
X139184166Y-104614327D01*
X139084932Y-104680632D01*
X139018627Y-104779866D01*
X138995343Y-104896920D01*
X138995343Y-105694480D01*
X139018627Y-105811534D01*
X139084932Y-105910768D01*
X139184166Y-105977073D01*
X139301220Y-106000357D01*
X140098780Y-106000357D01*
X140215834Y-105977073D01*
X140315068Y-105910768D01*
X140381373Y-105811534D01*
X140404657Y-105694480D01*
X140404657Y-104896920D01*
X140381373Y-104779866D01*
X140315068Y-104680632D01*
X140215834Y-104614327D01*
X140100000Y-104591286D01*
X140100000Y-104175877D01*
X140150000Y-104175877D01*
X140267054Y-104152593D01*
X140366288Y-104086288D01*
X140432593Y-103987054D01*
X140455877Y-103870000D01*
X140455877Y-103370000D01*
X141484123Y-103370000D01*
X141484123Y-103870000D01*
X141507407Y-103987054D01*
X141573712Y-104086288D01*
X141672946Y-104152593D01*
X141790000Y-104175877D01*
X141840000Y-104175877D01*
X141840001Y-104591286D01*
X141724166Y-104614327D01*
X141624932Y-104680632D01*
X141558627Y-104779866D01*
X141535343Y-104896920D01*
X141535343Y-105694480D01*
X141558627Y-105811534D01*
X141624932Y-105910768D01*
X141724166Y-105977073D01*
X141841220Y-106000357D01*
X142638780Y-106000357D01*
X142755834Y-105977073D01*
X142855068Y-105910768D01*
X142921373Y-105811534D01*
X142944657Y-105694480D01*
X142944657Y-104896920D01*
X142921373Y-104779866D01*
X142855068Y-104680632D01*
X142755834Y-104614327D01*
X142640000Y-104591286D01*
X142640000Y-104175877D01*
X142690000Y-104175877D01*
X142807054Y-104152593D01*
X142906288Y-104086288D01*
X142972593Y-103987054D01*
X142995877Y-103870000D01*
X142995877Y-103370000D01*
X144024123Y-103370000D01*
X144024123Y-103870000D01*
X144047407Y-103987054D01*
X144113712Y-104086288D01*
X144212946Y-104152593D01*
X144330000Y-104175877D01*
X144380000Y-104175877D01*
X144380001Y-104591286D01*
X144264166Y-104614327D01*
X144164932Y-104680632D01*
X144098627Y-104779866D01*
X144075343Y-104896920D01*
X144075343Y-105694480D01*
X144098627Y-105811534D01*
X144164932Y-105910768D01*
X144264166Y-105977073D01*
X144381220Y-106000357D01*
X145178780Y-106000357D01*
X145295834Y-105977073D01*
X145395068Y-105910768D01*
X145461373Y-105811534D01*
X145484657Y-105694480D01*
X145484657Y-104896920D01*
X145461373Y-104779866D01*
X145395068Y-104680632D01*
X145295834Y-104614327D01*
X145180000Y-104591286D01*
X145180000Y-104175877D01*
X145230000Y-104175877D01*
X145347054Y-104152593D01*
X145446288Y-104086288D01*
X145512593Y-103987054D01*
X145535877Y-103870000D01*
X145535877Y-103370000D01*
X146564123Y-103370000D01*
X146564123Y-103870000D01*
X146587407Y-103987054D01*
X146653712Y-104086288D01*
X146752946Y-104152593D01*
X146870000Y-104175877D01*
X146920000Y-104175877D01*
X146920001Y-104591286D01*
X146804166Y-104614327D01*
X146704932Y-104680632D01*
X146638627Y-104779866D01*
X146615343Y-104896920D01*
X146615343Y-105694480D01*
X146638627Y-105811534D01*
X146704932Y-105910768D01*
X146804166Y-105977073D01*
X146921220Y-106000357D01*
X147718780Y-106000357D01*
X147835834Y-105977073D01*
X147935068Y-105910768D01*
X148001373Y-105811534D01*
X148024657Y-105694480D01*
X148024657Y-104896920D01*
X148001373Y-104779866D01*
X147935068Y-104680632D01*
X147835834Y-104614327D01*
X147720000Y-104591286D01*
X147720000Y-104175877D01*
X147770000Y-104175877D01*
X147887054Y-104152593D01*
X147986288Y-104086288D01*
X148052593Y-103987054D01*
X148075877Y-103870000D01*
X148075877Y-103370000D01*
X149104123Y-103370000D01*
X149104123Y-103870000D01*
X149127407Y-103987054D01*
X149193712Y-104086288D01*
X149292946Y-104152593D01*
X149410000Y-104175877D01*
X149460000Y-104175877D01*
X149460001Y-104591286D01*
X149344166Y-104614327D01*
X149244932Y-104680632D01*
X149178627Y-104779866D01*
X149155343Y-104896920D01*
X149155343Y-105694480D01*
X149178627Y-105811534D01*
X149244932Y-105910768D01*
X149344166Y-105977073D01*
X149461220Y-106000357D01*
X150258780Y-106000357D01*
X150375834Y-105977073D01*
X150475068Y-105910768D01*
X150541373Y-105811534D01*
X150564657Y-105694480D01*
X150564657Y-104896920D01*
X150541373Y-104779866D01*
X150475068Y-104680632D01*
X150375834Y-104614327D01*
X150260000Y-104591286D01*
X150260000Y-104175877D01*
X150310000Y-104175877D01*
X150427054Y-104152593D01*
X150526288Y-104086288D01*
X150592593Y-103987054D01*
X150615877Y-103870000D01*
X150615877Y-103370000D01*
X150592593Y-103252946D01*
X150526288Y-103153712D01*
X150427054Y-103087407D01*
X150310000Y-103064123D01*
X149410000Y-103064123D01*
X149292946Y-103087407D01*
X149193712Y-103153712D01*
X149127407Y-103252946D01*
X149104123Y-103370000D01*
X148075877Y-103370000D01*
X148052593Y-103252946D01*
X147986288Y-103153712D01*
X147887054Y-103087407D01*
X147770000Y-103064123D01*
X146870000Y-103064123D01*
X146752946Y-103087407D01*
X146653712Y-103153712D01*
X146587407Y-103252946D01*
X146564123Y-103370000D01*
X145535877Y-103370000D01*
X145512593Y-103252946D01*
X145446288Y-103153712D01*
X145347054Y-103087407D01*
X145230000Y-103064123D01*
X144330000Y-103064123D01*
X144212946Y-103087407D01*
X144113712Y-103153712D01*
X144047407Y-103252946D01*
X144024123Y-103370000D01*
X142995877Y-103370000D01*
X142972593Y-103252946D01*
X142906288Y-103153712D01*
X142807054Y-103087407D01*
X142690000Y-103064123D01*
X141790000Y-103064123D01*
X141672946Y-103087407D01*
X141573712Y-103153712D01*
X141507407Y-103252946D01*
X141484123Y-103370000D01*
X140455877Y-103370000D01*
X140432593Y-103252946D01*
X140366288Y-103153712D01*
X140267054Y-103087407D01*
X140150000Y-103064123D01*
X139250000Y-103064123D01*
X139132946Y-103087407D01*
X139033712Y-103153712D01*
X138967407Y-103252946D01*
X138944123Y-103370000D01*
X137915877Y-103370000D01*
X137892593Y-103252946D01*
X137826288Y-103153712D01*
X137727054Y-103087407D01*
X137610000Y-103064123D01*
X136710000Y-103064123D01*
X136592946Y-103087407D01*
X136493712Y-103153712D01*
X136427407Y-103252946D01*
X136404123Y-103370000D01*
X135375877Y-103370000D01*
X135352593Y-103252946D01*
X135286288Y-103153712D01*
X135187054Y-103087407D01*
X135070000Y-103064123D01*
X134170000Y-103064123D01*
X134052946Y-103087407D01*
X133953712Y-103153712D01*
X133887407Y-103252946D01*
X133864123Y-103370000D01*
X132835877Y-103370000D01*
X132812593Y-103252946D01*
X132746288Y-103153712D01*
X132647054Y-103087407D01*
X132530000Y-103064123D01*
X131630000Y-103064123D01*
X131512946Y-103087407D01*
X131413712Y-103153712D01*
X131347407Y-103252946D01*
X131324123Y-103370000D01*
X128217760Y-103370000D01*
X128248487Y-103324014D01*
X128259389Y-103269205D01*
X128372072Y-103246791D01*
X128504384Y-103158384D01*
X128526703Y-103124981D01*
X130921686Y-100730000D01*
X131446593Y-100730000D01*
X131380000Y-100890771D01*
X131380000Y-101169249D01*
X131486568Y-101426528D01*
X131625131Y-101565091D01*
X131512946Y-101587407D01*
X131413712Y-101653712D01*
X131347407Y-101752946D01*
X131324123Y-101870000D01*
X131324123Y-102370000D01*
X131347407Y-102487054D01*
X131413712Y-102586288D01*
X131512946Y-102652593D01*
X131630000Y-102675877D01*
X132530000Y-102675877D01*
X132647054Y-102652593D01*
X132746288Y-102586288D01*
X132812593Y-102487054D01*
X132835877Y-102370000D01*
X132835877Y-101870000D01*
X132812593Y-101752946D01*
X132746288Y-101653712D01*
X132647054Y-101587407D01*
X132534869Y-101565091D01*
X132673432Y-101426528D01*
X132715000Y-101326174D01*
X132756568Y-101426528D01*
X132953482Y-101623442D01*
X133210761Y-101730010D01*
X133464326Y-101730010D01*
X133864123Y-102129808D01*
X133864123Y-102370000D01*
X133887407Y-102487054D01*
X133953712Y-102586288D01*
X134052946Y-102652593D01*
X134170000Y-102675877D01*
X135070000Y-102675877D01*
X135187054Y-102652593D01*
X135286288Y-102586288D01*
X135352593Y-102487054D01*
X135375877Y-102370000D01*
X135375877Y-101870000D01*
X135352593Y-101752946D01*
X135286288Y-101653712D01*
X135187054Y-101587407D01*
X135070000Y-101564123D01*
X134429808Y-101564123D01*
X134045587Y-101179903D01*
X134050000Y-101169249D01*
X134050000Y-100960685D01*
X134169283Y-101079969D01*
X134191598Y-101113366D01*
X134323910Y-101201773D01*
X134440588Y-101224982D01*
X134479981Y-101232818D01*
X134519374Y-101224982D01*
X134805068Y-101224982D01*
X134998500Y-101418414D01*
X135255779Y-101524982D01*
X135534257Y-101524982D01*
X135791536Y-101418414D01*
X135988450Y-101221500D01*
X136055044Y-101060728D01*
X136586217Y-101591903D01*
X136493712Y-101653712D01*
X136427407Y-101752946D01*
X136404123Y-101870000D01*
X136404123Y-102370000D01*
X136427407Y-102487054D01*
X136493712Y-102586288D01*
X136592946Y-102652593D01*
X136710000Y-102675877D01*
X137610000Y-102675877D01*
X137727054Y-102652593D01*
X137826288Y-102586288D01*
X137892593Y-102487054D01*
X137915877Y-102370000D01*
X137915877Y-101870000D01*
X138944123Y-101870000D01*
X138944123Y-102370000D01*
X138967407Y-102487054D01*
X139033712Y-102586288D01*
X139132946Y-102652593D01*
X139250000Y-102675877D01*
X140150000Y-102675877D01*
X140267054Y-102652593D01*
X140366288Y-102586288D01*
X140432593Y-102487054D01*
X140455877Y-102370000D01*
X140455877Y-101870000D01*
X141484123Y-101870000D01*
X141484123Y-102370000D01*
X141507407Y-102487054D01*
X141573712Y-102586288D01*
X141672946Y-102652593D01*
X141790000Y-102675877D01*
X142690000Y-102675877D01*
X142807054Y-102652593D01*
X142906288Y-102586288D01*
X142972593Y-102487054D01*
X142995877Y-102370000D01*
X142995877Y-101870000D01*
X142972593Y-101752946D01*
X142906288Y-101653712D01*
X142813782Y-101591902D01*
X143040685Y-101365000D01*
X143189983Y-101365000D01*
X143383415Y-101558432D01*
X143640694Y-101665000D01*
X143919172Y-101665000D01*
X144176451Y-101558432D01*
X144279935Y-101454949D01*
X144380000Y-101555014D01*
X144380000Y-101564123D01*
X144330000Y-101564123D01*
X144212946Y-101587407D01*
X144113712Y-101653712D01*
X144047407Y-101752946D01*
X144024123Y-101870000D01*
X144024123Y-102370000D01*
X144047407Y-102487054D01*
X144113712Y-102586288D01*
X144212946Y-102652593D01*
X144330000Y-102675877D01*
X145230000Y-102675877D01*
X145347054Y-102652593D01*
X145446288Y-102586288D01*
X145512593Y-102487054D01*
X145535877Y-102370000D01*
X145535877Y-101870000D01*
X145512593Y-101752946D01*
X145446288Y-101653712D01*
X145347054Y-101587407D01*
X145230000Y-101564123D01*
X145180000Y-101564123D01*
X145180000Y-101554886D01*
X145373368Y-101361518D01*
X145479936Y-101104239D01*
X145479936Y-100825761D01*
X145373368Y-100568482D01*
X145176454Y-100371568D01*
X144919175Y-100265000D01*
X144640697Y-100265000D01*
X144383418Y-100371568D01*
X144279935Y-100475052D01*
X144176451Y-100371568D01*
X143919172Y-100265000D01*
X143640694Y-100265000D01*
X143383415Y-100371568D01*
X143189983Y-100565000D01*
X142914394Y-100565000D01*
X142875000Y-100557164D01*
X142835606Y-100565000D01*
X142718928Y-100588209D01*
X142586616Y-100676616D01*
X142564299Y-100710016D01*
X141985018Y-101289297D01*
X141951616Y-101311616D01*
X141874836Y-101426528D01*
X141863209Y-101443929D01*
X141839301Y-101564123D01*
X141790000Y-101564123D01*
X141672946Y-101587407D01*
X141573712Y-101653712D01*
X141507407Y-101752946D01*
X141484123Y-101870000D01*
X140455877Y-101870000D01*
X140432593Y-101752946D01*
X140366288Y-101653712D01*
X140267054Y-101587407D01*
X140150000Y-101564123D01*
X140100000Y-101564123D01*
X140100000Y-101554950D01*
X140293432Y-101361518D01*
X140400000Y-101104239D01*
X140400000Y-100825761D01*
X140293432Y-100568482D01*
X140096518Y-100371568D01*
X139839239Y-100265000D01*
X139560761Y-100265000D01*
X139303482Y-100371568D01*
X139106568Y-100568482D01*
X139000000Y-100825761D01*
X139000000Y-101104239D01*
X139106568Y-101361518D01*
X139300000Y-101554950D01*
X139300000Y-101564123D01*
X139250000Y-101564123D01*
X139132946Y-101587407D01*
X139033712Y-101653712D01*
X138967407Y-101752946D01*
X138944123Y-101870000D01*
X137915877Y-101870000D01*
X137892593Y-101752946D01*
X137826288Y-101653712D01*
X137727054Y-101587407D01*
X137610000Y-101564123D01*
X137560700Y-101564123D01*
X137560000Y-101560606D01*
X137536791Y-101443928D01*
X137448384Y-101311616D01*
X137414987Y-101289301D01*
X136350317Y-100224633D01*
X136483432Y-100091518D01*
X136590000Y-99834239D01*
X136590000Y-99555761D01*
X136483432Y-99298482D01*
X136286518Y-99101568D01*
X136029239Y-98995000D01*
X135750761Y-98995000D01*
X135493482Y-99101568D01*
X135320001Y-99275049D01*
X135146520Y-99101568D01*
X134889241Y-98995000D01*
X134610763Y-98995000D01*
X134353484Y-99101568D01*
X134160052Y-99295000D01*
X130975685Y-99295000D01*
X129215703Y-97535019D01*
X129193384Y-97501616D01*
X129061072Y-97413209D01*
X128944394Y-97390000D01*
X128905000Y-97382164D01*
X128865606Y-97390000D01*
X128259231Y-97390000D01*
X128248487Y-97335986D01*
X127991309Y-96951091D01*
X127647851Y-96721600D01*
X128136939Y-96721600D01*
X128360405Y-96629037D01*
X128531438Y-96458004D01*
X128624000Y-96234538D01*
X128624000Y-95556000D01*
X128472000Y-95404000D01*
X127154000Y-95404000D01*
X127154000Y-95424000D01*
X126846000Y-95424000D01*
X126846000Y-95404000D01*
X125528000Y-95404000D01*
X125376000Y-95556000D01*
X125376000Y-96234538D01*
X125468562Y-96458004D01*
X125639595Y-96629037D01*
X125863061Y-96721600D01*
X126352149Y-96721600D01*
X126008691Y-96951091D01*
X125751513Y-97335986D01*
X125661204Y-97790000D01*
X125751513Y-98244014D01*
X126008691Y-98628909D01*
X126393586Y-98886087D01*
X126732997Y-98953600D01*
X127267003Y-98953600D01*
X127606414Y-98886087D01*
X127991309Y-98628909D01*
X128248487Y-98244014D01*
X128259231Y-98190000D01*
X128739316Y-98190000D01*
X130499299Y-99949984D01*
X130521616Y-99983384D01*
X130538192Y-99994459D01*
X130467616Y-100041616D01*
X130445301Y-100075013D01*
X128190746Y-102329570D01*
X127991309Y-102031091D01*
X127606414Y-101773913D01*
X127267003Y-101706400D01*
X126732997Y-101706400D01*
X126393586Y-101773913D01*
X126008691Y-102031091D01*
X125751513Y-102415986D01*
X125696081Y-102694659D01*
X124860000Y-101858578D01*
X124860000Y-100330000D01*
X125661204Y-100330000D01*
X125751513Y-100784014D01*
X126008691Y-101168909D01*
X126393586Y-101426087D01*
X126732997Y-101493600D01*
X127267003Y-101493600D01*
X127606414Y-101426087D01*
X127991309Y-101168909D01*
X128248487Y-100784014D01*
X128338796Y-100330000D01*
X128248487Y-99875986D01*
X127991309Y-99491091D01*
X127606414Y-99233913D01*
X127267003Y-99166400D01*
X126732997Y-99166400D01*
X126393586Y-99233913D01*
X126008691Y-99491091D01*
X125751513Y-99875986D01*
X125661204Y-100330000D01*
X124860000Y-100330000D01*
X124860000Y-94265462D01*
X125376000Y-94265462D01*
X125376000Y-94944000D01*
X125528000Y-95096000D01*
X126846000Y-95096000D01*
X126846000Y-93930400D01*
X127154000Y-93930400D01*
X127154000Y-95096000D01*
X128472000Y-95096000D01*
X128624000Y-94944000D01*
X128624000Y-94265462D01*
X128531438Y-94041996D01*
X128360405Y-93870963D01*
X128136939Y-93778400D01*
X127306000Y-93778400D01*
X127154000Y-93930400D01*
X126846000Y-93930400D01*
X126694000Y-93778400D01*
X125863061Y-93778400D01*
X125639595Y-93870963D01*
X125468562Y-94041996D01*
X125376000Y-94265462D01*
X124860000Y-94265462D01*
X124860000Y-91721000D01*
X126532000Y-91721000D01*
X126532000Y-92385939D01*
X126624563Y-92609405D01*
X126795596Y-92780438D01*
X127019062Y-92873000D01*
X127334000Y-92873000D01*
X127486000Y-92721000D01*
X127486000Y-91569000D01*
X127794000Y-91569000D01*
X127794000Y-92721000D01*
X127946000Y-92873000D01*
X128260938Y-92873000D01*
X128484404Y-92780438D01*
X128655437Y-92609405D01*
X128748000Y-92385939D01*
X128748000Y-91721000D01*
X128596000Y-91569000D01*
X127794000Y-91569000D01*
X127486000Y-91569000D01*
X126684000Y-91569000D01*
X126532000Y-91721000D01*
X124860000Y-91721000D01*
X124860000Y-90444061D01*
X126532000Y-90444061D01*
X126532000Y-91109000D01*
X126684000Y-91261000D01*
X127486000Y-91261000D01*
X127486000Y-90109000D01*
X127794000Y-90109000D01*
X127794000Y-91261000D01*
X128596000Y-91261000D01*
X128748000Y-91109000D01*
X128748000Y-90444061D01*
X128655437Y-90220595D01*
X128484404Y-90049562D01*
X128260938Y-89957000D01*
X127946000Y-89957000D01*
X127794000Y-90109000D01*
X127486000Y-90109000D01*
X127334000Y-89957000D01*
X127019062Y-89957000D01*
X126795596Y-90049562D01*
X126624563Y-90220595D01*
X126532000Y-90444061D01*
X124860000Y-90444061D01*
X124860000Y-85421000D01*
X126532000Y-85421000D01*
X126532000Y-86085939D01*
X126624563Y-86309405D01*
X126795596Y-86480438D01*
X127019062Y-86573000D01*
X127334000Y-86573000D01*
X127486000Y-86421000D01*
X127486000Y-85269000D01*
X127794000Y-85269000D01*
X127794000Y-86421000D01*
X127946000Y-86573000D01*
X128260938Y-86573000D01*
X128484404Y-86480438D01*
X128655437Y-86309405D01*
X128748000Y-86085939D01*
X128748000Y-85421000D01*
X128596000Y-85269000D01*
X127794000Y-85269000D01*
X127486000Y-85269000D01*
X126684000Y-85269000D01*
X126532000Y-85421000D01*
X124860000Y-85421000D01*
X124860000Y-84144061D01*
X126532000Y-84144061D01*
X126532000Y-84809000D01*
X126684000Y-84961000D01*
X127486000Y-84961000D01*
X127486000Y-83809000D01*
X127794000Y-83809000D01*
X127794000Y-84961000D01*
X128596000Y-84961000D01*
X128748000Y-84809000D01*
X128748000Y-84265000D01*
X130634123Y-84265000D01*
X130634123Y-85965000D01*
X130657407Y-86082054D01*
X130723712Y-86181288D01*
X130822946Y-86247593D01*
X130940000Y-86270877D01*
X131040001Y-86270877D01*
X131040000Y-90259123D01*
X130940000Y-90259123D01*
X130822946Y-90282407D01*
X130723712Y-90348712D01*
X130657407Y-90447946D01*
X130634123Y-90565000D01*
X130634123Y-92265000D01*
X130657407Y-92382054D01*
X130723712Y-92481288D01*
X130822946Y-92547593D01*
X130940000Y-92570877D01*
X131040000Y-92570877D01*
X131040001Y-93705602D01*
X131032164Y-93745000D01*
X131063209Y-93901071D01*
X131069185Y-93910014D01*
X131119123Y-93984753D01*
X131119123Y-94430000D01*
X131142407Y-94547054D01*
X131208712Y-94646288D01*
X131307946Y-94712593D01*
X131425000Y-94735877D01*
X131925000Y-94735877D01*
X132042054Y-94712593D01*
X132141288Y-94646288D01*
X132207593Y-94547054D01*
X132230877Y-94430000D01*
X132230877Y-93530000D01*
X132619123Y-93530000D01*
X132619123Y-94430000D01*
X132642407Y-94547054D01*
X132708712Y-94646288D01*
X132807946Y-94712593D01*
X132925000Y-94735877D01*
X133425000Y-94735877D01*
X133542054Y-94712593D01*
X133641288Y-94646288D01*
X133707593Y-94547054D01*
X133730877Y-94430000D01*
X133730877Y-94380000D01*
X134879123Y-94380000D01*
X134879123Y-94515000D01*
X134902407Y-94632054D01*
X134957829Y-94715000D01*
X134902407Y-94797946D01*
X134879123Y-94915000D01*
X134879123Y-95615000D01*
X134902407Y-95732054D01*
X134957829Y-95815000D01*
X134902407Y-95897946D01*
X134879123Y-96015000D01*
X134879123Y-96715000D01*
X134902407Y-96832054D01*
X134907716Y-96840000D01*
X134902407Y-96847946D01*
X134879123Y-96965000D01*
X134879123Y-97665000D01*
X134902407Y-97782054D01*
X134968712Y-97881288D01*
X135067946Y-97947593D01*
X135185000Y-97970877D01*
X136385000Y-97970877D01*
X136502054Y-97947593D01*
X136601288Y-97881288D01*
X136667593Y-97782054D01*
X136680931Y-97715000D01*
X137365050Y-97715000D01*
X137398482Y-97748432D01*
X137655761Y-97855000D01*
X137934239Y-97855000D01*
X138191518Y-97748432D01*
X138321582Y-97618368D01*
X138331616Y-97633384D01*
X138463928Y-97721791D01*
X138620000Y-97752836D01*
X138659394Y-97745000D01*
X138899316Y-97745000D01*
X139179123Y-98024808D01*
X139179123Y-98765000D01*
X139202407Y-98882054D01*
X139268712Y-98981288D01*
X139367946Y-99047593D01*
X139485000Y-99070877D01*
X140685000Y-99070877D01*
X140802054Y-99047593D01*
X140901288Y-98981288D01*
X140967593Y-98882054D01*
X140990877Y-98765000D01*
X140990877Y-97765000D01*
X140967593Y-97647946D01*
X140901288Y-97548712D01*
X140802054Y-97482407D01*
X140685000Y-97459123D01*
X139744808Y-97459123D01*
X139417393Y-97131709D01*
X139461518Y-97113432D01*
X139565002Y-97009949D01*
X139668485Y-97113432D01*
X139925764Y-97220000D01*
X140204242Y-97220000D01*
X140461521Y-97113432D01*
X140628448Y-96946505D01*
X140645289Y-96971711D01*
X140677732Y-96993388D01*
X140716000Y-97001000D01*
X141886000Y-97001000D01*
X141886000Y-97663000D01*
X141893612Y-97701268D01*
X141915289Y-97733711D01*
X141947732Y-97755388D01*
X141986000Y-97763000D01*
X145579521Y-97763000D01*
X145579123Y-97765000D01*
X145579123Y-98765000D01*
X145602407Y-98882054D01*
X145668712Y-98981288D01*
X145767946Y-99047593D01*
X145885000Y-99070877D01*
X146685000Y-99070877D01*
X146802054Y-99047593D01*
X146901288Y-98981288D01*
X146967593Y-98882054D01*
X146990877Y-98765000D01*
X146990877Y-98665000D01*
X147125337Y-98665000D01*
X147190169Y-98821518D01*
X147363651Y-98995000D01*
X147180761Y-98995000D01*
X146923482Y-99101568D01*
X146726568Y-99298482D01*
X146620000Y-99555761D01*
X146620000Y-99765820D01*
X146518641Y-99664461D01*
X146261362Y-99557893D01*
X145982884Y-99557893D01*
X145725605Y-99664461D01*
X145528691Y-99861375D01*
X145422123Y-100118654D01*
X145422123Y-100397132D01*
X145528691Y-100654411D01*
X145725605Y-100851325D01*
X145982884Y-100957893D01*
X146256438Y-100957893D01*
X146267135Y-100968590D01*
X146267138Y-100968592D01*
X146863885Y-101565339D01*
X146752946Y-101587407D01*
X146653712Y-101653712D01*
X146587407Y-101752946D01*
X146564123Y-101870000D01*
X146564123Y-102370000D01*
X146587407Y-102487054D01*
X146653712Y-102586288D01*
X146752946Y-102652593D01*
X146870000Y-102675877D01*
X147770000Y-102675877D01*
X147887054Y-102652593D01*
X147986288Y-102586288D01*
X148052593Y-102487054D01*
X148075877Y-102370000D01*
X148075877Y-101870000D01*
X148052593Y-101752946D01*
X147986288Y-101653712D01*
X147887054Y-101587407D01*
X147770000Y-101564123D01*
X147720000Y-101564123D01*
X147720000Y-101495164D01*
X147727836Y-101455770D01*
X147696791Y-101299698D01*
X147681690Y-101277098D01*
X147608384Y-101167386D01*
X147574984Y-101145069D01*
X146832822Y-100402908D01*
X146832820Y-100402905D01*
X146822123Y-100392208D01*
X146822123Y-100187073D01*
X146923482Y-100288432D01*
X147180761Y-100395000D01*
X147369316Y-100395000D01*
X149104123Y-102129808D01*
X149104123Y-102370000D01*
X149127407Y-102487054D01*
X149193712Y-102586288D01*
X149292946Y-102652593D01*
X149410000Y-102675877D01*
X150310000Y-102675877D01*
X150427054Y-102652593D01*
X150526288Y-102586288D01*
X150592593Y-102487054D01*
X150615877Y-102370000D01*
X150615877Y-101870000D01*
X150592593Y-101752946D01*
X150526288Y-101653712D01*
X150427054Y-101587407D01*
X150310000Y-101564123D01*
X149669808Y-101564123D01*
X148500684Y-100395000D01*
X148664239Y-100395000D01*
X148921518Y-100288432D01*
X149019189Y-100190761D01*
X149160000Y-100190761D01*
X149160000Y-100469239D01*
X149266568Y-100726518D01*
X149463482Y-100923432D01*
X149720761Y-101030000D01*
X149999239Y-101030000D01*
X150256518Y-100923432D01*
X150449950Y-100730000D01*
X151725606Y-100730000D01*
X151738595Y-100732584D01*
X151700000Y-100825761D01*
X151700000Y-101104239D01*
X151806568Y-101361518D01*
X152003482Y-101558432D01*
X152260761Y-101665000D01*
X152539239Y-101665000D01*
X152796518Y-101558432D01*
X152969628Y-101385322D01*
X152988627Y-101480834D01*
X153054932Y-101580068D01*
X153154166Y-101646373D01*
X153271220Y-101669657D01*
X154068780Y-101669657D01*
X154185834Y-101646373D01*
X154285068Y-101580068D01*
X154351373Y-101480834D01*
X154374657Y-101363780D01*
X154374657Y-100566220D01*
X154351373Y-100449166D01*
X154285068Y-100349932D01*
X154185834Y-100283627D01*
X154068780Y-100260343D01*
X153271220Y-100260343D01*
X153154166Y-100283627D01*
X153054932Y-100349932D01*
X152988627Y-100449166D01*
X152969628Y-100544678D01*
X152796518Y-100371568D01*
X152539239Y-100265000D01*
X152395685Y-100265000D01*
X152900686Y-99760000D01*
X153174239Y-99760000D01*
X153431518Y-99653432D01*
X153628432Y-99456518D01*
X153735000Y-99199239D01*
X153735000Y-98920761D01*
X153628432Y-98663482D01*
X153431518Y-98466568D01*
X153174239Y-98360000D01*
X152895761Y-98360000D01*
X152638482Y-98466568D01*
X152441568Y-98663482D01*
X152335000Y-98920761D01*
X152335000Y-99194314D01*
X151599316Y-99930000D01*
X150449950Y-99930000D01*
X150256518Y-99736568D01*
X149999239Y-99630000D01*
X149720761Y-99630000D01*
X149463482Y-99736568D01*
X149266568Y-99933482D01*
X149160000Y-100190761D01*
X149019189Y-100190761D01*
X149118432Y-100091518D01*
X149225000Y-99834239D01*
X149225000Y-99555761D01*
X149118432Y-99298482D01*
X149092817Y-99272867D01*
X149294807Y-99070877D01*
X151835000Y-99070877D01*
X151952054Y-99047593D01*
X152051288Y-98981288D01*
X152117593Y-98882054D01*
X152140877Y-98765000D01*
X152140877Y-97765000D01*
X152117593Y-97647946D01*
X152051288Y-97548712D01*
X151952054Y-97482407D01*
X151835000Y-97459123D01*
X150835000Y-97459123D01*
X150835000Y-97136842D01*
X150891518Y-97113432D01*
X151088432Y-96916518D01*
X151195000Y-96659239D01*
X151195000Y-96380761D01*
X151088432Y-96123482D01*
X150891518Y-95926568D01*
X150634239Y-95820000D01*
X150355761Y-95820000D01*
X150098482Y-95926568D01*
X149901568Y-96123482D01*
X149795000Y-96380761D01*
X149795000Y-96547000D01*
X143975065Y-96547000D01*
X144103432Y-96418633D01*
X144210000Y-96161354D01*
X144210000Y-95882876D01*
X144103432Y-95625597D01*
X143910000Y-95432165D01*
X143910000Y-94640335D01*
X144005761Y-94680000D01*
X144237671Y-94680000D01*
X144207079Y-94753856D01*
X144207079Y-95032334D01*
X144313647Y-95289613D01*
X144510561Y-95486527D01*
X144767840Y-95593095D01*
X145046318Y-95593095D01*
X145303597Y-95486527D01*
X145500511Y-95289613D01*
X145607079Y-95032334D01*
X145607079Y-94753856D01*
X145500511Y-94496577D01*
X145307079Y-94303145D01*
X145307079Y-93366081D01*
X145314915Y-93326687D01*
X145284157Y-93172061D01*
X145399604Y-93056614D01*
X145506172Y-92799335D01*
X145506172Y-92520857D01*
X145399604Y-92263578D01*
X145202690Y-92066664D01*
X145149480Y-92044624D01*
X145176500Y-92033432D01*
X145373414Y-91836518D01*
X145479982Y-91579239D01*
X145479982Y-91300761D01*
X145373414Y-91043482D01*
X145176500Y-90846568D01*
X144919221Y-90740000D01*
X144640743Y-90740000D01*
X144383464Y-90846568D01*
X144186550Y-91043482D01*
X144079982Y-91300761D01*
X144079982Y-91574315D01*
X143490019Y-92164278D01*
X143456617Y-92186597D01*
X143370823Y-92315000D01*
X143368210Y-92318910D01*
X143337165Y-92474981D01*
X143345001Y-92514375D01*
X143345002Y-93540603D01*
X143337165Y-93580001D01*
X143352680Y-93657997D01*
X143275000Y-93580318D01*
X143275000Y-85764394D01*
X143282836Y-85725000D01*
X143251791Y-85568928D01*
X143199054Y-85490000D01*
X146575606Y-85490000D01*
X146615000Y-85497836D01*
X146654394Y-85490000D01*
X146771072Y-85466791D01*
X146903384Y-85378384D01*
X146925703Y-85344981D01*
X148155684Y-84115000D01*
X149629123Y-84115000D01*
X149629123Y-85415000D01*
X149652407Y-85532054D01*
X149718712Y-85631288D01*
X149817946Y-85697593D01*
X149935000Y-85720877D01*
X150268820Y-85720877D01*
X150268000Y-85725000D01*
X150268000Y-88773000D01*
X150275612Y-88811268D01*
X150297289Y-88843711D01*
X150329732Y-88865388D01*
X150368000Y-88873000D01*
X152146000Y-88873000D01*
X152184268Y-88865388D01*
X152216711Y-88843711D01*
X152238388Y-88811268D01*
X152246000Y-88773000D01*
X152246000Y-85725000D01*
X152238388Y-85686732D01*
X152216711Y-85654289D01*
X152184268Y-85632612D01*
X152146000Y-85625000D01*
X152055489Y-85625000D01*
X152117593Y-85532054D01*
X152140877Y-85415000D01*
X152140877Y-85165000D01*
X153320606Y-85165000D01*
X153360000Y-85172836D01*
X153399394Y-85165000D01*
X153504452Y-85144102D01*
X153530761Y-85155000D01*
X153809239Y-85155000D01*
X154066518Y-85048432D01*
X154263432Y-84851518D01*
X154370000Y-84594239D01*
X154370000Y-84315761D01*
X154263432Y-84058482D01*
X154066518Y-83861568D01*
X153809239Y-83755000D01*
X153530761Y-83755000D01*
X153273482Y-83861568D01*
X153076568Y-84058482D01*
X152970000Y-84315761D01*
X152970000Y-84365000D01*
X152140877Y-84365000D01*
X152140877Y-84115000D01*
X152117593Y-83997946D01*
X152051288Y-83898712D01*
X151952054Y-83832407D01*
X151835000Y-83809123D01*
X149935000Y-83809123D01*
X149817946Y-83832407D01*
X149718712Y-83898712D01*
X149652407Y-83997946D01*
X149629123Y-84115000D01*
X148155684Y-84115000D01*
X150114985Y-82155700D01*
X150148384Y-82133384D01*
X150236791Y-82001072D01*
X150246776Y-81950877D01*
X150310000Y-81950877D01*
X150427054Y-81927593D01*
X150526288Y-81861288D01*
X150592593Y-81762054D01*
X150615877Y-81645000D01*
X150615877Y-81145000D01*
X150592593Y-81027946D01*
X150526288Y-80928712D01*
X150427054Y-80862407D01*
X150310000Y-80839123D01*
X149410000Y-80839123D01*
X149292946Y-80862407D01*
X149193712Y-80928712D01*
X149127407Y-81027946D01*
X149104123Y-81145000D01*
X149104123Y-81645000D01*
X149127407Y-81762054D01*
X149193712Y-81861288D01*
X149244256Y-81895060D01*
X146449316Y-84690000D01*
X142829950Y-84690000D01*
X142690000Y-84550050D01*
X142690000Y-83680761D01*
X144080000Y-83680761D01*
X144080000Y-83959239D01*
X144186568Y-84216518D01*
X144383482Y-84413432D01*
X144640761Y-84520000D01*
X144919239Y-84520000D01*
X145176518Y-84413432D01*
X145369950Y-84220000D01*
X145453686Y-84220000D01*
X145493080Y-84227836D01*
X145532474Y-84220000D01*
X145649152Y-84196791D01*
X145781464Y-84108384D01*
X145803783Y-84074981D01*
X147574984Y-82303781D01*
X147608384Y-82281464D01*
X147696791Y-82149152D01*
X147706776Y-82098957D01*
X147718780Y-82098957D01*
X147835834Y-82075673D01*
X147935068Y-82009368D01*
X148001373Y-81910134D01*
X148024657Y-81793080D01*
X148024657Y-80995520D01*
X148001373Y-80878466D01*
X147935068Y-80779232D01*
X147835834Y-80712927D01*
X147718780Y-80689643D01*
X146921220Y-80689643D01*
X146804166Y-80712927D01*
X146704932Y-80779232D01*
X146638627Y-80878466D01*
X146615343Y-80995520D01*
X146615343Y-81793080D01*
X146638627Y-81910134D01*
X146704932Y-82009368D01*
X146724771Y-82022624D01*
X145348673Y-83398723D01*
X145176518Y-83226568D01*
X144919239Y-83120000D01*
X144640761Y-83120000D01*
X144383482Y-83226568D01*
X144186568Y-83423482D01*
X144080000Y-83680761D01*
X142690000Y-83680761D01*
X142690000Y-83365291D01*
X142694791Y-83358121D01*
X142720900Y-83226861D01*
X142720900Y-83226857D01*
X142729715Y-83182541D01*
X142720900Y-83138224D01*
X142720900Y-83048374D01*
X142753493Y-82999594D01*
X142776777Y-82882540D01*
X142776777Y-82776053D01*
X143018510Y-82937574D01*
X143244570Y-82982540D01*
X143697230Y-82982540D01*
X143923290Y-82937574D01*
X144179644Y-82766284D01*
X144350934Y-82509930D01*
X144411083Y-82207540D01*
X144350934Y-81905150D01*
X144179644Y-81648796D01*
X143923290Y-81477506D01*
X143697230Y-81432540D01*
X143244570Y-81432540D01*
X143018510Y-81477506D01*
X142776777Y-81639027D01*
X142776777Y-81532540D01*
X142753493Y-81415486D01*
X142687188Y-81316252D01*
X142587954Y-81249947D01*
X142470900Y-81226663D01*
X142070900Y-81226663D01*
X141953846Y-81249947D01*
X141945900Y-81255256D01*
X141937954Y-81249947D01*
X141820900Y-81226663D01*
X141420900Y-81226663D01*
X141303846Y-81249947D01*
X141295900Y-81255256D01*
X141287954Y-81249947D01*
X141170900Y-81226663D01*
X140770900Y-81226663D01*
X140653846Y-81249947D01*
X140645900Y-81255256D01*
X140637954Y-81249947D01*
X140520900Y-81226663D01*
X140120900Y-81226663D01*
X140003846Y-81249947D01*
X139995900Y-81255256D01*
X139987954Y-81249947D01*
X139870900Y-81226663D01*
X139470900Y-81226663D01*
X139353846Y-81249947D01*
X139254612Y-81316252D01*
X139188307Y-81415486D01*
X139165023Y-81532540D01*
X139165023Y-81639027D01*
X138923290Y-81477506D01*
X138697230Y-81432540D01*
X138244570Y-81432540D01*
X138018510Y-81477506D01*
X137762156Y-81648796D01*
X137590866Y-81905150D01*
X137530717Y-82207540D01*
X137590866Y-82509930D01*
X137762156Y-82766284D01*
X138018510Y-82937574D01*
X138244570Y-82982540D01*
X138697230Y-82982540D01*
X138923290Y-82937574D01*
X139165023Y-82776053D01*
X139165023Y-82882540D01*
X139188307Y-82999594D01*
X139254612Y-83098828D01*
X139270901Y-83109712D01*
X139270901Y-83259149D01*
X139106568Y-83423482D01*
X139000000Y-83680761D01*
X139000000Y-83959239D01*
X139106568Y-84216518D01*
X139303482Y-84413432D01*
X139560761Y-84520000D01*
X139834333Y-84520000D01*
X139510025Y-84844308D01*
X139476626Y-84866625D01*
X139420409Y-84950761D01*
X139388218Y-84998938D01*
X139357173Y-85155009D01*
X139365010Y-85194408D01*
X139365010Y-90171590D01*
X139204247Y-90105000D01*
X138930693Y-90105000D01*
X138335711Y-89510018D01*
X138313392Y-89476616D01*
X138181080Y-89388209D01*
X138064402Y-89365000D01*
X138025008Y-89357164D01*
X137985614Y-89365000D01*
X136680931Y-89365000D01*
X136667593Y-89297946D01*
X136612171Y-89215000D01*
X136667593Y-89132054D01*
X136690877Y-89015000D01*
X136690877Y-88315000D01*
X136667593Y-88197946D01*
X136601288Y-88098712D01*
X136502054Y-88032407D01*
X136385000Y-88009123D01*
X135185000Y-88009123D01*
X135067946Y-88032407D01*
X134968712Y-88098712D01*
X134902407Y-88197946D01*
X134879123Y-88315000D01*
X134879123Y-89015000D01*
X134902407Y-89132054D01*
X134957829Y-89215000D01*
X134902407Y-89297946D01*
X134879123Y-89415000D01*
X134879123Y-90115000D01*
X134902407Y-90232054D01*
X134957829Y-90315000D01*
X134902407Y-90397946D01*
X134879123Y-90515000D01*
X134879123Y-91215000D01*
X134902407Y-91332054D01*
X134957829Y-91415000D01*
X134902407Y-91497946D01*
X134879123Y-91615000D01*
X134879123Y-92315000D01*
X134902407Y-92432054D01*
X134957829Y-92515000D01*
X134902407Y-92597946D01*
X134879123Y-92715000D01*
X134879123Y-93415000D01*
X134902407Y-93532054D01*
X134934443Y-93580000D01*
X133730877Y-93580000D01*
X133730877Y-93530000D01*
X133707593Y-93412946D01*
X133641288Y-93313712D01*
X133542054Y-93247407D01*
X133425000Y-93224123D01*
X132925000Y-93224123D01*
X132807946Y-93247407D01*
X132708712Y-93313712D01*
X132642407Y-93412946D01*
X132619123Y-93530000D01*
X132230877Y-93530000D01*
X132207593Y-93412946D01*
X132141288Y-93313712D01*
X132042054Y-93247407D01*
X131925000Y-93224123D01*
X131840000Y-93224123D01*
X131840000Y-92570877D01*
X131940000Y-92570877D01*
X132057054Y-92547593D01*
X132156288Y-92481288D01*
X132222593Y-92382054D01*
X132245877Y-92265000D01*
X132245877Y-91840000D01*
X132760050Y-91840000D01*
X132953482Y-92033432D01*
X133210761Y-92140000D01*
X133489239Y-92140000D01*
X133746518Y-92033432D01*
X133943432Y-91836518D01*
X134050000Y-91579239D01*
X134050000Y-91300761D01*
X133943432Y-91043482D01*
X133746518Y-90846568D01*
X133489239Y-90740000D01*
X133210761Y-90740000D01*
X132953482Y-90846568D01*
X132760050Y-91040000D01*
X132245877Y-91040000D01*
X132245877Y-90565000D01*
X132222593Y-90447946D01*
X132156288Y-90348712D01*
X132057054Y-90282407D01*
X131940000Y-90259123D01*
X131840000Y-90259123D01*
X131840000Y-86615000D01*
X134879123Y-86615000D01*
X134879123Y-87615000D01*
X134902407Y-87732054D01*
X134968712Y-87831288D01*
X135067946Y-87897593D01*
X135185000Y-87920877D01*
X136385000Y-87920877D01*
X136502054Y-87897593D01*
X136601288Y-87831288D01*
X136667593Y-87732054D01*
X136690877Y-87615000D01*
X136690877Y-86874808D01*
X137140686Y-86425000D01*
X137299239Y-86425000D01*
X137556518Y-86318432D01*
X137753432Y-86121518D01*
X137860000Y-85864239D01*
X137860000Y-85585761D01*
X137753432Y-85328482D01*
X137556518Y-85131568D01*
X137299239Y-85025000D01*
X137020761Y-85025000D01*
X136763482Y-85131568D01*
X136566568Y-85328482D01*
X136460000Y-85585761D01*
X136460000Y-85864239D01*
X136492240Y-85942074D01*
X136125192Y-86309123D01*
X135185000Y-86309123D01*
X135067946Y-86332407D01*
X134968712Y-86398712D01*
X134902407Y-86497946D01*
X134879123Y-86615000D01*
X131840000Y-86615000D01*
X131840000Y-86270877D01*
X131940000Y-86270877D01*
X132057054Y-86247593D01*
X132156288Y-86181288D01*
X132222593Y-86082054D01*
X132245877Y-85965000D01*
X132245877Y-84265000D01*
X132222593Y-84147946D01*
X132156288Y-84048712D01*
X132057054Y-83982407D01*
X131940000Y-83959123D01*
X130940000Y-83959123D01*
X130822946Y-83982407D01*
X130723712Y-84048712D01*
X130657407Y-84147946D01*
X130634123Y-84265000D01*
X128748000Y-84265000D01*
X128748000Y-84144061D01*
X128655437Y-83920595D01*
X128484404Y-83749562D01*
X128260938Y-83657000D01*
X127946000Y-83657000D01*
X127794000Y-83809000D01*
X127486000Y-83809000D01*
X127334000Y-83657000D01*
X127019062Y-83657000D01*
X126795596Y-83749562D01*
X126624563Y-83920595D01*
X126532000Y-84144061D01*
X124860000Y-84144061D01*
X124860000Y-80032362D01*
X124920518Y-79492828D01*
X125035000Y-79492828D01*
X125035000Y-80527172D01*
X125430826Y-81482782D01*
X126162218Y-82214174D01*
X127117828Y-82610000D01*
X128152172Y-82610000D01*
X129107782Y-82214174D01*
X129839174Y-81482782D01*
X130235000Y-80527172D01*
X130235000Y-79492828D01*
X130094550Y-79153751D01*
X136670900Y-79153751D01*
X136670900Y-79861328D01*
X136717317Y-80094683D01*
X136894133Y-80359307D01*
X137158756Y-80536123D01*
X137470900Y-80598212D01*
X137783043Y-80536123D01*
X138047667Y-80359307D01*
X138224483Y-80094684D01*
X138270900Y-79861329D01*
X138270900Y-79153751D01*
X143670900Y-79153751D01*
X143670900Y-79861328D01*
X143717317Y-80094683D01*
X143894133Y-80359307D01*
X144158756Y-80536123D01*
X144470900Y-80598212D01*
X144783043Y-80536123D01*
X145047667Y-80359307D01*
X145224483Y-80094684D01*
X145270900Y-79861329D01*
X145270900Y-79496920D01*
X146615343Y-79496920D01*
X146615343Y-80294480D01*
X146638627Y-80411534D01*
X146704932Y-80510768D01*
X146804166Y-80577073D01*
X146921220Y-80600357D01*
X147718780Y-80600357D01*
X147835834Y-80577073D01*
X147935068Y-80510768D01*
X148001373Y-80411534D01*
X148024554Y-80295000D01*
X149149420Y-80295000D01*
X149193712Y-80361288D01*
X149292946Y-80427593D01*
X149410000Y-80450877D01*
X150310000Y-80450877D01*
X150427054Y-80427593D01*
X150526288Y-80361288D01*
X150592593Y-80262054D01*
X150615877Y-80145000D01*
X150615877Y-79645000D01*
X150592593Y-79527946D01*
X150569129Y-79492828D01*
X151705000Y-79492828D01*
X151705000Y-80527172D01*
X152100826Y-81482782D01*
X152832218Y-82214174D01*
X153787828Y-82610000D01*
X154822172Y-82610000D01*
X155777782Y-82214174D01*
X156509174Y-81482782D01*
X156905000Y-80527172D01*
X156905000Y-79492828D01*
X156509174Y-78537218D01*
X155777782Y-77805826D01*
X154822172Y-77410000D01*
X153787828Y-77410000D01*
X152832218Y-77805826D01*
X152100826Y-78537218D01*
X151705000Y-79492828D01*
X150569129Y-79492828D01*
X150526288Y-79428712D01*
X150427054Y-79362407D01*
X150310000Y-79339123D01*
X149410000Y-79339123D01*
X149292946Y-79362407D01*
X149193712Y-79428712D01*
X149149420Y-79495000D01*
X148024275Y-79495000D01*
X148001373Y-79379866D01*
X147935068Y-79280632D01*
X147835834Y-79214327D01*
X147718780Y-79191043D01*
X146921220Y-79191043D01*
X146804166Y-79214327D01*
X146704932Y-79280632D01*
X146638627Y-79379866D01*
X146615343Y-79496920D01*
X145270900Y-79496920D01*
X145270900Y-79153751D01*
X145224483Y-78920396D01*
X145047667Y-78655773D01*
X144783044Y-78478957D01*
X144470900Y-78416868D01*
X144158757Y-78478957D01*
X143894134Y-78655773D01*
X143717317Y-78920396D01*
X143670900Y-79153751D01*
X138270900Y-79153751D01*
X138224483Y-78920396D01*
X138047667Y-78655773D01*
X137783044Y-78478957D01*
X137470900Y-78416868D01*
X137158757Y-78478957D01*
X136894134Y-78655773D01*
X136717317Y-78920396D01*
X136670900Y-79153751D01*
X130094550Y-79153751D01*
X129839174Y-78537218D01*
X129107782Y-77805826D01*
X128152172Y-77410000D01*
X127117828Y-77410000D01*
X126162218Y-77805826D01*
X125430826Y-78537218D01*
X125035000Y-79492828D01*
X124920518Y-79492828D01*
X124931406Y-79395762D01*
X125134679Y-78812042D01*
X125462216Y-78287873D01*
X125897746Y-77849292D01*
X126419620Y-77518101D01*
X127001899Y-77310761D01*
X127637243Y-77235000D01*
X154282638Y-77235000D01*
X154919238Y-77306406D01*
X154919238Y-77306406D01*
G37*
X154919238Y-77306406D02*
X155502958Y-77509679D01*
X156027127Y-77837216D01*
X156465708Y-78272746D01*
X156796899Y-78794620D01*
X157004239Y-79376899D01*
X157080001Y-80012251D01*
X157080000Y-101858578D01*
X155725877Y-103212701D01*
X155725877Y-102420000D01*
X155702593Y-102302946D01*
X155636288Y-102203712D01*
X155570000Y-102159420D01*
X155570000Y-101669136D01*
X155684434Y-101646373D01*
X155783668Y-101580068D01*
X155849973Y-101480834D01*
X155873257Y-101363780D01*
X155873257Y-100566220D01*
X155849973Y-100449166D01*
X155783668Y-100349932D01*
X155684434Y-100283627D01*
X155567380Y-100260343D01*
X154769820Y-100260343D01*
X154652766Y-100283627D01*
X154553532Y-100349932D01*
X154487227Y-100449166D01*
X154463943Y-100566220D01*
X154463943Y-101363780D01*
X154487227Y-101480834D01*
X154553532Y-101580068D01*
X154652766Y-101646373D01*
X154769820Y-101669657D01*
X154770001Y-101669657D01*
X154770000Y-102159420D01*
X154703712Y-102203712D01*
X154637407Y-102302946D01*
X154614123Y-102420000D01*
X154614123Y-103320000D01*
X154637407Y-103437054D01*
X154703712Y-103536288D01*
X154802946Y-103602593D01*
X154920000Y-103625877D01*
X155312701Y-103625877D01*
X154070000Y-104868578D01*
X154070000Y-103580580D01*
X154136288Y-103536288D01*
X154202593Y-103437054D01*
X154225877Y-103320000D01*
X154225877Y-102420000D01*
X154202593Y-102302946D01*
X154136288Y-102203712D01*
X154037054Y-102137407D01*
X153920000Y-102114123D01*
X153420000Y-102114123D01*
X153302946Y-102137407D01*
X153203712Y-102203712D01*
X153137407Y-102302946D01*
X153114123Y-102420000D01*
X153114123Y-103320000D01*
X153137407Y-103437054D01*
X153203712Y-103536288D01*
X153270000Y-103580580D01*
X153270001Y-105256523D01*
X153187400Y-105256523D01*
X153070346Y-105279807D01*
X152971112Y-105346112D01*
X152904807Y-105445346D01*
X152881523Y-105562400D01*
X152881523Y-106057055D01*
X151810323Y-107128255D01*
X151723432Y-106918482D01*
X151526518Y-106721568D01*
X151269239Y-106615000D01*
X150995684Y-106615000D01*
X150920003Y-106539318D01*
X150897684Y-106505916D01*
X150765372Y-106417509D01*
X150648694Y-106394300D01*
X150609300Y-106386464D01*
X150569906Y-106394300D01*
X150564414Y-106394300D01*
X150541373Y-106278466D01*
X150475068Y-106179232D01*
X150375834Y-106112927D01*
X150258780Y-106089643D01*
X149461220Y-106089643D01*
X149344166Y-106112927D01*
X149244932Y-106179232D01*
X149178627Y-106278466D01*
X149155586Y-106394300D01*
X148024414Y-106394300D01*
X148001373Y-106278466D01*
X147935068Y-106179232D01*
X147835834Y-106112927D01*
X147718780Y-106089643D01*
X146921220Y-106089643D01*
X146804166Y-106112927D01*
X146704932Y-106179232D01*
X146638627Y-106278466D01*
X146615586Y-106394300D01*
X145484414Y-106394300D01*
X145461373Y-106278466D01*
X145395068Y-106179232D01*
X145295834Y-106112927D01*
X145178780Y-106089643D01*
X144381220Y-106089643D01*
X144264166Y-106112927D01*
X144164932Y-106179232D01*
X144098627Y-106278466D01*
X144075586Y-106394300D01*
X142944414Y-106394300D01*
X142921373Y-106278466D01*
X142855068Y-106179232D01*
X142755834Y-106112927D01*
X142638780Y-106089643D01*
X141841220Y-106089643D01*
X141724166Y-106112927D01*
X141624932Y-106179232D01*
X141558627Y-106278466D01*
X141535586Y-106394300D01*
X140404414Y-106394300D01*
X140381373Y-106278466D01*
X140315068Y-106179232D01*
X140215834Y-106112927D01*
X140098780Y-106089643D01*
X139301220Y-106089643D01*
X139184166Y-106112927D01*
X139084932Y-106179232D01*
X139018627Y-106278466D01*
X138995586Y-106394300D01*
X137864414Y-106394300D01*
X137841373Y-106278466D01*
X137775068Y-106179232D01*
X137675834Y-106112927D01*
X137558780Y-106089643D01*
X136761220Y-106089643D01*
X136644166Y-106112927D01*
X136544932Y-106179232D01*
X136478627Y-106278466D01*
X136455586Y-106394300D01*
X135324414Y-106394300D01*
X135301373Y-106278466D01*
X135235068Y-106179232D01*
X135135834Y-106112927D01*
X135018780Y-106089643D01*
X134221220Y-106089643D01*
X134104166Y-106112927D01*
X134004932Y-106179232D01*
X133938627Y-106278466D01*
X133915586Y-106394300D01*
X132784414Y-106394300D01*
X132761373Y-106278466D01*
X132695068Y-106179232D01*
X132595834Y-106112927D01*
X132478780Y-106089643D01*
X131681220Y-106089643D01*
X131564166Y-106112927D01*
X131464932Y-106179232D01*
X131398627Y-106278466D01*
X131375586Y-106394300D01*
X131225864Y-106394300D01*
X131186470Y-106386464D01*
X131147076Y-106394300D01*
X131030398Y-106417509D01*
X130898086Y-106505916D01*
X130875769Y-106539316D01*
X130872200Y-106542885D01*
X130598646Y-106542885D01*
X130341367Y-106649453D01*
X130144453Y-106846367D01*
X130057562Y-107056140D01*
X129058477Y-106057055D01*
X129058477Y-105562400D01*
X129035193Y-105445346D01*
X128968888Y-105346112D01*
X128869654Y-105279807D01*
X128752600Y-105256523D01*
X128257945Y-105256523D01*
X127035022Y-104033600D01*
X127267003Y-104033600D01*
X127606414Y-103966087D01*
X127991309Y-103708909D01*
X128217760Y-103370000D01*
X131324123Y-103370000D01*
X131324123Y-103870000D01*
X131347407Y-103987054D01*
X131413712Y-104086288D01*
X131512946Y-104152593D01*
X131630000Y-104175877D01*
X131680000Y-104175877D01*
X131680001Y-104591286D01*
X131564166Y-104614327D01*
X131464932Y-104680632D01*
X131398627Y-104779866D01*
X131375343Y-104896920D01*
X131375343Y-105694480D01*
X131398627Y-105811534D01*
X131464932Y-105910768D01*
X131564166Y-105977073D01*
X131681220Y-106000357D01*
X132478780Y-106000357D01*
X132595834Y-105977073D01*
X132695068Y-105910768D01*
X132761373Y-105811534D01*
X132784657Y-105694480D01*
X132784657Y-104896920D01*
X132761373Y-104779866D01*
X132695068Y-104680632D01*
X132595834Y-104614327D01*
X132480000Y-104591286D01*
X132480000Y-104175877D01*
X132530000Y-104175877D01*
X132647054Y-104152593D01*
X132746288Y-104086288D01*
X132812593Y-103987054D01*
X132835877Y-103870000D01*
X132835877Y-103370000D01*
X133864123Y-103370000D01*
X133864123Y-103870000D01*
X133887407Y-103987054D01*
X133953712Y-104086288D01*
X134052946Y-104152593D01*
X134170000Y-104175877D01*
X134220000Y-104175877D01*
X134220001Y-104591286D01*
X134104166Y-104614327D01*
X134004932Y-104680632D01*
X133938627Y-104779866D01*
X133915343Y-104896920D01*
X133915343Y-105694480D01*
X133938627Y-105811534D01*
X134004932Y-105910768D01*
X134104166Y-105977073D01*
X134221220Y-106000357D01*
X135018780Y-106000357D01*
X135135834Y-105977073D01*
X135235068Y-105910768D01*
X135301373Y-105811534D01*
X135324657Y-105694480D01*
X135324657Y-104896920D01*
X135301373Y-104779866D01*
X135235068Y-104680632D01*
X135135834Y-104614327D01*
X135020000Y-104591286D01*
X135020000Y-104175877D01*
X135070000Y-104175877D01*
X135187054Y-104152593D01*
X135286288Y-104086288D01*
X135352593Y-103987054D01*
X135375877Y-103870000D01*
X135375877Y-103370000D01*
X136404123Y-103370000D01*
X136404123Y-103870000D01*
X136427407Y-103987054D01*
X136493712Y-104086288D01*
X136592946Y-104152593D01*
X136710000Y-104175877D01*
X136760000Y-104175877D01*
X136760001Y-104591286D01*
X136644166Y-104614327D01*
X136544932Y-104680632D01*
X136478627Y-104779866D01*
X136455343Y-104896920D01*
X136455343Y-105694480D01*
X136478627Y-105811534D01*
X136544932Y-105910768D01*
X136644166Y-105977073D01*
X136761220Y-106000357D01*
X137558780Y-106000357D01*
X137675834Y-105977073D01*
X137775068Y-105910768D01*
X137841373Y-105811534D01*
X137864657Y-105694480D01*
X137864657Y-104896920D01*
X137841373Y-104779866D01*
X137775068Y-104680632D01*
X137675834Y-104614327D01*
X137560000Y-104591286D01*
X137560000Y-104175877D01*
X137610000Y-104175877D01*
X137727054Y-104152593D01*
X137826288Y-104086288D01*
X137892593Y-103987054D01*
X137915877Y-103870000D01*
X137915877Y-103370000D01*
X138944123Y-103370000D01*
X138944123Y-103870000D01*
X138967407Y-103987054D01*
X139033712Y-104086288D01*
X139132946Y-104152593D01*
X139250000Y-104175877D01*
X139300000Y-104175877D01*
X139300001Y-104591286D01*
X139184166Y-104614327D01*
X139084932Y-104680632D01*
X139018627Y-104779866D01*
X138995343Y-104896920D01*
X138995343Y-105694480D01*
X139018627Y-105811534D01*
X139084932Y-105910768D01*
X139184166Y-105977073D01*
X139301220Y-106000357D01*
X140098780Y-106000357D01*
X140215834Y-105977073D01*
X140315068Y-105910768D01*
X140381373Y-105811534D01*
X140404657Y-105694480D01*
X140404657Y-104896920D01*
X140381373Y-104779866D01*
X140315068Y-104680632D01*
X140215834Y-104614327D01*
X140100000Y-104591286D01*
X140100000Y-104175877D01*
X140150000Y-104175877D01*
X140267054Y-104152593D01*
X140366288Y-104086288D01*
X140432593Y-103987054D01*
X140455877Y-103870000D01*
X140455877Y-103370000D01*
X141484123Y-103370000D01*
X141484123Y-103870000D01*
X141507407Y-103987054D01*
X141573712Y-104086288D01*
X141672946Y-104152593D01*
X141790000Y-104175877D01*
X141840000Y-104175877D01*
X141840001Y-104591286D01*
X141724166Y-104614327D01*
X141624932Y-104680632D01*
X141558627Y-104779866D01*
X141535343Y-104896920D01*
X141535343Y-105694480D01*
X141558627Y-105811534D01*
X141624932Y-105910768D01*
X141724166Y-105977073D01*
X141841220Y-106000357D01*
X142638780Y-106000357D01*
X142755834Y-105977073D01*
X142855068Y-105910768D01*
X142921373Y-105811534D01*
X142944657Y-105694480D01*
X142944657Y-104896920D01*
X142921373Y-104779866D01*
X142855068Y-104680632D01*
X142755834Y-104614327D01*
X142640000Y-104591286D01*
X142640000Y-104175877D01*
X142690000Y-104175877D01*
X142807054Y-104152593D01*
X142906288Y-104086288D01*
X142972593Y-103987054D01*
X142995877Y-103870000D01*
X142995877Y-103370000D01*
X144024123Y-103370000D01*
X144024123Y-103870000D01*
X144047407Y-103987054D01*
X144113712Y-104086288D01*
X144212946Y-104152593D01*
X144330000Y-104175877D01*
X144380000Y-104175877D01*
X144380001Y-104591286D01*
X144264166Y-104614327D01*
X144164932Y-104680632D01*
X144098627Y-104779866D01*
X144075343Y-104896920D01*
X144075343Y-105694480D01*
X144098627Y-105811534D01*
X144164932Y-105910768D01*
X144264166Y-105977073D01*
X144381220Y-106000357D01*
X145178780Y-106000357D01*
X145295834Y-105977073D01*
X145395068Y-105910768D01*
X145461373Y-105811534D01*
X145484657Y-105694480D01*
X145484657Y-104896920D01*
X145461373Y-104779866D01*
X145395068Y-104680632D01*
X145295834Y-104614327D01*
X145180000Y-104591286D01*
X145180000Y-104175877D01*
X145230000Y-104175877D01*
X145347054Y-104152593D01*
X145446288Y-104086288D01*
X145512593Y-103987054D01*
X145535877Y-103870000D01*
X145535877Y-103370000D01*
X146564123Y-103370000D01*
X146564123Y-103870000D01*
X146587407Y-103987054D01*
X146653712Y-104086288D01*
X146752946Y-104152593D01*
X146870000Y-104175877D01*
X146920000Y-104175877D01*
X146920001Y-104591286D01*
X146804166Y-104614327D01*
X146704932Y-104680632D01*
X146638627Y-104779866D01*
X146615343Y-104896920D01*
X146615343Y-105694480D01*
X146638627Y-105811534D01*
X146704932Y-105910768D01*
X146804166Y-105977073D01*
X146921220Y-106000357D01*
X147718780Y-106000357D01*
X147835834Y-105977073D01*
X147935068Y-105910768D01*
X148001373Y-105811534D01*
X148024657Y-105694480D01*
X148024657Y-104896920D01*
X148001373Y-104779866D01*
X147935068Y-104680632D01*
X147835834Y-104614327D01*
X147720000Y-104591286D01*
X147720000Y-104175877D01*
X147770000Y-104175877D01*
X147887054Y-104152593D01*
X147986288Y-104086288D01*
X148052593Y-103987054D01*
X148075877Y-103870000D01*
X148075877Y-103370000D01*
X149104123Y-103370000D01*
X149104123Y-103870000D01*
X149127407Y-103987054D01*
X149193712Y-104086288D01*
X149292946Y-104152593D01*
X149410000Y-104175877D01*
X149460000Y-104175877D01*
X149460001Y-104591286D01*
X149344166Y-104614327D01*
X149244932Y-104680632D01*
X149178627Y-104779866D01*
X149155343Y-104896920D01*
X149155343Y-105694480D01*
X149178627Y-105811534D01*
X149244932Y-105910768D01*
X149344166Y-105977073D01*
X149461220Y-106000357D01*
X150258780Y-106000357D01*
X150375834Y-105977073D01*
X150475068Y-105910768D01*
X150541373Y-105811534D01*
X150564657Y-105694480D01*
X150564657Y-104896920D01*
X150541373Y-104779866D01*
X150475068Y-104680632D01*
X150375834Y-104614327D01*
X150260000Y-104591286D01*
X150260000Y-104175877D01*
X150310000Y-104175877D01*
X150427054Y-104152593D01*
X150526288Y-104086288D01*
X150592593Y-103987054D01*
X150615877Y-103870000D01*
X150615877Y-103370000D01*
X150592593Y-103252946D01*
X150526288Y-103153712D01*
X150427054Y-103087407D01*
X150310000Y-103064123D01*
X149410000Y-103064123D01*
X149292946Y-103087407D01*
X149193712Y-103153712D01*
X149127407Y-103252946D01*
X149104123Y-103370000D01*
X148075877Y-103370000D01*
X148052593Y-103252946D01*
X147986288Y-103153712D01*
X147887054Y-103087407D01*
X147770000Y-103064123D01*
X146870000Y-103064123D01*
X146752946Y-103087407D01*
X146653712Y-103153712D01*
X146587407Y-103252946D01*
X146564123Y-103370000D01*
X145535877Y-103370000D01*
X145512593Y-103252946D01*
X145446288Y-103153712D01*
X145347054Y-103087407D01*
X145230000Y-103064123D01*
X144330000Y-103064123D01*
X144212946Y-103087407D01*
X144113712Y-103153712D01*
X144047407Y-103252946D01*
X144024123Y-103370000D01*
X142995877Y-103370000D01*
X142972593Y-103252946D01*
X142906288Y-103153712D01*
X142807054Y-103087407D01*
X142690000Y-103064123D01*
X141790000Y-103064123D01*
X141672946Y-103087407D01*
X141573712Y-103153712D01*
X141507407Y-103252946D01*
X141484123Y-103370000D01*
X140455877Y-103370000D01*
X140432593Y-103252946D01*
X140366288Y-103153712D01*
X140267054Y-103087407D01*
X140150000Y-103064123D01*
X139250000Y-103064123D01*
X139132946Y-103087407D01*
X139033712Y-103153712D01*
X138967407Y-103252946D01*
X138944123Y-103370000D01*
X137915877Y-103370000D01*
X137892593Y-103252946D01*
X137826288Y-103153712D01*
X137727054Y-103087407D01*
X137610000Y-103064123D01*
X136710000Y-103064123D01*
X136592946Y-103087407D01*
X136493712Y-103153712D01*
X136427407Y-103252946D01*
X136404123Y-103370000D01*
X135375877Y-103370000D01*
X135352593Y-103252946D01*
X135286288Y-103153712D01*
X135187054Y-103087407D01*
X135070000Y-103064123D01*
X134170000Y-103064123D01*
X134052946Y-103087407D01*
X133953712Y-103153712D01*
X133887407Y-103252946D01*
X133864123Y-103370000D01*
X132835877Y-103370000D01*
X132812593Y-103252946D01*
X132746288Y-103153712D01*
X132647054Y-103087407D01*
X132530000Y-103064123D01*
X131630000Y-103064123D01*
X131512946Y-103087407D01*
X131413712Y-103153712D01*
X131347407Y-103252946D01*
X131324123Y-103370000D01*
X128217760Y-103370000D01*
X128248487Y-103324014D01*
X128259389Y-103269205D01*
X128372072Y-103246791D01*
X128504384Y-103158384D01*
X128526703Y-103124981D01*
X130921686Y-100730000D01*
X131446593Y-100730000D01*
X131380000Y-100890771D01*
X131380000Y-101169249D01*
X131486568Y-101426528D01*
X131625131Y-101565091D01*
X131512946Y-101587407D01*
X131413712Y-101653712D01*
X131347407Y-101752946D01*
X131324123Y-101870000D01*
X131324123Y-102370000D01*
X131347407Y-102487054D01*
X131413712Y-102586288D01*
X131512946Y-102652593D01*
X131630000Y-102675877D01*
X132530000Y-102675877D01*
X132647054Y-102652593D01*
X132746288Y-102586288D01*
X132812593Y-102487054D01*
X132835877Y-102370000D01*
X132835877Y-101870000D01*
X132812593Y-101752946D01*
X132746288Y-101653712D01*
X132647054Y-101587407D01*
X132534869Y-101565091D01*
X132673432Y-101426528D01*
X132715000Y-101326174D01*
X132756568Y-101426528D01*
X132953482Y-101623442D01*
X133210761Y-101730010D01*
X133464326Y-101730010D01*
X133864123Y-102129808D01*
X133864123Y-102370000D01*
X133887407Y-102487054D01*
X133953712Y-102586288D01*
X134052946Y-102652593D01*
X134170000Y-102675877D01*
X135070000Y-102675877D01*
X135187054Y-102652593D01*
X135286288Y-102586288D01*
X135352593Y-102487054D01*
X135375877Y-102370000D01*
X135375877Y-101870000D01*
X135352593Y-101752946D01*
X135286288Y-101653712D01*
X135187054Y-101587407D01*
X135070000Y-101564123D01*
X134429808Y-101564123D01*
X134045587Y-101179903D01*
X134050000Y-101169249D01*
X134050000Y-100960685D01*
X134169283Y-101079969D01*
X134191598Y-101113366D01*
X134323910Y-101201773D01*
X134440588Y-101224982D01*
X134479981Y-101232818D01*
X134519374Y-101224982D01*
X134805068Y-101224982D01*
X134998500Y-101418414D01*
X135255779Y-101524982D01*
X135534257Y-101524982D01*
X135791536Y-101418414D01*
X135988450Y-101221500D01*
X136055044Y-101060728D01*
X136586217Y-101591903D01*
X136493712Y-101653712D01*
X136427407Y-101752946D01*
X136404123Y-101870000D01*
X136404123Y-102370000D01*
X136427407Y-102487054D01*
X136493712Y-102586288D01*
X136592946Y-102652593D01*
X136710000Y-102675877D01*
X137610000Y-102675877D01*
X137727054Y-102652593D01*
X137826288Y-102586288D01*
X137892593Y-102487054D01*
X137915877Y-102370000D01*
X137915877Y-101870000D01*
X138944123Y-101870000D01*
X138944123Y-102370000D01*
X138967407Y-102487054D01*
X139033712Y-102586288D01*
X139132946Y-102652593D01*
X139250000Y-102675877D01*
X140150000Y-102675877D01*
X140267054Y-102652593D01*
X140366288Y-102586288D01*
X140432593Y-102487054D01*
X140455877Y-102370000D01*
X140455877Y-101870000D01*
X141484123Y-101870000D01*
X141484123Y-102370000D01*
X141507407Y-102487054D01*
X141573712Y-102586288D01*
X141672946Y-102652593D01*
X141790000Y-102675877D01*
X142690000Y-102675877D01*
X142807054Y-102652593D01*
X142906288Y-102586288D01*
X142972593Y-102487054D01*
X142995877Y-102370000D01*
X142995877Y-101870000D01*
X142972593Y-101752946D01*
X142906288Y-101653712D01*
X142813782Y-101591902D01*
X143040685Y-101365000D01*
X143189983Y-101365000D01*
X143383415Y-101558432D01*
X143640694Y-101665000D01*
X143919172Y-101665000D01*
X144176451Y-101558432D01*
X144279935Y-101454949D01*
X144380000Y-101555014D01*
X144380000Y-101564123D01*
X144330000Y-101564123D01*
X144212946Y-101587407D01*
X144113712Y-101653712D01*
X144047407Y-101752946D01*
X144024123Y-101870000D01*
X144024123Y-102370000D01*
X144047407Y-102487054D01*
X144113712Y-102586288D01*
X144212946Y-102652593D01*
X144330000Y-102675877D01*
X145230000Y-102675877D01*
X145347054Y-102652593D01*
X145446288Y-102586288D01*
X145512593Y-102487054D01*
X145535877Y-102370000D01*
X145535877Y-101870000D01*
X145512593Y-101752946D01*
X145446288Y-101653712D01*
X145347054Y-101587407D01*
X145230000Y-101564123D01*
X145180000Y-101564123D01*
X145180000Y-101554886D01*
X145373368Y-101361518D01*
X145479936Y-101104239D01*
X145479936Y-100825761D01*
X145373368Y-100568482D01*
X145176454Y-100371568D01*
X144919175Y-100265000D01*
X144640697Y-100265000D01*
X144383418Y-100371568D01*
X144279935Y-100475052D01*
X144176451Y-100371568D01*
X143919172Y-100265000D01*
X143640694Y-100265000D01*
X143383415Y-100371568D01*
X143189983Y-100565000D01*
X142914394Y-100565000D01*
X142875000Y-100557164D01*
X142835606Y-100565000D01*
X142718928Y-100588209D01*
X142586616Y-100676616D01*
X142564299Y-100710016D01*
X141985018Y-101289297D01*
X141951616Y-101311616D01*
X141874836Y-101426528D01*
X141863209Y-101443929D01*
X141839301Y-101564123D01*
X141790000Y-101564123D01*
X141672946Y-101587407D01*
X141573712Y-101653712D01*
X141507407Y-101752946D01*
X141484123Y-101870000D01*
X140455877Y-101870000D01*
X140432593Y-101752946D01*
X140366288Y-101653712D01*
X140267054Y-101587407D01*
X140150000Y-101564123D01*
X140100000Y-101564123D01*
X140100000Y-101554950D01*
X140293432Y-101361518D01*
X140400000Y-101104239D01*
X140400000Y-100825761D01*
X140293432Y-100568482D01*
X140096518Y-100371568D01*
X139839239Y-100265000D01*
X139560761Y-100265000D01*
X139303482Y-100371568D01*
X139106568Y-100568482D01*
X139000000Y-100825761D01*
X139000000Y-101104239D01*
X139106568Y-101361518D01*
X139300000Y-101554950D01*
X139300000Y-101564123D01*
X139250000Y-101564123D01*
X139132946Y-101587407D01*
X139033712Y-101653712D01*
X138967407Y-101752946D01*
X138944123Y-101870000D01*
X137915877Y-101870000D01*
X137892593Y-101752946D01*
X137826288Y-101653712D01*
X137727054Y-101587407D01*
X137610000Y-101564123D01*
X137560700Y-101564123D01*
X137560000Y-101560606D01*
X137536791Y-101443928D01*
X137448384Y-101311616D01*
X137414987Y-101289301D01*
X136350317Y-100224633D01*
X136483432Y-100091518D01*
X136590000Y-99834239D01*
X136590000Y-99555761D01*
X136483432Y-99298482D01*
X136286518Y-99101568D01*
X136029239Y-98995000D01*
X135750761Y-98995000D01*
X135493482Y-99101568D01*
X135320001Y-99275049D01*
X135146520Y-99101568D01*
X134889241Y-98995000D01*
X134610763Y-98995000D01*
X134353484Y-99101568D01*
X134160052Y-99295000D01*
X130975685Y-99295000D01*
X129215703Y-97535019D01*
X129193384Y-97501616D01*
X129061072Y-97413209D01*
X128944394Y-97390000D01*
X128905000Y-97382164D01*
X128865606Y-97390000D01*
X128259231Y-97390000D01*
X128248487Y-97335986D01*
X127991309Y-96951091D01*
X127647851Y-96721600D01*
X128136939Y-96721600D01*
X128360405Y-96629037D01*
X128531438Y-96458004D01*
X128624000Y-96234538D01*
X128624000Y-95556000D01*
X128472000Y-95404000D01*
X127154000Y-95404000D01*
X127154000Y-95424000D01*
X126846000Y-95424000D01*
X126846000Y-95404000D01*
X125528000Y-95404000D01*
X125376000Y-95556000D01*
X125376000Y-96234538D01*
X125468562Y-96458004D01*
X125639595Y-96629037D01*
X125863061Y-96721600D01*
X126352149Y-96721600D01*
X126008691Y-96951091D01*
X125751513Y-97335986D01*
X125661204Y-97790000D01*
X125751513Y-98244014D01*
X126008691Y-98628909D01*
X126393586Y-98886087D01*
X126732997Y-98953600D01*
X127267003Y-98953600D01*
X127606414Y-98886087D01*
X127991309Y-98628909D01*
X128248487Y-98244014D01*
X128259231Y-98190000D01*
X128739316Y-98190000D01*
X130499299Y-99949984D01*
X130521616Y-99983384D01*
X130538192Y-99994459D01*
X130467616Y-100041616D01*
X130445301Y-100075013D01*
X128190746Y-102329570D01*
X127991309Y-102031091D01*
X127606414Y-101773913D01*
X127267003Y-101706400D01*
X126732997Y-101706400D01*
X126393586Y-101773913D01*
X126008691Y-102031091D01*
X125751513Y-102415986D01*
X125696081Y-102694659D01*
X124860000Y-101858578D01*
X124860000Y-100330000D01*
X125661204Y-100330000D01*
X125751513Y-100784014D01*
X126008691Y-101168909D01*
X126393586Y-101426087D01*
X126732997Y-101493600D01*
X127267003Y-101493600D01*
X127606414Y-101426087D01*
X127991309Y-101168909D01*
X128248487Y-100784014D01*
X128338796Y-100330000D01*
X128248487Y-99875986D01*
X127991309Y-99491091D01*
X127606414Y-99233913D01*
X127267003Y-99166400D01*
X126732997Y-99166400D01*
X126393586Y-99233913D01*
X126008691Y-99491091D01*
X125751513Y-99875986D01*
X125661204Y-100330000D01*
X124860000Y-100330000D01*
X124860000Y-94265462D01*
X125376000Y-94265462D01*
X125376000Y-94944000D01*
X125528000Y-95096000D01*
X126846000Y-95096000D01*
X126846000Y-93930400D01*
X127154000Y-93930400D01*
X127154000Y-95096000D01*
X128472000Y-95096000D01*
X128624000Y-94944000D01*
X128624000Y-94265462D01*
X128531438Y-94041996D01*
X128360405Y-93870963D01*
X128136939Y-93778400D01*
X127306000Y-93778400D01*
X127154000Y-93930400D01*
X126846000Y-93930400D01*
X126694000Y-93778400D01*
X125863061Y-93778400D01*
X125639595Y-93870963D01*
X125468562Y-94041996D01*
X125376000Y-94265462D01*
X124860000Y-94265462D01*
X124860000Y-91721000D01*
X126532000Y-91721000D01*
X126532000Y-92385939D01*
X126624563Y-92609405D01*
X126795596Y-92780438D01*
X127019062Y-92873000D01*
X127334000Y-92873000D01*
X127486000Y-92721000D01*
X127486000Y-91569000D01*
X127794000Y-91569000D01*
X127794000Y-92721000D01*
X127946000Y-92873000D01*
X128260938Y-92873000D01*
X128484404Y-92780438D01*
X128655437Y-92609405D01*
X128748000Y-92385939D01*
X128748000Y-91721000D01*
X128596000Y-91569000D01*
X127794000Y-91569000D01*
X127486000Y-91569000D01*
X126684000Y-91569000D01*
X126532000Y-91721000D01*
X124860000Y-91721000D01*
X124860000Y-90444061D01*
X126532000Y-90444061D01*
X126532000Y-91109000D01*
X126684000Y-91261000D01*
X127486000Y-91261000D01*
X127486000Y-90109000D01*
X127794000Y-90109000D01*
X127794000Y-91261000D01*
X128596000Y-91261000D01*
X128748000Y-91109000D01*
X128748000Y-90444061D01*
X128655437Y-90220595D01*
X128484404Y-90049562D01*
X128260938Y-89957000D01*
X127946000Y-89957000D01*
X127794000Y-90109000D01*
X127486000Y-90109000D01*
X127334000Y-89957000D01*
X127019062Y-89957000D01*
X126795596Y-90049562D01*
X126624563Y-90220595D01*
X126532000Y-90444061D01*
X124860000Y-90444061D01*
X124860000Y-85421000D01*
X126532000Y-85421000D01*
X126532000Y-86085939D01*
X126624563Y-86309405D01*
X126795596Y-86480438D01*
X127019062Y-86573000D01*
X127334000Y-86573000D01*
X127486000Y-86421000D01*
X127486000Y-85269000D01*
X127794000Y-85269000D01*
X127794000Y-86421000D01*
X127946000Y-86573000D01*
X128260938Y-86573000D01*
X128484404Y-86480438D01*
X128655437Y-86309405D01*
X128748000Y-86085939D01*
X128748000Y-85421000D01*
X128596000Y-85269000D01*
X127794000Y-85269000D01*
X127486000Y-85269000D01*
X126684000Y-85269000D01*
X126532000Y-85421000D01*
X124860000Y-85421000D01*
X124860000Y-84144061D01*
X126532000Y-84144061D01*
X126532000Y-84809000D01*
X126684000Y-84961000D01*
X127486000Y-84961000D01*
X127486000Y-83809000D01*
X127794000Y-83809000D01*
X127794000Y-84961000D01*
X128596000Y-84961000D01*
X128748000Y-84809000D01*
X128748000Y-84265000D01*
X130634123Y-84265000D01*
X130634123Y-85965000D01*
X130657407Y-86082054D01*
X130723712Y-86181288D01*
X130822946Y-86247593D01*
X130940000Y-86270877D01*
X131040001Y-86270877D01*
X131040000Y-90259123D01*
X130940000Y-90259123D01*
X130822946Y-90282407D01*
X130723712Y-90348712D01*
X130657407Y-90447946D01*
X130634123Y-90565000D01*
X130634123Y-92265000D01*
X130657407Y-92382054D01*
X130723712Y-92481288D01*
X130822946Y-92547593D01*
X130940000Y-92570877D01*
X131040000Y-92570877D01*
X131040001Y-93705602D01*
X131032164Y-93745000D01*
X131063209Y-93901071D01*
X131069185Y-93910014D01*
X131119123Y-93984753D01*
X131119123Y-94430000D01*
X131142407Y-94547054D01*
X131208712Y-94646288D01*
X131307946Y-94712593D01*
X131425000Y-94735877D01*
X131925000Y-94735877D01*
X132042054Y-94712593D01*
X132141288Y-94646288D01*
X132207593Y-94547054D01*
X132230877Y-94430000D01*
X132230877Y-93530000D01*
X132619123Y-93530000D01*
X132619123Y-94430000D01*
X132642407Y-94547054D01*
X132708712Y-94646288D01*
X132807946Y-94712593D01*
X132925000Y-94735877D01*
X133425000Y-94735877D01*
X133542054Y-94712593D01*
X133641288Y-94646288D01*
X133707593Y-94547054D01*
X133730877Y-94430000D01*
X133730877Y-94380000D01*
X134879123Y-94380000D01*
X134879123Y-94515000D01*
X134902407Y-94632054D01*
X134957829Y-94715000D01*
X134902407Y-94797946D01*
X134879123Y-94915000D01*
X134879123Y-95615000D01*
X134902407Y-95732054D01*
X134957829Y-95815000D01*
X134902407Y-95897946D01*
X134879123Y-96015000D01*
X134879123Y-96715000D01*
X134902407Y-96832054D01*
X134907716Y-96840000D01*
X134902407Y-96847946D01*
X134879123Y-96965000D01*
X134879123Y-97665000D01*
X134902407Y-97782054D01*
X134968712Y-97881288D01*
X135067946Y-97947593D01*
X135185000Y-97970877D01*
X136385000Y-97970877D01*
X136502054Y-97947593D01*
X136601288Y-97881288D01*
X136667593Y-97782054D01*
X136680931Y-97715000D01*
X137365050Y-97715000D01*
X137398482Y-97748432D01*
X137655761Y-97855000D01*
X137934239Y-97855000D01*
X138191518Y-97748432D01*
X138321582Y-97618368D01*
X138331616Y-97633384D01*
X138463928Y-97721791D01*
X138620000Y-97752836D01*
X138659394Y-97745000D01*
X138899316Y-97745000D01*
X139179123Y-98024808D01*
X139179123Y-98765000D01*
X139202407Y-98882054D01*
X139268712Y-98981288D01*
X139367946Y-99047593D01*
X139485000Y-99070877D01*
X140685000Y-99070877D01*
X140802054Y-99047593D01*
X140901288Y-98981288D01*
X140967593Y-98882054D01*
X140990877Y-98765000D01*
X140990877Y-97765000D01*
X140967593Y-97647946D01*
X140901288Y-97548712D01*
X140802054Y-97482407D01*
X140685000Y-97459123D01*
X139744808Y-97459123D01*
X139417393Y-97131709D01*
X139461518Y-97113432D01*
X139565002Y-97009949D01*
X139668485Y-97113432D01*
X139925764Y-97220000D01*
X140204242Y-97220000D01*
X140461521Y-97113432D01*
X140628448Y-96946505D01*
X140645289Y-96971711D01*
X140677732Y-96993388D01*
X140716000Y-97001000D01*
X141886000Y-97001000D01*
X141886000Y-97663000D01*
X141893612Y-97701268D01*
X141915289Y-97733711D01*
X141947732Y-97755388D01*
X141986000Y-97763000D01*
X145579521Y-97763000D01*
X145579123Y-97765000D01*
X145579123Y-98765000D01*
X145602407Y-98882054D01*
X145668712Y-98981288D01*
X145767946Y-99047593D01*
X145885000Y-99070877D01*
X146685000Y-99070877D01*
X146802054Y-99047593D01*
X146901288Y-98981288D01*
X146967593Y-98882054D01*
X146990877Y-98765000D01*
X146990877Y-98665000D01*
X147125337Y-98665000D01*
X147190169Y-98821518D01*
X147363651Y-98995000D01*
X147180761Y-98995000D01*
X146923482Y-99101568D01*
X146726568Y-99298482D01*
X146620000Y-99555761D01*
X146620000Y-99765820D01*
X146518641Y-99664461D01*
X146261362Y-99557893D01*
X145982884Y-99557893D01*
X145725605Y-99664461D01*
X145528691Y-99861375D01*
X145422123Y-100118654D01*
X145422123Y-100397132D01*
X145528691Y-100654411D01*
X145725605Y-100851325D01*
X145982884Y-100957893D01*
X146256438Y-100957893D01*
X146267135Y-100968590D01*
X146267138Y-100968592D01*
X146863885Y-101565339D01*
X146752946Y-101587407D01*
X146653712Y-101653712D01*
X146587407Y-101752946D01*
X146564123Y-101870000D01*
X146564123Y-102370000D01*
X146587407Y-102487054D01*
X146653712Y-102586288D01*
X146752946Y-102652593D01*
X146870000Y-102675877D01*
X147770000Y-102675877D01*
X147887054Y-102652593D01*
X147986288Y-102586288D01*
X148052593Y-102487054D01*
X148075877Y-102370000D01*
X148075877Y-101870000D01*
X148052593Y-101752946D01*
X147986288Y-101653712D01*
X147887054Y-101587407D01*
X147770000Y-101564123D01*
X147720000Y-101564123D01*
X147720000Y-101495164D01*
X147727836Y-101455770D01*
X147696791Y-101299698D01*
X147681690Y-101277098D01*
X147608384Y-101167386D01*
X147574984Y-101145069D01*
X146832822Y-100402908D01*
X146832820Y-100402905D01*
X146822123Y-100392208D01*
X146822123Y-100187073D01*
X146923482Y-100288432D01*
X147180761Y-100395000D01*
X147369316Y-100395000D01*
X149104123Y-102129808D01*
X149104123Y-102370000D01*
X149127407Y-102487054D01*
X149193712Y-102586288D01*
X149292946Y-102652593D01*
X149410000Y-102675877D01*
X150310000Y-102675877D01*
X150427054Y-102652593D01*
X150526288Y-102586288D01*
X150592593Y-102487054D01*
X150615877Y-102370000D01*
X150615877Y-101870000D01*
X150592593Y-101752946D01*
X150526288Y-101653712D01*
X150427054Y-101587407D01*
X150310000Y-101564123D01*
X149669808Y-101564123D01*
X148500684Y-100395000D01*
X148664239Y-100395000D01*
X148921518Y-100288432D01*
X149019189Y-100190761D01*
X149160000Y-100190761D01*
X149160000Y-100469239D01*
X149266568Y-100726518D01*
X149463482Y-100923432D01*
X149720761Y-101030000D01*
X149999239Y-101030000D01*
X150256518Y-100923432D01*
X150449950Y-100730000D01*
X151725606Y-100730000D01*
X151738595Y-100732584D01*
X151700000Y-100825761D01*
X151700000Y-101104239D01*
X151806568Y-101361518D01*
X152003482Y-101558432D01*
X152260761Y-101665000D01*
X152539239Y-101665000D01*
X152796518Y-101558432D01*
X152969628Y-101385322D01*
X152988627Y-101480834D01*
X153054932Y-101580068D01*
X153154166Y-101646373D01*
X153271220Y-101669657D01*
X154068780Y-101669657D01*
X154185834Y-101646373D01*
X154285068Y-101580068D01*
X154351373Y-101480834D01*
X154374657Y-101363780D01*
X154374657Y-100566220D01*
X154351373Y-100449166D01*
X154285068Y-100349932D01*
X154185834Y-100283627D01*
X154068780Y-100260343D01*
X153271220Y-100260343D01*
X153154166Y-100283627D01*
X153054932Y-100349932D01*
X152988627Y-100449166D01*
X152969628Y-100544678D01*
X152796518Y-100371568D01*
X152539239Y-100265000D01*
X152395685Y-100265000D01*
X152900686Y-99760000D01*
X153174239Y-99760000D01*
X153431518Y-99653432D01*
X153628432Y-99456518D01*
X153735000Y-99199239D01*
X153735000Y-98920761D01*
X153628432Y-98663482D01*
X153431518Y-98466568D01*
X153174239Y-98360000D01*
X152895761Y-98360000D01*
X152638482Y-98466568D01*
X152441568Y-98663482D01*
X152335000Y-98920761D01*
X152335000Y-99194314D01*
X151599316Y-99930000D01*
X150449950Y-99930000D01*
X150256518Y-99736568D01*
X149999239Y-99630000D01*
X149720761Y-99630000D01*
X149463482Y-99736568D01*
X149266568Y-99933482D01*
X149160000Y-100190761D01*
X149019189Y-100190761D01*
X149118432Y-100091518D01*
X149225000Y-99834239D01*
X149225000Y-99555761D01*
X149118432Y-99298482D01*
X149092817Y-99272867D01*
X149294807Y-99070877D01*
X151835000Y-99070877D01*
X151952054Y-99047593D01*
X152051288Y-98981288D01*
X152117593Y-98882054D01*
X152140877Y-98765000D01*
X152140877Y-97765000D01*
X152117593Y-97647946D01*
X152051288Y-97548712D01*
X151952054Y-97482407D01*
X151835000Y-97459123D01*
X150835000Y-97459123D01*
X150835000Y-97136842D01*
X150891518Y-97113432D01*
X151088432Y-96916518D01*
X151195000Y-96659239D01*
X151195000Y-96380761D01*
X151088432Y-96123482D01*
X150891518Y-95926568D01*
X150634239Y-95820000D01*
X150355761Y-95820000D01*
X150098482Y-95926568D01*
X149901568Y-96123482D01*
X149795000Y-96380761D01*
X149795000Y-96547000D01*
X143975065Y-96547000D01*
X144103432Y-96418633D01*
X144210000Y-96161354D01*
X144210000Y-95882876D01*
X144103432Y-95625597D01*
X143910000Y-95432165D01*
X143910000Y-94640335D01*
X144005761Y-94680000D01*
X144237671Y-94680000D01*
X144207079Y-94753856D01*
X144207079Y-95032334D01*
X144313647Y-95289613D01*
X144510561Y-95486527D01*
X144767840Y-95593095D01*
X145046318Y-95593095D01*
X145303597Y-95486527D01*
X145500511Y-95289613D01*
X145607079Y-95032334D01*
X145607079Y-94753856D01*
X145500511Y-94496577D01*
X145307079Y-94303145D01*
X145307079Y-93366081D01*
X145314915Y-93326687D01*
X145284157Y-93172061D01*
X145399604Y-93056614D01*
X145506172Y-92799335D01*
X145506172Y-92520857D01*
X145399604Y-92263578D01*
X145202690Y-92066664D01*
X145149480Y-92044624D01*
X145176500Y-92033432D01*
X145373414Y-91836518D01*
X145479982Y-91579239D01*
X145479982Y-91300761D01*
X145373414Y-91043482D01*
X145176500Y-90846568D01*
X144919221Y-90740000D01*
X144640743Y-90740000D01*
X144383464Y-90846568D01*
X144186550Y-91043482D01*
X144079982Y-91300761D01*
X144079982Y-91574315D01*
X143490019Y-92164278D01*
X143456617Y-92186597D01*
X143370823Y-92315000D01*
X143368210Y-92318910D01*
X143337165Y-92474981D01*
X143345001Y-92514375D01*
X143345002Y-93540603D01*
X143337165Y-93580001D01*
X143352680Y-93657997D01*
X143275000Y-93580318D01*
X143275000Y-85764394D01*
X143282836Y-85725000D01*
X143251791Y-85568928D01*
X143199054Y-85490000D01*
X146575606Y-85490000D01*
X146615000Y-85497836D01*
X146654394Y-85490000D01*
X146771072Y-85466791D01*
X146903384Y-85378384D01*
X146925703Y-85344981D01*
X148155684Y-84115000D01*
X149629123Y-84115000D01*
X149629123Y-85415000D01*
X149652407Y-85532054D01*
X149718712Y-85631288D01*
X149817946Y-85697593D01*
X149935000Y-85720877D01*
X150268820Y-85720877D01*
X150268000Y-85725000D01*
X150268000Y-88773000D01*
X150275612Y-88811268D01*
X150297289Y-88843711D01*
X150329732Y-88865388D01*
X150368000Y-88873000D01*
X152146000Y-88873000D01*
X152184268Y-88865388D01*
X152216711Y-88843711D01*
X152238388Y-88811268D01*
X152246000Y-88773000D01*
X152246000Y-85725000D01*
X152238388Y-85686732D01*
X152216711Y-85654289D01*
X152184268Y-85632612D01*
X152146000Y-85625000D01*
X152055489Y-85625000D01*
X152117593Y-85532054D01*
X152140877Y-85415000D01*
X152140877Y-85165000D01*
X153320606Y-85165000D01*
X153360000Y-85172836D01*
X153399394Y-85165000D01*
X153504452Y-85144102D01*
X153530761Y-85155000D01*
X153809239Y-85155000D01*
X154066518Y-85048432D01*
X154263432Y-84851518D01*
X154370000Y-84594239D01*
X154370000Y-84315761D01*
X154263432Y-84058482D01*
X154066518Y-83861568D01*
X153809239Y-83755000D01*
X153530761Y-83755000D01*
X153273482Y-83861568D01*
X153076568Y-84058482D01*
X152970000Y-84315761D01*
X152970000Y-84365000D01*
X152140877Y-84365000D01*
X152140877Y-84115000D01*
X152117593Y-83997946D01*
X152051288Y-83898712D01*
X151952054Y-83832407D01*
X151835000Y-83809123D01*
X149935000Y-83809123D01*
X149817946Y-83832407D01*
X149718712Y-83898712D01*
X149652407Y-83997946D01*
X149629123Y-84115000D01*
X148155684Y-84115000D01*
X150114985Y-82155700D01*
X150148384Y-82133384D01*
X150236791Y-82001072D01*
X150246776Y-81950877D01*
X150310000Y-81950877D01*
X150427054Y-81927593D01*
X150526288Y-81861288D01*
X150592593Y-81762054D01*
X150615877Y-81645000D01*
X150615877Y-81145000D01*
X150592593Y-81027946D01*
X150526288Y-80928712D01*
X150427054Y-80862407D01*
X150310000Y-80839123D01*
X149410000Y-80839123D01*
X149292946Y-80862407D01*
X149193712Y-80928712D01*
X149127407Y-81027946D01*
X149104123Y-81145000D01*
X149104123Y-81645000D01*
X149127407Y-81762054D01*
X149193712Y-81861288D01*
X149244256Y-81895060D01*
X146449316Y-84690000D01*
X142829950Y-84690000D01*
X142690000Y-84550050D01*
X142690000Y-83680761D01*
X144080000Y-83680761D01*
X144080000Y-83959239D01*
X144186568Y-84216518D01*
X144383482Y-84413432D01*
X144640761Y-84520000D01*
X144919239Y-84520000D01*
X145176518Y-84413432D01*
X145369950Y-84220000D01*
X145453686Y-84220000D01*
X145493080Y-84227836D01*
X145532474Y-84220000D01*
X145649152Y-84196791D01*
X145781464Y-84108384D01*
X145803783Y-84074981D01*
X147574984Y-82303781D01*
X147608384Y-82281464D01*
X147696791Y-82149152D01*
X147706776Y-82098957D01*
X147718780Y-82098957D01*
X147835834Y-82075673D01*
X147935068Y-82009368D01*
X148001373Y-81910134D01*
X148024657Y-81793080D01*
X148024657Y-80995520D01*
X148001373Y-80878466D01*
X147935068Y-80779232D01*
X147835834Y-80712927D01*
X147718780Y-80689643D01*
X146921220Y-80689643D01*
X146804166Y-80712927D01*
X146704932Y-80779232D01*
X146638627Y-80878466D01*
X146615343Y-80995520D01*
X146615343Y-81793080D01*
X146638627Y-81910134D01*
X146704932Y-82009368D01*
X146724771Y-82022624D01*
X145348673Y-83398723D01*
X145176518Y-83226568D01*
X144919239Y-83120000D01*
X144640761Y-83120000D01*
X144383482Y-83226568D01*
X144186568Y-83423482D01*
X144080000Y-83680761D01*
X142690000Y-83680761D01*
X142690000Y-83365291D01*
X142694791Y-83358121D01*
X142720900Y-83226861D01*
X142720900Y-83226857D01*
X142729715Y-83182541D01*
X142720900Y-83138224D01*
X142720900Y-83048374D01*
X142753493Y-82999594D01*
X142776777Y-82882540D01*
X142776777Y-82776053D01*
X143018510Y-82937574D01*
X143244570Y-82982540D01*
X143697230Y-82982540D01*
X143923290Y-82937574D01*
X144179644Y-82766284D01*
X144350934Y-82509930D01*
X144411083Y-82207540D01*
X144350934Y-81905150D01*
X144179644Y-81648796D01*
X143923290Y-81477506D01*
X143697230Y-81432540D01*
X143244570Y-81432540D01*
X143018510Y-81477506D01*
X142776777Y-81639027D01*
X142776777Y-81532540D01*
X142753493Y-81415486D01*
X142687188Y-81316252D01*
X142587954Y-81249947D01*
X142470900Y-81226663D01*
X142070900Y-81226663D01*
X141953846Y-81249947D01*
X141945900Y-81255256D01*
X141937954Y-81249947D01*
X141820900Y-81226663D01*
X141420900Y-81226663D01*
X141303846Y-81249947D01*
X141295900Y-81255256D01*
X141287954Y-81249947D01*
X141170900Y-81226663D01*
X140770900Y-81226663D01*
X140653846Y-81249947D01*
X140645900Y-81255256D01*
X140637954Y-81249947D01*
X140520900Y-81226663D01*
X140120900Y-81226663D01*
X140003846Y-81249947D01*
X139995900Y-81255256D01*
X139987954Y-81249947D01*
X139870900Y-81226663D01*
X139470900Y-81226663D01*
X139353846Y-81249947D01*
X139254612Y-81316252D01*
X139188307Y-81415486D01*
X139165023Y-81532540D01*
X139165023Y-81639027D01*
X138923290Y-81477506D01*
X138697230Y-81432540D01*
X138244570Y-81432540D01*
X138018510Y-81477506D01*
X137762156Y-81648796D01*
X137590866Y-81905150D01*
X137530717Y-82207540D01*
X137590866Y-82509930D01*
X137762156Y-82766284D01*
X138018510Y-82937574D01*
X138244570Y-82982540D01*
X138697230Y-82982540D01*
X138923290Y-82937574D01*
X139165023Y-82776053D01*
X139165023Y-82882540D01*
X139188307Y-82999594D01*
X139254612Y-83098828D01*
X139270901Y-83109712D01*
X139270901Y-83259149D01*
X139106568Y-83423482D01*
X139000000Y-83680761D01*
X139000000Y-83959239D01*
X139106568Y-84216518D01*
X139303482Y-84413432D01*
X139560761Y-84520000D01*
X139834333Y-84520000D01*
X139510025Y-84844308D01*
X139476626Y-84866625D01*
X139420409Y-84950761D01*
X139388218Y-84998938D01*
X139357173Y-85155009D01*
X139365010Y-85194408D01*
X139365010Y-90171590D01*
X139204247Y-90105000D01*
X138930693Y-90105000D01*
X138335711Y-89510018D01*
X138313392Y-89476616D01*
X138181080Y-89388209D01*
X138064402Y-89365000D01*
X138025008Y-89357164D01*
X137985614Y-89365000D01*
X136680931Y-89365000D01*
X136667593Y-89297946D01*
X136612171Y-89215000D01*
X136667593Y-89132054D01*
X136690877Y-89015000D01*
X136690877Y-88315000D01*
X136667593Y-88197946D01*
X136601288Y-88098712D01*
X136502054Y-88032407D01*
X136385000Y-88009123D01*
X135185000Y-88009123D01*
X135067946Y-88032407D01*
X134968712Y-88098712D01*
X134902407Y-88197946D01*
X134879123Y-88315000D01*
X134879123Y-89015000D01*
X134902407Y-89132054D01*
X134957829Y-89215000D01*
X134902407Y-89297946D01*
X134879123Y-89415000D01*
X134879123Y-90115000D01*
X134902407Y-90232054D01*
X134957829Y-90315000D01*
X134902407Y-90397946D01*
X134879123Y-90515000D01*
X134879123Y-91215000D01*
X134902407Y-91332054D01*
X134957829Y-91415000D01*
X134902407Y-91497946D01*
X134879123Y-91615000D01*
X134879123Y-92315000D01*
X134902407Y-92432054D01*
X134957829Y-92515000D01*
X134902407Y-92597946D01*
X134879123Y-92715000D01*
X134879123Y-93415000D01*
X134902407Y-93532054D01*
X134934443Y-93580000D01*
X133730877Y-93580000D01*
X133730877Y-93530000D01*
X133707593Y-93412946D01*
X133641288Y-93313712D01*
X133542054Y-93247407D01*
X133425000Y-93224123D01*
X132925000Y-93224123D01*
X132807946Y-93247407D01*
X132708712Y-93313712D01*
X132642407Y-93412946D01*
X132619123Y-93530000D01*
X132230877Y-93530000D01*
X132207593Y-93412946D01*
X132141288Y-93313712D01*
X132042054Y-93247407D01*
X131925000Y-93224123D01*
X131840000Y-93224123D01*
X131840000Y-92570877D01*
X131940000Y-92570877D01*
X132057054Y-92547593D01*
X132156288Y-92481288D01*
X132222593Y-92382054D01*
X132245877Y-92265000D01*
X132245877Y-91840000D01*
X132760050Y-91840000D01*
X132953482Y-92033432D01*
X133210761Y-92140000D01*
X133489239Y-92140000D01*
X133746518Y-92033432D01*
X133943432Y-91836518D01*
X134050000Y-91579239D01*
X134050000Y-91300761D01*
X133943432Y-91043482D01*
X133746518Y-90846568D01*
X133489239Y-90740000D01*
X133210761Y-90740000D01*
X132953482Y-90846568D01*
X132760050Y-91040000D01*
X132245877Y-91040000D01*
X132245877Y-90565000D01*
X132222593Y-90447946D01*
X132156288Y-90348712D01*
X132057054Y-90282407D01*
X131940000Y-90259123D01*
X131840000Y-90259123D01*
X131840000Y-86615000D01*
X134879123Y-86615000D01*
X134879123Y-87615000D01*
X134902407Y-87732054D01*
X134968712Y-87831288D01*
X135067946Y-87897593D01*
X135185000Y-87920877D01*
X136385000Y-87920877D01*
X136502054Y-87897593D01*
X136601288Y-87831288D01*
X136667593Y-87732054D01*
X136690877Y-87615000D01*
X136690877Y-86874808D01*
X137140686Y-86425000D01*
X137299239Y-86425000D01*
X137556518Y-86318432D01*
X137753432Y-86121518D01*
X137860000Y-85864239D01*
X137860000Y-85585761D01*
X137753432Y-85328482D01*
X137556518Y-85131568D01*
X137299239Y-85025000D01*
X137020761Y-85025000D01*
X136763482Y-85131568D01*
X136566568Y-85328482D01*
X136460000Y-85585761D01*
X136460000Y-85864239D01*
X136492240Y-85942074D01*
X136125192Y-86309123D01*
X135185000Y-86309123D01*
X135067946Y-86332407D01*
X134968712Y-86398712D01*
X134902407Y-86497946D01*
X134879123Y-86615000D01*
X131840000Y-86615000D01*
X131840000Y-86270877D01*
X131940000Y-86270877D01*
X132057054Y-86247593D01*
X132156288Y-86181288D01*
X132222593Y-86082054D01*
X132245877Y-85965000D01*
X132245877Y-84265000D01*
X132222593Y-84147946D01*
X132156288Y-84048712D01*
X132057054Y-83982407D01*
X131940000Y-83959123D01*
X130940000Y-83959123D01*
X130822946Y-83982407D01*
X130723712Y-84048712D01*
X130657407Y-84147946D01*
X130634123Y-84265000D01*
X128748000Y-84265000D01*
X128748000Y-84144061D01*
X128655437Y-83920595D01*
X128484404Y-83749562D01*
X128260938Y-83657000D01*
X127946000Y-83657000D01*
X127794000Y-83809000D01*
X127486000Y-83809000D01*
X127334000Y-83657000D01*
X127019062Y-83657000D01*
X126795596Y-83749562D01*
X126624563Y-83920595D01*
X126532000Y-84144061D01*
X124860000Y-84144061D01*
X124860000Y-80032362D01*
X124920518Y-79492828D01*
X125035000Y-79492828D01*
X125035000Y-80527172D01*
X125430826Y-81482782D01*
X126162218Y-82214174D01*
X127117828Y-82610000D01*
X128152172Y-82610000D01*
X129107782Y-82214174D01*
X129839174Y-81482782D01*
X130235000Y-80527172D01*
X130235000Y-79492828D01*
X130094550Y-79153751D01*
X136670900Y-79153751D01*
X136670900Y-79861328D01*
X136717317Y-80094683D01*
X136894133Y-80359307D01*
X137158756Y-80536123D01*
X137470900Y-80598212D01*
X137783043Y-80536123D01*
X138047667Y-80359307D01*
X138224483Y-80094684D01*
X138270900Y-79861329D01*
X138270900Y-79153751D01*
X143670900Y-79153751D01*
X143670900Y-79861328D01*
X143717317Y-80094683D01*
X143894133Y-80359307D01*
X144158756Y-80536123D01*
X144470900Y-80598212D01*
X144783043Y-80536123D01*
X145047667Y-80359307D01*
X145224483Y-80094684D01*
X145270900Y-79861329D01*
X145270900Y-79496920D01*
X146615343Y-79496920D01*
X146615343Y-80294480D01*
X146638627Y-80411534D01*
X146704932Y-80510768D01*
X146804166Y-80577073D01*
X146921220Y-80600357D01*
X147718780Y-80600357D01*
X147835834Y-80577073D01*
X147935068Y-80510768D01*
X148001373Y-80411534D01*
X148024554Y-80295000D01*
X149149420Y-80295000D01*
X149193712Y-80361288D01*
X149292946Y-80427593D01*
X149410000Y-80450877D01*
X150310000Y-80450877D01*
X150427054Y-80427593D01*
X150526288Y-80361288D01*
X150592593Y-80262054D01*
X150615877Y-80145000D01*
X150615877Y-79645000D01*
X150592593Y-79527946D01*
X150569129Y-79492828D01*
X151705000Y-79492828D01*
X151705000Y-80527172D01*
X152100826Y-81482782D01*
X152832218Y-82214174D01*
X153787828Y-82610000D01*
X154822172Y-82610000D01*
X155777782Y-82214174D01*
X156509174Y-81482782D01*
X156905000Y-80527172D01*
X156905000Y-79492828D01*
X156509174Y-78537218D01*
X155777782Y-77805826D01*
X154822172Y-77410000D01*
X153787828Y-77410000D01*
X152832218Y-77805826D01*
X152100826Y-78537218D01*
X151705000Y-79492828D01*
X150569129Y-79492828D01*
X150526288Y-79428712D01*
X150427054Y-79362407D01*
X150310000Y-79339123D01*
X149410000Y-79339123D01*
X149292946Y-79362407D01*
X149193712Y-79428712D01*
X149149420Y-79495000D01*
X148024275Y-79495000D01*
X148001373Y-79379866D01*
X147935068Y-79280632D01*
X147835834Y-79214327D01*
X147718780Y-79191043D01*
X146921220Y-79191043D01*
X146804166Y-79214327D01*
X146704932Y-79280632D01*
X146638627Y-79379866D01*
X146615343Y-79496920D01*
X145270900Y-79496920D01*
X145270900Y-79153751D01*
X145224483Y-78920396D01*
X145047667Y-78655773D01*
X144783044Y-78478957D01*
X144470900Y-78416868D01*
X144158757Y-78478957D01*
X143894134Y-78655773D01*
X143717317Y-78920396D01*
X143670900Y-79153751D01*
X138270900Y-79153751D01*
X138224483Y-78920396D01*
X138047667Y-78655773D01*
X137783044Y-78478957D01*
X137470900Y-78416868D01*
X137158757Y-78478957D01*
X136894134Y-78655773D01*
X136717317Y-78920396D01*
X136670900Y-79153751D01*
X130094550Y-79153751D01*
X129839174Y-78537218D01*
X129107782Y-77805826D01*
X128152172Y-77410000D01*
X127117828Y-77410000D01*
X126162218Y-77805826D01*
X125430826Y-78537218D01*
X125035000Y-79492828D01*
X124920518Y-79492828D01*
X124931406Y-79395762D01*
X125134679Y-78812042D01*
X125462216Y-78287873D01*
X125897746Y-77849292D01*
X126419620Y-77518101D01*
X127001899Y-77310761D01*
X127637243Y-77235000D01*
X154282638Y-77235000D01*
X154919238Y-77306406D01*
G04 #@! TD*
M02*
