G04 #@! TF.GenerationSoftware,KiCad,Pcbnew,5.0.0*
G04 #@! TF.CreationDate,2018-11-12T22:36:05-05:00*
G04 #@! TF.ProjectId,dot-driver,646F742D6472697665722E6B69636164,rev?*
G04 #@! TF.SameCoordinates,Original*
G04 #@! TF.FileFunction,Paste,Bot*
G04 #@! TF.FilePolarity,Positive*
%FSLAX46Y46*%
G04 Gerber Fmt 4.6, Leading zero omitted, Abs format (unit mm)*
G04 Created by KiCad (PCBNEW 5.0.0) date Mon Nov 12 22:36:05 2018*
%MOMM*%
%LPD*%
G01*
G04 APERTURE LIST*
%ADD10R,0.250000X1.000000*%
%ADD11R,1.000000X0.250000*%
%ADD12R,0.800000X0.750000*%
%ADD13R,0.750000X0.800000*%
%ADD14R,0.450000X0.590000*%
%ADD15R,0.590000X0.450000*%
%ADD16R,0.900000X0.500000*%
%ADD17R,0.800100X0.800100*%
%ADD18R,1.300000X2.000000*%
G04 APERTURE END LIST*
D10*
G04 #@! TO.C,U2*
X137220000Y-87715000D03*
X137720000Y-87715000D03*
X138220000Y-87715000D03*
X138720000Y-87715000D03*
X139220000Y-87715000D03*
X139720000Y-87715000D03*
X140220000Y-87715000D03*
X140720000Y-87715000D03*
X141220000Y-87715000D03*
X141720000Y-87715000D03*
X142220000Y-87715000D03*
X142720000Y-87715000D03*
X143220000Y-87715000D03*
X143720000Y-87715000D03*
X144220000Y-87715000D03*
X144720000Y-87715000D03*
D11*
X146670000Y-89665000D03*
X146670000Y-90165000D03*
X146670000Y-90665000D03*
X146670000Y-91165000D03*
X146670000Y-91665000D03*
X146670000Y-92165000D03*
X146670000Y-92665000D03*
X146670000Y-93165000D03*
X146670000Y-93665000D03*
X146670000Y-94165000D03*
X146670000Y-94665000D03*
X146670000Y-95165000D03*
X146670000Y-95665000D03*
X146670000Y-96165000D03*
X146670000Y-96665000D03*
X146670000Y-97165000D03*
D10*
X144720000Y-99115000D03*
X144220000Y-99115000D03*
X143720000Y-99115000D03*
X143220000Y-99115000D03*
X142720000Y-99115000D03*
X142220000Y-99115000D03*
X141720000Y-99115000D03*
X141220000Y-99115000D03*
X140720000Y-99115000D03*
X140220000Y-99115000D03*
X139720000Y-99115000D03*
X139220000Y-99115000D03*
X138720000Y-99115000D03*
X138220000Y-99115000D03*
X137720000Y-99115000D03*
X137220000Y-99115000D03*
D11*
X135270000Y-97165000D03*
X135270000Y-96665000D03*
X135270000Y-96165000D03*
X135270000Y-95665000D03*
X135270000Y-95165000D03*
X135270000Y-94665000D03*
X135270000Y-94165000D03*
X135270000Y-93665000D03*
X135270000Y-93165000D03*
X135270000Y-92665000D03*
X135270000Y-92165000D03*
X135270000Y-91665000D03*
X135270000Y-91165000D03*
X135270000Y-90665000D03*
X135270000Y-90165000D03*
X135270000Y-89665000D03*
G04 #@! TD*
D12*
G04 #@! TO.C,C1*
X149340000Y-86995000D03*
X147840000Y-86995000D03*
G04 #@! TD*
G04 #@! TO.C,C2*
X147840000Y-84455000D03*
X149340000Y-84455000D03*
G04 #@! TD*
D13*
G04 #@! TO.C,C3*
X129540000Y-85725000D03*
X129540000Y-84225000D03*
G04 #@! TD*
D12*
G04 #@! TO.C,C4*
X132600000Y-78740000D03*
X134100000Y-78740000D03*
G04 #@! TD*
D14*
G04 #@! TO.C,D1*
X151765000Y-82765000D03*
X151765000Y-84875000D03*
G04 #@! TD*
D15*
G04 #@! TO.C,D2*
X143725000Y-85090000D03*
X145835000Y-85090000D03*
G04 #@! TD*
D16*
G04 #@! TO.C,R1*
X132080000Y-106795000D03*
X132080000Y-105295000D03*
G04 #@! TD*
G04 #@! TO.C,R3*
X134620000Y-105295000D03*
X134620000Y-106795000D03*
G04 #@! TD*
G04 #@! TO.C,R6*
X137160000Y-106795000D03*
X137160000Y-105295000D03*
G04 #@! TD*
G04 #@! TO.C,R9*
X139700000Y-105295000D03*
X139700000Y-106795000D03*
G04 #@! TD*
G04 #@! TO.C,R11*
X142240000Y-106795000D03*
X142240000Y-105295000D03*
G04 #@! TD*
G04 #@! TO.C,R13*
X144780000Y-105295000D03*
X144780000Y-106795000D03*
G04 #@! TD*
G04 #@! TO.C,R15*
X147320000Y-106795000D03*
X147320000Y-105295000D03*
G04 #@! TD*
G04 #@! TO.C,R17*
X149860000Y-106795000D03*
X149860000Y-105295000D03*
G04 #@! TD*
D17*
G04 #@! TO.C,U1*
X149540000Y-82280760D03*
X147640000Y-82280760D03*
X148590000Y-80281780D03*
G04 #@! TD*
D18*
G04 #@! TO.C,Y1*
X132150000Y-85820000D03*
X132150000Y-81820000D03*
X134550000Y-81820000D03*
X134550000Y-85820000D03*
G04 #@! TD*
D13*
G04 #@! TO.C,C5*
X131445000Y-89420000D03*
X131445000Y-90920000D03*
G04 #@! TD*
G04 #@! TO.C,C6*
X149225000Y-93575000D03*
X149225000Y-92075000D03*
G04 #@! TD*
M02*
