G04 #@! TF.GenerationSoftware,KiCad,Pcbnew,5.1.5*
G04 #@! TF.CreationDate,2020-03-16T00:35:52-04:00*
G04 #@! TF.ProjectId,dot-driver,646f742d-6472-4697-9665-722e6b696361,rev?*
G04 #@! TF.SameCoordinates,Original*
G04 #@! TF.FileFunction,Copper,L2,Bot*
G04 #@! TF.FilePolarity,Positive*
%FSLAX46Y46*%
G04 Gerber Fmt 4.6, Leading zero omitted, Abs format (unit mm)*
G04 Created by KiCad (PCBNEW 5.1.5) date 2020-03-16 00:35:52*
%MOMM*%
%LPD*%
G04 APERTURE LIST*
%ADD10R,0.250000X1.000000*%
%ADD11R,1.000000X0.250000*%
%ADD12R,0.500000X0.900000*%
%ADD13R,1.300000X2.000000*%
%ADD14R,0.800000X0.750000*%
%ADD15O,1.727200X1.727200*%
%ADD16R,1.727200X1.727200*%
%ADD17R,0.320000X0.800000*%
%ADD18R,0.480000X0.800000*%
%ADD19R,0.800100X0.800100*%
%ADD20O,2.032000X2.032000*%
%ADD21R,2.032000X2.032000*%
%ADD22R,2.032000X1.727200*%
%ADD23O,2.032000X1.727200*%
%ADD24R,0.750000X0.800000*%
%ADD25R,2.235200X2.235200*%
%ADD26O,1.250000X0.950000*%
%ADD27O,1.000000X1.550000*%
%ADD28R,0.900000X0.500000*%
%ADD29C,0.800000*%
%ADD30C,1.000000*%
%ADD31C,0.200000*%
%ADD32C,0.300000*%
%ADD33C,0.500000*%
G04 APERTURE END LIST*
D10*
X137220000Y-87715000D03*
X137720000Y-87715000D03*
X138220000Y-87715000D03*
X138720000Y-87715000D03*
X139220000Y-87715000D03*
X139720000Y-87715000D03*
X140220000Y-87715000D03*
X140720000Y-87715000D03*
X141220000Y-87715000D03*
X141720000Y-87715000D03*
X142220000Y-87715000D03*
X142720000Y-87715000D03*
X143220000Y-87715000D03*
X143720000Y-87715000D03*
X144220000Y-87715000D03*
X144720000Y-87715000D03*
D11*
X146670000Y-89665000D03*
X146670000Y-90165000D03*
X146670000Y-90665000D03*
X146670000Y-91165000D03*
X146670000Y-91665000D03*
X146670000Y-92165000D03*
X146670000Y-92665000D03*
X146670000Y-93165000D03*
X146670000Y-93665000D03*
X146670000Y-94165000D03*
X146670000Y-94665000D03*
X146670000Y-95165000D03*
X146670000Y-95665000D03*
X146670000Y-96165000D03*
X146670000Y-96665000D03*
X146670000Y-97165000D03*
D10*
X144720000Y-99115000D03*
X144220000Y-99115000D03*
X143720000Y-99115000D03*
X143220000Y-99115000D03*
X142720000Y-99115000D03*
X142220000Y-99115000D03*
X141720000Y-99115000D03*
X141220000Y-99115000D03*
X140720000Y-99115000D03*
X140220000Y-99115000D03*
X139720000Y-99115000D03*
X139220000Y-99115000D03*
X138720000Y-99115000D03*
X138220000Y-99115000D03*
X137720000Y-99115000D03*
X137220000Y-99115000D03*
D11*
X135270000Y-97165000D03*
X135270000Y-96665000D03*
X135270000Y-96165000D03*
X135270000Y-95665000D03*
X135270000Y-95165000D03*
X135270000Y-94665000D03*
X135270000Y-94165000D03*
X135270000Y-93665000D03*
X135270000Y-93165000D03*
X135270000Y-92665000D03*
X135270000Y-92165000D03*
X135270000Y-91665000D03*
X135270000Y-91165000D03*
X135270000Y-90665000D03*
X135270000Y-90165000D03*
X135270000Y-89665000D03*
D12*
X149340000Y-78994000D03*
X147840000Y-78994000D03*
D13*
X132150000Y-85820000D03*
X132150000Y-81820000D03*
X134550000Y-81820000D03*
X134550000Y-85820000D03*
D14*
X148360000Y-86995000D03*
X149860000Y-86995000D03*
D15*
X139700000Y-107315000D03*
X139700000Y-109855000D03*
D16*
X139700000Y-112395000D03*
D17*
X149770000Y-101705000D03*
D18*
X148410000Y-101705000D03*
D17*
X150410000Y-101705000D03*
D18*
X151130000Y-101705000D03*
D17*
X149130000Y-101705000D03*
X149770000Y-103505000D03*
X149130000Y-103505000D03*
D18*
X148410000Y-103505000D03*
D17*
X150410000Y-103505000D03*
D18*
X151130000Y-103505000D03*
D17*
X132170000Y-101705000D03*
D18*
X130810000Y-101705000D03*
D17*
X132810000Y-101705000D03*
D18*
X133530000Y-101705000D03*
D17*
X131530000Y-101705000D03*
X132170000Y-103505000D03*
X131530000Y-103505000D03*
D18*
X130810000Y-103505000D03*
D17*
X132810000Y-103505000D03*
D18*
X133530000Y-103505000D03*
D19*
X144592000Y-83980020D03*
X143642000Y-85979000D03*
X145542000Y-85979000D03*
X147607020Y-81722000D03*
X149606000Y-82672000D03*
X149606000Y-80772000D03*
D20*
X131445000Y-94615000D03*
D21*
X131445000Y-92075000D03*
D16*
X149860000Y-112395000D03*
D15*
X149860000Y-109855000D03*
X149860000Y-107315000D03*
X147320000Y-107315000D03*
X147320000Y-109855000D03*
D16*
X147320000Y-112395000D03*
D15*
X144780000Y-107315000D03*
X144780000Y-109855000D03*
D16*
X144780000Y-112395000D03*
X142240000Y-112395000D03*
D15*
X142240000Y-109855000D03*
X142240000Y-107315000D03*
D16*
X137160000Y-112395000D03*
D15*
X137160000Y-109855000D03*
X137160000Y-107315000D03*
X134620000Y-107315000D03*
X134620000Y-109855000D03*
D16*
X134620000Y-112395000D03*
X132080000Y-112395000D03*
D15*
X132080000Y-109855000D03*
X132080000Y-107315000D03*
D22*
X127635000Y-92075000D03*
D23*
X127635000Y-94615000D03*
X127635000Y-97155000D03*
X127635000Y-99695000D03*
D14*
X147840000Y-84455000D03*
X149340000Y-84455000D03*
D24*
X129540000Y-85725000D03*
X129540000Y-84225000D03*
D14*
X132600000Y-78740000D03*
X134100000Y-78740000D03*
D25*
X127635000Y-103505000D03*
X154305000Y-103505000D03*
X127635000Y-107950000D03*
X154305000Y-107950000D03*
D26*
X143470900Y-82207540D03*
X138470900Y-82207540D03*
D27*
X144470900Y-79507540D03*
X137470900Y-79507540D03*
D28*
X129286000Y-89027000D03*
X129286000Y-87527000D03*
D24*
X131445000Y-88265000D03*
X131445000Y-89765000D03*
D14*
X149860000Y-88900000D03*
X148360000Y-88900000D03*
D29*
X139700000Y-83820000D03*
X137160000Y-85725000D03*
X137795000Y-92710000D03*
X147451957Y-98298000D03*
X145288000Y-90170000D03*
X143256000Y-89154000D03*
X137414000Y-95758000D03*
X146431000Y-78867000D03*
X149225000Y-85852000D03*
X150876000Y-97028000D03*
X147955000Y-90805000D03*
X147320000Y-85725000D03*
X145420010Y-95884934D03*
X137414000Y-97028000D03*
X134366000Y-88519000D03*
X138303000Y-86360000D03*
X137541000Y-89789000D03*
X140100010Y-96754990D03*
X146304000Y-81788000D03*
X150622000Y-78994000D03*
X139420010Y-96012500D03*
X138609145Y-95422541D03*
X130960015Y-100226015D03*
X132989419Y-98693388D03*
X137922000Y-101191358D03*
X139822798Y-101642608D03*
X142423341Y-100978487D03*
X144780000Y-101092000D03*
X146305685Y-100799969D03*
X148590000Y-99822000D03*
X133858004Y-97536000D03*
X139171937Y-100257111D03*
X131572000Y-98806000D03*
X136770066Y-101191352D03*
X133604000Y-91186000D03*
X126492000Y-86868000D03*
X137234488Y-100305725D03*
X140623318Y-100330000D03*
X143877975Y-100392000D03*
X145540001Y-100156734D03*
X146812000Y-99822000D03*
X150368000Y-100330000D03*
X138684000Y-91313000D03*
X137087890Y-92002879D03*
X137655115Y-93839850D03*
X138459658Y-94433765D03*
X150922701Y-99497949D03*
X132080000Y-105410000D03*
X134620000Y-105410000D03*
X137160000Y-105410000D03*
X139700000Y-105442685D03*
X142240000Y-105410000D03*
X144649988Y-105390526D03*
X146050000Y-105410000D03*
X152146000Y-102870000D03*
D30*
X132080000Y-112395000D02*
X149860000Y-112395000D01*
X149860000Y-112395000D02*
X150495000Y-112395000D01*
X154305000Y-108585000D02*
X154305000Y-107950000D01*
X150495000Y-112395000D02*
X154305000Y-108585000D01*
X127635000Y-107950000D02*
X127635000Y-108585000D01*
X131445000Y-112395000D02*
X132080000Y-112395000D01*
X127635000Y-108585000D02*
X131445000Y-112395000D01*
D31*
X147489979Y-96784979D02*
X147489979Y-97694293D01*
X146670000Y-96665000D02*
X147370000Y-96665000D01*
X147370000Y-96665000D02*
X147489979Y-96784979D01*
X147451957Y-97732315D02*
X147451957Y-98298000D01*
X147489979Y-97694293D02*
X147451957Y-97732315D01*
X146670000Y-90165000D02*
X145293000Y-90165000D01*
X145293000Y-90165000D02*
X145288000Y-90170000D01*
X142720000Y-87715000D02*
X142720000Y-88618000D01*
X142720000Y-88618000D02*
X143256000Y-89154000D01*
X137720000Y-98049698D02*
X137720000Y-99115000D01*
X138114001Y-97655697D02*
X137720000Y-98049698D01*
X137414000Y-95758000D02*
X138114001Y-96458001D01*
X138114001Y-96458001D02*
X138114001Y-97655697D01*
X133530000Y-102305000D02*
X133219000Y-102616000D01*
X133530000Y-101705000D02*
X133530000Y-102305000D01*
X130810000Y-102905000D02*
X130810000Y-103505000D01*
X131099000Y-102616000D02*
X130810000Y-102905000D01*
X133219000Y-102616000D02*
X131099000Y-102616000D01*
D30*
X132080000Y-107315000D02*
X149860000Y-107315000D01*
X127635000Y-103505000D02*
X128270000Y-103505000D01*
X154305000Y-103505000D02*
X153670000Y-103505000D01*
X128270000Y-103505000D02*
X132080000Y-107315000D01*
X154305000Y-103505000D02*
X153462049Y-103505000D01*
X151765000Y-105410000D02*
X149860000Y-107315000D01*
X153670000Y-103505000D02*
X151765000Y-105410000D01*
D32*
X144619980Y-83980020D02*
X144592000Y-83980020D01*
D31*
X151130000Y-102305000D02*
X151130000Y-101705000D01*
X148909999Y-102405001D02*
X151029999Y-102405001D01*
X148410000Y-102905000D02*
X148909999Y-102405001D01*
X151029999Y-102405001D02*
X151130000Y-102305000D01*
X148410000Y-103505000D02*
X148410000Y-102905000D01*
D30*
X152146000Y-97282000D02*
X154305000Y-99441000D01*
X154305000Y-99441000D02*
X154305000Y-103505000D01*
D32*
X152019000Y-86995000D02*
X152146000Y-87122000D01*
X149860000Y-86995000D02*
X152019000Y-86995000D01*
D30*
X152146000Y-87122000D02*
X152146000Y-97282000D01*
X150490000Y-82672000D02*
X149606000Y-82672000D01*
X152146000Y-87122000D02*
X152146000Y-84328000D01*
X152146000Y-84328000D02*
X150490000Y-82672000D01*
D32*
X148905950Y-82672000D02*
X149606000Y-82672000D01*
X145292050Y-83980020D02*
X146600070Y-82672000D01*
X146600070Y-82672000D02*
X148905950Y-82672000D01*
X144592000Y-83980020D02*
X145292050Y-83980020D01*
D31*
X148590000Y-81656000D02*
X149606000Y-82672000D01*
X147840000Y-78994000D02*
X147840000Y-79644000D01*
X148590000Y-80394000D02*
X148590000Y-81656000D01*
X147840000Y-79644000D02*
X148590000Y-80394000D01*
X151130000Y-101705000D02*
X153822600Y-101705000D01*
X153822600Y-101705000D02*
X154305000Y-102187400D01*
X154305000Y-102187400D02*
X154305000Y-103505000D01*
X146670000Y-90665000D02*
X147815000Y-90665000D01*
X147815000Y-90665000D02*
X147955000Y-90805000D01*
X148360000Y-90400000D02*
X147955000Y-90805000D01*
X148360000Y-88900000D02*
X148360000Y-90400000D01*
X143220000Y-86401000D02*
X143220000Y-87715000D01*
X143642000Y-85979000D02*
X143220000Y-86401000D01*
D32*
X143642000Y-85974000D02*
X143642000Y-85979000D01*
X144780000Y-84836000D02*
X143642000Y-85974000D01*
X147320000Y-84836000D02*
X144780000Y-84836000D01*
X147840000Y-84455000D02*
X147701000Y-84455000D01*
X147701000Y-84455000D02*
X147320000Y-84836000D01*
X147320000Y-84836000D02*
X147320000Y-85725000D01*
D31*
X137220000Y-97222000D02*
X137414000Y-97028000D01*
X137220000Y-99115000D02*
X137220000Y-97222000D01*
X135645000Y-89665000D02*
X135270000Y-89665000D01*
X137220000Y-87715000D02*
X137220000Y-88090000D01*
X134112000Y-88265000D02*
X134366000Y-88519000D01*
X131445000Y-88265000D02*
X134112000Y-88265000D01*
X137220000Y-87715000D02*
X137220000Y-87015000D01*
X137875000Y-86360000D02*
X138303000Y-86360000D01*
X137220000Y-87015000D02*
X137875000Y-86360000D01*
X137417000Y-89665000D02*
X137541000Y-89789000D01*
X135270000Y-89665000D02*
X137417000Y-89665000D01*
X145420010Y-96450619D02*
X145420010Y-95884934D01*
X146670000Y-97165000D02*
X145697500Y-97165000D01*
X145697500Y-97165000D02*
X145420010Y-96887510D01*
X145420010Y-96887510D02*
X145420010Y-96450619D01*
X140220000Y-96874980D02*
X140100010Y-96754990D01*
X140220000Y-99115000D02*
X140220000Y-96874980D01*
D33*
X147541020Y-81788000D02*
X147607020Y-81722000D01*
X146304000Y-81788000D02*
X147541020Y-81788000D01*
D31*
X150622000Y-78994000D02*
X149340000Y-78994000D01*
X139220000Y-99115000D02*
X139220000Y-96212510D01*
X139220000Y-96212510D02*
X139420010Y-96012500D01*
X138720000Y-99115000D02*
X138720000Y-95533396D01*
X138720000Y-95533396D02*
X138609145Y-95422541D01*
X131360014Y-99826016D02*
X130960015Y-100226015D01*
X132316031Y-99351973D02*
X131841988Y-99826016D01*
X131841988Y-99826016D02*
X131360014Y-99826016D01*
X134529999Y-94239999D02*
X134545001Y-94239999D01*
X132289417Y-99325359D02*
X132289417Y-97326583D01*
X132316031Y-99351973D02*
X132289417Y-99325359D01*
X134112000Y-94657998D02*
X134529999Y-94239999D01*
X132289417Y-97326583D02*
X134112000Y-95504000D01*
X134112000Y-95504000D02*
X134112000Y-94657998D01*
X134545001Y-94239999D02*
X134620000Y-94165000D01*
X134620000Y-94165000D02*
X135270000Y-94165000D01*
X151130000Y-103505000D02*
X151130000Y-104105000D01*
X151130000Y-104105000D02*
X149829966Y-105405034D01*
X138223972Y-102291374D02*
X136249672Y-102291374D01*
X149829966Y-105405034D02*
X147170777Y-105405034D01*
X141406932Y-103500034D02*
X141049529Y-103142631D01*
X145265777Y-103500034D02*
X141406932Y-103500034D01*
X134625053Y-99393390D02*
X132357448Y-99393390D01*
X132357448Y-99393390D02*
X132316031Y-99351973D01*
X135670045Y-100438382D02*
X134625053Y-99393390D01*
X135670045Y-101711747D02*
X135670045Y-100438382D01*
X136249672Y-102291374D02*
X135670045Y-101711747D01*
X139075229Y-103142631D02*
X138223972Y-102291374D01*
X141049529Y-103142631D02*
X139075229Y-103142631D01*
X147170777Y-105405034D02*
X145265777Y-103500034D01*
X149298275Y-105005023D02*
X147336472Y-105005023D01*
X147336472Y-105005023D02*
X145469494Y-103138045D01*
X150410000Y-103893298D02*
X149298275Y-105005023D01*
X150410000Y-103505000D02*
X150410000Y-103893298D01*
X135270000Y-96665000D02*
X133692997Y-96665000D01*
X133692997Y-96665000D02*
X132989419Y-97368578D01*
X132989419Y-97368578D02*
X132989419Y-98127703D01*
X132989419Y-98127703D02*
X132989419Y-98693388D01*
X138389661Y-101891363D02*
X136415361Y-101891363D01*
X134490751Y-98693388D02*
X133555104Y-98693388D01*
X145431472Y-103100023D02*
X141572621Y-103100023D01*
X136070056Y-100272693D02*
X134490751Y-98693388D01*
X133555104Y-98693388D02*
X132989419Y-98693388D01*
X136070056Y-101546058D02*
X136070056Y-100272693D01*
X145469492Y-103138045D02*
X145431472Y-103100023D01*
X139240918Y-102742620D02*
X138389661Y-101891363D01*
X136415361Y-101891363D02*
X136070056Y-101546058D01*
X141215218Y-102742620D02*
X139240918Y-102742620D01*
X141572621Y-103100023D02*
X141215218Y-102742620D01*
X149765000Y-103860002D02*
X149765000Y-103400000D01*
X138487685Y-101191358D02*
X137922000Y-101191358D01*
X139093839Y-101191358D02*
X138487685Y-101191358D01*
X139093844Y-101191353D02*
X139093839Y-101191358D01*
X141738310Y-102700012D02*
X141380907Y-102342609D01*
X147502161Y-104605012D02*
X145597161Y-102700012D01*
X141380907Y-102342609D02*
X139486797Y-102342609D01*
X145597161Y-102700012D02*
X141738310Y-102700012D01*
X139093844Y-101949656D02*
X139093844Y-101191353D01*
X149129990Y-104605012D02*
X147502161Y-104605012D01*
X139486797Y-102342609D02*
X139093844Y-101949656D01*
X149770000Y-103965002D02*
X149129990Y-104605012D01*
X149770000Y-103965002D02*
X149770000Y-103505000D01*
X140158799Y-100942607D02*
X140407512Y-101191320D01*
X141220000Y-99815000D02*
X141220000Y-99115000D01*
X139093844Y-101191353D02*
X139065000Y-101191353D01*
X140407512Y-101191320D02*
X140959320Y-101191320D01*
X139313746Y-100942607D02*
X140158799Y-100942607D01*
X141323320Y-100827320D02*
X141323320Y-99918320D01*
X139065000Y-101191353D02*
X139313746Y-100942607D01*
X141323320Y-99918320D02*
X141220000Y-99815000D01*
X140959320Y-101191320D02*
X141323320Y-100827320D01*
X149130000Y-103860002D02*
X148785001Y-104205001D01*
X147667850Y-104205001D02*
X145762850Y-102300001D01*
X145762850Y-102300001D02*
X141903999Y-102300001D01*
X148785001Y-104205001D02*
X147667850Y-104205001D01*
X141903999Y-102300001D02*
X141268999Y-101665001D01*
X141723331Y-101210669D02*
X141268999Y-101665001D01*
X141720000Y-99115000D02*
X141720000Y-99815000D01*
X141268999Y-101665001D02*
X141246606Y-101642608D01*
X141246606Y-101642608D02*
X140388483Y-101642608D01*
X140388483Y-101642608D02*
X139822798Y-101642608D01*
X141720000Y-99815000D02*
X141723331Y-99818331D01*
X141723331Y-99818331D02*
X141723331Y-101210669D01*
X142220000Y-99115000D02*
X142220000Y-100775146D01*
X145928539Y-101899990D02*
X143344844Y-101899990D01*
X143344844Y-101899990D02*
X142823340Y-101378486D01*
X146333549Y-102305000D02*
X145928539Y-101899990D01*
X148410000Y-101865000D02*
X147970000Y-102305000D01*
X148410000Y-101705000D02*
X148410000Y-101865000D01*
X147970000Y-102305000D02*
X146333549Y-102305000D01*
X142823340Y-101378486D02*
X142423341Y-100978487D01*
X142220000Y-100775146D02*
X142423341Y-100978487D01*
X147255990Y-100922012D02*
X146678023Y-101499979D01*
X149130000Y-101600000D02*
X149130000Y-101348362D01*
X149130000Y-101348362D02*
X148703650Y-100922012D01*
X146678023Y-101499979D02*
X145187979Y-101499979D01*
X145179999Y-101491999D02*
X144780000Y-101092000D01*
X148703650Y-100922012D02*
X147255990Y-100922012D01*
X145187979Y-101499979D02*
X145179999Y-101491999D01*
X143533515Y-101092000D02*
X144214315Y-101092000D01*
X142720000Y-100278485D02*
X143533515Y-101092000D01*
X144214315Y-101092000D02*
X144780000Y-101092000D01*
X142720000Y-99115000D02*
X142720000Y-100278485D01*
X147381999Y-100522001D02*
X146583653Y-100522001D01*
X147574000Y-100330000D02*
X147381999Y-100522001D01*
X146583653Y-100522001D02*
X146305685Y-100799969D01*
X147574000Y-100330000D02*
X147766001Y-100522001D01*
X148958299Y-100522001D02*
X149770000Y-101333702D01*
X149770000Y-101333702D02*
X149770000Y-101600000D01*
X147766001Y-100522001D02*
X148958299Y-100522001D01*
X147574000Y-99399977D02*
X147574000Y-100330000D01*
X147435698Y-96165000D02*
X148151967Y-96881269D01*
X146670000Y-96165000D02*
X147435698Y-96165000D01*
X148151967Y-98822010D02*
X147574000Y-99399977D01*
X148151967Y-96881269D02*
X148151967Y-98822010D01*
X148823998Y-99822000D02*
X148590000Y-99822000D01*
X150006997Y-101004999D02*
X148823998Y-99822000D01*
X150170001Y-101004999D02*
X150006997Y-101004999D01*
X150410000Y-101244998D02*
X150170001Y-101004999D01*
X150410000Y-101600000D02*
X150410000Y-101244998D01*
X148590000Y-96753602D02*
X148590000Y-99822000D01*
X146670000Y-95665000D02*
X147501398Y-95665000D01*
X147501398Y-95665000D02*
X148590000Y-96753602D01*
X135270000Y-97165000D02*
X134229004Y-97165000D01*
X134229004Y-97165000D02*
X133858004Y-97536000D01*
X138220000Y-99115000D02*
X138220000Y-99815000D01*
X138220000Y-99815000D02*
X138662111Y-100257111D01*
X138662111Y-100257111D02*
X139171937Y-100257111D01*
X135270000Y-93665000D02*
X134539298Y-93665000D01*
X131572000Y-98240315D02*
X131572000Y-98806000D01*
X134539298Y-93665000D02*
X133711990Y-94492309D01*
X133711990Y-94492309D02*
X133711990Y-95338312D01*
X131572000Y-97478302D02*
X131572000Y-98044000D01*
X133711990Y-95338312D02*
X131572000Y-97478302D01*
X131572000Y-98044000D02*
X131572000Y-98240315D01*
X136888033Y-101109967D02*
X136806648Y-101191352D01*
X136806648Y-101191352D02*
X136770066Y-101191352D01*
X136070001Y-96299999D02*
X136070001Y-99706938D01*
X135270000Y-96165000D02*
X135935001Y-96165000D01*
X135935001Y-96165000D02*
X136070001Y-96299999D01*
X136070001Y-99706938D02*
X136470067Y-100107004D01*
X136470067Y-100891353D02*
X136770066Y-101191352D01*
X136470067Y-100107004D02*
X136470067Y-100891353D01*
X135270000Y-91165000D02*
X135270000Y-91665000D01*
X135249000Y-91186000D02*
X135270000Y-91165000D01*
X133604000Y-91186000D02*
X135249000Y-91186000D01*
X132334000Y-93726000D02*
X131445000Y-94615000D01*
X132842000Y-93726000D02*
X132334000Y-93726000D01*
X133604000Y-91186000D02*
X133604000Y-92964000D01*
X133604000Y-92964000D02*
X132842000Y-93726000D01*
X129286000Y-87527000D02*
X127151000Y-87527000D01*
X127151000Y-87527000D02*
X126492000Y-86868000D01*
X136564223Y-99635460D02*
X137234488Y-100305725D01*
X136000702Y-95665000D02*
X136564223Y-96228521D01*
X135270000Y-95665000D02*
X136000702Y-95665000D01*
X136564223Y-96228521D02*
X136564223Y-99635460D01*
X140235000Y-100330000D02*
X140623318Y-100330000D01*
X139720000Y-99115000D02*
X139720000Y-99815000D01*
X139720000Y-99815000D02*
X140235000Y-100330000D01*
X146670000Y-94665000D02*
X144857000Y-94665000D01*
X144857000Y-94665000D02*
X144145000Y-95377000D01*
X145540001Y-98238303D02*
X145540001Y-99591049D01*
X144145000Y-95377000D02*
X144145000Y-96843302D01*
X144145000Y-96843302D02*
X145540001Y-98238303D01*
X145540001Y-99591049D02*
X145540001Y-100156734D01*
X145103942Y-95165000D02*
X145970000Y-95165000D01*
X144545011Y-95723931D02*
X145103942Y-95165000D01*
X144545011Y-96578211D02*
X144545011Y-95723931D01*
X146812000Y-99822000D02*
X146812000Y-98845200D01*
X146812000Y-98845200D02*
X144545011Y-96578211D01*
X145970000Y-95165000D02*
X146670000Y-95165000D01*
X149968001Y-99930001D02*
X150368000Y-100330000D01*
X148990011Y-98952011D02*
X149968001Y-99930001D01*
X146670000Y-94165000D02*
X147370000Y-94165000D01*
X147370000Y-94165000D02*
X148990011Y-95785011D01*
X148990011Y-95785011D02*
X148990011Y-98952011D01*
X138684000Y-91948000D02*
X138684000Y-91878685D01*
X144720000Y-97984000D02*
X138684000Y-91948000D01*
X138684000Y-91878685D02*
X138684000Y-91313000D01*
X144720000Y-99115000D02*
X144720000Y-97984000D01*
X144220000Y-98049700D02*
X138173179Y-92002879D01*
X144220000Y-99115000D02*
X144220000Y-98049700D01*
X137653575Y-92002879D02*
X137087890Y-92002879D01*
X138173179Y-92002879D02*
X137653575Y-92002879D01*
X143720000Y-98115400D02*
X139044451Y-93439851D01*
X138055114Y-93439851D02*
X137655115Y-93839850D01*
X139044451Y-93439851D02*
X138055114Y-93439851D01*
X143720000Y-99115000D02*
X143720000Y-98115400D01*
X143220000Y-98181100D02*
X139472665Y-94433765D01*
X139025343Y-94433765D02*
X138459658Y-94433765D01*
X139472665Y-94433765D02*
X139025343Y-94433765D01*
X143220000Y-99115000D02*
X143220000Y-98181100D01*
X150922701Y-99497949D02*
X149390022Y-97965270D01*
X147370000Y-92665000D02*
X146670000Y-92665000D01*
X149390022Y-94685022D02*
X147370000Y-92665000D01*
X149390022Y-97965270D02*
X149390022Y-94685022D01*
X132150000Y-84620000D02*
X132315000Y-84455000D01*
X138430000Y-84455000D02*
X139220000Y-85245000D01*
X139220000Y-85245000D02*
X139220000Y-87715000D01*
X132150000Y-85820000D02*
X132150000Y-84620000D01*
X132315000Y-84455000D02*
X138430000Y-84455000D01*
X129635000Y-85820000D02*
X129540000Y-85725000D01*
X132150000Y-85820000D02*
X129635000Y-85820000D01*
X134550000Y-83020000D02*
X135350000Y-83820000D01*
X134550000Y-81820000D02*
X134550000Y-83020000D01*
X135350000Y-83820000D02*
X138430000Y-83820000D01*
X139720000Y-85110000D02*
X139720000Y-87715000D01*
X138430000Y-83820000D02*
X139720000Y-85110000D01*
X134100000Y-81370000D02*
X134550000Y-81820000D01*
X134100000Y-78740000D02*
X134100000Y-81370000D01*
X131530000Y-103505000D02*
X131530000Y-104155698D01*
X132080000Y-104705698D02*
X132080000Y-105410000D01*
X131530000Y-104155698D02*
X132080000Y-104705698D01*
X133604000Y-105410000D02*
X132170000Y-103976000D01*
X134620000Y-105410000D02*
X133604000Y-105410000D01*
X132170000Y-103976000D02*
X132170000Y-103505000D01*
X136525000Y-104775000D02*
X137160000Y-105410000D01*
X136760001Y-105010001D02*
X136525000Y-104775000D01*
X132964700Y-104205000D02*
X134515095Y-104205000D01*
X134515095Y-104205000D02*
X135085095Y-104775000D01*
X135085095Y-104775000D02*
X136525000Y-104775000D01*
X132810000Y-104050300D02*
X132964700Y-104205000D01*
X132810000Y-103505000D02*
X132810000Y-104050300D01*
X139134315Y-105442685D02*
X139700000Y-105442685D01*
X137431971Y-104342676D02*
X138531980Y-105442685D01*
X133530000Y-103505000D02*
X134380798Y-103505000D01*
X138531980Y-105442685D02*
X139134315Y-105442685D01*
X134380798Y-103505000D02*
X135218474Y-104342676D01*
X135218474Y-104342676D02*
X137431971Y-104342676D01*
X132925805Y-101004999D02*
X133973862Y-101004999D01*
X137597660Y-103942665D02*
X138397670Y-104742675D01*
X138397670Y-104742675D02*
X140386773Y-104742675D01*
X141054098Y-105410000D02*
X141674315Y-105410000D01*
X141674315Y-105410000D02*
X142240000Y-105410000D01*
X132810000Y-101705000D02*
X132810000Y-101120804D01*
X140386773Y-104742675D02*
X141054098Y-105410000D01*
X134070001Y-101101138D02*
X134070001Y-102628503D01*
X132810000Y-101120804D02*
X132925805Y-101004999D01*
X133973862Y-101004999D02*
X134070001Y-101101138D01*
X134070001Y-102628503D02*
X135384164Y-103942665D01*
X135384164Y-103942665D02*
X137597660Y-103942665D01*
X138563359Y-104342664D02*
X137725697Y-103505002D01*
X140909865Y-104700067D02*
X140552462Y-104342664D01*
X140552462Y-104342664D02*
X138563359Y-104342664D01*
X144649988Y-105390526D02*
X143959529Y-104700067D01*
X143959529Y-104700067D02*
X140909865Y-104700067D01*
X132170000Y-101705000D02*
X132170000Y-101195104D01*
X135512199Y-103505000D02*
X137725697Y-103505000D01*
X134470012Y-102462813D02*
X135512199Y-103505000D01*
X132760116Y-100604988D02*
X134139551Y-100604988D01*
X134470012Y-100935449D02*
X134470012Y-102462813D01*
X134139551Y-100604988D02*
X134470012Y-100935449D01*
X132170000Y-101195104D02*
X132760116Y-100604988D01*
X135270034Y-100604071D02*
X134470929Y-99804966D01*
X146050000Y-105014202D02*
X144935843Y-103900045D01*
X146050000Y-105410000D02*
X146050000Y-105014202D01*
X135270034Y-102131435D02*
X135270034Y-100604071D01*
X135829984Y-102691385D02*
X135270034Y-102131435D01*
X138894737Y-103542642D02*
X138043480Y-102691385D01*
X138043480Y-102691385D02*
X135829984Y-102691385D01*
X132428738Y-99804966D02*
X130810000Y-101423704D01*
X134470929Y-99804966D02*
X132428738Y-99804966D01*
X141241243Y-103900045D02*
X140883840Y-103542642D01*
X140883840Y-103542642D02*
X138894737Y-103542642D01*
X144935843Y-103900045D02*
X141241243Y-103900045D01*
X130810000Y-101423704D02*
X130810000Y-101705000D01*
X145713999Y-106110001D02*
X149725684Y-106110001D01*
X137877791Y-103091396D02*
X138729048Y-103942653D01*
X144576056Y-104300056D02*
X145349999Y-105073999D01*
X140718151Y-103942653D02*
X141075554Y-104300056D01*
X131530000Y-101705000D02*
X131530000Y-101269404D01*
X131530000Y-101269404D02*
X132594427Y-100204977D01*
X152146000Y-103435685D02*
X152146000Y-102870000D01*
X145349999Y-105746001D02*
X145713999Y-106110001D01*
X149725684Y-106110001D02*
X152146000Y-103689685D01*
X134870023Y-102297124D02*
X135664295Y-103091396D01*
X152146000Y-103689685D02*
X152146000Y-103435685D01*
X141075554Y-104300056D02*
X144576056Y-104300056D01*
X135664295Y-103091396D02*
X137877791Y-103091396D01*
X134870023Y-100769760D02*
X134870023Y-102297124D01*
X132594427Y-100204977D02*
X134305240Y-100204977D01*
X134305240Y-100204977D02*
X134870023Y-100769760D01*
X145349999Y-105073999D02*
X145349999Y-105746001D01*
X138729048Y-103942653D02*
X140718151Y-103942653D01*
G36*
X154843626Y-77289731D02*
G01*
X155361739Y-77446158D01*
X155839599Y-77700241D01*
X156259009Y-78042303D01*
X156603990Y-78459314D01*
X156861401Y-78935384D01*
X157021441Y-79452392D01*
X157079995Y-80009489D01*
X157080000Y-80010815D01*
X157080001Y-83800428D01*
X157049456Y-84111948D01*
X156964667Y-84392783D01*
X156826949Y-84651793D01*
X156641542Y-84879123D01*
X156415513Y-85066111D01*
X156157466Y-85205636D01*
X155877237Y-85292382D01*
X155566647Y-85325026D01*
X155560317Y-85325048D01*
X155542926Y-85326814D01*
X155525448Y-85326692D01*
X155519890Y-85327237D01*
X155150135Y-85366100D01*
X155114603Y-85373394D01*
X155079010Y-85380184D01*
X155073663Y-85381798D01*
X154718499Y-85491740D01*
X154685106Y-85505777D01*
X154651465Y-85519369D01*
X154646534Y-85521991D01*
X154319489Y-85698823D01*
X154289448Y-85719086D01*
X154259096Y-85738948D01*
X154254768Y-85742478D01*
X153968298Y-85979467D01*
X153942768Y-86005176D01*
X153916851Y-86030556D01*
X153913291Y-86034860D01*
X153678307Y-86322977D01*
X153658237Y-86353184D01*
X153637762Y-86383088D01*
X153635109Y-86387996D01*
X153635106Y-86388000D01*
X153635106Y-86388001D01*
X153460561Y-86716273D01*
X153446742Y-86749799D01*
X153432464Y-86783113D01*
X153430812Y-86788448D01*
X153323352Y-87144371D01*
X153316305Y-87179963D01*
X153308773Y-87215397D01*
X153308189Y-87220952D01*
X153271909Y-87590967D01*
X153270000Y-87610354D01*
X153270001Y-95904647D01*
X153271775Y-95922659D01*
X153271692Y-95934552D01*
X153272237Y-95940111D01*
X153311100Y-96309865D01*
X153318386Y-96345360D01*
X153325183Y-96380990D01*
X153326798Y-96386337D01*
X153436740Y-96741500D01*
X153450772Y-96774880D01*
X153464369Y-96808535D01*
X153466991Y-96813466D01*
X153643823Y-97140511D01*
X153664112Y-97170590D01*
X153683948Y-97200904D01*
X153687478Y-97205232D01*
X153924467Y-97491702D01*
X153950212Y-97517268D01*
X153975557Y-97543149D01*
X153979860Y-97546710D01*
X154267977Y-97781693D01*
X154298184Y-97801763D01*
X154328088Y-97822238D01*
X154332996Y-97824891D01*
X154333000Y-97824894D01*
X154333004Y-97824896D01*
X154661273Y-97999439D01*
X154694785Y-98013252D01*
X154728112Y-98027536D01*
X154733448Y-98029188D01*
X155089370Y-98136648D01*
X155124977Y-98143698D01*
X155160397Y-98151227D01*
X155165949Y-98151811D01*
X155165951Y-98151811D01*
X155535967Y-98188091D01*
X155866948Y-98220544D01*
X156147784Y-98305334D01*
X156406790Y-98443049D01*
X156634124Y-98628459D01*
X156821111Y-98854487D01*
X156960636Y-99112534D01*
X157047381Y-99392761D01*
X157080000Y-99703105D01*
X157080000Y-108359882D01*
X156030973Y-108359011D01*
X156030600Y-108256000D01*
X155878600Y-108104000D01*
X154459000Y-108104000D01*
X154459000Y-108124000D01*
X154151000Y-108124000D01*
X154151000Y-108104000D01*
X152731400Y-108104000D01*
X152579400Y-108256000D01*
X152579037Y-108356146D01*
X152245953Y-108355869D01*
X152246019Y-106832400D01*
X152576458Y-106832400D01*
X152579400Y-107644000D01*
X152731400Y-107796000D01*
X154151000Y-107796000D01*
X154151000Y-106376400D01*
X154459000Y-106376400D01*
X154459000Y-107796000D01*
X155878600Y-107796000D01*
X156030600Y-107644000D01*
X156033542Y-106832400D01*
X156021803Y-106713211D01*
X155987037Y-106598603D01*
X155930580Y-106492979D01*
X155854601Y-106400399D01*
X155762021Y-106324420D01*
X155656397Y-106267963D01*
X155541789Y-106233197D01*
X155422600Y-106221458D01*
X154611000Y-106224400D01*
X154459000Y-106376400D01*
X154151000Y-106376400D01*
X153999000Y-106224400D01*
X153187400Y-106221458D01*
X153068211Y-106233197D01*
X152953603Y-106267963D01*
X152847979Y-106324420D01*
X152755399Y-106400399D01*
X152679420Y-106492979D01*
X152622963Y-106598603D01*
X152588197Y-106713211D01*
X152576458Y-106832400D01*
X152246019Y-106832400D01*
X152246053Y-106060317D01*
X153382319Y-104924051D01*
X155422600Y-104924051D01*
X155481410Y-104918259D01*
X155537960Y-104901104D01*
X155590077Y-104873247D01*
X155635758Y-104835758D01*
X155673247Y-104790077D01*
X155701104Y-104737960D01*
X155718259Y-104681410D01*
X155724051Y-104622600D01*
X155724051Y-102387400D01*
X155718259Y-102328590D01*
X155701104Y-102272040D01*
X155673247Y-102219923D01*
X155635758Y-102174242D01*
X155590077Y-102136753D01*
X155537960Y-102108896D01*
X155481410Y-102091741D01*
X155422600Y-102085949D01*
X155105000Y-102085949D01*
X155105000Y-99480290D01*
X155108870Y-99440999D01*
X155105000Y-99401707D01*
X155093424Y-99284173D01*
X155047679Y-99133372D01*
X155042905Y-99124440D01*
X154973393Y-98994393D01*
X154898469Y-98903098D01*
X154873422Y-98872578D01*
X154842903Y-98847533D01*
X152946000Y-96950630D01*
X152946000Y-84367291D01*
X152949870Y-84328000D01*
X152945335Y-84281959D01*
X152934424Y-84171173D01*
X152888679Y-84020372D01*
X152863793Y-83973814D01*
X152814393Y-83881393D01*
X152739470Y-83790099D01*
X152739469Y-83790098D01*
X152714422Y-83759578D01*
X152683902Y-83734531D01*
X151083473Y-82134103D01*
X151058422Y-82103578D01*
X150936606Y-82003607D01*
X150797628Y-81929321D01*
X150646827Y-81883576D01*
X150529293Y-81872000D01*
X150529291Y-81872000D01*
X150490000Y-81868130D01*
X150450709Y-81872000D01*
X149566707Y-81872000D01*
X149449173Y-81883576D01*
X149398602Y-81898917D01*
X149280350Y-81780665D01*
X149300000Y-81780050D01*
X149452000Y-81628050D01*
X149452000Y-80926000D01*
X149760000Y-80926000D01*
X149760000Y-81628050D01*
X149912000Y-81780050D01*
X150006050Y-81782992D01*
X150125239Y-81771253D01*
X150239847Y-81736487D01*
X150345471Y-81680030D01*
X150438051Y-81604051D01*
X150514030Y-81511471D01*
X150570487Y-81405847D01*
X150605253Y-81291239D01*
X150616992Y-81172050D01*
X150614050Y-81078000D01*
X150462050Y-80926000D01*
X149760000Y-80926000D01*
X149452000Y-80926000D01*
X149432000Y-80926000D01*
X149432000Y-80618000D01*
X149452000Y-80618000D01*
X149452000Y-79915950D01*
X149760000Y-79915950D01*
X149760000Y-80618000D01*
X150462050Y-80618000D01*
X150614050Y-80466000D01*
X150616992Y-80371950D01*
X150605253Y-80252761D01*
X150570487Y-80138153D01*
X150514030Y-80032529D01*
X150438051Y-79939949D01*
X150345471Y-79863970D01*
X150239847Y-79807513D01*
X150125239Y-79772747D01*
X150006050Y-79761008D01*
X149912000Y-79763950D01*
X149760000Y-79915950D01*
X149452000Y-79915950D01*
X149300000Y-79763950D01*
X149205950Y-79761008D01*
X149086761Y-79772747D01*
X148972153Y-79807513D01*
X148866529Y-79863970D01*
X148773949Y-79939949D01*
X148741353Y-79979667D01*
X148515608Y-79753922D01*
X151705000Y-79753922D01*
X151705000Y-80266078D01*
X151804917Y-80768392D01*
X152000910Y-81241562D01*
X152285448Y-81667403D01*
X152647597Y-82029552D01*
X153073438Y-82314090D01*
X153546608Y-82510083D01*
X154048922Y-82610000D01*
X154561078Y-82610000D01*
X155063392Y-82510083D01*
X155536562Y-82314090D01*
X155962403Y-82029552D01*
X156324552Y-81667403D01*
X156609090Y-81241562D01*
X156805083Y-80768392D01*
X156905000Y-80266078D01*
X156905000Y-79753922D01*
X156805083Y-79251608D01*
X156609090Y-78778438D01*
X156324552Y-78352597D01*
X155962403Y-77990448D01*
X155536562Y-77705910D01*
X155063392Y-77509917D01*
X154561078Y-77410000D01*
X154048922Y-77410000D01*
X153546608Y-77509917D01*
X153073438Y-77705910D01*
X152647597Y-77990448D01*
X152285448Y-78352597D01*
X152000910Y-78778438D01*
X151804917Y-79251608D01*
X151705000Y-79753922D01*
X148515608Y-79753922D01*
X148351973Y-79590288D01*
X148368504Y-79559360D01*
X148385659Y-79502810D01*
X148391451Y-79444000D01*
X148391451Y-78544000D01*
X148788549Y-78544000D01*
X148788549Y-79444000D01*
X148794341Y-79502810D01*
X148811496Y-79559360D01*
X148839353Y-79611477D01*
X148876842Y-79657158D01*
X148922523Y-79694647D01*
X148974640Y-79722504D01*
X149031190Y-79739659D01*
X149090000Y-79745451D01*
X149590000Y-79745451D01*
X149648810Y-79739659D01*
X149705360Y-79722504D01*
X149757477Y-79694647D01*
X149803158Y-79657158D01*
X149840647Y-79611477D01*
X149868504Y-79559360D01*
X149885659Y-79502810D01*
X149891451Y-79444000D01*
X149891451Y-79394000D01*
X150047388Y-79394000D01*
X150078274Y-79440224D01*
X150175776Y-79537726D01*
X150290426Y-79614332D01*
X150417818Y-79667099D01*
X150553056Y-79694000D01*
X150690944Y-79694000D01*
X150826182Y-79667099D01*
X150953574Y-79614332D01*
X151068224Y-79537726D01*
X151165726Y-79440224D01*
X151242332Y-79325574D01*
X151295099Y-79198182D01*
X151322000Y-79062944D01*
X151322000Y-78925056D01*
X151295099Y-78789818D01*
X151242332Y-78662426D01*
X151165726Y-78547776D01*
X151068224Y-78450274D01*
X150953574Y-78373668D01*
X150826182Y-78320901D01*
X150690944Y-78294000D01*
X150553056Y-78294000D01*
X150417818Y-78320901D01*
X150290426Y-78373668D01*
X150175776Y-78450274D01*
X150078274Y-78547776D01*
X150047388Y-78594000D01*
X149891451Y-78594000D01*
X149891451Y-78544000D01*
X149885659Y-78485190D01*
X149868504Y-78428640D01*
X149840647Y-78376523D01*
X149803158Y-78330842D01*
X149757477Y-78293353D01*
X149705360Y-78265496D01*
X149648810Y-78248341D01*
X149590000Y-78242549D01*
X149090000Y-78242549D01*
X149031190Y-78248341D01*
X148974640Y-78265496D01*
X148922523Y-78293353D01*
X148876842Y-78330842D01*
X148839353Y-78376523D01*
X148811496Y-78428640D01*
X148794341Y-78485190D01*
X148788549Y-78544000D01*
X148391451Y-78544000D01*
X148385659Y-78485190D01*
X148368504Y-78428640D01*
X148340647Y-78376523D01*
X148303158Y-78330842D01*
X148257477Y-78293353D01*
X148205360Y-78265496D01*
X148148810Y-78248341D01*
X148090000Y-78242549D01*
X147590000Y-78242549D01*
X147531190Y-78248341D01*
X147474640Y-78265496D01*
X147422523Y-78293353D01*
X147376842Y-78330842D01*
X147339353Y-78376523D01*
X147311496Y-78428640D01*
X147294341Y-78485190D01*
X147288549Y-78544000D01*
X147288549Y-79444000D01*
X147294341Y-79502810D01*
X147311496Y-79559360D01*
X147339353Y-79611477D01*
X147376842Y-79657158D01*
X147422523Y-79694647D01*
X147444194Y-79706230D01*
X147445788Y-79722413D01*
X147468661Y-79797814D01*
X147505803Y-79867302D01*
X147543265Y-79912950D01*
X147543268Y-79912953D01*
X147555790Y-79928211D01*
X147571047Y-79940733D01*
X148190000Y-80559686D01*
X148190001Y-81083985D01*
X148174547Y-81071303D01*
X148122430Y-81043446D01*
X148065880Y-81026291D01*
X148007070Y-81020499D01*
X147206970Y-81020499D01*
X147148160Y-81026291D01*
X147091610Y-81043446D01*
X147039493Y-81071303D01*
X146993812Y-81108792D01*
X146956323Y-81154473D01*
X146928466Y-81206590D01*
X146918937Y-81238000D01*
X146740834Y-81238000D01*
X146635574Y-81167668D01*
X146508182Y-81114901D01*
X146372944Y-81088000D01*
X146235056Y-81088000D01*
X146099818Y-81114901D01*
X145972426Y-81167668D01*
X145857776Y-81244274D01*
X145760274Y-81341776D01*
X145683668Y-81456426D01*
X145630901Y-81583818D01*
X145604000Y-81719056D01*
X145604000Y-81856944D01*
X145630901Y-81992182D01*
X145683668Y-82119574D01*
X145760274Y-82234224D01*
X145857776Y-82331726D01*
X145972426Y-82408332D01*
X146099818Y-82461099D01*
X146162172Y-82473502D01*
X145233900Y-83401774D01*
X145205208Y-83366812D01*
X145159527Y-83329323D01*
X145107410Y-83301466D01*
X145050860Y-83284311D01*
X144992050Y-83278519D01*
X144191950Y-83278519D01*
X144133140Y-83284311D01*
X144076590Y-83301466D01*
X144024473Y-83329323D01*
X143978792Y-83366812D01*
X143941303Y-83412493D01*
X143913446Y-83464610D01*
X143896291Y-83521160D01*
X143890499Y-83579970D01*
X143890499Y-84380070D01*
X143896291Y-84438880D01*
X143913446Y-84495430D01*
X143941303Y-84547547D01*
X143978792Y-84593228D01*
X144024473Y-84630717D01*
X144076590Y-84658574D01*
X144133140Y-84675729D01*
X144191950Y-84681521D01*
X144298083Y-84681521D01*
X143702106Y-85277499D01*
X143241950Y-85277499D01*
X143183140Y-85283291D01*
X143126590Y-85300446D01*
X143074473Y-85328303D01*
X143028792Y-85365792D01*
X142991303Y-85411473D01*
X142963446Y-85463590D01*
X142946291Y-85520140D01*
X142940499Y-85578950D01*
X142940499Y-86112924D01*
X142935789Y-86116789D01*
X142885803Y-86177698D01*
X142848660Y-86247187D01*
X142830265Y-86307828D01*
X142825788Y-86322587D01*
X142818065Y-86401000D01*
X142820000Y-86420647D01*
X142820000Y-86684000D01*
X142745000Y-86759000D01*
X142745000Y-87561000D01*
X142793549Y-87561000D01*
X142793549Y-87869000D01*
X142745000Y-87869000D01*
X142745000Y-88671000D01*
X142897000Y-88823000D01*
X142983494Y-88810038D01*
X143096919Y-88771585D01*
X143200662Y-88711744D01*
X143290738Y-88632813D01*
X143363685Y-88537825D01*
X143375730Y-88513424D01*
X143403810Y-88510659D01*
X143460360Y-88493504D01*
X143470000Y-88488351D01*
X143479640Y-88493504D01*
X143536190Y-88510659D01*
X143595000Y-88516451D01*
X143845000Y-88516451D01*
X143903810Y-88510659D01*
X143960360Y-88493504D01*
X143970000Y-88488351D01*
X143979640Y-88493504D01*
X144036190Y-88510659D01*
X144095000Y-88516451D01*
X144345000Y-88516451D01*
X144403810Y-88510659D01*
X144460360Y-88493504D01*
X144470000Y-88488351D01*
X144479640Y-88493504D01*
X144536190Y-88510659D01*
X144595000Y-88516451D01*
X144845000Y-88516451D01*
X144903810Y-88510659D01*
X144960360Y-88493504D01*
X145012477Y-88465647D01*
X145058158Y-88428158D01*
X145095647Y-88382477D01*
X145123504Y-88330360D01*
X145140659Y-88273810D01*
X145146451Y-88215000D01*
X145146451Y-87370000D01*
X147349058Y-87370000D01*
X147360797Y-87489189D01*
X147395563Y-87603797D01*
X147452020Y-87709421D01*
X147527999Y-87802001D01*
X147620579Y-87877980D01*
X147726203Y-87934437D01*
X147840811Y-87969203D01*
X147960000Y-87980942D01*
X148054000Y-87978000D01*
X148206000Y-87826000D01*
X148206000Y-87149000D01*
X147504000Y-87149000D01*
X147352000Y-87301000D01*
X147349058Y-87370000D01*
X145146451Y-87370000D01*
X145146451Y-87215000D01*
X145140659Y-87156190D01*
X145123504Y-87099640D01*
X145095647Y-87047523D01*
X145058158Y-87001842D01*
X145030322Y-86978998D01*
X145141950Y-86989992D01*
X145236000Y-86987050D01*
X145388000Y-86835050D01*
X145388000Y-86133000D01*
X145696000Y-86133000D01*
X145696000Y-86835050D01*
X145848000Y-86987050D01*
X145942050Y-86989992D01*
X146061239Y-86978253D01*
X146175847Y-86943487D01*
X146281471Y-86887030D01*
X146374051Y-86811051D01*
X146450030Y-86718471D01*
X146506487Y-86612847D01*
X146541253Y-86498239D01*
X146552992Y-86379050D01*
X146550050Y-86285000D01*
X146398050Y-86133000D01*
X145696000Y-86133000D01*
X145388000Y-86133000D01*
X144685950Y-86133000D01*
X144533950Y-86285000D01*
X144531008Y-86379050D01*
X144542747Y-86498239D01*
X144577513Y-86612847D01*
X144633970Y-86718471D01*
X144709949Y-86811051D01*
X144802529Y-86887030D01*
X144853756Y-86914411D01*
X144845000Y-86913549D01*
X144595000Y-86913549D01*
X144536190Y-86919341D01*
X144479640Y-86936496D01*
X144470000Y-86941649D01*
X144460360Y-86936496D01*
X144403810Y-86919341D01*
X144345000Y-86913549D01*
X144095000Y-86913549D01*
X144036190Y-86919341D01*
X143979640Y-86936496D01*
X143970000Y-86941649D01*
X143960360Y-86936496D01*
X143903810Y-86919341D01*
X143845000Y-86913549D01*
X143620000Y-86913549D01*
X143620000Y-86680501D01*
X144042050Y-86680501D01*
X144100860Y-86674709D01*
X144157410Y-86657554D01*
X144209527Y-86629697D01*
X144255208Y-86592208D01*
X144292697Y-86546527D01*
X144320554Y-86494410D01*
X144337709Y-86437860D01*
X144343501Y-86379050D01*
X144343501Y-85908894D01*
X144556673Y-85695723D01*
X144685950Y-85825000D01*
X145388000Y-85825000D01*
X145388000Y-85805000D01*
X145696000Y-85805000D01*
X145696000Y-85825000D01*
X146398050Y-85825000D01*
X146550050Y-85673000D01*
X146552992Y-85578950D01*
X146541253Y-85459761D01*
X146506487Y-85345153D01*
X146474869Y-85286000D01*
X146771447Y-85286000D01*
X146699668Y-85393426D01*
X146646901Y-85520818D01*
X146620000Y-85656056D01*
X146620000Y-85793944D01*
X146646901Y-85929182D01*
X146699668Y-86056574D01*
X146776274Y-86171224D01*
X146873776Y-86268726D01*
X146988426Y-86345332D01*
X147115818Y-86398099D01*
X147251056Y-86425000D01*
X147383794Y-86425000D01*
X147360797Y-86500811D01*
X147349058Y-86620000D01*
X147352000Y-86689000D01*
X147504000Y-86841000D01*
X148206000Y-86841000D01*
X148206000Y-86164000D01*
X148054000Y-86012000D01*
X147960013Y-86009058D01*
X147993099Y-85929182D01*
X148020000Y-85793944D01*
X148020000Y-85656056D01*
X147993099Y-85520818D01*
X147940332Y-85393426D01*
X147863726Y-85278776D01*
X147770000Y-85185050D01*
X147770000Y-85131451D01*
X148240000Y-85131451D01*
X148298810Y-85125659D01*
X148355360Y-85108504D01*
X148389660Y-85090170D01*
X148432020Y-85169421D01*
X148507999Y-85262001D01*
X148600579Y-85337980D01*
X148706203Y-85394437D01*
X148820811Y-85429203D01*
X148940000Y-85440942D01*
X149034000Y-85438000D01*
X149186000Y-85286000D01*
X149186000Y-84609000D01*
X149494000Y-84609000D01*
X149494000Y-85286000D01*
X149646000Y-85438000D01*
X149740000Y-85440942D01*
X149859189Y-85429203D01*
X149973797Y-85394437D01*
X150079421Y-85337980D01*
X150172001Y-85262001D01*
X150247980Y-85169421D01*
X150304437Y-85063797D01*
X150339203Y-84949189D01*
X150350942Y-84830000D01*
X150348000Y-84761000D01*
X150196000Y-84609000D01*
X149494000Y-84609000D01*
X149186000Y-84609000D01*
X149166000Y-84609000D01*
X149166000Y-84301000D01*
X149186000Y-84301000D01*
X149186000Y-83624000D01*
X149034000Y-83472000D01*
X148940000Y-83469058D01*
X148820811Y-83480797D01*
X148706203Y-83515563D01*
X148600579Y-83572020D01*
X148507999Y-83647999D01*
X148432020Y-83740579D01*
X148389660Y-83819830D01*
X148355360Y-83801496D01*
X148298810Y-83784341D01*
X148240000Y-83778549D01*
X147440000Y-83778549D01*
X147381190Y-83784341D01*
X147324640Y-83801496D01*
X147272523Y-83829353D01*
X147226842Y-83866842D01*
X147189353Y-83912523D01*
X147161496Y-83964640D01*
X147144341Y-84021190D01*
X147138549Y-84080000D01*
X147138549Y-84381056D01*
X147133605Y-84386000D01*
X145487124Y-84386000D01*
X145543266Y-84355991D01*
X145611787Y-84299757D01*
X145625879Y-84282586D01*
X146786466Y-83122000D01*
X148909418Y-83122000D01*
X148910291Y-83130860D01*
X148927446Y-83187410D01*
X148955303Y-83239527D01*
X148992792Y-83285208D01*
X149038473Y-83322697D01*
X149090590Y-83350554D01*
X149147140Y-83367709D01*
X149205950Y-83373501D01*
X149221334Y-83373501D01*
X149298372Y-83414679D01*
X149449173Y-83460424D01*
X149566707Y-83472000D01*
X149646000Y-83472000D01*
X149494000Y-83624000D01*
X149494000Y-84301000D01*
X150196000Y-84301000D01*
X150348000Y-84149000D01*
X150350942Y-84080000D01*
X150339203Y-83960811D01*
X150304437Y-83846203D01*
X150247980Y-83740579D01*
X150172001Y-83647999D01*
X150079421Y-83572020D01*
X149973797Y-83515563D01*
X149859189Y-83480797D01*
X149769871Y-83472000D01*
X150158630Y-83472000D01*
X151346001Y-84659372D01*
X151346000Y-86545000D01*
X150550748Y-86545000D01*
X150538504Y-86504640D01*
X150510647Y-86452523D01*
X150473158Y-86406842D01*
X150427477Y-86369353D01*
X150375360Y-86341496D01*
X150318810Y-86324341D01*
X150260000Y-86318549D01*
X149460000Y-86318549D01*
X149401190Y-86324341D01*
X149344640Y-86341496D01*
X149310340Y-86359830D01*
X149267980Y-86280579D01*
X149192001Y-86187999D01*
X149099421Y-86112020D01*
X148993797Y-86055563D01*
X148879189Y-86020797D01*
X148760000Y-86009058D01*
X148666000Y-86012000D01*
X148514000Y-86164000D01*
X148514000Y-86841000D01*
X148534000Y-86841000D01*
X148534000Y-87149000D01*
X148514000Y-87149000D01*
X148514000Y-87826000D01*
X148666000Y-87978000D01*
X148760000Y-87980942D01*
X148879189Y-87969203D01*
X148993797Y-87934437D01*
X149099421Y-87877980D01*
X149192001Y-87802001D01*
X149267980Y-87709421D01*
X149310340Y-87630170D01*
X149344640Y-87648504D01*
X149401190Y-87665659D01*
X149460000Y-87671451D01*
X150260000Y-87671451D01*
X150318810Y-87665659D01*
X150375360Y-87648504D01*
X150427477Y-87620647D01*
X150473158Y-87583158D01*
X150510647Y-87537477D01*
X150538504Y-87485360D01*
X150550748Y-87445000D01*
X151346000Y-87445000D01*
X151346001Y-97242699D01*
X151342130Y-97282000D01*
X151357577Y-97438827D01*
X151403321Y-97589627D01*
X151477607Y-97728606D01*
X151548884Y-97815457D01*
X151577579Y-97850422D01*
X151608098Y-97875468D01*
X153505000Y-99772371D01*
X153505000Y-101305000D01*
X151671451Y-101305000D01*
X151665659Y-101246190D01*
X151648504Y-101189640D01*
X151620647Y-101137523D01*
X151583158Y-101091842D01*
X151537477Y-101054353D01*
X151485360Y-101026496D01*
X151428810Y-101009341D01*
X151370000Y-101003549D01*
X150890000Y-101003549D01*
X150831190Y-101009341D01*
X150774640Y-101026496D01*
X150752958Y-101038085D01*
X150744197Y-101021695D01*
X150732258Y-101007147D01*
X150694211Y-100960787D01*
X150687544Y-100955315D01*
X150699574Y-100950332D01*
X150814224Y-100873726D01*
X150911726Y-100776224D01*
X150988332Y-100661574D01*
X151041099Y-100534182D01*
X151068000Y-100398944D01*
X151068000Y-100261056D01*
X151053019Y-100185741D01*
X151126883Y-100171048D01*
X151254275Y-100118281D01*
X151368925Y-100041675D01*
X151466427Y-99944173D01*
X151543033Y-99829523D01*
X151595800Y-99702131D01*
X151622701Y-99566893D01*
X151622701Y-99429005D01*
X151595800Y-99293767D01*
X151543033Y-99166375D01*
X151466427Y-99051725D01*
X151368925Y-98954223D01*
X151254275Y-98877617D01*
X151126883Y-98824850D01*
X150991645Y-98797949D01*
X150853757Y-98797949D01*
X150799232Y-98808795D01*
X149790022Y-97799585D01*
X149790022Y-94704669D01*
X149791957Y-94685022D01*
X149784234Y-94606608D01*
X149761362Y-94531208D01*
X149724219Y-94461719D01*
X149702041Y-94434695D01*
X149674233Y-94400811D01*
X149658970Y-94388285D01*
X147666737Y-92396052D01*
X147654211Y-92380789D01*
X147593303Y-92330803D01*
X147523814Y-92293660D01*
X147471451Y-92277776D01*
X147471451Y-92040000D01*
X147465659Y-91981190D01*
X147448504Y-91924640D01*
X147443351Y-91915000D01*
X147448504Y-91905360D01*
X147465659Y-91848810D01*
X147471451Y-91790000D01*
X147471451Y-91540000D01*
X147465659Y-91481190D01*
X147448504Y-91424640D01*
X147443351Y-91415000D01*
X147448504Y-91405360D01*
X147465659Y-91348810D01*
X147469532Y-91309482D01*
X147508776Y-91348726D01*
X147623426Y-91425332D01*
X147750818Y-91478099D01*
X147886056Y-91505000D01*
X148023944Y-91505000D01*
X148159182Y-91478099D01*
X148286574Y-91425332D01*
X148401224Y-91348726D01*
X148498726Y-91251224D01*
X148575332Y-91136574D01*
X148628099Y-91009182D01*
X148655000Y-90873944D01*
X148655000Y-90736056D01*
X148644594Y-90683744D01*
X148694197Y-90623303D01*
X148731340Y-90553814D01*
X148754212Y-90478414D01*
X148760000Y-90419647D01*
X148760000Y-90419637D01*
X148761934Y-90400001D01*
X148760000Y-90380365D01*
X148760000Y-89576451D01*
X148818810Y-89570659D01*
X148875360Y-89553504D01*
X148909660Y-89535170D01*
X148952020Y-89614421D01*
X149027999Y-89707001D01*
X149120579Y-89782980D01*
X149226203Y-89839437D01*
X149340811Y-89874203D01*
X149460000Y-89885942D01*
X149554000Y-89883000D01*
X149706000Y-89731000D01*
X149706000Y-89054000D01*
X150014000Y-89054000D01*
X150014000Y-89731000D01*
X150166000Y-89883000D01*
X150260000Y-89885942D01*
X150379189Y-89874203D01*
X150493797Y-89839437D01*
X150599421Y-89782980D01*
X150692001Y-89707001D01*
X150767980Y-89614421D01*
X150824437Y-89508797D01*
X150859203Y-89394189D01*
X150870942Y-89275000D01*
X150868000Y-89206000D01*
X150716000Y-89054000D01*
X150014000Y-89054000D01*
X149706000Y-89054000D01*
X149686000Y-89054000D01*
X149686000Y-88746000D01*
X149706000Y-88746000D01*
X149706000Y-88069000D01*
X150014000Y-88069000D01*
X150014000Y-88746000D01*
X150716000Y-88746000D01*
X150868000Y-88594000D01*
X150870942Y-88525000D01*
X150859203Y-88405811D01*
X150824437Y-88291203D01*
X150767980Y-88185579D01*
X150692001Y-88092999D01*
X150599421Y-88017020D01*
X150493797Y-87960563D01*
X150379189Y-87925797D01*
X150260000Y-87914058D01*
X150166000Y-87917000D01*
X150014000Y-88069000D01*
X149706000Y-88069000D01*
X149554000Y-87917000D01*
X149460000Y-87914058D01*
X149340811Y-87925797D01*
X149226203Y-87960563D01*
X149120579Y-88017020D01*
X149027999Y-88092999D01*
X148952020Y-88185579D01*
X148909660Y-88264830D01*
X148875360Y-88246496D01*
X148818810Y-88229341D01*
X148760000Y-88223549D01*
X147960000Y-88223549D01*
X147901190Y-88229341D01*
X147844640Y-88246496D01*
X147792523Y-88274353D01*
X147746842Y-88311842D01*
X147709353Y-88357523D01*
X147681496Y-88409640D01*
X147664341Y-88466190D01*
X147658549Y-88525000D01*
X147658549Y-89275000D01*
X147664341Y-89333810D01*
X147681496Y-89390360D01*
X147709353Y-89442477D01*
X147746842Y-89488158D01*
X147792523Y-89525647D01*
X147844640Y-89553504D01*
X147901190Y-89570659D01*
X147960000Y-89576451D01*
X147960001Y-90105000D01*
X147886056Y-90105000D01*
X147778000Y-90126494D01*
X147778000Y-90010998D01*
X147755002Y-90010998D01*
X147778000Y-89988000D01*
X147765038Y-89901506D01*
X147726585Y-89788081D01*
X147666744Y-89684338D01*
X147587813Y-89594262D01*
X147492825Y-89521315D01*
X147468424Y-89509270D01*
X147465659Y-89481190D01*
X147448504Y-89424640D01*
X147420647Y-89372523D01*
X147383158Y-89326842D01*
X147337477Y-89289353D01*
X147285360Y-89261496D01*
X147228810Y-89244341D01*
X147170000Y-89238549D01*
X146170000Y-89238549D01*
X146111190Y-89244341D01*
X146054640Y-89261496D01*
X146002523Y-89289353D01*
X145956842Y-89326842D01*
X145919353Y-89372523D01*
X145891496Y-89424640D01*
X145874341Y-89481190D01*
X145871576Y-89509270D01*
X145847175Y-89521315D01*
X145752187Y-89594262D01*
X145673256Y-89684338D01*
X145613415Y-89788081D01*
X145574962Y-89901506D01*
X145562000Y-89988000D01*
X145714000Y-90140000D01*
X146516000Y-90140000D01*
X146516000Y-90091451D01*
X146824000Y-90091451D01*
X146824000Y-90140000D01*
X146844000Y-90140000D01*
X146844000Y-90190000D01*
X146824000Y-90190000D01*
X146824000Y-90238549D01*
X146516000Y-90238549D01*
X146516000Y-90190000D01*
X145714000Y-90190000D01*
X145562000Y-90342000D01*
X145574962Y-90428494D01*
X145613415Y-90541919D01*
X145673256Y-90645662D01*
X145752187Y-90735738D01*
X145847175Y-90808685D01*
X145871576Y-90820730D01*
X145874341Y-90848810D01*
X145891496Y-90905360D01*
X145896649Y-90915000D01*
X145891496Y-90924640D01*
X145874341Y-90981190D01*
X145868549Y-91040000D01*
X145868549Y-91290000D01*
X145874341Y-91348810D01*
X145891496Y-91405360D01*
X145896649Y-91415000D01*
X145891496Y-91424640D01*
X145874341Y-91481190D01*
X145868549Y-91540000D01*
X145868549Y-91790000D01*
X145874341Y-91848810D01*
X145891496Y-91905360D01*
X145896649Y-91915000D01*
X145891496Y-91924640D01*
X145874341Y-91981190D01*
X145868549Y-92040000D01*
X145868549Y-92290000D01*
X145874341Y-92348810D01*
X145891496Y-92405360D01*
X145896649Y-92415000D01*
X145891496Y-92424640D01*
X145874341Y-92481190D01*
X145868549Y-92540000D01*
X145868549Y-92790000D01*
X145874341Y-92848810D01*
X145891496Y-92905360D01*
X145896649Y-92915000D01*
X145891496Y-92924640D01*
X145874341Y-92981190D01*
X145868549Y-93040000D01*
X145868549Y-93290000D01*
X145874341Y-93348810D01*
X145891496Y-93405360D01*
X145896649Y-93415000D01*
X145891496Y-93424640D01*
X145874341Y-93481190D01*
X145868549Y-93540000D01*
X145868549Y-93790000D01*
X145874341Y-93848810D01*
X145891496Y-93905360D01*
X145896649Y-93915000D01*
X145891496Y-93924640D01*
X145874341Y-93981190D01*
X145868549Y-94040000D01*
X145868549Y-94265000D01*
X144876643Y-94265000D01*
X144856999Y-94263065D01*
X144837355Y-94265000D01*
X144837353Y-94265000D01*
X144778586Y-94270788D01*
X144703186Y-94293660D01*
X144633697Y-94330803D01*
X144588049Y-94368265D01*
X144588047Y-94368267D01*
X144572789Y-94380789D01*
X144560267Y-94396047D01*
X143876052Y-95080263D01*
X143860789Y-95092789D01*
X143810803Y-95153698D01*
X143773660Y-95223187D01*
X143759846Y-95268727D01*
X143750788Y-95298587D01*
X143743065Y-95377000D01*
X143745000Y-95396647D01*
X143745001Y-96443315D01*
X139144318Y-91842632D01*
X139227726Y-91759224D01*
X139304332Y-91644574D01*
X139357099Y-91517182D01*
X139384000Y-91381944D01*
X139384000Y-91244056D01*
X139357099Y-91108818D01*
X139304332Y-90981426D01*
X139227726Y-90866776D01*
X139130224Y-90769274D01*
X139015574Y-90692668D01*
X138888182Y-90639901D01*
X138752944Y-90613000D01*
X138615056Y-90613000D01*
X138479818Y-90639901D01*
X138352426Y-90692668D01*
X138237776Y-90769274D01*
X138140274Y-90866776D01*
X138063668Y-90981426D01*
X138010901Y-91108818D01*
X137984000Y-91244056D01*
X137984000Y-91381944D01*
X138010901Y-91517182D01*
X138046398Y-91602879D01*
X137662502Y-91602879D01*
X137631616Y-91556655D01*
X137534114Y-91459153D01*
X137419464Y-91382547D01*
X137292072Y-91329780D01*
X137156834Y-91302879D01*
X137018946Y-91302879D01*
X136883708Y-91329780D01*
X136756316Y-91382547D01*
X136641666Y-91459153D01*
X136544164Y-91556655D01*
X136467558Y-91671305D01*
X136414791Y-91798697D01*
X136387890Y-91933935D01*
X136387890Y-92071823D01*
X136414791Y-92207061D01*
X136467558Y-92334453D01*
X136544164Y-92449103D01*
X136641666Y-92546605D01*
X136756316Y-92623211D01*
X136883708Y-92675978D01*
X137018946Y-92702879D01*
X137156834Y-92702879D01*
X137292072Y-92675978D01*
X137419464Y-92623211D01*
X137534114Y-92546605D01*
X137631616Y-92449103D01*
X137662502Y-92402879D01*
X138007494Y-92402879D01*
X138644466Y-93039851D01*
X138074760Y-93039851D01*
X138055113Y-93037916D01*
X138035467Y-93039851D01*
X137976700Y-93045639D01*
X137901300Y-93068511D01*
X137858383Y-93091451D01*
X137831811Y-93105654D01*
X137786163Y-93143116D01*
X137786161Y-93143118D01*
X137777251Y-93150431D01*
X137724059Y-93139850D01*
X137586171Y-93139850D01*
X137450933Y-93166751D01*
X137323541Y-93219518D01*
X137208891Y-93296124D01*
X137111389Y-93393626D01*
X137034783Y-93508276D01*
X136982016Y-93635668D01*
X136955115Y-93770906D01*
X136955115Y-93908794D01*
X136982016Y-94044032D01*
X137034783Y-94171424D01*
X137111389Y-94286074D01*
X137208891Y-94383576D01*
X137323541Y-94460182D01*
X137450933Y-94512949D01*
X137586171Y-94539850D01*
X137724059Y-94539850D01*
X137765410Y-94531625D01*
X137786559Y-94637947D01*
X137839326Y-94765339D01*
X137915932Y-94879989D01*
X138013434Y-94977491D01*
X138048831Y-95001142D01*
X137988813Y-95090967D01*
X137936046Y-95218359D01*
X137909145Y-95353597D01*
X137909145Y-95491485D01*
X137936046Y-95626723D01*
X137988813Y-95754115D01*
X138065419Y-95868765D01*
X138162921Y-95966267D01*
X138277571Y-96042873D01*
X138320001Y-96060448D01*
X138320000Y-98235291D01*
X138290738Y-98197187D01*
X138200662Y-98118256D01*
X138096919Y-98058415D01*
X137983494Y-98019962D01*
X137897000Y-98007000D01*
X137745000Y-98159000D01*
X137745000Y-98961000D01*
X137793549Y-98961000D01*
X137793549Y-99269000D01*
X137745000Y-99269000D01*
X137745000Y-99289000D01*
X137695000Y-99289000D01*
X137695000Y-99269000D01*
X137646451Y-99269000D01*
X137646451Y-98961000D01*
X137695000Y-98961000D01*
X137695000Y-98159000D01*
X137620000Y-98084000D01*
X137620000Y-97700346D01*
X137745574Y-97648332D01*
X137860224Y-97571726D01*
X137957726Y-97474224D01*
X138034332Y-97359574D01*
X138087099Y-97232182D01*
X138114000Y-97096944D01*
X138114000Y-96959056D01*
X138087099Y-96823818D01*
X138034332Y-96696426D01*
X137957726Y-96581776D01*
X137860224Y-96484274D01*
X137745574Y-96407668D01*
X137618182Y-96354901D01*
X137482944Y-96328000D01*
X137345056Y-96328000D01*
X137209818Y-96354901D01*
X137082426Y-96407668D01*
X136967776Y-96484274D01*
X136964223Y-96487827D01*
X136964223Y-96248167D01*
X136966158Y-96228520D01*
X136958435Y-96150107D01*
X136953578Y-96134096D01*
X136935563Y-96074707D01*
X136898420Y-96005218D01*
X136878701Y-95981190D01*
X136860958Y-95959570D01*
X136860956Y-95959568D01*
X136848434Y-95944310D01*
X136833177Y-95931789D01*
X136297439Y-95396052D01*
X136284913Y-95380789D01*
X136224005Y-95330803D01*
X136154516Y-95293660D01*
X136079116Y-95270788D01*
X136071451Y-95270033D01*
X136071451Y-95040000D01*
X136065659Y-94981190D01*
X136048504Y-94924640D01*
X136043351Y-94915000D01*
X136048504Y-94905360D01*
X136065659Y-94848810D01*
X136071451Y-94790000D01*
X136071451Y-94540000D01*
X136065659Y-94481190D01*
X136048504Y-94424640D01*
X136043351Y-94415000D01*
X136048504Y-94405360D01*
X136065659Y-94348810D01*
X136071451Y-94290000D01*
X136071451Y-94040000D01*
X136065659Y-93981190D01*
X136048504Y-93924640D01*
X136043351Y-93915000D01*
X136048504Y-93905360D01*
X136065659Y-93848810D01*
X136071451Y-93790000D01*
X136071451Y-93540000D01*
X136065659Y-93481190D01*
X136048504Y-93424640D01*
X136043351Y-93415000D01*
X136048504Y-93405360D01*
X136065659Y-93348810D01*
X136071451Y-93290000D01*
X136071451Y-93040000D01*
X136065659Y-92981190D01*
X136048504Y-92924640D01*
X136043351Y-92915000D01*
X136048504Y-92905360D01*
X136065659Y-92848810D01*
X136071451Y-92790000D01*
X136071451Y-92540000D01*
X136065659Y-92481190D01*
X136048504Y-92424640D01*
X136043351Y-92415000D01*
X136048504Y-92405360D01*
X136065659Y-92348810D01*
X136071451Y-92290000D01*
X136071451Y-92040000D01*
X136065659Y-91981190D01*
X136048504Y-91924640D01*
X136043351Y-91915000D01*
X136048504Y-91905360D01*
X136065659Y-91848810D01*
X136071451Y-91790000D01*
X136071451Y-91540000D01*
X136065659Y-91481190D01*
X136048504Y-91424640D01*
X136043351Y-91415000D01*
X136048504Y-91405360D01*
X136065659Y-91348810D01*
X136071451Y-91290000D01*
X136071451Y-91040000D01*
X136065659Y-90981190D01*
X136048504Y-90924640D01*
X136043351Y-90915000D01*
X136048504Y-90905360D01*
X136065659Y-90848810D01*
X136068424Y-90820730D01*
X136092825Y-90808685D01*
X136187813Y-90735738D01*
X136266744Y-90645662D01*
X136326585Y-90541919D01*
X136365038Y-90428494D01*
X136378000Y-90342000D01*
X136226000Y-90190000D01*
X135424000Y-90190000D01*
X135424000Y-90238549D01*
X135116000Y-90238549D01*
X135116000Y-90190000D01*
X134314000Y-90190000D01*
X134162000Y-90342000D01*
X134174962Y-90428494D01*
X134213415Y-90541919D01*
X134273256Y-90645662D01*
X134352187Y-90735738D01*
X134417636Y-90786000D01*
X134178612Y-90786000D01*
X134147726Y-90739776D01*
X134050224Y-90642274D01*
X133935574Y-90565668D01*
X133808182Y-90512901D01*
X133672944Y-90486000D01*
X133535056Y-90486000D01*
X133399818Y-90512901D01*
X133272426Y-90565668D01*
X133157776Y-90642274D01*
X133060274Y-90739776D01*
X132983668Y-90854426D01*
X132930901Y-90981818D01*
X132904000Y-91117056D01*
X132904000Y-91254944D01*
X132930901Y-91390182D01*
X132983668Y-91517574D01*
X133060274Y-91632224D01*
X133157776Y-91729726D01*
X133204000Y-91760612D01*
X133204001Y-92798314D01*
X132676315Y-93326000D01*
X132647543Y-93326000D01*
X132674158Y-93304158D01*
X132711647Y-93258477D01*
X132739504Y-93206360D01*
X132756659Y-93149810D01*
X132762451Y-93091000D01*
X132762451Y-91059000D01*
X132756659Y-91000190D01*
X132739504Y-90943640D01*
X132711647Y-90891523D01*
X132674158Y-90845842D01*
X132628477Y-90808353D01*
X132576360Y-90780496D01*
X132519810Y-90763341D01*
X132461000Y-90757549D01*
X131961124Y-90757549D01*
X132053797Y-90729437D01*
X132159421Y-90672980D01*
X132252001Y-90597001D01*
X132327980Y-90504421D01*
X132384437Y-90398797D01*
X132419203Y-90284189D01*
X132430942Y-90165000D01*
X132428000Y-90071000D01*
X132345000Y-89988000D01*
X134162000Y-89988000D01*
X134314000Y-90140000D01*
X135116000Y-90140000D01*
X135116000Y-90091451D01*
X135424000Y-90091451D01*
X135424000Y-90140000D01*
X136226000Y-90140000D01*
X136301000Y-90065000D01*
X136897649Y-90065000D01*
X136920668Y-90120574D01*
X136997274Y-90235224D01*
X137094776Y-90332726D01*
X137209426Y-90409332D01*
X137336818Y-90462099D01*
X137472056Y-90489000D01*
X137609944Y-90489000D01*
X137745182Y-90462099D01*
X137872574Y-90409332D01*
X137987224Y-90332726D01*
X138084726Y-90235224D01*
X138161332Y-90120574D01*
X138214099Y-89993182D01*
X138241000Y-89857944D01*
X138241000Y-89720056D01*
X138214099Y-89584818D01*
X138161332Y-89457426D01*
X138084726Y-89342776D01*
X137987224Y-89245274D01*
X137872574Y-89168668D01*
X137745182Y-89115901D01*
X137609944Y-89089000D01*
X137472056Y-89089000D01*
X137336818Y-89115901D01*
X137209426Y-89168668D01*
X137094776Y-89245274D01*
X137075050Y-89265000D01*
X135891916Y-89265000D01*
X135885360Y-89261496D01*
X135828810Y-89244341D01*
X135770000Y-89238549D01*
X134770000Y-89238549D01*
X134711190Y-89244341D01*
X134654640Y-89261496D01*
X134602523Y-89289353D01*
X134556842Y-89326842D01*
X134519353Y-89372523D01*
X134491496Y-89424640D01*
X134474341Y-89481190D01*
X134471576Y-89509270D01*
X134447175Y-89521315D01*
X134352187Y-89594262D01*
X134273256Y-89684338D01*
X134213415Y-89788081D01*
X134174962Y-89901506D01*
X134162000Y-89988000D01*
X132345000Y-89988000D01*
X132276000Y-89919000D01*
X131599000Y-89919000D01*
X131599000Y-89939000D01*
X131291000Y-89939000D01*
X131291000Y-89919000D01*
X130614000Y-89919000D01*
X130462000Y-90071000D01*
X130459058Y-90165000D01*
X130470797Y-90284189D01*
X130505563Y-90398797D01*
X130562020Y-90504421D01*
X130637999Y-90597001D01*
X130730579Y-90672980D01*
X130836203Y-90729437D01*
X130928876Y-90757549D01*
X130429000Y-90757549D01*
X130370190Y-90763341D01*
X130313640Y-90780496D01*
X130261523Y-90808353D01*
X130215842Y-90845842D01*
X130178353Y-90891523D01*
X130150496Y-90943640D01*
X130133341Y-91000190D01*
X130127549Y-91059000D01*
X130127549Y-93091000D01*
X130133341Y-93149810D01*
X130150496Y-93206360D01*
X130178353Y-93258477D01*
X130215842Y-93304158D01*
X130261523Y-93341647D01*
X130313640Y-93369504D01*
X130370190Y-93386659D01*
X130429000Y-93392451D01*
X130957620Y-93392451D01*
X130821640Y-93448776D01*
X130606099Y-93592796D01*
X130422796Y-93776099D01*
X130278776Y-93991640D01*
X130179573Y-94231137D01*
X130129000Y-94485385D01*
X130129000Y-94744615D01*
X130179573Y-94998863D01*
X130278776Y-95238360D01*
X130422796Y-95453901D01*
X130606099Y-95637204D01*
X130821640Y-95781224D01*
X131061137Y-95880427D01*
X131315385Y-95931000D01*
X131574615Y-95931000D01*
X131828863Y-95880427D01*
X132068360Y-95781224D01*
X132283901Y-95637204D01*
X132467204Y-95453901D01*
X132611224Y-95238360D01*
X132710427Y-94998863D01*
X132761000Y-94744615D01*
X132761000Y-94485385D01*
X132710427Y-94231137D01*
X132666878Y-94126000D01*
X132822354Y-94126000D01*
X132842000Y-94127935D01*
X132861646Y-94126000D01*
X132861647Y-94126000D01*
X132920414Y-94120212D01*
X132995814Y-94097340D01*
X133065303Y-94060197D01*
X133126211Y-94010211D01*
X133138737Y-93994948D01*
X133872948Y-93260737D01*
X133888211Y-93248211D01*
X133938197Y-93187303D01*
X133975340Y-93117814D01*
X133998212Y-93042414D01*
X134004000Y-92983647D01*
X134005935Y-92964000D01*
X134004000Y-92944353D01*
X134004000Y-91760612D01*
X134050224Y-91729726D01*
X134147726Y-91632224D01*
X134178612Y-91586000D01*
X134468549Y-91586000D01*
X134468549Y-91790000D01*
X134474341Y-91848810D01*
X134491496Y-91905360D01*
X134496649Y-91915000D01*
X134491496Y-91924640D01*
X134474341Y-91981190D01*
X134468549Y-92040000D01*
X134468549Y-92290000D01*
X134474341Y-92348810D01*
X134491496Y-92405360D01*
X134496649Y-92415000D01*
X134491496Y-92424640D01*
X134474341Y-92481190D01*
X134468549Y-92540000D01*
X134468549Y-92790000D01*
X134474341Y-92848810D01*
X134491496Y-92905360D01*
X134496649Y-92915000D01*
X134491496Y-92924640D01*
X134474341Y-92981190D01*
X134468549Y-93040000D01*
X134468549Y-93270033D01*
X134460883Y-93270788D01*
X134438011Y-93277726D01*
X134385484Y-93293660D01*
X134315995Y-93330803D01*
X134315993Y-93330804D01*
X134315994Y-93330804D01*
X134270347Y-93368265D01*
X134270345Y-93368267D01*
X134255087Y-93380789D01*
X134242565Y-93396047D01*
X133443042Y-94195572D01*
X133427779Y-94208098D01*
X133415255Y-94223359D01*
X133377793Y-94269007D01*
X133340650Y-94338496D01*
X133317778Y-94413896D01*
X133310055Y-94492309D01*
X133311990Y-94511954D01*
X133311991Y-95172625D01*
X131303052Y-97181565D01*
X131287789Y-97194091D01*
X131237803Y-97255000D01*
X131200660Y-97324489D01*
X131180209Y-97391909D01*
X131177788Y-97399889D01*
X131170065Y-97478302D01*
X131172000Y-97497949D01*
X131172001Y-98024345D01*
X131172000Y-98024354D01*
X131172000Y-98231388D01*
X131125776Y-98262274D01*
X131028274Y-98359776D01*
X130951668Y-98474426D01*
X130898901Y-98601818D01*
X130872000Y-98737056D01*
X130872000Y-98874944D01*
X130898901Y-99010182D01*
X130951668Y-99137574D01*
X131028274Y-99252224D01*
X131125776Y-99349726D01*
X131240426Y-99426332D01*
X131265458Y-99436701D01*
X131206200Y-99454676D01*
X131144224Y-99487803D01*
X131136711Y-99491819D01*
X131091063Y-99529281D01*
X131091061Y-99529283D01*
X131082151Y-99536596D01*
X131028959Y-99526015D01*
X130891071Y-99526015D01*
X130755833Y-99552916D01*
X130628441Y-99605683D01*
X130513791Y-99682289D01*
X130416289Y-99779791D01*
X130339683Y-99894441D01*
X130286916Y-100021833D01*
X130260015Y-100157071D01*
X130260015Y-100294959D01*
X130286916Y-100430197D01*
X130339683Y-100557589D01*
X130416289Y-100672239D01*
X130513791Y-100769741D01*
X130628441Y-100846347D01*
X130755833Y-100899114D01*
X130766736Y-100901283D01*
X130664470Y-101003549D01*
X130570000Y-101003549D01*
X130511190Y-101009341D01*
X130454640Y-101026496D01*
X130402523Y-101054353D01*
X130356842Y-101091842D01*
X130319353Y-101137523D01*
X130291496Y-101189640D01*
X130274341Y-101246190D01*
X130268549Y-101305000D01*
X130268549Y-102105000D01*
X130274341Y-102163810D01*
X130291496Y-102220360D01*
X130319353Y-102272477D01*
X130356842Y-102318158D01*
X130402523Y-102355647D01*
X130454640Y-102383504D01*
X130511190Y-102400659D01*
X130570000Y-102406451D01*
X131050000Y-102406451D01*
X131108810Y-102400659D01*
X131165360Y-102383504D01*
X131210000Y-102359644D01*
X131254640Y-102383504D01*
X131311190Y-102400659D01*
X131370000Y-102406451D01*
X131690000Y-102406451D01*
X131748810Y-102400659D01*
X131805360Y-102383504D01*
X131850000Y-102359644D01*
X131894640Y-102383504D01*
X131951190Y-102400659D01*
X132010000Y-102406451D01*
X132330000Y-102406451D01*
X132388810Y-102400659D01*
X132445360Y-102383504D01*
X132490000Y-102359644D01*
X132534640Y-102383504D01*
X132591190Y-102400659D01*
X132650000Y-102406451D01*
X132760572Y-102406451D01*
X132769839Y-102425442D01*
X132842349Y-102520763D01*
X132932062Y-102600107D01*
X133035530Y-102660424D01*
X133148778Y-102699396D01*
X133238000Y-102713000D01*
X133390000Y-102561000D01*
X133390000Y-101859000D01*
X133356000Y-101859000D01*
X133356000Y-101551000D01*
X133390000Y-101551000D01*
X133390000Y-101531000D01*
X133670000Y-101531000D01*
X133670000Y-101551000D01*
X133670001Y-101551000D01*
X133670001Y-101859000D01*
X133670000Y-101859000D01*
X133670000Y-102561000D01*
X133670002Y-102561002D01*
X133670002Y-102608847D01*
X133668066Y-102628503D01*
X133675789Y-102706917D01*
X133698662Y-102782317D01*
X133710011Y-102803549D01*
X133290000Y-102803549D01*
X133231190Y-102809341D01*
X133174640Y-102826496D01*
X133130000Y-102850356D01*
X133085360Y-102826496D01*
X133028810Y-102809341D01*
X132970000Y-102803549D01*
X132650000Y-102803549D01*
X132591190Y-102809341D01*
X132534640Y-102826496D01*
X132490000Y-102850356D01*
X132445360Y-102826496D01*
X132388810Y-102809341D01*
X132330000Y-102803549D01*
X132010000Y-102803549D01*
X131951190Y-102809341D01*
X131894640Y-102826496D01*
X131850000Y-102850356D01*
X131805360Y-102826496D01*
X131748810Y-102809341D01*
X131690000Y-102803549D01*
X131579428Y-102803549D01*
X131570161Y-102784558D01*
X131497651Y-102689237D01*
X131407938Y-102609893D01*
X131304470Y-102549576D01*
X131191222Y-102510604D01*
X131102000Y-102497000D01*
X130950000Y-102649000D01*
X130950000Y-103351000D01*
X130984000Y-103351000D01*
X130984000Y-103659000D01*
X130950000Y-103659000D01*
X130950000Y-104361000D01*
X131102000Y-104513000D01*
X131191222Y-104499396D01*
X131278112Y-104469495D01*
X131610617Y-104802000D01*
X130698370Y-104802000D01*
X130378445Y-104482075D01*
X130428778Y-104499396D01*
X130518000Y-104513000D01*
X130670000Y-104361000D01*
X130670000Y-103659000D01*
X130114000Y-103659000D01*
X129962000Y-103811000D01*
X129959474Y-103882452D01*
X129966806Y-104001993D01*
X129991289Y-104094918D01*
X129054051Y-103157681D01*
X129054051Y-103127548D01*
X129959474Y-103127548D01*
X129962000Y-103199000D01*
X130114000Y-103351000D01*
X130670000Y-103351000D01*
X130670000Y-102649000D01*
X130518000Y-102497000D01*
X130428778Y-102510604D01*
X130315530Y-102549576D01*
X130212062Y-102609893D01*
X130122349Y-102689237D01*
X130049839Y-102784558D01*
X129997319Y-102892193D01*
X129966806Y-103008007D01*
X129959474Y-103127548D01*
X129054051Y-103127548D01*
X129054051Y-102387400D01*
X129048259Y-102328590D01*
X129031104Y-102272040D01*
X129003247Y-102219923D01*
X128965758Y-102174242D01*
X128920077Y-102136753D01*
X128867960Y-102108896D01*
X128811410Y-102091741D01*
X128752600Y-102085949D01*
X126517400Y-102085949D01*
X126458590Y-102091741D01*
X126402040Y-102108896D01*
X126349923Y-102136753D01*
X126304242Y-102174242D01*
X126266753Y-102219923D01*
X126238896Y-102272040D01*
X126221741Y-102328590D01*
X126215949Y-102387400D01*
X126215949Y-104622600D01*
X126221741Y-104681410D01*
X126238896Y-104737960D01*
X126266753Y-104790077D01*
X126304242Y-104835758D01*
X126349923Y-104873247D01*
X126402040Y-104901104D01*
X126458590Y-104918259D01*
X126517400Y-104924051D01*
X128557681Y-104924051D01*
X129694000Y-106060370D01*
X129694000Y-108358000D01*
X129360970Y-108358000D01*
X129360600Y-108256000D01*
X129208600Y-108104000D01*
X127789000Y-108104000D01*
X127789000Y-108124000D01*
X127481000Y-108124000D01*
X127481000Y-108104000D01*
X126061400Y-108104000D01*
X125909400Y-108256000D01*
X125909030Y-108358000D01*
X124860000Y-108358000D01*
X124860000Y-106832400D01*
X125906458Y-106832400D01*
X125909400Y-107644000D01*
X126061400Y-107796000D01*
X127481000Y-107796000D01*
X127481000Y-106376400D01*
X127789000Y-106376400D01*
X127789000Y-107796000D01*
X129208600Y-107796000D01*
X129360600Y-107644000D01*
X129363542Y-106832400D01*
X129351803Y-106713211D01*
X129317037Y-106598603D01*
X129260580Y-106492979D01*
X129184601Y-106400399D01*
X129092021Y-106324420D01*
X128986397Y-106267963D01*
X128871789Y-106233197D01*
X128752600Y-106221458D01*
X127941000Y-106224400D01*
X127789000Y-106376400D01*
X127481000Y-106376400D01*
X127329000Y-106224400D01*
X126517400Y-106221458D01*
X126398211Y-106233197D01*
X126283603Y-106267963D01*
X126177979Y-106324420D01*
X126085399Y-106400399D01*
X126009420Y-106492979D01*
X125952963Y-106598603D01*
X125918197Y-106713211D01*
X125906458Y-106832400D01*
X124860000Y-106832400D01*
X124860000Y-97536049D01*
X126061189Y-97536049D01*
X126145583Y-97769612D01*
X126291178Y-98018642D01*
X126482559Y-98234482D01*
X126712371Y-98408838D01*
X126971782Y-98535010D01*
X127146838Y-98580893D01*
X127035155Y-98614772D01*
X126833011Y-98722821D01*
X126655830Y-98868230D01*
X126510421Y-99045411D01*
X126402372Y-99247555D01*
X126335836Y-99466895D01*
X126313370Y-99695000D01*
X126335836Y-99923105D01*
X126402372Y-100142445D01*
X126510421Y-100344589D01*
X126655830Y-100521770D01*
X126833011Y-100667179D01*
X127035155Y-100775228D01*
X127254495Y-100841764D01*
X127425437Y-100858600D01*
X127844563Y-100858600D01*
X128015505Y-100841764D01*
X128234845Y-100775228D01*
X128436989Y-100667179D01*
X128614170Y-100521770D01*
X128759579Y-100344589D01*
X128867628Y-100142445D01*
X128934164Y-99923105D01*
X128956630Y-99695000D01*
X128934164Y-99466895D01*
X128867628Y-99247555D01*
X128759579Y-99045411D01*
X128614170Y-98868230D01*
X128436989Y-98722821D01*
X128234845Y-98614772D01*
X128123162Y-98580893D01*
X128298218Y-98535010D01*
X128557629Y-98408838D01*
X128787441Y-98234482D01*
X128978822Y-98018642D01*
X129124417Y-97769612D01*
X129208811Y-97536049D01*
X129097983Y-97309000D01*
X127789000Y-97309000D01*
X127789000Y-97329000D01*
X127481000Y-97329000D01*
X127481000Y-97309000D01*
X126172017Y-97309000D01*
X126061189Y-97536049D01*
X124860000Y-97536049D01*
X124860000Y-96773951D01*
X126061189Y-96773951D01*
X126172017Y-97001000D01*
X127481000Y-97001000D01*
X127481000Y-96981000D01*
X127789000Y-96981000D01*
X127789000Y-97001000D01*
X129097983Y-97001000D01*
X129208811Y-96773951D01*
X129124417Y-96540388D01*
X128978822Y-96291358D01*
X128787441Y-96075518D01*
X128557629Y-95901162D01*
X128298218Y-95774990D01*
X128123162Y-95729107D01*
X128234845Y-95695228D01*
X128436989Y-95587179D01*
X128614170Y-95441770D01*
X128759579Y-95264589D01*
X128867628Y-95062445D01*
X128934164Y-94843105D01*
X128956630Y-94615000D01*
X128934164Y-94386895D01*
X128867628Y-94167555D01*
X128759579Y-93965411D01*
X128614170Y-93788230D01*
X128436989Y-93642821D01*
X128234845Y-93534772D01*
X128015505Y-93468236D01*
X127844563Y-93451400D01*
X127425437Y-93451400D01*
X127254495Y-93468236D01*
X127035155Y-93534772D01*
X126833011Y-93642821D01*
X126655830Y-93788230D01*
X126510421Y-93965411D01*
X126402372Y-94167555D01*
X126335836Y-94386895D01*
X126313370Y-94615000D01*
X126335836Y-94843105D01*
X126402372Y-95062445D01*
X126510421Y-95264589D01*
X126655830Y-95441770D01*
X126833011Y-95587179D01*
X127035155Y-95695228D01*
X127146838Y-95729107D01*
X126971782Y-95774990D01*
X126712371Y-95901162D01*
X126482559Y-96075518D01*
X126291178Y-96291358D01*
X126145583Y-96540388D01*
X126061189Y-96773951D01*
X124860000Y-96773951D01*
X124860000Y-91211400D01*
X126317549Y-91211400D01*
X126317549Y-92938600D01*
X126323341Y-92997410D01*
X126340496Y-93053960D01*
X126368353Y-93106077D01*
X126405842Y-93151758D01*
X126451523Y-93189247D01*
X126503640Y-93217104D01*
X126560190Y-93234259D01*
X126619000Y-93240051D01*
X128651000Y-93240051D01*
X128709810Y-93234259D01*
X128766360Y-93217104D01*
X128818477Y-93189247D01*
X128864158Y-93151758D01*
X128901647Y-93106077D01*
X128929504Y-93053960D01*
X128946659Y-92997410D01*
X128952451Y-92938600D01*
X128952451Y-91211400D01*
X128946659Y-91152590D01*
X128929504Y-91096040D01*
X128901647Y-91043923D01*
X128864158Y-90998242D01*
X128818477Y-90960753D01*
X128766360Y-90932896D01*
X128709810Y-90915741D01*
X128651000Y-90909949D01*
X126619000Y-90909949D01*
X126560190Y-90915741D01*
X126503640Y-90932896D01*
X126451523Y-90960753D01*
X126405842Y-90998242D01*
X126368353Y-91043923D01*
X126340496Y-91096040D01*
X126323341Y-91152590D01*
X126317549Y-91211400D01*
X124860000Y-91211400D01*
X124860000Y-89329000D01*
X128228000Y-89329000D01*
X128241261Y-89416768D01*
X128279956Y-89530110D01*
X128340019Y-89633726D01*
X128419143Y-89723632D01*
X128514287Y-89796375D01*
X128621793Y-89849159D01*
X128737532Y-89879955D01*
X128857054Y-89887579D01*
X128980000Y-89885000D01*
X129132000Y-89733000D01*
X129132000Y-89177000D01*
X129440000Y-89177000D01*
X129440000Y-89733000D01*
X129592000Y-89885000D01*
X129714946Y-89887579D01*
X129834468Y-89879955D01*
X129950207Y-89849159D01*
X130057713Y-89796375D01*
X130152857Y-89723632D01*
X130231981Y-89633726D01*
X130292044Y-89530110D01*
X130330739Y-89416768D01*
X130338560Y-89365000D01*
X130459058Y-89365000D01*
X130462000Y-89459000D01*
X130614000Y-89611000D01*
X131291000Y-89611000D01*
X131291000Y-89591000D01*
X131599000Y-89591000D01*
X131599000Y-89611000D01*
X132276000Y-89611000D01*
X132428000Y-89459000D01*
X132430942Y-89365000D01*
X132419203Y-89245811D01*
X132384437Y-89131203D01*
X132327980Y-89025579D01*
X132252001Y-88932999D01*
X132159421Y-88857020D01*
X132080170Y-88814660D01*
X132098504Y-88780360D01*
X132115659Y-88723810D01*
X132121451Y-88665000D01*
X133681328Y-88665000D01*
X133692901Y-88723182D01*
X133745668Y-88850574D01*
X133822274Y-88965224D01*
X133919776Y-89062726D01*
X134034426Y-89139332D01*
X134161818Y-89192099D01*
X134297056Y-89219000D01*
X134434944Y-89219000D01*
X134570182Y-89192099D01*
X134697574Y-89139332D01*
X134812224Y-89062726D01*
X134909726Y-88965224D01*
X134986332Y-88850574D01*
X135039099Y-88723182D01*
X135066000Y-88587944D01*
X135066000Y-88450056D01*
X135039099Y-88314818D01*
X134986332Y-88187426D01*
X134909726Y-88072776D01*
X134812224Y-87975274D01*
X134697574Y-87898668D01*
X134570182Y-87845901D01*
X134434944Y-87819000D01*
X134297056Y-87819000D01*
X134161818Y-87845901D01*
X134118770Y-87863732D01*
X134112000Y-87863065D01*
X134092354Y-87865000D01*
X132121451Y-87865000D01*
X132115659Y-87806190D01*
X132098504Y-87749640D01*
X132070647Y-87697523D01*
X132033158Y-87651842D01*
X131987477Y-87614353D01*
X131935360Y-87586496D01*
X131878810Y-87569341D01*
X131820000Y-87563549D01*
X131070000Y-87563549D01*
X131011190Y-87569341D01*
X130954640Y-87586496D01*
X130902523Y-87614353D01*
X130856842Y-87651842D01*
X130819353Y-87697523D01*
X130791496Y-87749640D01*
X130774341Y-87806190D01*
X130768549Y-87865000D01*
X130768549Y-88665000D01*
X130774341Y-88723810D01*
X130791496Y-88780360D01*
X130809830Y-88814660D01*
X130730579Y-88857020D01*
X130637999Y-88932999D01*
X130562020Y-89025579D01*
X130505563Y-89131203D01*
X130470797Y-89245811D01*
X130459058Y-89365000D01*
X130338560Y-89365000D01*
X130344000Y-89329000D01*
X130192000Y-89177000D01*
X129440000Y-89177000D01*
X129132000Y-89177000D01*
X128380000Y-89177000D01*
X128228000Y-89329000D01*
X124860000Y-89329000D01*
X124860000Y-88725000D01*
X128228000Y-88725000D01*
X128380000Y-88877000D01*
X129132000Y-88877000D01*
X129132000Y-88321000D01*
X129440000Y-88321000D01*
X129440000Y-88877000D01*
X130192000Y-88877000D01*
X130344000Y-88725000D01*
X130330739Y-88637232D01*
X130292044Y-88523890D01*
X130231981Y-88420274D01*
X130152857Y-88330368D01*
X130057713Y-88257625D01*
X129950207Y-88204841D01*
X129834468Y-88174045D01*
X129714946Y-88166421D01*
X129592000Y-88169000D01*
X129440000Y-88321000D01*
X129132000Y-88321000D01*
X128980000Y-88169000D01*
X128857054Y-88166421D01*
X128737532Y-88174045D01*
X128621793Y-88204841D01*
X128514287Y-88257625D01*
X128419143Y-88330368D01*
X128340019Y-88420274D01*
X128279956Y-88523890D01*
X128241261Y-88637232D01*
X128228000Y-88725000D01*
X124860000Y-88725000D01*
X124860000Y-86799056D01*
X125792000Y-86799056D01*
X125792000Y-86936944D01*
X125818901Y-87072182D01*
X125871668Y-87199574D01*
X125948274Y-87314224D01*
X126045776Y-87411726D01*
X126160426Y-87488332D01*
X126287818Y-87541099D01*
X126423056Y-87568000D01*
X126560944Y-87568000D01*
X126615469Y-87557154D01*
X126854267Y-87795953D01*
X126866789Y-87811211D01*
X126882047Y-87823733D01*
X126882049Y-87823735D01*
X126927697Y-87861197D01*
X126997186Y-87898340D01*
X127072586Y-87921212D01*
X127151000Y-87928935D01*
X127170647Y-87927000D01*
X128576011Y-87927000D01*
X128585353Y-87944477D01*
X128622842Y-87990158D01*
X128668523Y-88027647D01*
X128720640Y-88055504D01*
X128777190Y-88072659D01*
X128836000Y-88078451D01*
X129736000Y-88078451D01*
X129794810Y-88072659D01*
X129851360Y-88055504D01*
X129903477Y-88027647D01*
X129949158Y-87990158D01*
X129986647Y-87944477D01*
X130014504Y-87892360D01*
X130031659Y-87835810D01*
X130037451Y-87777000D01*
X130037451Y-87277000D01*
X130031659Y-87218190D01*
X130014504Y-87161640D01*
X129986647Y-87109523D01*
X129949158Y-87063842D01*
X129903477Y-87026353D01*
X129851360Y-86998496D01*
X129794810Y-86981341D01*
X129736000Y-86975549D01*
X128836000Y-86975549D01*
X128777190Y-86981341D01*
X128720640Y-86998496D01*
X128668523Y-87026353D01*
X128622842Y-87063842D01*
X128585353Y-87109523D01*
X128576011Y-87127000D01*
X127316686Y-87127000D01*
X127181154Y-86991469D01*
X127192000Y-86936944D01*
X127192000Y-86799056D01*
X127165099Y-86663818D01*
X127112332Y-86536426D01*
X127035726Y-86421776D01*
X126938224Y-86324274D01*
X126823574Y-86247668D01*
X126696182Y-86194901D01*
X126560944Y-86168000D01*
X126423056Y-86168000D01*
X126287818Y-86194901D01*
X126160426Y-86247668D01*
X126045776Y-86324274D01*
X125948274Y-86421776D01*
X125871668Y-86536426D01*
X125818901Y-86663818D01*
X125792000Y-86799056D01*
X124860000Y-86799056D01*
X124860000Y-84625000D01*
X128554058Y-84625000D01*
X128565797Y-84744189D01*
X128600563Y-84858797D01*
X128657020Y-84964421D01*
X128732999Y-85057001D01*
X128825579Y-85132980D01*
X128904830Y-85175340D01*
X128886496Y-85209640D01*
X128869341Y-85266190D01*
X128863549Y-85325000D01*
X128863549Y-86125000D01*
X128869341Y-86183810D01*
X128886496Y-86240360D01*
X128914353Y-86292477D01*
X128951842Y-86338158D01*
X128997523Y-86375647D01*
X129049640Y-86403504D01*
X129106190Y-86420659D01*
X129165000Y-86426451D01*
X129915000Y-86426451D01*
X129973810Y-86420659D01*
X130030360Y-86403504D01*
X130082477Y-86375647D01*
X130128158Y-86338158D01*
X130165647Y-86292477D01*
X130193504Y-86240360D01*
X130199680Y-86220000D01*
X131198549Y-86220000D01*
X131198549Y-86820000D01*
X131204341Y-86878810D01*
X131221496Y-86935360D01*
X131249353Y-86987477D01*
X131286842Y-87033158D01*
X131332523Y-87070647D01*
X131384640Y-87098504D01*
X131441190Y-87115659D01*
X131500000Y-87121451D01*
X132800000Y-87121451D01*
X132858810Y-87115659D01*
X132915360Y-87098504D01*
X132967477Y-87070647D01*
X133013158Y-87033158D01*
X133050647Y-86987477D01*
X133078504Y-86935360D01*
X133095659Y-86878810D01*
X133101451Y-86820000D01*
X133101451Y-84855000D01*
X133598549Y-84855000D01*
X133598549Y-86820000D01*
X133604341Y-86878810D01*
X133621496Y-86935360D01*
X133649353Y-86987477D01*
X133686842Y-87033158D01*
X133732523Y-87070647D01*
X133784640Y-87098504D01*
X133841190Y-87115659D01*
X133900000Y-87121451D01*
X135200000Y-87121451D01*
X135258810Y-87115659D01*
X135315360Y-87098504D01*
X135367477Y-87070647D01*
X135413158Y-87033158D01*
X135450647Y-86987477D01*
X135478504Y-86935360D01*
X135495659Y-86878810D01*
X135501451Y-86820000D01*
X135501451Y-84855000D01*
X138264315Y-84855000D01*
X138820000Y-85410685D01*
X138820000Y-85887050D01*
X138749224Y-85816274D01*
X138634574Y-85739668D01*
X138507182Y-85686901D01*
X138371944Y-85660000D01*
X138234056Y-85660000D01*
X138098818Y-85686901D01*
X137971426Y-85739668D01*
X137856776Y-85816274D01*
X137759274Y-85913776D01*
X137702601Y-85998593D01*
X137651697Y-86025803D01*
X137606049Y-86063265D01*
X137606047Y-86063267D01*
X137590789Y-86075789D01*
X137578267Y-86091047D01*
X136951047Y-86718268D01*
X136935790Y-86730789D01*
X136923268Y-86746047D01*
X136923265Y-86746050D01*
X136885803Y-86791698D01*
X136848661Y-86861186D01*
X136825788Y-86936587D01*
X136818065Y-87015000D01*
X136820001Y-87034656D01*
X136820001Y-87093083D01*
X136816496Y-87099640D01*
X136799341Y-87156190D01*
X136793549Y-87215000D01*
X136793549Y-88215000D01*
X136799341Y-88273810D01*
X136816496Y-88330360D01*
X136844353Y-88382477D01*
X136881842Y-88428158D01*
X136927523Y-88465647D01*
X136979640Y-88493504D01*
X137036190Y-88510659D01*
X137095000Y-88516451D01*
X137345000Y-88516451D01*
X137403810Y-88510659D01*
X137460360Y-88493504D01*
X137470000Y-88488351D01*
X137479640Y-88493504D01*
X137536190Y-88510659D01*
X137595000Y-88516451D01*
X137845000Y-88516451D01*
X137903810Y-88510659D01*
X137960360Y-88493504D01*
X137970000Y-88488351D01*
X137979640Y-88493504D01*
X138036190Y-88510659D01*
X138095000Y-88516451D01*
X138345000Y-88516451D01*
X138403810Y-88510659D01*
X138460360Y-88493504D01*
X138470000Y-88488351D01*
X138479640Y-88493504D01*
X138536190Y-88510659D01*
X138595000Y-88516451D01*
X138845000Y-88516451D01*
X138903810Y-88510659D01*
X138960360Y-88493504D01*
X138970000Y-88488351D01*
X138979640Y-88493504D01*
X139036190Y-88510659D01*
X139095000Y-88516451D01*
X139345000Y-88516451D01*
X139403810Y-88510659D01*
X139460360Y-88493504D01*
X139470000Y-88488351D01*
X139479640Y-88493504D01*
X139536190Y-88510659D01*
X139595000Y-88516451D01*
X139845000Y-88516451D01*
X139903810Y-88510659D01*
X139960360Y-88493504D01*
X139970000Y-88488351D01*
X139979640Y-88493504D01*
X140036190Y-88510659D01*
X140095000Y-88516451D01*
X140345000Y-88516451D01*
X140403810Y-88510659D01*
X140460360Y-88493504D01*
X140470000Y-88488351D01*
X140479640Y-88493504D01*
X140536190Y-88510659D01*
X140595000Y-88516451D01*
X140845000Y-88516451D01*
X140903810Y-88510659D01*
X140960360Y-88493504D01*
X140970000Y-88488351D01*
X140979640Y-88493504D01*
X141036190Y-88510659D01*
X141095000Y-88516451D01*
X141345000Y-88516451D01*
X141403810Y-88510659D01*
X141460360Y-88493504D01*
X141470000Y-88488351D01*
X141479640Y-88493504D01*
X141536190Y-88510659D01*
X141595000Y-88516451D01*
X141845000Y-88516451D01*
X141903810Y-88510659D01*
X141960360Y-88493504D01*
X141970000Y-88488351D01*
X141979640Y-88493504D01*
X142036190Y-88510659D01*
X142064270Y-88513424D01*
X142076315Y-88537825D01*
X142149262Y-88632813D01*
X142239338Y-88711744D01*
X142343081Y-88771585D01*
X142456506Y-88810038D01*
X142543000Y-88823000D01*
X142695000Y-88671000D01*
X142695000Y-87869000D01*
X142646451Y-87869000D01*
X142646451Y-87561000D01*
X142695000Y-87561000D01*
X142695000Y-86759000D01*
X142543000Y-86607000D01*
X142456506Y-86619962D01*
X142343081Y-86658415D01*
X142239338Y-86718256D01*
X142149262Y-86797187D01*
X142076315Y-86892175D01*
X142064270Y-86916576D01*
X142036190Y-86919341D01*
X141979640Y-86936496D01*
X141970000Y-86941649D01*
X141960360Y-86936496D01*
X141903810Y-86919341D01*
X141845000Y-86913549D01*
X141595000Y-86913549D01*
X141536190Y-86919341D01*
X141479640Y-86936496D01*
X141470000Y-86941649D01*
X141460360Y-86936496D01*
X141403810Y-86919341D01*
X141345000Y-86913549D01*
X141095000Y-86913549D01*
X141036190Y-86919341D01*
X140979640Y-86936496D01*
X140970000Y-86941649D01*
X140960360Y-86936496D01*
X140903810Y-86919341D01*
X140845000Y-86913549D01*
X140595000Y-86913549D01*
X140536190Y-86919341D01*
X140479640Y-86936496D01*
X140470000Y-86941649D01*
X140460360Y-86936496D01*
X140403810Y-86919341D01*
X140345000Y-86913549D01*
X140120000Y-86913549D01*
X140120000Y-85129635D01*
X140121934Y-85109999D01*
X140120000Y-85090363D01*
X140120000Y-85090353D01*
X140114212Y-85031586D01*
X140091340Y-84956186D01*
X140054197Y-84886697D01*
X140004211Y-84825789D01*
X139988949Y-84813264D01*
X138726737Y-83551052D01*
X138714211Y-83535789D01*
X138653303Y-83485803D01*
X138583814Y-83448660D01*
X138508414Y-83425788D01*
X138449647Y-83420000D01*
X138449646Y-83420000D01*
X138430000Y-83418065D01*
X138410354Y-83420000D01*
X135515686Y-83420000D01*
X135215600Y-83119915D01*
X135258810Y-83115659D01*
X135315360Y-83098504D01*
X135367477Y-83070647D01*
X135413158Y-83033158D01*
X135450647Y-82987477D01*
X135478504Y-82935360D01*
X135495659Y-82878810D01*
X135501451Y-82820000D01*
X135501451Y-82527341D01*
X137286194Y-82527341D01*
X137335964Y-82657197D01*
X137442613Y-82840708D01*
X137583014Y-82999887D01*
X137751772Y-83128617D01*
X137942401Y-83221950D01*
X138147575Y-83276300D01*
X138316900Y-83138256D01*
X138316900Y-82361540D01*
X138624900Y-82361540D01*
X138624900Y-83138256D01*
X138794225Y-83276300D01*
X138999399Y-83221950D01*
X139190028Y-83128617D01*
X139358786Y-82999887D01*
X139499187Y-82840708D01*
X139605836Y-82657197D01*
X139655606Y-82527341D01*
X142286194Y-82527341D01*
X142335964Y-82657197D01*
X142442613Y-82840708D01*
X142583014Y-82999887D01*
X142751772Y-83128617D01*
X142942401Y-83221950D01*
X143147575Y-83276300D01*
X143316900Y-83138256D01*
X143316900Y-82361540D01*
X143624900Y-82361540D01*
X143624900Y-83138256D01*
X143794225Y-83276300D01*
X143999399Y-83221950D01*
X144190028Y-83128617D01*
X144358786Y-82999887D01*
X144499187Y-82840708D01*
X144605836Y-82657197D01*
X144655606Y-82527341D01*
X144539075Y-82361540D01*
X143624900Y-82361540D01*
X143316900Y-82361540D01*
X142402725Y-82361540D01*
X142286194Y-82527341D01*
X139655606Y-82527341D01*
X139539075Y-82361540D01*
X138624900Y-82361540D01*
X138316900Y-82361540D01*
X137402725Y-82361540D01*
X137286194Y-82527341D01*
X135501451Y-82527341D01*
X135501451Y-81887739D01*
X137286194Y-81887739D01*
X137402725Y-82053540D01*
X138316900Y-82053540D01*
X138316900Y-81276824D01*
X138624900Y-81276824D01*
X138624900Y-82053540D01*
X139539075Y-82053540D01*
X139655606Y-81887739D01*
X142286194Y-81887739D01*
X142402725Y-82053540D01*
X143316900Y-82053540D01*
X143316900Y-81276824D01*
X143624900Y-81276824D01*
X143624900Y-82053540D01*
X144539075Y-82053540D01*
X144655606Y-81887739D01*
X144605836Y-81757883D01*
X144499187Y-81574372D01*
X144358786Y-81415193D01*
X144190028Y-81286463D01*
X143999399Y-81193130D01*
X143794225Y-81138780D01*
X143624900Y-81276824D01*
X143316900Y-81276824D01*
X143147575Y-81138780D01*
X142942401Y-81193130D01*
X142751772Y-81286463D01*
X142583014Y-81415193D01*
X142442613Y-81574372D01*
X142335964Y-81757883D01*
X142286194Y-81887739D01*
X139655606Y-81887739D01*
X139605836Y-81757883D01*
X139499187Y-81574372D01*
X139358786Y-81415193D01*
X139190028Y-81286463D01*
X138999399Y-81193130D01*
X138794225Y-81138780D01*
X138624900Y-81276824D01*
X138316900Y-81276824D01*
X138147575Y-81138780D01*
X137942401Y-81193130D01*
X137751772Y-81286463D01*
X137583014Y-81415193D01*
X137442613Y-81574372D01*
X137335964Y-81757883D01*
X137286194Y-81887739D01*
X135501451Y-81887739D01*
X135501451Y-80820000D01*
X135495659Y-80761190D01*
X135478504Y-80704640D01*
X135450647Y-80652523D01*
X135413158Y-80606842D01*
X135367477Y-80569353D01*
X135315360Y-80541496D01*
X135258810Y-80524341D01*
X135200000Y-80518549D01*
X134500000Y-80518549D01*
X134500000Y-79837669D01*
X136349345Y-79837669D01*
X136381650Y-80055414D01*
X136455815Y-80262673D01*
X136568989Y-80451481D01*
X136716823Y-80614582D01*
X136893636Y-80745708D01*
X137092633Y-80839820D01*
X137147149Y-80842186D01*
X137316900Y-80726055D01*
X137316900Y-79661540D01*
X137624900Y-79661540D01*
X137624900Y-80726055D01*
X137794651Y-80842186D01*
X137849167Y-80839820D01*
X138048164Y-80745708D01*
X138224977Y-80614582D01*
X138372811Y-80451481D01*
X138485985Y-80262673D01*
X138560150Y-80055414D01*
X138592455Y-79837669D01*
X143349345Y-79837669D01*
X143381650Y-80055414D01*
X143455815Y-80262673D01*
X143568989Y-80451481D01*
X143716823Y-80614582D01*
X143893636Y-80745708D01*
X144092633Y-80839820D01*
X144147149Y-80842186D01*
X144316900Y-80726055D01*
X144316900Y-79661540D01*
X144624900Y-79661540D01*
X144624900Y-80726055D01*
X144794651Y-80842186D01*
X144849167Y-80839820D01*
X145048164Y-80745708D01*
X145224977Y-80614582D01*
X145372811Y-80451481D01*
X145485985Y-80262673D01*
X145560150Y-80055414D01*
X145592455Y-79837669D01*
X145435271Y-79661540D01*
X144624900Y-79661540D01*
X144316900Y-79661540D01*
X143506529Y-79661540D01*
X143349345Y-79837669D01*
X138592455Y-79837669D01*
X138435271Y-79661540D01*
X137624900Y-79661540D01*
X137316900Y-79661540D01*
X136506529Y-79661540D01*
X136349345Y-79837669D01*
X134500000Y-79837669D01*
X134500000Y-79416451D01*
X134558810Y-79410659D01*
X134615360Y-79393504D01*
X134667477Y-79365647D01*
X134713158Y-79328158D01*
X134750647Y-79282477D01*
X134778504Y-79230360D01*
X134794566Y-79177411D01*
X136349345Y-79177411D01*
X136506529Y-79353540D01*
X137316900Y-79353540D01*
X137316900Y-78289025D01*
X137624900Y-78289025D01*
X137624900Y-79353540D01*
X138435271Y-79353540D01*
X138592455Y-79177411D01*
X143349345Y-79177411D01*
X143506529Y-79353540D01*
X144316900Y-79353540D01*
X144316900Y-78289025D01*
X144624900Y-78289025D01*
X144624900Y-79353540D01*
X145435271Y-79353540D01*
X145592455Y-79177411D01*
X145560150Y-78959666D01*
X145485985Y-78752407D01*
X145372811Y-78563599D01*
X145224977Y-78400498D01*
X145048164Y-78269372D01*
X144849167Y-78175260D01*
X144794651Y-78172894D01*
X144624900Y-78289025D01*
X144316900Y-78289025D01*
X144147149Y-78172894D01*
X144092633Y-78175260D01*
X143893636Y-78269372D01*
X143716823Y-78400498D01*
X143568989Y-78563599D01*
X143455815Y-78752407D01*
X143381650Y-78959666D01*
X143349345Y-79177411D01*
X138592455Y-79177411D01*
X138560150Y-78959666D01*
X138485985Y-78752407D01*
X138372811Y-78563599D01*
X138224977Y-78400498D01*
X138048164Y-78269372D01*
X137849167Y-78175260D01*
X137794651Y-78172894D01*
X137624900Y-78289025D01*
X137316900Y-78289025D01*
X137147149Y-78172894D01*
X137092633Y-78175260D01*
X136893636Y-78269372D01*
X136716823Y-78400498D01*
X136568989Y-78563599D01*
X136455815Y-78752407D01*
X136381650Y-78959666D01*
X136349345Y-79177411D01*
X134794566Y-79177411D01*
X134795659Y-79173810D01*
X134801451Y-79115000D01*
X134801451Y-78365000D01*
X134795659Y-78306190D01*
X134778504Y-78249640D01*
X134750647Y-78197523D01*
X134713158Y-78151842D01*
X134667477Y-78114353D01*
X134615360Y-78086496D01*
X134558810Y-78069341D01*
X134500000Y-78063549D01*
X133700000Y-78063549D01*
X133641190Y-78069341D01*
X133584640Y-78086496D01*
X133550340Y-78104830D01*
X133507980Y-78025579D01*
X133432001Y-77932999D01*
X133339421Y-77857020D01*
X133233797Y-77800563D01*
X133119189Y-77765797D01*
X133000000Y-77754058D01*
X132906000Y-77757000D01*
X132754000Y-77909000D01*
X132754000Y-78586000D01*
X132774000Y-78586000D01*
X132774000Y-78894000D01*
X132754000Y-78894000D01*
X132754000Y-79571000D01*
X132906000Y-79723000D01*
X133000000Y-79725942D01*
X133119189Y-79714203D01*
X133233797Y-79679437D01*
X133339421Y-79622980D01*
X133432001Y-79547001D01*
X133507980Y-79454421D01*
X133550340Y-79375170D01*
X133584640Y-79393504D01*
X133641190Y-79410659D01*
X133700000Y-79416451D01*
X133700001Y-80596043D01*
X133686842Y-80606842D01*
X133649353Y-80652523D01*
X133621496Y-80704640D01*
X133604341Y-80761190D01*
X133598549Y-80820000D01*
X133598549Y-82820000D01*
X133604341Y-82878810D01*
X133621496Y-82935360D01*
X133649353Y-82987477D01*
X133686842Y-83033158D01*
X133732523Y-83070647D01*
X133784640Y-83098504D01*
X133841190Y-83115659D01*
X133900000Y-83121451D01*
X134162777Y-83121451D01*
X134178661Y-83173814D01*
X134215803Y-83243302D01*
X134253265Y-83288950D01*
X134253268Y-83288953D01*
X134265790Y-83304211D01*
X134281047Y-83316733D01*
X135019314Y-84055000D01*
X132334635Y-84055000D01*
X132314999Y-84053066D01*
X132295363Y-84055000D01*
X132295353Y-84055000D01*
X132236586Y-84060788D01*
X132161186Y-84083660D01*
X132091697Y-84120803D01*
X132030789Y-84170789D01*
X132018263Y-84186052D01*
X131881048Y-84323267D01*
X131865790Y-84335789D01*
X131853268Y-84351047D01*
X131853265Y-84351050D01*
X131815803Y-84396698D01*
X131778661Y-84466186D01*
X131762777Y-84518549D01*
X131500000Y-84518549D01*
X131441190Y-84524341D01*
X131384640Y-84541496D01*
X131332523Y-84569353D01*
X131286842Y-84606842D01*
X131249353Y-84652523D01*
X131221496Y-84704640D01*
X131204341Y-84761190D01*
X131198549Y-84820000D01*
X131198549Y-85420000D01*
X130216451Y-85420000D01*
X130216451Y-85325000D01*
X130210659Y-85266190D01*
X130193504Y-85209640D01*
X130175170Y-85175340D01*
X130254421Y-85132980D01*
X130347001Y-85057001D01*
X130422980Y-84964421D01*
X130479437Y-84858797D01*
X130514203Y-84744189D01*
X130525942Y-84625000D01*
X130523000Y-84531000D01*
X130371000Y-84379000D01*
X129694000Y-84379000D01*
X129694000Y-84399000D01*
X129386000Y-84399000D01*
X129386000Y-84379000D01*
X128709000Y-84379000D01*
X128557000Y-84531000D01*
X128554058Y-84625000D01*
X124860000Y-84625000D01*
X124860000Y-83825000D01*
X128554058Y-83825000D01*
X128557000Y-83919000D01*
X128709000Y-84071000D01*
X129386000Y-84071000D01*
X129386000Y-83369000D01*
X129694000Y-83369000D01*
X129694000Y-84071000D01*
X130371000Y-84071000D01*
X130523000Y-83919000D01*
X130525942Y-83825000D01*
X130514203Y-83705811D01*
X130479437Y-83591203D01*
X130422980Y-83485579D01*
X130347001Y-83392999D01*
X130254421Y-83317020D01*
X130148797Y-83260563D01*
X130034189Y-83225797D01*
X129915000Y-83214058D01*
X129846000Y-83217000D01*
X129694000Y-83369000D01*
X129386000Y-83369000D01*
X129234000Y-83217000D01*
X129165000Y-83214058D01*
X129045811Y-83225797D01*
X128931203Y-83260563D01*
X128825579Y-83317020D01*
X128732999Y-83392999D01*
X128657020Y-83485579D01*
X128600563Y-83591203D01*
X128565797Y-83705811D01*
X128554058Y-83825000D01*
X124860000Y-83825000D01*
X124860000Y-80029563D01*
X124887026Y-79753922D01*
X125035000Y-79753922D01*
X125035000Y-80266078D01*
X125134917Y-80768392D01*
X125330910Y-81241562D01*
X125615448Y-81667403D01*
X125977597Y-82029552D01*
X126403438Y-82314090D01*
X126876608Y-82510083D01*
X127378922Y-82610000D01*
X127891078Y-82610000D01*
X128393392Y-82510083D01*
X128866562Y-82314090D01*
X129292403Y-82029552D01*
X129654552Y-81667403D01*
X129939090Y-81241562D01*
X130113706Y-80820000D01*
X131198549Y-80820000D01*
X131198549Y-82820000D01*
X131204341Y-82878810D01*
X131221496Y-82935360D01*
X131249353Y-82987477D01*
X131286842Y-83033158D01*
X131332523Y-83070647D01*
X131384640Y-83098504D01*
X131441190Y-83115659D01*
X131500000Y-83121451D01*
X132800000Y-83121451D01*
X132858810Y-83115659D01*
X132915360Y-83098504D01*
X132967477Y-83070647D01*
X133013158Y-83033158D01*
X133050647Y-82987477D01*
X133078504Y-82935360D01*
X133095659Y-82878810D01*
X133101451Y-82820000D01*
X133101451Y-80820000D01*
X133095659Y-80761190D01*
X133078504Y-80704640D01*
X133050647Y-80652523D01*
X133013158Y-80606842D01*
X132967477Y-80569353D01*
X132915360Y-80541496D01*
X132858810Y-80524341D01*
X132800000Y-80518549D01*
X131500000Y-80518549D01*
X131441190Y-80524341D01*
X131384640Y-80541496D01*
X131332523Y-80569353D01*
X131286842Y-80606842D01*
X131249353Y-80652523D01*
X131221496Y-80704640D01*
X131204341Y-80761190D01*
X131198549Y-80820000D01*
X130113706Y-80820000D01*
X130135083Y-80768392D01*
X130235000Y-80266078D01*
X130235000Y-79753922D01*
X130135083Y-79251608D01*
X130078499Y-79115000D01*
X131589058Y-79115000D01*
X131600797Y-79234189D01*
X131635563Y-79348797D01*
X131692020Y-79454421D01*
X131767999Y-79547001D01*
X131860579Y-79622980D01*
X131966203Y-79679437D01*
X132080811Y-79714203D01*
X132200000Y-79725942D01*
X132294000Y-79723000D01*
X132446000Y-79571000D01*
X132446000Y-78894000D01*
X131744000Y-78894000D01*
X131592000Y-79046000D01*
X131589058Y-79115000D01*
X130078499Y-79115000D01*
X129939090Y-78778438D01*
X129662840Y-78365000D01*
X131589058Y-78365000D01*
X131592000Y-78434000D01*
X131744000Y-78586000D01*
X132446000Y-78586000D01*
X132446000Y-77909000D01*
X132294000Y-77757000D01*
X132200000Y-77754058D01*
X132080811Y-77765797D01*
X131966203Y-77800563D01*
X131860579Y-77857020D01*
X131767999Y-77932999D01*
X131692020Y-78025579D01*
X131635563Y-78131203D01*
X131600797Y-78245811D01*
X131589058Y-78365000D01*
X129662840Y-78365000D01*
X129654552Y-78352597D01*
X129292403Y-77990448D01*
X128866562Y-77705910D01*
X128393392Y-77509917D01*
X127891078Y-77410000D01*
X127378922Y-77410000D01*
X126876608Y-77509917D01*
X126403438Y-77705910D01*
X125977597Y-77990448D01*
X125615448Y-78352597D01*
X125330910Y-78778438D01*
X125134917Y-79251608D01*
X125035000Y-79753922D01*
X124887026Y-79753922D01*
X124914731Y-79471374D01*
X125071158Y-78953261D01*
X125325241Y-78475401D01*
X125667303Y-78055991D01*
X126084314Y-77711010D01*
X126560384Y-77453599D01*
X127077392Y-77293559D01*
X127634489Y-77235005D01*
X127635813Y-77235000D01*
X154285437Y-77235000D01*
X154843626Y-77289731D01*
G37*
X154843626Y-77289731D02*
X155361739Y-77446158D01*
X155839599Y-77700241D01*
X156259009Y-78042303D01*
X156603990Y-78459314D01*
X156861401Y-78935384D01*
X157021441Y-79452392D01*
X157079995Y-80009489D01*
X157080000Y-80010815D01*
X157080001Y-83800428D01*
X157049456Y-84111948D01*
X156964667Y-84392783D01*
X156826949Y-84651793D01*
X156641542Y-84879123D01*
X156415513Y-85066111D01*
X156157466Y-85205636D01*
X155877237Y-85292382D01*
X155566647Y-85325026D01*
X155560317Y-85325048D01*
X155542926Y-85326814D01*
X155525448Y-85326692D01*
X155519890Y-85327237D01*
X155150135Y-85366100D01*
X155114603Y-85373394D01*
X155079010Y-85380184D01*
X155073663Y-85381798D01*
X154718499Y-85491740D01*
X154685106Y-85505777D01*
X154651465Y-85519369D01*
X154646534Y-85521991D01*
X154319489Y-85698823D01*
X154289448Y-85719086D01*
X154259096Y-85738948D01*
X154254768Y-85742478D01*
X153968298Y-85979467D01*
X153942768Y-86005176D01*
X153916851Y-86030556D01*
X153913291Y-86034860D01*
X153678307Y-86322977D01*
X153658237Y-86353184D01*
X153637762Y-86383088D01*
X153635109Y-86387996D01*
X153635106Y-86388000D01*
X153635106Y-86388001D01*
X153460561Y-86716273D01*
X153446742Y-86749799D01*
X153432464Y-86783113D01*
X153430812Y-86788448D01*
X153323352Y-87144371D01*
X153316305Y-87179963D01*
X153308773Y-87215397D01*
X153308189Y-87220952D01*
X153271909Y-87590967D01*
X153270000Y-87610354D01*
X153270001Y-95904647D01*
X153271775Y-95922659D01*
X153271692Y-95934552D01*
X153272237Y-95940111D01*
X153311100Y-96309865D01*
X153318386Y-96345360D01*
X153325183Y-96380990D01*
X153326798Y-96386337D01*
X153436740Y-96741500D01*
X153450772Y-96774880D01*
X153464369Y-96808535D01*
X153466991Y-96813466D01*
X153643823Y-97140511D01*
X153664112Y-97170590D01*
X153683948Y-97200904D01*
X153687478Y-97205232D01*
X153924467Y-97491702D01*
X153950212Y-97517268D01*
X153975557Y-97543149D01*
X153979860Y-97546710D01*
X154267977Y-97781693D01*
X154298184Y-97801763D01*
X154328088Y-97822238D01*
X154332996Y-97824891D01*
X154333000Y-97824894D01*
X154333004Y-97824896D01*
X154661273Y-97999439D01*
X154694785Y-98013252D01*
X154728112Y-98027536D01*
X154733448Y-98029188D01*
X155089370Y-98136648D01*
X155124977Y-98143698D01*
X155160397Y-98151227D01*
X155165949Y-98151811D01*
X155165951Y-98151811D01*
X155535967Y-98188091D01*
X155866948Y-98220544D01*
X156147784Y-98305334D01*
X156406790Y-98443049D01*
X156634124Y-98628459D01*
X156821111Y-98854487D01*
X156960636Y-99112534D01*
X157047381Y-99392761D01*
X157080000Y-99703105D01*
X157080000Y-108359882D01*
X156030973Y-108359011D01*
X156030600Y-108256000D01*
X155878600Y-108104000D01*
X154459000Y-108104000D01*
X154459000Y-108124000D01*
X154151000Y-108124000D01*
X154151000Y-108104000D01*
X152731400Y-108104000D01*
X152579400Y-108256000D01*
X152579037Y-108356146D01*
X152245953Y-108355869D01*
X152246019Y-106832400D01*
X152576458Y-106832400D01*
X152579400Y-107644000D01*
X152731400Y-107796000D01*
X154151000Y-107796000D01*
X154151000Y-106376400D01*
X154459000Y-106376400D01*
X154459000Y-107796000D01*
X155878600Y-107796000D01*
X156030600Y-107644000D01*
X156033542Y-106832400D01*
X156021803Y-106713211D01*
X155987037Y-106598603D01*
X155930580Y-106492979D01*
X155854601Y-106400399D01*
X155762021Y-106324420D01*
X155656397Y-106267963D01*
X155541789Y-106233197D01*
X155422600Y-106221458D01*
X154611000Y-106224400D01*
X154459000Y-106376400D01*
X154151000Y-106376400D01*
X153999000Y-106224400D01*
X153187400Y-106221458D01*
X153068211Y-106233197D01*
X152953603Y-106267963D01*
X152847979Y-106324420D01*
X152755399Y-106400399D01*
X152679420Y-106492979D01*
X152622963Y-106598603D01*
X152588197Y-106713211D01*
X152576458Y-106832400D01*
X152246019Y-106832400D01*
X152246053Y-106060317D01*
X153382319Y-104924051D01*
X155422600Y-104924051D01*
X155481410Y-104918259D01*
X155537960Y-104901104D01*
X155590077Y-104873247D01*
X155635758Y-104835758D01*
X155673247Y-104790077D01*
X155701104Y-104737960D01*
X155718259Y-104681410D01*
X155724051Y-104622600D01*
X155724051Y-102387400D01*
X155718259Y-102328590D01*
X155701104Y-102272040D01*
X155673247Y-102219923D01*
X155635758Y-102174242D01*
X155590077Y-102136753D01*
X155537960Y-102108896D01*
X155481410Y-102091741D01*
X155422600Y-102085949D01*
X155105000Y-102085949D01*
X155105000Y-99480290D01*
X155108870Y-99440999D01*
X155105000Y-99401707D01*
X155093424Y-99284173D01*
X155047679Y-99133372D01*
X155042905Y-99124440D01*
X154973393Y-98994393D01*
X154898469Y-98903098D01*
X154873422Y-98872578D01*
X154842903Y-98847533D01*
X152946000Y-96950630D01*
X152946000Y-84367291D01*
X152949870Y-84328000D01*
X152945335Y-84281959D01*
X152934424Y-84171173D01*
X152888679Y-84020372D01*
X152863793Y-83973814D01*
X152814393Y-83881393D01*
X152739470Y-83790099D01*
X152739469Y-83790098D01*
X152714422Y-83759578D01*
X152683902Y-83734531D01*
X151083473Y-82134103D01*
X151058422Y-82103578D01*
X150936606Y-82003607D01*
X150797628Y-81929321D01*
X150646827Y-81883576D01*
X150529293Y-81872000D01*
X150529291Y-81872000D01*
X150490000Y-81868130D01*
X150450709Y-81872000D01*
X149566707Y-81872000D01*
X149449173Y-81883576D01*
X149398602Y-81898917D01*
X149280350Y-81780665D01*
X149300000Y-81780050D01*
X149452000Y-81628050D01*
X149452000Y-80926000D01*
X149760000Y-80926000D01*
X149760000Y-81628050D01*
X149912000Y-81780050D01*
X150006050Y-81782992D01*
X150125239Y-81771253D01*
X150239847Y-81736487D01*
X150345471Y-81680030D01*
X150438051Y-81604051D01*
X150514030Y-81511471D01*
X150570487Y-81405847D01*
X150605253Y-81291239D01*
X150616992Y-81172050D01*
X150614050Y-81078000D01*
X150462050Y-80926000D01*
X149760000Y-80926000D01*
X149452000Y-80926000D01*
X149432000Y-80926000D01*
X149432000Y-80618000D01*
X149452000Y-80618000D01*
X149452000Y-79915950D01*
X149760000Y-79915950D01*
X149760000Y-80618000D01*
X150462050Y-80618000D01*
X150614050Y-80466000D01*
X150616992Y-80371950D01*
X150605253Y-80252761D01*
X150570487Y-80138153D01*
X150514030Y-80032529D01*
X150438051Y-79939949D01*
X150345471Y-79863970D01*
X150239847Y-79807513D01*
X150125239Y-79772747D01*
X150006050Y-79761008D01*
X149912000Y-79763950D01*
X149760000Y-79915950D01*
X149452000Y-79915950D01*
X149300000Y-79763950D01*
X149205950Y-79761008D01*
X149086761Y-79772747D01*
X148972153Y-79807513D01*
X148866529Y-79863970D01*
X148773949Y-79939949D01*
X148741353Y-79979667D01*
X148515608Y-79753922D01*
X151705000Y-79753922D01*
X151705000Y-80266078D01*
X151804917Y-80768392D01*
X152000910Y-81241562D01*
X152285448Y-81667403D01*
X152647597Y-82029552D01*
X153073438Y-82314090D01*
X153546608Y-82510083D01*
X154048922Y-82610000D01*
X154561078Y-82610000D01*
X155063392Y-82510083D01*
X155536562Y-82314090D01*
X155962403Y-82029552D01*
X156324552Y-81667403D01*
X156609090Y-81241562D01*
X156805083Y-80768392D01*
X156905000Y-80266078D01*
X156905000Y-79753922D01*
X156805083Y-79251608D01*
X156609090Y-78778438D01*
X156324552Y-78352597D01*
X155962403Y-77990448D01*
X155536562Y-77705910D01*
X155063392Y-77509917D01*
X154561078Y-77410000D01*
X154048922Y-77410000D01*
X153546608Y-77509917D01*
X153073438Y-77705910D01*
X152647597Y-77990448D01*
X152285448Y-78352597D01*
X152000910Y-78778438D01*
X151804917Y-79251608D01*
X151705000Y-79753922D01*
X148515608Y-79753922D01*
X148351973Y-79590288D01*
X148368504Y-79559360D01*
X148385659Y-79502810D01*
X148391451Y-79444000D01*
X148391451Y-78544000D01*
X148788549Y-78544000D01*
X148788549Y-79444000D01*
X148794341Y-79502810D01*
X148811496Y-79559360D01*
X148839353Y-79611477D01*
X148876842Y-79657158D01*
X148922523Y-79694647D01*
X148974640Y-79722504D01*
X149031190Y-79739659D01*
X149090000Y-79745451D01*
X149590000Y-79745451D01*
X149648810Y-79739659D01*
X149705360Y-79722504D01*
X149757477Y-79694647D01*
X149803158Y-79657158D01*
X149840647Y-79611477D01*
X149868504Y-79559360D01*
X149885659Y-79502810D01*
X149891451Y-79444000D01*
X149891451Y-79394000D01*
X150047388Y-79394000D01*
X150078274Y-79440224D01*
X150175776Y-79537726D01*
X150290426Y-79614332D01*
X150417818Y-79667099D01*
X150553056Y-79694000D01*
X150690944Y-79694000D01*
X150826182Y-79667099D01*
X150953574Y-79614332D01*
X151068224Y-79537726D01*
X151165726Y-79440224D01*
X151242332Y-79325574D01*
X151295099Y-79198182D01*
X151322000Y-79062944D01*
X151322000Y-78925056D01*
X151295099Y-78789818D01*
X151242332Y-78662426D01*
X151165726Y-78547776D01*
X151068224Y-78450274D01*
X150953574Y-78373668D01*
X150826182Y-78320901D01*
X150690944Y-78294000D01*
X150553056Y-78294000D01*
X150417818Y-78320901D01*
X150290426Y-78373668D01*
X150175776Y-78450274D01*
X150078274Y-78547776D01*
X150047388Y-78594000D01*
X149891451Y-78594000D01*
X149891451Y-78544000D01*
X149885659Y-78485190D01*
X149868504Y-78428640D01*
X149840647Y-78376523D01*
X149803158Y-78330842D01*
X149757477Y-78293353D01*
X149705360Y-78265496D01*
X149648810Y-78248341D01*
X149590000Y-78242549D01*
X149090000Y-78242549D01*
X149031190Y-78248341D01*
X148974640Y-78265496D01*
X148922523Y-78293353D01*
X148876842Y-78330842D01*
X148839353Y-78376523D01*
X148811496Y-78428640D01*
X148794341Y-78485190D01*
X148788549Y-78544000D01*
X148391451Y-78544000D01*
X148385659Y-78485190D01*
X148368504Y-78428640D01*
X148340647Y-78376523D01*
X148303158Y-78330842D01*
X148257477Y-78293353D01*
X148205360Y-78265496D01*
X148148810Y-78248341D01*
X148090000Y-78242549D01*
X147590000Y-78242549D01*
X147531190Y-78248341D01*
X147474640Y-78265496D01*
X147422523Y-78293353D01*
X147376842Y-78330842D01*
X147339353Y-78376523D01*
X147311496Y-78428640D01*
X147294341Y-78485190D01*
X147288549Y-78544000D01*
X147288549Y-79444000D01*
X147294341Y-79502810D01*
X147311496Y-79559360D01*
X147339353Y-79611477D01*
X147376842Y-79657158D01*
X147422523Y-79694647D01*
X147444194Y-79706230D01*
X147445788Y-79722413D01*
X147468661Y-79797814D01*
X147505803Y-79867302D01*
X147543265Y-79912950D01*
X147543268Y-79912953D01*
X147555790Y-79928211D01*
X147571047Y-79940733D01*
X148190000Y-80559686D01*
X148190001Y-81083985D01*
X148174547Y-81071303D01*
X148122430Y-81043446D01*
X148065880Y-81026291D01*
X148007070Y-81020499D01*
X147206970Y-81020499D01*
X147148160Y-81026291D01*
X147091610Y-81043446D01*
X147039493Y-81071303D01*
X146993812Y-81108792D01*
X146956323Y-81154473D01*
X146928466Y-81206590D01*
X146918937Y-81238000D01*
X146740834Y-81238000D01*
X146635574Y-81167668D01*
X146508182Y-81114901D01*
X146372944Y-81088000D01*
X146235056Y-81088000D01*
X146099818Y-81114901D01*
X145972426Y-81167668D01*
X145857776Y-81244274D01*
X145760274Y-81341776D01*
X145683668Y-81456426D01*
X145630901Y-81583818D01*
X145604000Y-81719056D01*
X145604000Y-81856944D01*
X145630901Y-81992182D01*
X145683668Y-82119574D01*
X145760274Y-82234224D01*
X145857776Y-82331726D01*
X145972426Y-82408332D01*
X146099818Y-82461099D01*
X146162172Y-82473502D01*
X145233900Y-83401774D01*
X145205208Y-83366812D01*
X145159527Y-83329323D01*
X145107410Y-83301466D01*
X145050860Y-83284311D01*
X144992050Y-83278519D01*
X144191950Y-83278519D01*
X144133140Y-83284311D01*
X144076590Y-83301466D01*
X144024473Y-83329323D01*
X143978792Y-83366812D01*
X143941303Y-83412493D01*
X143913446Y-83464610D01*
X143896291Y-83521160D01*
X143890499Y-83579970D01*
X143890499Y-84380070D01*
X143896291Y-84438880D01*
X143913446Y-84495430D01*
X143941303Y-84547547D01*
X143978792Y-84593228D01*
X144024473Y-84630717D01*
X144076590Y-84658574D01*
X144133140Y-84675729D01*
X144191950Y-84681521D01*
X144298083Y-84681521D01*
X143702106Y-85277499D01*
X143241950Y-85277499D01*
X143183140Y-85283291D01*
X143126590Y-85300446D01*
X143074473Y-85328303D01*
X143028792Y-85365792D01*
X142991303Y-85411473D01*
X142963446Y-85463590D01*
X142946291Y-85520140D01*
X142940499Y-85578950D01*
X142940499Y-86112924D01*
X142935789Y-86116789D01*
X142885803Y-86177698D01*
X142848660Y-86247187D01*
X142830265Y-86307828D01*
X142825788Y-86322587D01*
X142818065Y-86401000D01*
X142820000Y-86420647D01*
X142820000Y-86684000D01*
X142745000Y-86759000D01*
X142745000Y-87561000D01*
X142793549Y-87561000D01*
X142793549Y-87869000D01*
X142745000Y-87869000D01*
X142745000Y-88671000D01*
X142897000Y-88823000D01*
X142983494Y-88810038D01*
X143096919Y-88771585D01*
X143200662Y-88711744D01*
X143290738Y-88632813D01*
X143363685Y-88537825D01*
X143375730Y-88513424D01*
X143403810Y-88510659D01*
X143460360Y-88493504D01*
X143470000Y-88488351D01*
X143479640Y-88493504D01*
X143536190Y-88510659D01*
X143595000Y-88516451D01*
X143845000Y-88516451D01*
X143903810Y-88510659D01*
X143960360Y-88493504D01*
X143970000Y-88488351D01*
X143979640Y-88493504D01*
X144036190Y-88510659D01*
X144095000Y-88516451D01*
X144345000Y-88516451D01*
X144403810Y-88510659D01*
X144460360Y-88493504D01*
X144470000Y-88488351D01*
X144479640Y-88493504D01*
X144536190Y-88510659D01*
X144595000Y-88516451D01*
X144845000Y-88516451D01*
X144903810Y-88510659D01*
X144960360Y-88493504D01*
X145012477Y-88465647D01*
X145058158Y-88428158D01*
X145095647Y-88382477D01*
X145123504Y-88330360D01*
X145140659Y-88273810D01*
X145146451Y-88215000D01*
X145146451Y-87370000D01*
X147349058Y-87370000D01*
X147360797Y-87489189D01*
X147395563Y-87603797D01*
X147452020Y-87709421D01*
X147527999Y-87802001D01*
X147620579Y-87877980D01*
X147726203Y-87934437D01*
X147840811Y-87969203D01*
X147960000Y-87980942D01*
X148054000Y-87978000D01*
X148206000Y-87826000D01*
X148206000Y-87149000D01*
X147504000Y-87149000D01*
X147352000Y-87301000D01*
X147349058Y-87370000D01*
X145146451Y-87370000D01*
X145146451Y-87215000D01*
X145140659Y-87156190D01*
X145123504Y-87099640D01*
X145095647Y-87047523D01*
X145058158Y-87001842D01*
X145030322Y-86978998D01*
X145141950Y-86989992D01*
X145236000Y-86987050D01*
X145388000Y-86835050D01*
X145388000Y-86133000D01*
X145696000Y-86133000D01*
X145696000Y-86835050D01*
X145848000Y-86987050D01*
X145942050Y-86989992D01*
X146061239Y-86978253D01*
X146175847Y-86943487D01*
X146281471Y-86887030D01*
X146374051Y-86811051D01*
X146450030Y-86718471D01*
X146506487Y-86612847D01*
X146541253Y-86498239D01*
X146552992Y-86379050D01*
X146550050Y-86285000D01*
X146398050Y-86133000D01*
X145696000Y-86133000D01*
X145388000Y-86133000D01*
X144685950Y-86133000D01*
X144533950Y-86285000D01*
X144531008Y-86379050D01*
X144542747Y-86498239D01*
X144577513Y-86612847D01*
X144633970Y-86718471D01*
X144709949Y-86811051D01*
X144802529Y-86887030D01*
X144853756Y-86914411D01*
X144845000Y-86913549D01*
X144595000Y-86913549D01*
X144536190Y-86919341D01*
X144479640Y-86936496D01*
X144470000Y-86941649D01*
X144460360Y-86936496D01*
X144403810Y-86919341D01*
X144345000Y-86913549D01*
X144095000Y-86913549D01*
X144036190Y-86919341D01*
X143979640Y-86936496D01*
X143970000Y-86941649D01*
X143960360Y-86936496D01*
X143903810Y-86919341D01*
X143845000Y-86913549D01*
X143620000Y-86913549D01*
X143620000Y-86680501D01*
X144042050Y-86680501D01*
X144100860Y-86674709D01*
X144157410Y-86657554D01*
X144209527Y-86629697D01*
X144255208Y-86592208D01*
X144292697Y-86546527D01*
X144320554Y-86494410D01*
X144337709Y-86437860D01*
X144343501Y-86379050D01*
X144343501Y-85908894D01*
X144556673Y-85695723D01*
X144685950Y-85825000D01*
X145388000Y-85825000D01*
X145388000Y-85805000D01*
X145696000Y-85805000D01*
X145696000Y-85825000D01*
X146398050Y-85825000D01*
X146550050Y-85673000D01*
X146552992Y-85578950D01*
X146541253Y-85459761D01*
X146506487Y-85345153D01*
X146474869Y-85286000D01*
X146771447Y-85286000D01*
X146699668Y-85393426D01*
X146646901Y-85520818D01*
X146620000Y-85656056D01*
X146620000Y-85793944D01*
X146646901Y-85929182D01*
X146699668Y-86056574D01*
X146776274Y-86171224D01*
X146873776Y-86268726D01*
X146988426Y-86345332D01*
X147115818Y-86398099D01*
X147251056Y-86425000D01*
X147383794Y-86425000D01*
X147360797Y-86500811D01*
X147349058Y-86620000D01*
X147352000Y-86689000D01*
X147504000Y-86841000D01*
X148206000Y-86841000D01*
X148206000Y-86164000D01*
X148054000Y-86012000D01*
X147960013Y-86009058D01*
X147993099Y-85929182D01*
X148020000Y-85793944D01*
X148020000Y-85656056D01*
X147993099Y-85520818D01*
X147940332Y-85393426D01*
X147863726Y-85278776D01*
X147770000Y-85185050D01*
X147770000Y-85131451D01*
X148240000Y-85131451D01*
X148298810Y-85125659D01*
X148355360Y-85108504D01*
X148389660Y-85090170D01*
X148432020Y-85169421D01*
X148507999Y-85262001D01*
X148600579Y-85337980D01*
X148706203Y-85394437D01*
X148820811Y-85429203D01*
X148940000Y-85440942D01*
X149034000Y-85438000D01*
X149186000Y-85286000D01*
X149186000Y-84609000D01*
X149494000Y-84609000D01*
X149494000Y-85286000D01*
X149646000Y-85438000D01*
X149740000Y-85440942D01*
X149859189Y-85429203D01*
X149973797Y-85394437D01*
X150079421Y-85337980D01*
X150172001Y-85262001D01*
X150247980Y-85169421D01*
X150304437Y-85063797D01*
X150339203Y-84949189D01*
X150350942Y-84830000D01*
X150348000Y-84761000D01*
X150196000Y-84609000D01*
X149494000Y-84609000D01*
X149186000Y-84609000D01*
X149166000Y-84609000D01*
X149166000Y-84301000D01*
X149186000Y-84301000D01*
X149186000Y-83624000D01*
X149034000Y-83472000D01*
X148940000Y-83469058D01*
X148820811Y-83480797D01*
X148706203Y-83515563D01*
X148600579Y-83572020D01*
X148507999Y-83647999D01*
X148432020Y-83740579D01*
X148389660Y-83819830D01*
X148355360Y-83801496D01*
X148298810Y-83784341D01*
X148240000Y-83778549D01*
X147440000Y-83778549D01*
X147381190Y-83784341D01*
X147324640Y-83801496D01*
X147272523Y-83829353D01*
X147226842Y-83866842D01*
X147189353Y-83912523D01*
X147161496Y-83964640D01*
X147144341Y-84021190D01*
X147138549Y-84080000D01*
X147138549Y-84381056D01*
X147133605Y-84386000D01*
X145487124Y-84386000D01*
X145543266Y-84355991D01*
X145611787Y-84299757D01*
X145625879Y-84282586D01*
X146786466Y-83122000D01*
X148909418Y-83122000D01*
X148910291Y-83130860D01*
X148927446Y-83187410D01*
X148955303Y-83239527D01*
X148992792Y-83285208D01*
X149038473Y-83322697D01*
X149090590Y-83350554D01*
X149147140Y-83367709D01*
X149205950Y-83373501D01*
X149221334Y-83373501D01*
X149298372Y-83414679D01*
X149449173Y-83460424D01*
X149566707Y-83472000D01*
X149646000Y-83472000D01*
X149494000Y-83624000D01*
X149494000Y-84301000D01*
X150196000Y-84301000D01*
X150348000Y-84149000D01*
X150350942Y-84080000D01*
X150339203Y-83960811D01*
X150304437Y-83846203D01*
X150247980Y-83740579D01*
X150172001Y-83647999D01*
X150079421Y-83572020D01*
X149973797Y-83515563D01*
X149859189Y-83480797D01*
X149769871Y-83472000D01*
X150158630Y-83472000D01*
X151346001Y-84659372D01*
X151346000Y-86545000D01*
X150550748Y-86545000D01*
X150538504Y-86504640D01*
X150510647Y-86452523D01*
X150473158Y-86406842D01*
X150427477Y-86369353D01*
X150375360Y-86341496D01*
X150318810Y-86324341D01*
X150260000Y-86318549D01*
X149460000Y-86318549D01*
X149401190Y-86324341D01*
X149344640Y-86341496D01*
X149310340Y-86359830D01*
X149267980Y-86280579D01*
X149192001Y-86187999D01*
X149099421Y-86112020D01*
X148993797Y-86055563D01*
X148879189Y-86020797D01*
X148760000Y-86009058D01*
X148666000Y-86012000D01*
X148514000Y-86164000D01*
X148514000Y-86841000D01*
X148534000Y-86841000D01*
X148534000Y-87149000D01*
X148514000Y-87149000D01*
X148514000Y-87826000D01*
X148666000Y-87978000D01*
X148760000Y-87980942D01*
X148879189Y-87969203D01*
X148993797Y-87934437D01*
X149099421Y-87877980D01*
X149192001Y-87802001D01*
X149267980Y-87709421D01*
X149310340Y-87630170D01*
X149344640Y-87648504D01*
X149401190Y-87665659D01*
X149460000Y-87671451D01*
X150260000Y-87671451D01*
X150318810Y-87665659D01*
X150375360Y-87648504D01*
X150427477Y-87620647D01*
X150473158Y-87583158D01*
X150510647Y-87537477D01*
X150538504Y-87485360D01*
X150550748Y-87445000D01*
X151346000Y-87445000D01*
X151346001Y-97242699D01*
X151342130Y-97282000D01*
X151357577Y-97438827D01*
X151403321Y-97589627D01*
X151477607Y-97728606D01*
X151548884Y-97815457D01*
X151577579Y-97850422D01*
X151608098Y-97875468D01*
X153505000Y-99772371D01*
X153505000Y-101305000D01*
X151671451Y-101305000D01*
X151665659Y-101246190D01*
X151648504Y-101189640D01*
X151620647Y-101137523D01*
X151583158Y-101091842D01*
X151537477Y-101054353D01*
X151485360Y-101026496D01*
X151428810Y-101009341D01*
X151370000Y-101003549D01*
X150890000Y-101003549D01*
X150831190Y-101009341D01*
X150774640Y-101026496D01*
X150752958Y-101038085D01*
X150744197Y-101021695D01*
X150732258Y-101007147D01*
X150694211Y-100960787D01*
X150687544Y-100955315D01*
X150699574Y-100950332D01*
X150814224Y-100873726D01*
X150911726Y-100776224D01*
X150988332Y-100661574D01*
X151041099Y-100534182D01*
X151068000Y-100398944D01*
X151068000Y-100261056D01*
X151053019Y-100185741D01*
X151126883Y-100171048D01*
X151254275Y-100118281D01*
X151368925Y-100041675D01*
X151466427Y-99944173D01*
X151543033Y-99829523D01*
X151595800Y-99702131D01*
X151622701Y-99566893D01*
X151622701Y-99429005D01*
X151595800Y-99293767D01*
X151543033Y-99166375D01*
X151466427Y-99051725D01*
X151368925Y-98954223D01*
X151254275Y-98877617D01*
X151126883Y-98824850D01*
X150991645Y-98797949D01*
X150853757Y-98797949D01*
X150799232Y-98808795D01*
X149790022Y-97799585D01*
X149790022Y-94704669D01*
X149791957Y-94685022D01*
X149784234Y-94606608D01*
X149761362Y-94531208D01*
X149724219Y-94461719D01*
X149702041Y-94434695D01*
X149674233Y-94400811D01*
X149658970Y-94388285D01*
X147666737Y-92396052D01*
X147654211Y-92380789D01*
X147593303Y-92330803D01*
X147523814Y-92293660D01*
X147471451Y-92277776D01*
X147471451Y-92040000D01*
X147465659Y-91981190D01*
X147448504Y-91924640D01*
X147443351Y-91915000D01*
X147448504Y-91905360D01*
X147465659Y-91848810D01*
X147471451Y-91790000D01*
X147471451Y-91540000D01*
X147465659Y-91481190D01*
X147448504Y-91424640D01*
X147443351Y-91415000D01*
X147448504Y-91405360D01*
X147465659Y-91348810D01*
X147469532Y-91309482D01*
X147508776Y-91348726D01*
X147623426Y-91425332D01*
X147750818Y-91478099D01*
X147886056Y-91505000D01*
X148023944Y-91505000D01*
X148159182Y-91478099D01*
X148286574Y-91425332D01*
X148401224Y-91348726D01*
X148498726Y-91251224D01*
X148575332Y-91136574D01*
X148628099Y-91009182D01*
X148655000Y-90873944D01*
X148655000Y-90736056D01*
X148644594Y-90683744D01*
X148694197Y-90623303D01*
X148731340Y-90553814D01*
X148754212Y-90478414D01*
X148760000Y-90419647D01*
X148760000Y-90419637D01*
X148761934Y-90400001D01*
X148760000Y-90380365D01*
X148760000Y-89576451D01*
X148818810Y-89570659D01*
X148875360Y-89553504D01*
X148909660Y-89535170D01*
X148952020Y-89614421D01*
X149027999Y-89707001D01*
X149120579Y-89782980D01*
X149226203Y-89839437D01*
X149340811Y-89874203D01*
X149460000Y-89885942D01*
X149554000Y-89883000D01*
X149706000Y-89731000D01*
X149706000Y-89054000D01*
X150014000Y-89054000D01*
X150014000Y-89731000D01*
X150166000Y-89883000D01*
X150260000Y-89885942D01*
X150379189Y-89874203D01*
X150493797Y-89839437D01*
X150599421Y-89782980D01*
X150692001Y-89707001D01*
X150767980Y-89614421D01*
X150824437Y-89508797D01*
X150859203Y-89394189D01*
X150870942Y-89275000D01*
X150868000Y-89206000D01*
X150716000Y-89054000D01*
X150014000Y-89054000D01*
X149706000Y-89054000D01*
X149686000Y-89054000D01*
X149686000Y-88746000D01*
X149706000Y-88746000D01*
X149706000Y-88069000D01*
X150014000Y-88069000D01*
X150014000Y-88746000D01*
X150716000Y-88746000D01*
X150868000Y-88594000D01*
X150870942Y-88525000D01*
X150859203Y-88405811D01*
X150824437Y-88291203D01*
X150767980Y-88185579D01*
X150692001Y-88092999D01*
X150599421Y-88017020D01*
X150493797Y-87960563D01*
X150379189Y-87925797D01*
X150260000Y-87914058D01*
X150166000Y-87917000D01*
X150014000Y-88069000D01*
X149706000Y-88069000D01*
X149554000Y-87917000D01*
X149460000Y-87914058D01*
X149340811Y-87925797D01*
X149226203Y-87960563D01*
X149120579Y-88017020D01*
X149027999Y-88092999D01*
X148952020Y-88185579D01*
X148909660Y-88264830D01*
X148875360Y-88246496D01*
X148818810Y-88229341D01*
X148760000Y-88223549D01*
X147960000Y-88223549D01*
X147901190Y-88229341D01*
X147844640Y-88246496D01*
X147792523Y-88274353D01*
X147746842Y-88311842D01*
X147709353Y-88357523D01*
X147681496Y-88409640D01*
X147664341Y-88466190D01*
X147658549Y-88525000D01*
X147658549Y-89275000D01*
X147664341Y-89333810D01*
X147681496Y-89390360D01*
X147709353Y-89442477D01*
X147746842Y-89488158D01*
X147792523Y-89525647D01*
X147844640Y-89553504D01*
X147901190Y-89570659D01*
X147960000Y-89576451D01*
X147960001Y-90105000D01*
X147886056Y-90105000D01*
X147778000Y-90126494D01*
X147778000Y-90010998D01*
X147755002Y-90010998D01*
X147778000Y-89988000D01*
X147765038Y-89901506D01*
X147726585Y-89788081D01*
X147666744Y-89684338D01*
X147587813Y-89594262D01*
X147492825Y-89521315D01*
X147468424Y-89509270D01*
X147465659Y-89481190D01*
X147448504Y-89424640D01*
X147420647Y-89372523D01*
X147383158Y-89326842D01*
X147337477Y-89289353D01*
X147285360Y-89261496D01*
X147228810Y-89244341D01*
X147170000Y-89238549D01*
X146170000Y-89238549D01*
X146111190Y-89244341D01*
X146054640Y-89261496D01*
X146002523Y-89289353D01*
X145956842Y-89326842D01*
X145919353Y-89372523D01*
X145891496Y-89424640D01*
X145874341Y-89481190D01*
X145871576Y-89509270D01*
X145847175Y-89521315D01*
X145752187Y-89594262D01*
X145673256Y-89684338D01*
X145613415Y-89788081D01*
X145574962Y-89901506D01*
X145562000Y-89988000D01*
X145714000Y-90140000D01*
X146516000Y-90140000D01*
X146516000Y-90091451D01*
X146824000Y-90091451D01*
X146824000Y-90140000D01*
X146844000Y-90140000D01*
X146844000Y-90190000D01*
X146824000Y-90190000D01*
X146824000Y-90238549D01*
X146516000Y-90238549D01*
X146516000Y-90190000D01*
X145714000Y-90190000D01*
X145562000Y-90342000D01*
X145574962Y-90428494D01*
X145613415Y-90541919D01*
X145673256Y-90645662D01*
X145752187Y-90735738D01*
X145847175Y-90808685D01*
X145871576Y-90820730D01*
X145874341Y-90848810D01*
X145891496Y-90905360D01*
X145896649Y-90915000D01*
X145891496Y-90924640D01*
X145874341Y-90981190D01*
X145868549Y-91040000D01*
X145868549Y-91290000D01*
X145874341Y-91348810D01*
X145891496Y-91405360D01*
X145896649Y-91415000D01*
X145891496Y-91424640D01*
X145874341Y-91481190D01*
X145868549Y-91540000D01*
X145868549Y-91790000D01*
X145874341Y-91848810D01*
X145891496Y-91905360D01*
X145896649Y-91915000D01*
X145891496Y-91924640D01*
X145874341Y-91981190D01*
X145868549Y-92040000D01*
X145868549Y-92290000D01*
X145874341Y-92348810D01*
X145891496Y-92405360D01*
X145896649Y-92415000D01*
X145891496Y-92424640D01*
X145874341Y-92481190D01*
X145868549Y-92540000D01*
X145868549Y-92790000D01*
X145874341Y-92848810D01*
X145891496Y-92905360D01*
X145896649Y-92915000D01*
X145891496Y-92924640D01*
X145874341Y-92981190D01*
X145868549Y-93040000D01*
X145868549Y-93290000D01*
X145874341Y-93348810D01*
X145891496Y-93405360D01*
X145896649Y-93415000D01*
X145891496Y-93424640D01*
X145874341Y-93481190D01*
X145868549Y-93540000D01*
X145868549Y-93790000D01*
X145874341Y-93848810D01*
X145891496Y-93905360D01*
X145896649Y-93915000D01*
X145891496Y-93924640D01*
X145874341Y-93981190D01*
X145868549Y-94040000D01*
X145868549Y-94265000D01*
X144876643Y-94265000D01*
X144856999Y-94263065D01*
X144837355Y-94265000D01*
X144837353Y-94265000D01*
X144778586Y-94270788D01*
X144703186Y-94293660D01*
X144633697Y-94330803D01*
X144588049Y-94368265D01*
X144588047Y-94368267D01*
X144572789Y-94380789D01*
X144560267Y-94396047D01*
X143876052Y-95080263D01*
X143860789Y-95092789D01*
X143810803Y-95153698D01*
X143773660Y-95223187D01*
X143759846Y-95268727D01*
X143750788Y-95298587D01*
X143743065Y-95377000D01*
X143745000Y-95396647D01*
X143745001Y-96443315D01*
X139144318Y-91842632D01*
X139227726Y-91759224D01*
X139304332Y-91644574D01*
X139357099Y-91517182D01*
X139384000Y-91381944D01*
X139384000Y-91244056D01*
X139357099Y-91108818D01*
X139304332Y-90981426D01*
X139227726Y-90866776D01*
X139130224Y-90769274D01*
X139015574Y-90692668D01*
X138888182Y-90639901D01*
X138752944Y-90613000D01*
X138615056Y-90613000D01*
X138479818Y-90639901D01*
X138352426Y-90692668D01*
X138237776Y-90769274D01*
X138140274Y-90866776D01*
X138063668Y-90981426D01*
X138010901Y-91108818D01*
X137984000Y-91244056D01*
X137984000Y-91381944D01*
X138010901Y-91517182D01*
X138046398Y-91602879D01*
X137662502Y-91602879D01*
X137631616Y-91556655D01*
X137534114Y-91459153D01*
X137419464Y-91382547D01*
X137292072Y-91329780D01*
X137156834Y-91302879D01*
X137018946Y-91302879D01*
X136883708Y-91329780D01*
X136756316Y-91382547D01*
X136641666Y-91459153D01*
X136544164Y-91556655D01*
X136467558Y-91671305D01*
X136414791Y-91798697D01*
X136387890Y-91933935D01*
X136387890Y-92071823D01*
X136414791Y-92207061D01*
X136467558Y-92334453D01*
X136544164Y-92449103D01*
X136641666Y-92546605D01*
X136756316Y-92623211D01*
X136883708Y-92675978D01*
X137018946Y-92702879D01*
X137156834Y-92702879D01*
X137292072Y-92675978D01*
X137419464Y-92623211D01*
X137534114Y-92546605D01*
X137631616Y-92449103D01*
X137662502Y-92402879D01*
X138007494Y-92402879D01*
X138644466Y-93039851D01*
X138074760Y-93039851D01*
X138055113Y-93037916D01*
X138035467Y-93039851D01*
X137976700Y-93045639D01*
X137901300Y-93068511D01*
X137858383Y-93091451D01*
X137831811Y-93105654D01*
X137786163Y-93143116D01*
X137786161Y-93143118D01*
X137777251Y-93150431D01*
X137724059Y-93139850D01*
X137586171Y-93139850D01*
X137450933Y-93166751D01*
X137323541Y-93219518D01*
X137208891Y-93296124D01*
X137111389Y-93393626D01*
X137034783Y-93508276D01*
X136982016Y-93635668D01*
X136955115Y-93770906D01*
X136955115Y-93908794D01*
X136982016Y-94044032D01*
X137034783Y-94171424D01*
X137111389Y-94286074D01*
X137208891Y-94383576D01*
X137323541Y-94460182D01*
X137450933Y-94512949D01*
X137586171Y-94539850D01*
X137724059Y-94539850D01*
X137765410Y-94531625D01*
X137786559Y-94637947D01*
X137839326Y-94765339D01*
X137915932Y-94879989D01*
X138013434Y-94977491D01*
X138048831Y-95001142D01*
X137988813Y-95090967D01*
X137936046Y-95218359D01*
X137909145Y-95353597D01*
X137909145Y-95491485D01*
X137936046Y-95626723D01*
X137988813Y-95754115D01*
X138065419Y-95868765D01*
X138162921Y-95966267D01*
X138277571Y-96042873D01*
X138320001Y-96060448D01*
X138320000Y-98235291D01*
X138290738Y-98197187D01*
X138200662Y-98118256D01*
X138096919Y-98058415D01*
X137983494Y-98019962D01*
X137897000Y-98007000D01*
X137745000Y-98159000D01*
X137745000Y-98961000D01*
X137793549Y-98961000D01*
X137793549Y-99269000D01*
X137745000Y-99269000D01*
X137745000Y-99289000D01*
X137695000Y-99289000D01*
X137695000Y-99269000D01*
X137646451Y-99269000D01*
X137646451Y-98961000D01*
X137695000Y-98961000D01*
X137695000Y-98159000D01*
X137620000Y-98084000D01*
X137620000Y-97700346D01*
X137745574Y-97648332D01*
X137860224Y-97571726D01*
X137957726Y-97474224D01*
X138034332Y-97359574D01*
X138087099Y-97232182D01*
X138114000Y-97096944D01*
X138114000Y-96959056D01*
X138087099Y-96823818D01*
X138034332Y-96696426D01*
X137957726Y-96581776D01*
X137860224Y-96484274D01*
X137745574Y-96407668D01*
X137618182Y-96354901D01*
X137482944Y-96328000D01*
X137345056Y-96328000D01*
X137209818Y-96354901D01*
X137082426Y-96407668D01*
X136967776Y-96484274D01*
X136964223Y-96487827D01*
X136964223Y-96248167D01*
X136966158Y-96228520D01*
X136958435Y-96150107D01*
X136953578Y-96134096D01*
X136935563Y-96074707D01*
X136898420Y-96005218D01*
X136878701Y-95981190D01*
X136860958Y-95959570D01*
X136860956Y-95959568D01*
X136848434Y-95944310D01*
X136833177Y-95931789D01*
X136297439Y-95396052D01*
X136284913Y-95380789D01*
X136224005Y-95330803D01*
X136154516Y-95293660D01*
X136079116Y-95270788D01*
X136071451Y-95270033D01*
X136071451Y-95040000D01*
X136065659Y-94981190D01*
X136048504Y-94924640D01*
X136043351Y-94915000D01*
X136048504Y-94905360D01*
X136065659Y-94848810D01*
X136071451Y-94790000D01*
X136071451Y-94540000D01*
X136065659Y-94481190D01*
X136048504Y-94424640D01*
X136043351Y-94415000D01*
X136048504Y-94405360D01*
X136065659Y-94348810D01*
X136071451Y-94290000D01*
X136071451Y-94040000D01*
X136065659Y-93981190D01*
X136048504Y-93924640D01*
X136043351Y-93915000D01*
X136048504Y-93905360D01*
X136065659Y-93848810D01*
X136071451Y-93790000D01*
X136071451Y-93540000D01*
X136065659Y-93481190D01*
X136048504Y-93424640D01*
X136043351Y-93415000D01*
X136048504Y-93405360D01*
X136065659Y-93348810D01*
X136071451Y-93290000D01*
X136071451Y-93040000D01*
X136065659Y-92981190D01*
X136048504Y-92924640D01*
X136043351Y-92915000D01*
X136048504Y-92905360D01*
X136065659Y-92848810D01*
X136071451Y-92790000D01*
X136071451Y-92540000D01*
X136065659Y-92481190D01*
X136048504Y-92424640D01*
X136043351Y-92415000D01*
X136048504Y-92405360D01*
X136065659Y-92348810D01*
X136071451Y-92290000D01*
X136071451Y-92040000D01*
X136065659Y-91981190D01*
X136048504Y-91924640D01*
X136043351Y-91915000D01*
X136048504Y-91905360D01*
X136065659Y-91848810D01*
X136071451Y-91790000D01*
X136071451Y-91540000D01*
X136065659Y-91481190D01*
X136048504Y-91424640D01*
X136043351Y-91415000D01*
X136048504Y-91405360D01*
X136065659Y-91348810D01*
X136071451Y-91290000D01*
X136071451Y-91040000D01*
X136065659Y-90981190D01*
X136048504Y-90924640D01*
X136043351Y-90915000D01*
X136048504Y-90905360D01*
X136065659Y-90848810D01*
X136068424Y-90820730D01*
X136092825Y-90808685D01*
X136187813Y-90735738D01*
X136266744Y-90645662D01*
X136326585Y-90541919D01*
X136365038Y-90428494D01*
X136378000Y-90342000D01*
X136226000Y-90190000D01*
X135424000Y-90190000D01*
X135424000Y-90238549D01*
X135116000Y-90238549D01*
X135116000Y-90190000D01*
X134314000Y-90190000D01*
X134162000Y-90342000D01*
X134174962Y-90428494D01*
X134213415Y-90541919D01*
X134273256Y-90645662D01*
X134352187Y-90735738D01*
X134417636Y-90786000D01*
X134178612Y-90786000D01*
X134147726Y-90739776D01*
X134050224Y-90642274D01*
X133935574Y-90565668D01*
X133808182Y-90512901D01*
X133672944Y-90486000D01*
X133535056Y-90486000D01*
X133399818Y-90512901D01*
X133272426Y-90565668D01*
X133157776Y-90642274D01*
X133060274Y-90739776D01*
X132983668Y-90854426D01*
X132930901Y-90981818D01*
X132904000Y-91117056D01*
X132904000Y-91254944D01*
X132930901Y-91390182D01*
X132983668Y-91517574D01*
X133060274Y-91632224D01*
X133157776Y-91729726D01*
X133204000Y-91760612D01*
X133204001Y-92798314D01*
X132676315Y-93326000D01*
X132647543Y-93326000D01*
X132674158Y-93304158D01*
X132711647Y-93258477D01*
X132739504Y-93206360D01*
X132756659Y-93149810D01*
X132762451Y-93091000D01*
X132762451Y-91059000D01*
X132756659Y-91000190D01*
X132739504Y-90943640D01*
X132711647Y-90891523D01*
X132674158Y-90845842D01*
X132628477Y-90808353D01*
X132576360Y-90780496D01*
X132519810Y-90763341D01*
X132461000Y-90757549D01*
X131961124Y-90757549D01*
X132053797Y-90729437D01*
X132159421Y-90672980D01*
X132252001Y-90597001D01*
X132327980Y-90504421D01*
X132384437Y-90398797D01*
X132419203Y-90284189D01*
X132430942Y-90165000D01*
X132428000Y-90071000D01*
X132345000Y-89988000D01*
X134162000Y-89988000D01*
X134314000Y-90140000D01*
X135116000Y-90140000D01*
X135116000Y-90091451D01*
X135424000Y-90091451D01*
X135424000Y-90140000D01*
X136226000Y-90140000D01*
X136301000Y-90065000D01*
X136897649Y-90065000D01*
X136920668Y-90120574D01*
X136997274Y-90235224D01*
X137094776Y-90332726D01*
X137209426Y-90409332D01*
X137336818Y-90462099D01*
X137472056Y-90489000D01*
X137609944Y-90489000D01*
X137745182Y-90462099D01*
X137872574Y-90409332D01*
X137987224Y-90332726D01*
X138084726Y-90235224D01*
X138161332Y-90120574D01*
X138214099Y-89993182D01*
X138241000Y-89857944D01*
X138241000Y-89720056D01*
X138214099Y-89584818D01*
X138161332Y-89457426D01*
X138084726Y-89342776D01*
X137987224Y-89245274D01*
X137872574Y-89168668D01*
X137745182Y-89115901D01*
X137609944Y-89089000D01*
X137472056Y-89089000D01*
X137336818Y-89115901D01*
X137209426Y-89168668D01*
X137094776Y-89245274D01*
X137075050Y-89265000D01*
X135891916Y-89265000D01*
X135885360Y-89261496D01*
X135828810Y-89244341D01*
X135770000Y-89238549D01*
X134770000Y-89238549D01*
X134711190Y-89244341D01*
X134654640Y-89261496D01*
X134602523Y-89289353D01*
X134556842Y-89326842D01*
X134519353Y-89372523D01*
X134491496Y-89424640D01*
X134474341Y-89481190D01*
X134471576Y-89509270D01*
X134447175Y-89521315D01*
X134352187Y-89594262D01*
X134273256Y-89684338D01*
X134213415Y-89788081D01*
X134174962Y-89901506D01*
X134162000Y-89988000D01*
X132345000Y-89988000D01*
X132276000Y-89919000D01*
X131599000Y-89919000D01*
X131599000Y-89939000D01*
X131291000Y-89939000D01*
X131291000Y-89919000D01*
X130614000Y-89919000D01*
X130462000Y-90071000D01*
X130459058Y-90165000D01*
X130470797Y-90284189D01*
X130505563Y-90398797D01*
X130562020Y-90504421D01*
X130637999Y-90597001D01*
X130730579Y-90672980D01*
X130836203Y-90729437D01*
X130928876Y-90757549D01*
X130429000Y-90757549D01*
X130370190Y-90763341D01*
X130313640Y-90780496D01*
X130261523Y-90808353D01*
X130215842Y-90845842D01*
X130178353Y-90891523D01*
X130150496Y-90943640D01*
X130133341Y-91000190D01*
X130127549Y-91059000D01*
X130127549Y-93091000D01*
X130133341Y-93149810D01*
X130150496Y-93206360D01*
X130178353Y-93258477D01*
X130215842Y-93304158D01*
X130261523Y-93341647D01*
X130313640Y-93369504D01*
X130370190Y-93386659D01*
X130429000Y-93392451D01*
X130957620Y-93392451D01*
X130821640Y-93448776D01*
X130606099Y-93592796D01*
X130422796Y-93776099D01*
X130278776Y-93991640D01*
X130179573Y-94231137D01*
X130129000Y-94485385D01*
X130129000Y-94744615D01*
X130179573Y-94998863D01*
X130278776Y-95238360D01*
X130422796Y-95453901D01*
X130606099Y-95637204D01*
X130821640Y-95781224D01*
X131061137Y-95880427D01*
X131315385Y-95931000D01*
X131574615Y-95931000D01*
X131828863Y-95880427D01*
X132068360Y-95781224D01*
X132283901Y-95637204D01*
X132467204Y-95453901D01*
X132611224Y-95238360D01*
X132710427Y-94998863D01*
X132761000Y-94744615D01*
X132761000Y-94485385D01*
X132710427Y-94231137D01*
X132666878Y-94126000D01*
X132822354Y-94126000D01*
X132842000Y-94127935D01*
X132861646Y-94126000D01*
X132861647Y-94126000D01*
X132920414Y-94120212D01*
X132995814Y-94097340D01*
X133065303Y-94060197D01*
X133126211Y-94010211D01*
X133138737Y-93994948D01*
X133872948Y-93260737D01*
X133888211Y-93248211D01*
X133938197Y-93187303D01*
X133975340Y-93117814D01*
X133998212Y-93042414D01*
X134004000Y-92983647D01*
X134005935Y-92964000D01*
X134004000Y-92944353D01*
X134004000Y-91760612D01*
X134050224Y-91729726D01*
X134147726Y-91632224D01*
X134178612Y-91586000D01*
X134468549Y-91586000D01*
X134468549Y-91790000D01*
X134474341Y-91848810D01*
X134491496Y-91905360D01*
X134496649Y-91915000D01*
X134491496Y-91924640D01*
X134474341Y-91981190D01*
X134468549Y-92040000D01*
X134468549Y-92290000D01*
X134474341Y-92348810D01*
X134491496Y-92405360D01*
X134496649Y-92415000D01*
X134491496Y-92424640D01*
X134474341Y-92481190D01*
X134468549Y-92540000D01*
X134468549Y-92790000D01*
X134474341Y-92848810D01*
X134491496Y-92905360D01*
X134496649Y-92915000D01*
X134491496Y-92924640D01*
X134474341Y-92981190D01*
X134468549Y-93040000D01*
X134468549Y-93270033D01*
X134460883Y-93270788D01*
X134438011Y-93277726D01*
X134385484Y-93293660D01*
X134315995Y-93330803D01*
X134315993Y-93330804D01*
X134315994Y-93330804D01*
X134270347Y-93368265D01*
X134270345Y-93368267D01*
X134255087Y-93380789D01*
X134242565Y-93396047D01*
X133443042Y-94195572D01*
X133427779Y-94208098D01*
X133415255Y-94223359D01*
X133377793Y-94269007D01*
X133340650Y-94338496D01*
X133317778Y-94413896D01*
X133310055Y-94492309D01*
X133311990Y-94511954D01*
X133311991Y-95172625D01*
X131303052Y-97181565D01*
X131287789Y-97194091D01*
X131237803Y-97255000D01*
X131200660Y-97324489D01*
X131180209Y-97391909D01*
X131177788Y-97399889D01*
X131170065Y-97478302D01*
X131172000Y-97497949D01*
X131172001Y-98024345D01*
X131172000Y-98024354D01*
X131172000Y-98231388D01*
X131125776Y-98262274D01*
X131028274Y-98359776D01*
X130951668Y-98474426D01*
X130898901Y-98601818D01*
X130872000Y-98737056D01*
X130872000Y-98874944D01*
X130898901Y-99010182D01*
X130951668Y-99137574D01*
X131028274Y-99252224D01*
X131125776Y-99349726D01*
X131240426Y-99426332D01*
X131265458Y-99436701D01*
X131206200Y-99454676D01*
X131144224Y-99487803D01*
X131136711Y-99491819D01*
X131091063Y-99529281D01*
X131091061Y-99529283D01*
X131082151Y-99536596D01*
X131028959Y-99526015D01*
X130891071Y-99526015D01*
X130755833Y-99552916D01*
X130628441Y-99605683D01*
X130513791Y-99682289D01*
X130416289Y-99779791D01*
X130339683Y-99894441D01*
X130286916Y-100021833D01*
X130260015Y-100157071D01*
X130260015Y-100294959D01*
X130286916Y-100430197D01*
X130339683Y-100557589D01*
X130416289Y-100672239D01*
X130513791Y-100769741D01*
X130628441Y-100846347D01*
X130755833Y-100899114D01*
X130766736Y-100901283D01*
X130664470Y-101003549D01*
X130570000Y-101003549D01*
X130511190Y-101009341D01*
X130454640Y-101026496D01*
X130402523Y-101054353D01*
X130356842Y-101091842D01*
X130319353Y-101137523D01*
X130291496Y-101189640D01*
X130274341Y-101246190D01*
X130268549Y-101305000D01*
X130268549Y-102105000D01*
X130274341Y-102163810D01*
X130291496Y-102220360D01*
X130319353Y-102272477D01*
X130356842Y-102318158D01*
X130402523Y-102355647D01*
X130454640Y-102383504D01*
X130511190Y-102400659D01*
X130570000Y-102406451D01*
X131050000Y-102406451D01*
X131108810Y-102400659D01*
X131165360Y-102383504D01*
X131210000Y-102359644D01*
X131254640Y-102383504D01*
X131311190Y-102400659D01*
X131370000Y-102406451D01*
X131690000Y-102406451D01*
X131748810Y-102400659D01*
X131805360Y-102383504D01*
X131850000Y-102359644D01*
X131894640Y-102383504D01*
X131951190Y-102400659D01*
X132010000Y-102406451D01*
X132330000Y-102406451D01*
X132388810Y-102400659D01*
X132445360Y-102383504D01*
X132490000Y-102359644D01*
X132534640Y-102383504D01*
X132591190Y-102400659D01*
X132650000Y-102406451D01*
X132760572Y-102406451D01*
X132769839Y-102425442D01*
X132842349Y-102520763D01*
X132932062Y-102600107D01*
X133035530Y-102660424D01*
X133148778Y-102699396D01*
X133238000Y-102713000D01*
X133390000Y-102561000D01*
X133390000Y-101859000D01*
X133356000Y-101859000D01*
X133356000Y-101551000D01*
X133390000Y-101551000D01*
X133390000Y-101531000D01*
X133670000Y-101531000D01*
X133670000Y-101551000D01*
X133670001Y-101551000D01*
X133670001Y-101859000D01*
X133670000Y-101859000D01*
X133670000Y-102561000D01*
X133670002Y-102561002D01*
X133670002Y-102608847D01*
X133668066Y-102628503D01*
X133675789Y-102706917D01*
X133698662Y-102782317D01*
X133710011Y-102803549D01*
X133290000Y-102803549D01*
X133231190Y-102809341D01*
X133174640Y-102826496D01*
X133130000Y-102850356D01*
X133085360Y-102826496D01*
X133028810Y-102809341D01*
X132970000Y-102803549D01*
X132650000Y-102803549D01*
X132591190Y-102809341D01*
X132534640Y-102826496D01*
X132490000Y-102850356D01*
X132445360Y-102826496D01*
X132388810Y-102809341D01*
X132330000Y-102803549D01*
X132010000Y-102803549D01*
X131951190Y-102809341D01*
X131894640Y-102826496D01*
X131850000Y-102850356D01*
X131805360Y-102826496D01*
X131748810Y-102809341D01*
X131690000Y-102803549D01*
X131579428Y-102803549D01*
X131570161Y-102784558D01*
X131497651Y-102689237D01*
X131407938Y-102609893D01*
X131304470Y-102549576D01*
X131191222Y-102510604D01*
X131102000Y-102497000D01*
X130950000Y-102649000D01*
X130950000Y-103351000D01*
X130984000Y-103351000D01*
X130984000Y-103659000D01*
X130950000Y-103659000D01*
X130950000Y-104361000D01*
X131102000Y-104513000D01*
X131191222Y-104499396D01*
X131278112Y-104469495D01*
X131610617Y-104802000D01*
X130698370Y-104802000D01*
X130378445Y-104482075D01*
X130428778Y-104499396D01*
X130518000Y-104513000D01*
X130670000Y-104361000D01*
X130670000Y-103659000D01*
X130114000Y-103659000D01*
X129962000Y-103811000D01*
X129959474Y-103882452D01*
X129966806Y-104001993D01*
X129991289Y-104094918D01*
X129054051Y-103157681D01*
X129054051Y-103127548D01*
X129959474Y-103127548D01*
X129962000Y-103199000D01*
X130114000Y-103351000D01*
X130670000Y-103351000D01*
X130670000Y-102649000D01*
X130518000Y-102497000D01*
X130428778Y-102510604D01*
X130315530Y-102549576D01*
X130212062Y-102609893D01*
X130122349Y-102689237D01*
X130049839Y-102784558D01*
X129997319Y-102892193D01*
X129966806Y-103008007D01*
X129959474Y-103127548D01*
X129054051Y-103127548D01*
X129054051Y-102387400D01*
X129048259Y-102328590D01*
X129031104Y-102272040D01*
X129003247Y-102219923D01*
X128965758Y-102174242D01*
X128920077Y-102136753D01*
X128867960Y-102108896D01*
X128811410Y-102091741D01*
X128752600Y-102085949D01*
X126517400Y-102085949D01*
X126458590Y-102091741D01*
X126402040Y-102108896D01*
X126349923Y-102136753D01*
X126304242Y-102174242D01*
X126266753Y-102219923D01*
X126238896Y-102272040D01*
X126221741Y-102328590D01*
X126215949Y-102387400D01*
X126215949Y-104622600D01*
X126221741Y-104681410D01*
X126238896Y-104737960D01*
X126266753Y-104790077D01*
X126304242Y-104835758D01*
X126349923Y-104873247D01*
X126402040Y-104901104D01*
X126458590Y-104918259D01*
X126517400Y-104924051D01*
X128557681Y-104924051D01*
X129694000Y-106060370D01*
X129694000Y-108358000D01*
X129360970Y-108358000D01*
X129360600Y-108256000D01*
X129208600Y-108104000D01*
X127789000Y-108104000D01*
X127789000Y-108124000D01*
X127481000Y-108124000D01*
X127481000Y-108104000D01*
X126061400Y-108104000D01*
X125909400Y-108256000D01*
X125909030Y-108358000D01*
X124860000Y-108358000D01*
X124860000Y-106832400D01*
X125906458Y-106832400D01*
X125909400Y-107644000D01*
X126061400Y-107796000D01*
X127481000Y-107796000D01*
X127481000Y-106376400D01*
X127789000Y-106376400D01*
X127789000Y-107796000D01*
X129208600Y-107796000D01*
X129360600Y-107644000D01*
X129363542Y-106832400D01*
X129351803Y-106713211D01*
X129317037Y-106598603D01*
X129260580Y-106492979D01*
X129184601Y-106400399D01*
X129092021Y-106324420D01*
X128986397Y-106267963D01*
X128871789Y-106233197D01*
X128752600Y-106221458D01*
X127941000Y-106224400D01*
X127789000Y-106376400D01*
X127481000Y-106376400D01*
X127329000Y-106224400D01*
X126517400Y-106221458D01*
X126398211Y-106233197D01*
X126283603Y-106267963D01*
X126177979Y-106324420D01*
X126085399Y-106400399D01*
X126009420Y-106492979D01*
X125952963Y-106598603D01*
X125918197Y-106713211D01*
X125906458Y-106832400D01*
X124860000Y-106832400D01*
X124860000Y-97536049D01*
X126061189Y-97536049D01*
X126145583Y-97769612D01*
X126291178Y-98018642D01*
X126482559Y-98234482D01*
X126712371Y-98408838D01*
X126971782Y-98535010D01*
X127146838Y-98580893D01*
X127035155Y-98614772D01*
X126833011Y-98722821D01*
X126655830Y-98868230D01*
X126510421Y-99045411D01*
X126402372Y-99247555D01*
X126335836Y-99466895D01*
X126313370Y-99695000D01*
X126335836Y-99923105D01*
X126402372Y-100142445D01*
X126510421Y-100344589D01*
X126655830Y-100521770D01*
X126833011Y-100667179D01*
X127035155Y-100775228D01*
X127254495Y-100841764D01*
X127425437Y-100858600D01*
X127844563Y-100858600D01*
X128015505Y-100841764D01*
X128234845Y-100775228D01*
X128436989Y-100667179D01*
X128614170Y-100521770D01*
X128759579Y-100344589D01*
X128867628Y-100142445D01*
X128934164Y-99923105D01*
X128956630Y-99695000D01*
X128934164Y-99466895D01*
X128867628Y-99247555D01*
X128759579Y-99045411D01*
X128614170Y-98868230D01*
X128436989Y-98722821D01*
X128234845Y-98614772D01*
X128123162Y-98580893D01*
X128298218Y-98535010D01*
X128557629Y-98408838D01*
X128787441Y-98234482D01*
X128978822Y-98018642D01*
X129124417Y-97769612D01*
X129208811Y-97536049D01*
X129097983Y-97309000D01*
X127789000Y-97309000D01*
X127789000Y-97329000D01*
X127481000Y-97329000D01*
X127481000Y-97309000D01*
X126172017Y-97309000D01*
X126061189Y-97536049D01*
X124860000Y-97536049D01*
X124860000Y-96773951D01*
X126061189Y-96773951D01*
X126172017Y-97001000D01*
X127481000Y-97001000D01*
X127481000Y-96981000D01*
X127789000Y-96981000D01*
X127789000Y-97001000D01*
X129097983Y-97001000D01*
X129208811Y-96773951D01*
X129124417Y-96540388D01*
X128978822Y-96291358D01*
X128787441Y-96075518D01*
X128557629Y-95901162D01*
X128298218Y-95774990D01*
X128123162Y-95729107D01*
X128234845Y-95695228D01*
X128436989Y-95587179D01*
X128614170Y-95441770D01*
X128759579Y-95264589D01*
X128867628Y-95062445D01*
X128934164Y-94843105D01*
X128956630Y-94615000D01*
X128934164Y-94386895D01*
X128867628Y-94167555D01*
X128759579Y-93965411D01*
X128614170Y-93788230D01*
X128436989Y-93642821D01*
X128234845Y-93534772D01*
X128015505Y-93468236D01*
X127844563Y-93451400D01*
X127425437Y-93451400D01*
X127254495Y-93468236D01*
X127035155Y-93534772D01*
X126833011Y-93642821D01*
X126655830Y-93788230D01*
X126510421Y-93965411D01*
X126402372Y-94167555D01*
X126335836Y-94386895D01*
X126313370Y-94615000D01*
X126335836Y-94843105D01*
X126402372Y-95062445D01*
X126510421Y-95264589D01*
X126655830Y-95441770D01*
X126833011Y-95587179D01*
X127035155Y-95695228D01*
X127146838Y-95729107D01*
X126971782Y-95774990D01*
X126712371Y-95901162D01*
X126482559Y-96075518D01*
X126291178Y-96291358D01*
X126145583Y-96540388D01*
X126061189Y-96773951D01*
X124860000Y-96773951D01*
X124860000Y-91211400D01*
X126317549Y-91211400D01*
X126317549Y-92938600D01*
X126323341Y-92997410D01*
X126340496Y-93053960D01*
X126368353Y-93106077D01*
X126405842Y-93151758D01*
X126451523Y-93189247D01*
X126503640Y-93217104D01*
X126560190Y-93234259D01*
X126619000Y-93240051D01*
X128651000Y-93240051D01*
X128709810Y-93234259D01*
X128766360Y-93217104D01*
X128818477Y-93189247D01*
X128864158Y-93151758D01*
X128901647Y-93106077D01*
X128929504Y-93053960D01*
X128946659Y-92997410D01*
X128952451Y-92938600D01*
X128952451Y-91211400D01*
X128946659Y-91152590D01*
X128929504Y-91096040D01*
X128901647Y-91043923D01*
X128864158Y-90998242D01*
X128818477Y-90960753D01*
X128766360Y-90932896D01*
X128709810Y-90915741D01*
X128651000Y-90909949D01*
X126619000Y-90909949D01*
X126560190Y-90915741D01*
X126503640Y-90932896D01*
X126451523Y-90960753D01*
X126405842Y-90998242D01*
X126368353Y-91043923D01*
X126340496Y-91096040D01*
X126323341Y-91152590D01*
X126317549Y-91211400D01*
X124860000Y-91211400D01*
X124860000Y-89329000D01*
X128228000Y-89329000D01*
X128241261Y-89416768D01*
X128279956Y-89530110D01*
X128340019Y-89633726D01*
X128419143Y-89723632D01*
X128514287Y-89796375D01*
X128621793Y-89849159D01*
X128737532Y-89879955D01*
X128857054Y-89887579D01*
X128980000Y-89885000D01*
X129132000Y-89733000D01*
X129132000Y-89177000D01*
X129440000Y-89177000D01*
X129440000Y-89733000D01*
X129592000Y-89885000D01*
X129714946Y-89887579D01*
X129834468Y-89879955D01*
X129950207Y-89849159D01*
X130057713Y-89796375D01*
X130152857Y-89723632D01*
X130231981Y-89633726D01*
X130292044Y-89530110D01*
X130330739Y-89416768D01*
X130338560Y-89365000D01*
X130459058Y-89365000D01*
X130462000Y-89459000D01*
X130614000Y-89611000D01*
X131291000Y-89611000D01*
X131291000Y-89591000D01*
X131599000Y-89591000D01*
X131599000Y-89611000D01*
X132276000Y-89611000D01*
X132428000Y-89459000D01*
X132430942Y-89365000D01*
X132419203Y-89245811D01*
X132384437Y-89131203D01*
X132327980Y-89025579D01*
X132252001Y-88932999D01*
X132159421Y-88857020D01*
X132080170Y-88814660D01*
X132098504Y-88780360D01*
X132115659Y-88723810D01*
X132121451Y-88665000D01*
X133681328Y-88665000D01*
X133692901Y-88723182D01*
X133745668Y-88850574D01*
X133822274Y-88965224D01*
X133919776Y-89062726D01*
X134034426Y-89139332D01*
X134161818Y-89192099D01*
X134297056Y-89219000D01*
X134434944Y-89219000D01*
X134570182Y-89192099D01*
X134697574Y-89139332D01*
X134812224Y-89062726D01*
X134909726Y-88965224D01*
X134986332Y-88850574D01*
X135039099Y-88723182D01*
X135066000Y-88587944D01*
X135066000Y-88450056D01*
X135039099Y-88314818D01*
X134986332Y-88187426D01*
X134909726Y-88072776D01*
X134812224Y-87975274D01*
X134697574Y-87898668D01*
X134570182Y-87845901D01*
X134434944Y-87819000D01*
X134297056Y-87819000D01*
X134161818Y-87845901D01*
X134118770Y-87863732D01*
X134112000Y-87863065D01*
X134092354Y-87865000D01*
X132121451Y-87865000D01*
X132115659Y-87806190D01*
X132098504Y-87749640D01*
X132070647Y-87697523D01*
X132033158Y-87651842D01*
X131987477Y-87614353D01*
X131935360Y-87586496D01*
X131878810Y-87569341D01*
X131820000Y-87563549D01*
X131070000Y-87563549D01*
X131011190Y-87569341D01*
X130954640Y-87586496D01*
X130902523Y-87614353D01*
X130856842Y-87651842D01*
X130819353Y-87697523D01*
X130791496Y-87749640D01*
X130774341Y-87806190D01*
X130768549Y-87865000D01*
X130768549Y-88665000D01*
X130774341Y-88723810D01*
X130791496Y-88780360D01*
X130809830Y-88814660D01*
X130730579Y-88857020D01*
X130637999Y-88932999D01*
X130562020Y-89025579D01*
X130505563Y-89131203D01*
X130470797Y-89245811D01*
X130459058Y-89365000D01*
X130338560Y-89365000D01*
X130344000Y-89329000D01*
X130192000Y-89177000D01*
X129440000Y-89177000D01*
X129132000Y-89177000D01*
X128380000Y-89177000D01*
X128228000Y-89329000D01*
X124860000Y-89329000D01*
X124860000Y-88725000D01*
X128228000Y-88725000D01*
X128380000Y-88877000D01*
X129132000Y-88877000D01*
X129132000Y-88321000D01*
X129440000Y-88321000D01*
X129440000Y-88877000D01*
X130192000Y-88877000D01*
X130344000Y-88725000D01*
X130330739Y-88637232D01*
X130292044Y-88523890D01*
X130231981Y-88420274D01*
X130152857Y-88330368D01*
X130057713Y-88257625D01*
X129950207Y-88204841D01*
X129834468Y-88174045D01*
X129714946Y-88166421D01*
X129592000Y-88169000D01*
X129440000Y-88321000D01*
X129132000Y-88321000D01*
X128980000Y-88169000D01*
X128857054Y-88166421D01*
X128737532Y-88174045D01*
X128621793Y-88204841D01*
X128514287Y-88257625D01*
X128419143Y-88330368D01*
X128340019Y-88420274D01*
X128279956Y-88523890D01*
X128241261Y-88637232D01*
X128228000Y-88725000D01*
X124860000Y-88725000D01*
X124860000Y-86799056D01*
X125792000Y-86799056D01*
X125792000Y-86936944D01*
X125818901Y-87072182D01*
X125871668Y-87199574D01*
X125948274Y-87314224D01*
X126045776Y-87411726D01*
X126160426Y-87488332D01*
X126287818Y-87541099D01*
X126423056Y-87568000D01*
X126560944Y-87568000D01*
X126615469Y-87557154D01*
X126854267Y-87795953D01*
X126866789Y-87811211D01*
X126882047Y-87823733D01*
X126882049Y-87823735D01*
X126927697Y-87861197D01*
X126997186Y-87898340D01*
X127072586Y-87921212D01*
X127151000Y-87928935D01*
X127170647Y-87927000D01*
X128576011Y-87927000D01*
X128585353Y-87944477D01*
X128622842Y-87990158D01*
X128668523Y-88027647D01*
X128720640Y-88055504D01*
X128777190Y-88072659D01*
X128836000Y-88078451D01*
X129736000Y-88078451D01*
X129794810Y-88072659D01*
X129851360Y-88055504D01*
X129903477Y-88027647D01*
X129949158Y-87990158D01*
X129986647Y-87944477D01*
X130014504Y-87892360D01*
X130031659Y-87835810D01*
X130037451Y-87777000D01*
X130037451Y-87277000D01*
X130031659Y-87218190D01*
X130014504Y-87161640D01*
X129986647Y-87109523D01*
X129949158Y-87063842D01*
X129903477Y-87026353D01*
X129851360Y-86998496D01*
X129794810Y-86981341D01*
X129736000Y-86975549D01*
X128836000Y-86975549D01*
X128777190Y-86981341D01*
X128720640Y-86998496D01*
X128668523Y-87026353D01*
X128622842Y-87063842D01*
X128585353Y-87109523D01*
X128576011Y-87127000D01*
X127316686Y-87127000D01*
X127181154Y-86991469D01*
X127192000Y-86936944D01*
X127192000Y-86799056D01*
X127165099Y-86663818D01*
X127112332Y-86536426D01*
X127035726Y-86421776D01*
X126938224Y-86324274D01*
X126823574Y-86247668D01*
X126696182Y-86194901D01*
X126560944Y-86168000D01*
X126423056Y-86168000D01*
X126287818Y-86194901D01*
X126160426Y-86247668D01*
X126045776Y-86324274D01*
X125948274Y-86421776D01*
X125871668Y-86536426D01*
X125818901Y-86663818D01*
X125792000Y-86799056D01*
X124860000Y-86799056D01*
X124860000Y-84625000D01*
X128554058Y-84625000D01*
X128565797Y-84744189D01*
X128600563Y-84858797D01*
X128657020Y-84964421D01*
X128732999Y-85057001D01*
X128825579Y-85132980D01*
X128904830Y-85175340D01*
X128886496Y-85209640D01*
X128869341Y-85266190D01*
X128863549Y-85325000D01*
X128863549Y-86125000D01*
X128869341Y-86183810D01*
X128886496Y-86240360D01*
X128914353Y-86292477D01*
X128951842Y-86338158D01*
X128997523Y-86375647D01*
X129049640Y-86403504D01*
X129106190Y-86420659D01*
X129165000Y-86426451D01*
X129915000Y-86426451D01*
X129973810Y-86420659D01*
X130030360Y-86403504D01*
X130082477Y-86375647D01*
X130128158Y-86338158D01*
X130165647Y-86292477D01*
X130193504Y-86240360D01*
X130199680Y-86220000D01*
X131198549Y-86220000D01*
X131198549Y-86820000D01*
X131204341Y-86878810D01*
X131221496Y-86935360D01*
X131249353Y-86987477D01*
X131286842Y-87033158D01*
X131332523Y-87070647D01*
X131384640Y-87098504D01*
X131441190Y-87115659D01*
X131500000Y-87121451D01*
X132800000Y-87121451D01*
X132858810Y-87115659D01*
X132915360Y-87098504D01*
X132967477Y-87070647D01*
X133013158Y-87033158D01*
X133050647Y-86987477D01*
X133078504Y-86935360D01*
X133095659Y-86878810D01*
X133101451Y-86820000D01*
X133101451Y-84855000D01*
X133598549Y-84855000D01*
X133598549Y-86820000D01*
X133604341Y-86878810D01*
X133621496Y-86935360D01*
X133649353Y-86987477D01*
X133686842Y-87033158D01*
X133732523Y-87070647D01*
X133784640Y-87098504D01*
X133841190Y-87115659D01*
X133900000Y-87121451D01*
X135200000Y-87121451D01*
X135258810Y-87115659D01*
X135315360Y-87098504D01*
X135367477Y-87070647D01*
X135413158Y-87033158D01*
X135450647Y-86987477D01*
X135478504Y-86935360D01*
X135495659Y-86878810D01*
X135501451Y-86820000D01*
X135501451Y-84855000D01*
X138264315Y-84855000D01*
X138820000Y-85410685D01*
X138820000Y-85887050D01*
X138749224Y-85816274D01*
X138634574Y-85739668D01*
X138507182Y-85686901D01*
X138371944Y-85660000D01*
X138234056Y-85660000D01*
X138098818Y-85686901D01*
X137971426Y-85739668D01*
X137856776Y-85816274D01*
X137759274Y-85913776D01*
X137702601Y-85998593D01*
X137651697Y-86025803D01*
X137606049Y-86063265D01*
X137606047Y-86063267D01*
X137590789Y-86075789D01*
X137578267Y-86091047D01*
X136951047Y-86718268D01*
X136935790Y-86730789D01*
X136923268Y-86746047D01*
X136923265Y-86746050D01*
X136885803Y-86791698D01*
X136848661Y-86861186D01*
X136825788Y-86936587D01*
X136818065Y-87015000D01*
X136820001Y-87034656D01*
X136820001Y-87093083D01*
X136816496Y-87099640D01*
X136799341Y-87156190D01*
X136793549Y-87215000D01*
X136793549Y-88215000D01*
X136799341Y-88273810D01*
X136816496Y-88330360D01*
X136844353Y-88382477D01*
X136881842Y-88428158D01*
X136927523Y-88465647D01*
X136979640Y-88493504D01*
X137036190Y-88510659D01*
X137095000Y-88516451D01*
X137345000Y-88516451D01*
X137403810Y-88510659D01*
X137460360Y-88493504D01*
X137470000Y-88488351D01*
X137479640Y-88493504D01*
X137536190Y-88510659D01*
X137595000Y-88516451D01*
X137845000Y-88516451D01*
X137903810Y-88510659D01*
X137960360Y-88493504D01*
X137970000Y-88488351D01*
X137979640Y-88493504D01*
X138036190Y-88510659D01*
X138095000Y-88516451D01*
X138345000Y-88516451D01*
X138403810Y-88510659D01*
X138460360Y-88493504D01*
X138470000Y-88488351D01*
X138479640Y-88493504D01*
X138536190Y-88510659D01*
X138595000Y-88516451D01*
X138845000Y-88516451D01*
X138903810Y-88510659D01*
X138960360Y-88493504D01*
X138970000Y-88488351D01*
X138979640Y-88493504D01*
X139036190Y-88510659D01*
X139095000Y-88516451D01*
X139345000Y-88516451D01*
X139403810Y-88510659D01*
X139460360Y-88493504D01*
X139470000Y-88488351D01*
X139479640Y-88493504D01*
X139536190Y-88510659D01*
X139595000Y-88516451D01*
X139845000Y-88516451D01*
X139903810Y-88510659D01*
X139960360Y-88493504D01*
X139970000Y-88488351D01*
X139979640Y-88493504D01*
X140036190Y-88510659D01*
X140095000Y-88516451D01*
X140345000Y-88516451D01*
X140403810Y-88510659D01*
X140460360Y-88493504D01*
X140470000Y-88488351D01*
X140479640Y-88493504D01*
X140536190Y-88510659D01*
X140595000Y-88516451D01*
X140845000Y-88516451D01*
X140903810Y-88510659D01*
X140960360Y-88493504D01*
X140970000Y-88488351D01*
X140979640Y-88493504D01*
X141036190Y-88510659D01*
X141095000Y-88516451D01*
X141345000Y-88516451D01*
X141403810Y-88510659D01*
X141460360Y-88493504D01*
X141470000Y-88488351D01*
X141479640Y-88493504D01*
X141536190Y-88510659D01*
X141595000Y-88516451D01*
X141845000Y-88516451D01*
X141903810Y-88510659D01*
X141960360Y-88493504D01*
X141970000Y-88488351D01*
X141979640Y-88493504D01*
X142036190Y-88510659D01*
X142064270Y-88513424D01*
X142076315Y-88537825D01*
X142149262Y-88632813D01*
X142239338Y-88711744D01*
X142343081Y-88771585D01*
X142456506Y-88810038D01*
X142543000Y-88823000D01*
X142695000Y-88671000D01*
X142695000Y-87869000D01*
X142646451Y-87869000D01*
X142646451Y-87561000D01*
X142695000Y-87561000D01*
X142695000Y-86759000D01*
X142543000Y-86607000D01*
X142456506Y-86619962D01*
X142343081Y-86658415D01*
X142239338Y-86718256D01*
X142149262Y-86797187D01*
X142076315Y-86892175D01*
X142064270Y-86916576D01*
X142036190Y-86919341D01*
X141979640Y-86936496D01*
X141970000Y-86941649D01*
X141960360Y-86936496D01*
X141903810Y-86919341D01*
X141845000Y-86913549D01*
X141595000Y-86913549D01*
X141536190Y-86919341D01*
X141479640Y-86936496D01*
X141470000Y-86941649D01*
X141460360Y-86936496D01*
X141403810Y-86919341D01*
X141345000Y-86913549D01*
X141095000Y-86913549D01*
X141036190Y-86919341D01*
X140979640Y-86936496D01*
X140970000Y-86941649D01*
X140960360Y-86936496D01*
X140903810Y-86919341D01*
X140845000Y-86913549D01*
X140595000Y-86913549D01*
X140536190Y-86919341D01*
X140479640Y-86936496D01*
X140470000Y-86941649D01*
X140460360Y-86936496D01*
X140403810Y-86919341D01*
X140345000Y-86913549D01*
X140120000Y-86913549D01*
X140120000Y-85129635D01*
X140121934Y-85109999D01*
X140120000Y-85090363D01*
X140120000Y-85090353D01*
X140114212Y-85031586D01*
X140091340Y-84956186D01*
X140054197Y-84886697D01*
X140004211Y-84825789D01*
X139988949Y-84813264D01*
X138726737Y-83551052D01*
X138714211Y-83535789D01*
X138653303Y-83485803D01*
X138583814Y-83448660D01*
X138508414Y-83425788D01*
X138449647Y-83420000D01*
X138449646Y-83420000D01*
X138430000Y-83418065D01*
X138410354Y-83420000D01*
X135515686Y-83420000D01*
X135215600Y-83119915D01*
X135258810Y-83115659D01*
X135315360Y-83098504D01*
X135367477Y-83070647D01*
X135413158Y-83033158D01*
X135450647Y-82987477D01*
X135478504Y-82935360D01*
X135495659Y-82878810D01*
X135501451Y-82820000D01*
X135501451Y-82527341D01*
X137286194Y-82527341D01*
X137335964Y-82657197D01*
X137442613Y-82840708D01*
X137583014Y-82999887D01*
X137751772Y-83128617D01*
X137942401Y-83221950D01*
X138147575Y-83276300D01*
X138316900Y-83138256D01*
X138316900Y-82361540D01*
X138624900Y-82361540D01*
X138624900Y-83138256D01*
X138794225Y-83276300D01*
X138999399Y-83221950D01*
X139190028Y-83128617D01*
X139358786Y-82999887D01*
X139499187Y-82840708D01*
X139605836Y-82657197D01*
X139655606Y-82527341D01*
X142286194Y-82527341D01*
X142335964Y-82657197D01*
X142442613Y-82840708D01*
X142583014Y-82999887D01*
X142751772Y-83128617D01*
X142942401Y-83221950D01*
X143147575Y-83276300D01*
X143316900Y-83138256D01*
X143316900Y-82361540D01*
X143624900Y-82361540D01*
X143624900Y-83138256D01*
X143794225Y-83276300D01*
X143999399Y-83221950D01*
X144190028Y-83128617D01*
X144358786Y-82999887D01*
X144499187Y-82840708D01*
X144605836Y-82657197D01*
X144655606Y-82527341D01*
X144539075Y-82361540D01*
X143624900Y-82361540D01*
X143316900Y-82361540D01*
X142402725Y-82361540D01*
X142286194Y-82527341D01*
X139655606Y-82527341D01*
X139539075Y-82361540D01*
X138624900Y-82361540D01*
X138316900Y-82361540D01*
X137402725Y-82361540D01*
X137286194Y-82527341D01*
X135501451Y-82527341D01*
X135501451Y-81887739D01*
X137286194Y-81887739D01*
X137402725Y-82053540D01*
X138316900Y-82053540D01*
X138316900Y-81276824D01*
X138624900Y-81276824D01*
X138624900Y-82053540D01*
X139539075Y-82053540D01*
X139655606Y-81887739D01*
X142286194Y-81887739D01*
X142402725Y-82053540D01*
X143316900Y-82053540D01*
X143316900Y-81276824D01*
X143624900Y-81276824D01*
X143624900Y-82053540D01*
X144539075Y-82053540D01*
X144655606Y-81887739D01*
X144605836Y-81757883D01*
X144499187Y-81574372D01*
X144358786Y-81415193D01*
X144190028Y-81286463D01*
X143999399Y-81193130D01*
X143794225Y-81138780D01*
X143624900Y-81276824D01*
X143316900Y-81276824D01*
X143147575Y-81138780D01*
X142942401Y-81193130D01*
X142751772Y-81286463D01*
X142583014Y-81415193D01*
X142442613Y-81574372D01*
X142335964Y-81757883D01*
X142286194Y-81887739D01*
X139655606Y-81887739D01*
X139605836Y-81757883D01*
X139499187Y-81574372D01*
X139358786Y-81415193D01*
X139190028Y-81286463D01*
X138999399Y-81193130D01*
X138794225Y-81138780D01*
X138624900Y-81276824D01*
X138316900Y-81276824D01*
X138147575Y-81138780D01*
X137942401Y-81193130D01*
X137751772Y-81286463D01*
X137583014Y-81415193D01*
X137442613Y-81574372D01*
X137335964Y-81757883D01*
X137286194Y-81887739D01*
X135501451Y-81887739D01*
X135501451Y-80820000D01*
X135495659Y-80761190D01*
X135478504Y-80704640D01*
X135450647Y-80652523D01*
X135413158Y-80606842D01*
X135367477Y-80569353D01*
X135315360Y-80541496D01*
X135258810Y-80524341D01*
X135200000Y-80518549D01*
X134500000Y-80518549D01*
X134500000Y-79837669D01*
X136349345Y-79837669D01*
X136381650Y-80055414D01*
X136455815Y-80262673D01*
X136568989Y-80451481D01*
X136716823Y-80614582D01*
X136893636Y-80745708D01*
X137092633Y-80839820D01*
X137147149Y-80842186D01*
X137316900Y-80726055D01*
X137316900Y-79661540D01*
X137624900Y-79661540D01*
X137624900Y-80726055D01*
X137794651Y-80842186D01*
X137849167Y-80839820D01*
X138048164Y-80745708D01*
X138224977Y-80614582D01*
X138372811Y-80451481D01*
X138485985Y-80262673D01*
X138560150Y-80055414D01*
X138592455Y-79837669D01*
X143349345Y-79837669D01*
X143381650Y-80055414D01*
X143455815Y-80262673D01*
X143568989Y-80451481D01*
X143716823Y-80614582D01*
X143893636Y-80745708D01*
X144092633Y-80839820D01*
X144147149Y-80842186D01*
X144316900Y-80726055D01*
X144316900Y-79661540D01*
X144624900Y-79661540D01*
X144624900Y-80726055D01*
X144794651Y-80842186D01*
X144849167Y-80839820D01*
X145048164Y-80745708D01*
X145224977Y-80614582D01*
X145372811Y-80451481D01*
X145485985Y-80262673D01*
X145560150Y-80055414D01*
X145592455Y-79837669D01*
X145435271Y-79661540D01*
X144624900Y-79661540D01*
X144316900Y-79661540D01*
X143506529Y-79661540D01*
X143349345Y-79837669D01*
X138592455Y-79837669D01*
X138435271Y-79661540D01*
X137624900Y-79661540D01*
X137316900Y-79661540D01*
X136506529Y-79661540D01*
X136349345Y-79837669D01*
X134500000Y-79837669D01*
X134500000Y-79416451D01*
X134558810Y-79410659D01*
X134615360Y-79393504D01*
X134667477Y-79365647D01*
X134713158Y-79328158D01*
X134750647Y-79282477D01*
X134778504Y-79230360D01*
X134794566Y-79177411D01*
X136349345Y-79177411D01*
X136506529Y-79353540D01*
X137316900Y-79353540D01*
X137316900Y-78289025D01*
X137624900Y-78289025D01*
X137624900Y-79353540D01*
X138435271Y-79353540D01*
X138592455Y-79177411D01*
X143349345Y-79177411D01*
X143506529Y-79353540D01*
X144316900Y-79353540D01*
X144316900Y-78289025D01*
X144624900Y-78289025D01*
X144624900Y-79353540D01*
X145435271Y-79353540D01*
X145592455Y-79177411D01*
X145560150Y-78959666D01*
X145485985Y-78752407D01*
X145372811Y-78563599D01*
X145224977Y-78400498D01*
X145048164Y-78269372D01*
X144849167Y-78175260D01*
X144794651Y-78172894D01*
X144624900Y-78289025D01*
X144316900Y-78289025D01*
X144147149Y-78172894D01*
X144092633Y-78175260D01*
X143893636Y-78269372D01*
X143716823Y-78400498D01*
X143568989Y-78563599D01*
X143455815Y-78752407D01*
X143381650Y-78959666D01*
X143349345Y-79177411D01*
X138592455Y-79177411D01*
X138560150Y-78959666D01*
X138485985Y-78752407D01*
X138372811Y-78563599D01*
X138224977Y-78400498D01*
X138048164Y-78269372D01*
X137849167Y-78175260D01*
X137794651Y-78172894D01*
X137624900Y-78289025D01*
X137316900Y-78289025D01*
X137147149Y-78172894D01*
X137092633Y-78175260D01*
X136893636Y-78269372D01*
X136716823Y-78400498D01*
X136568989Y-78563599D01*
X136455815Y-78752407D01*
X136381650Y-78959666D01*
X136349345Y-79177411D01*
X134794566Y-79177411D01*
X134795659Y-79173810D01*
X134801451Y-79115000D01*
X134801451Y-78365000D01*
X134795659Y-78306190D01*
X134778504Y-78249640D01*
X134750647Y-78197523D01*
X134713158Y-78151842D01*
X134667477Y-78114353D01*
X134615360Y-78086496D01*
X134558810Y-78069341D01*
X134500000Y-78063549D01*
X133700000Y-78063549D01*
X133641190Y-78069341D01*
X133584640Y-78086496D01*
X133550340Y-78104830D01*
X133507980Y-78025579D01*
X133432001Y-77932999D01*
X133339421Y-77857020D01*
X133233797Y-77800563D01*
X133119189Y-77765797D01*
X133000000Y-77754058D01*
X132906000Y-77757000D01*
X132754000Y-77909000D01*
X132754000Y-78586000D01*
X132774000Y-78586000D01*
X132774000Y-78894000D01*
X132754000Y-78894000D01*
X132754000Y-79571000D01*
X132906000Y-79723000D01*
X133000000Y-79725942D01*
X133119189Y-79714203D01*
X133233797Y-79679437D01*
X133339421Y-79622980D01*
X133432001Y-79547001D01*
X133507980Y-79454421D01*
X133550340Y-79375170D01*
X133584640Y-79393504D01*
X133641190Y-79410659D01*
X133700000Y-79416451D01*
X133700001Y-80596043D01*
X133686842Y-80606842D01*
X133649353Y-80652523D01*
X133621496Y-80704640D01*
X133604341Y-80761190D01*
X133598549Y-80820000D01*
X133598549Y-82820000D01*
X133604341Y-82878810D01*
X133621496Y-82935360D01*
X133649353Y-82987477D01*
X133686842Y-83033158D01*
X133732523Y-83070647D01*
X133784640Y-83098504D01*
X133841190Y-83115659D01*
X133900000Y-83121451D01*
X134162777Y-83121451D01*
X134178661Y-83173814D01*
X134215803Y-83243302D01*
X134253265Y-83288950D01*
X134253268Y-83288953D01*
X134265790Y-83304211D01*
X134281047Y-83316733D01*
X135019314Y-84055000D01*
X132334635Y-84055000D01*
X132314999Y-84053066D01*
X132295363Y-84055000D01*
X132295353Y-84055000D01*
X132236586Y-84060788D01*
X132161186Y-84083660D01*
X132091697Y-84120803D01*
X132030789Y-84170789D01*
X132018263Y-84186052D01*
X131881048Y-84323267D01*
X131865790Y-84335789D01*
X131853268Y-84351047D01*
X131853265Y-84351050D01*
X131815803Y-84396698D01*
X131778661Y-84466186D01*
X131762777Y-84518549D01*
X131500000Y-84518549D01*
X131441190Y-84524341D01*
X131384640Y-84541496D01*
X131332523Y-84569353D01*
X131286842Y-84606842D01*
X131249353Y-84652523D01*
X131221496Y-84704640D01*
X131204341Y-84761190D01*
X131198549Y-84820000D01*
X131198549Y-85420000D01*
X130216451Y-85420000D01*
X130216451Y-85325000D01*
X130210659Y-85266190D01*
X130193504Y-85209640D01*
X130175170Y-85175340D01*
X130254421Y-85132980D01*
X130347001Y-85057001D01*
X130422980Y-84964421D01*
X130479437Y-84858797D01*
X130514203Y-84744189D01*
X130525942Y-84625000D01*
X130523000Y-84531000D01*
X130371000Y-84379000D01*
X129694000Y-84379000D01*
X129694000Y-84399000D01*
X129386000Y-84399000D01*
X129386000Y-84379000D01*
X128709000Y-84379000D01*
X128557000Y-84531000D01*
X128554058Y-84625000D01*
X124860000Y-84625000D01*
X124860000Y-83825000D01*
X128554058Y-83825000D01*
X128557000Y-83919000D01*
X128709000Y-84071000D01*
X129386000Y-84071000D01*
X129386000Y-83369000D01*
X129694000Y-83369000D01*
X129694000Y-84071000D01*
X130371000Y-84071000D01*
X130523000Y-83919000D01*
X130525942Y-83825000D01*
X130514203Y-83705811D01*
X130479437Y-83591203D01*
X130422980Y-83485579D01*
X130347001Y-83392999D01*
X130254421Y-83317020D01*
X130148797Y-83260563D01*
X130034189Y-83225797D01*
X129915000Y-83214058D01*
X129846000Y-83217000D01*
X129694000Y-83369000D01*
X129386000Y-83369000D01*
X129234000Y-83217000D01*
X129165000Y-83214058D01*
X129045811Y-83225797D01*
X128931203Y-83260563D01*
X128825579Y-83317020D01*
X128732999Y-83392999D01*
X128657020Y-83485579D01*
X128600563Y-83591203D01*
X128565797Y-83705811D01*
X128554058Y-83825000D01*
X124860000Y-83825000D01*
X124860000Y-80029563D01*
X124887026Y-79753922D01*
X125035000Y-79753922D01*
X125035000Y-80266078D01*
X125134917Y-80768392D01*
X125330910Y-81241562D01*
X125615448Y-81667403D01*
X125977597Y-82029552D01*
X126403438Y-82314090D01*
X126876608Y-82510083D01*
X127378922Y-82610000D01*
X127891078Y-82610000D01*
X128393392Y-82510083D01*
X128866562Y-82314090D01*
X129292403Y-82029552D01*
X129654552Y-81667403D01*
X129939090Y-81241562D01*
X130113706Y-80820000D01*
X131198549Y-80820000D01*
X131198549Y-82820000D01*
X131204341Y-82878810D01*
X131221496Y-82935360D01*
X131249353Y-82987477D01*
X131286842Y-83033158D01*
X131332523Y-83070647D01*
X131384640Y-83098504D01*
X131441190Y-83115659D01*
X131500000Y-83121451D01*
X132800000Y-83121451D01*
X132858810Y-83115659D01*
X132915360Y-83098504D01*
X132967477Y-83070647D01*
X133013158Y-83033158D01*
X133050647Y-82987477D01*
X133078504Y-82935360D01*
X133095659Y-82878810D01*
X133101451Y-82820000D01*
X133101451Y-80820000D01*
X133095659Y-80761190D01*
X133078504Y-80704640D01*
X133050647Y-80652523D01*
X133013158Y-80606842D01*
X132967477Y-80569353D01*
X132915360Y-80541496D01*
X132858810Y-80524341D01*
X132800000Y-80518549D01*
X131500000Y-80518549D01*
X131441190Y-80524341D01*
X131384640Y-80541496D01*
X131332523Y-80569353D01*
X131286842Y-80606842D01*
X131249353Y-80652523D01*
X131221496Y-80704640D01*
X131204341Y-80761190D01*
X131198549Y-80820000D01*
X130113706Y-80820000D01*
X130135083Y-80768392D01*
X130235000Y-80266078D01*
X130235000Y-79753922D01*
X130135083Y-79251608D01*
X130078499Y-79115000D01*
X131589058Y-79115000D01*
X131600797Y-79234189D01*
X131635563Y-79348797D01*
X131692020Y-79454421D01*
X131767999Y-79547001D01*
X131860579Y-79622980D01*
X131966203Y-79679437D01*
X132080811Y-79714203D01*
X132200000Y-79725942D01*
X132294000Y-79723000D01*
X132446000Y-79571000D01*
X132446000Y-78894000D01*
X131744000Y-78894000D01*
X131592000Y-79046000D01*
X131589058Y-79115000D01*
X130078499Y-79115000D01*
X129939090Y-78778438D01*
X129662840Y-78365000D01*
X131589058Y-78365000D01*
X131592000Y-78434000D01*
X131744000Y-78586000D01*
X132446000Y-78586000D01*
X132446000Y-77909000D01*
X132294000Y-77757000D01*
X132200000Y-77754058D01*
X132080811Y-77765797D01*
X131966203Y-77800563D01*
X131860579Y-77857020D01*
X131767999Y-77932999D01*
X131692020Y-78025579D01*
X131635563Y-78131203D01*
X131600797Y-78245811D01*
X131589058Y-78365000D01*
X129662840Y-78365000D01*
X129654552Y-78352597D01*
X129292403Y-77990448D01*
X128866562Y-77705910D01*
X128393392Y-77509917D01*
X127891078Y-77410000D01*
X127378922Y-77410000D01*
X126876608Y-77509917D01*
X126403438Y-77705910D01*
X125977597Y-77990448D01*
X125615448Y-78352597D01*
X125330910Y-78778438D01*
X125134917Y-79251608D01*
X125035000Y-79753922D01*
X124887026Y-79753922D01*
X124914731Y-79471374D01*
X125071158Y-78953261D01*
X125325241Y-78475401D01*
X125667303Y-78055991D01*
X126084314Y-77711010D01*
X126560384Y-77453599D01*
X127077392Y-77293559D01*
X127634489Y-77235005D01*
X127635813Y-77235000D01*
X154285437Y-77235000D01*
X154843626Y-77289731D01*
G36*
X147751967Y-97046955D02*
G01*
X147751968Y-98656323D01*
X147305052Y-99103240D01*
X147289789Y-99115766D01*
X147239803Y-99176675D01*
X147212000Y-99228690D01*
X147212000Y-98864847D01*
X147213935Y-98845200D01*
X147206212Y-98766786D01*
X147183340Y-98691386D01*
X147146197Y-98621897D01*
X147137792Y-98611655D01*
X147096211Y-98560989D01*
X147080948Y-98548463D01*
X146118904Y-97586419D01*
X146170000Y-97591451D01*
X147170000Y-97591451D01*
X147228810Y-97585659D01*
X147285360Y-97568504D01*
X147337477Y-97540647D01*
X147383158Y-97503158D01*
X147420647Y-97457477D01*
X147448504Y-97405360D01*
X147465659Y-97348810D01*
X147468424Y-97320730D01*
X147492825Y-97308685D01*
X147587813Y-97235738D01*
X147666744Y-97145662D01*
X147726585Y-97041919D01*
X147731736Y-97026724D01*
X147751967Y-97046955D01*
G37*
X147751967Y-97046955D02*
X147751968Y-98656323D01*
X147305052Y-99103240D01*
X147289789Y-99115766D01*
X147239803Y-99176675D01*
X147212000Y-99228690D01*
X147212000Y-98864847D01*
X147213935Y-98845200D01*
X147206212Y-98766786D01*
X147183340Y-98691386D01*
X147146197Y-98621897D01*
X147137792Y-98611655D01*
X147096211Y-98560989D01*
X147080948Y-98548463D01*
X146118904Y-97586419D01*
X146170000Y-97591451D01*
X147170000Y-97591451D01*
X147228810Y-97585659D01*
X147285360Y-97568504D01*
X147337477Y-97540647D01*
X147383158Y-97503158D01*
X147420647Y-97457477D01*
X147448504Y-97405360D01*
X147465659Y-97348810D01*
X147468424Y-97320730D01*
X147492825Y-97308685D01*
X147587813Y-97235738D01*
X147666744Y-97145662D01*
X147726585Y-97041919D01*
X147731736Y-97026724D01*
X147751967Y-97046955D01*
G36*
X146824000Y-96640000D02*
G01*
X146844000Y-96640000D01*
X146844000Y-96690000D01*
X146824000Y-96690000D01*
X146824000Y-96738549D01*
X146516000Y-96738549D01*
X146516000Y-96690000D01*
X146496000Y-96690000D01*
X146496000Y-96640000D01*
X146516000Y-96640000D01*
X146516000Y-96591451D01*
X146824000Y-96591451D01*
X146824000Y-96640000D01*
G37*
X146824000Y-96640000D02*
X146844000Y-96640000D01*
X146844000Y-96690000D01*
X146824000Y-96690000D01*
X146824000Y-96738549D01*
X146516000Y-96738549D01*
X146516000Y-96690000D01*
X146496000Y-96690000D01*
X146496000Y-96640000D01*
X146516000Y-96640000D01*
X146516000Y-96591451D01*
X146824000Y-96591451D01*
X146824000Y-96640000D01*
M02*
