G04 #@! TF.GenerationSoftware,KiCad,Pcbnew,5.1.5*
G04 #@! TF.CreationDate,2020-03-16T00:35:52-04:00*
G04 #@! TF.ProjectId,dot-driver,646f742d-6472-4697-9665-722e6b696361,rev?*
G04 #@! TF.SameCoordinates,Original*
G04 #@! TF.FileFunction,Paste,Top*
G04 #@! TF.FilePolarity,Positive*
%FSLAX46Y46*%
G04 Gerber Fmt 4.6, Leading zero omitted, Abs format (unit mm)*
G04 Created by KiCad (PCBNEW 5.1.5) date 2020-03-16 00:35:52*
%MOMM*%
%LPD*%
G04 APERTURE LIST*
%ADD10R,0.797560X0.797560*%
%ADD11R,1.900000X1.300000*%
%ADD12R,2.800000X1.000000*%
%ADD13R,0.800000X1.000000*%
%ADD14R,1.200000X1.000000*%
%ADD15R,1.200000X0.700000*%
%ADD16R,0.400000X1.350000*%
%ADD17R,1.700000X1.000000*%
G04 APERTURE END LIST*
D10*
X132080000Y-102641400D03*
X132080000Y-104140000D03*
X149860000Y-102641400D03*
X149860000Y-104140000D03*
X134620000Y-102755700D03*
X134620000Y-104254300D03*
X139700000Y-104140000D03*
X139700000Y-102641400D03*
X147599400Y-78867000D03*
X149098000Y-78867000D03*
D11*
X150885000Y-84765000D03*
D12*
X150435000Y-98265000D03*
D13*
X146285000Y-98265000D03*
D14*
X140085000Y-98265000D03*
X135785000Y-87115000D03*
D15*
X135785000Y-95265000D03*
X135785000Y-94165000D03*
X135785000Y-93065000D03*
X135785000Y-91965000D03*
X135785000Y-90865000D03*
X135785000Y-89765000D03*
X135785000Y-88665000D03*
X135785000Y-96365000D03*
X135785000Y-97315000D03*
D10*
X142240000Y-104140000D03*
X142240000Y-102641400D03*
X137160000Y-104140000D03*
X137160000Y-102641400D03*
X144780000Y-102641400D03*
X144780000Y-104140000D03*
X147320000Y-104254300D03*
X147320000Y-102755700D03*
D16*
X142270900Y-82207540D03*
X141620900Y-82207540D03*
X140970900Y-82207540D03*
X140320900Y-82207540D03*
X139670900Y-82207540D03*
D17*
X126390000Y-84460000D03*
X132690000Y-84460000D03*
X126390000Y-88260000D03*
X132690000Y-88260000D03*
M02*
