G04 #@! TF.GenerationSoftware,KiCad,Pcbnew,5.1.5*
G04 #@! TF.CreationDate,2020-03-16T00:35:52-04:00*
G04 #@! TF.ProjectId,dot-driver,646f742d-6472-4697-9665-722e6b696361,rev?*
G04 #@! TF.SameCoordinates,Original*
G04 #@! TF.FileFunction,Copper,L1,Top*
G04 #@! TF.FilePolarity,Positive*
%FSLAX46Y46*%
G04 Gerber Fmt 4.6, Leading zero omitted, Abs format (unit mm)*
G04 Created by KiCad (PCBNEW 5.1.5) date 2020-03-16 00:35:52*
%MOMM*%
%LPD*%
G04 APERTURE LIST*
%ADD10R,0.797560X0.797560*%
%ADD11O,1.727200X1.727200*%
%ADD12R,1.727200X1.727200*%
%ADD13R,1.900000X1.300000*%
%ADD14R,2.800000X1.000000*%
%ADD15R,0.800000X1.000000*%
%ADD16R,1.200000X1.000000*%
%ADD17R,1.200000X0.700000*%
%ADD18O,2.032000X2.032000*%
%ADD19R,2.032000X2.032000*%
%ADD20R,2.032000X1.727200*%
%ADD21O,2.032000X1.727200*%
%ADD22R,2.235200X2.235200*%
%ADD23R,0.400000X1.350000*%
%ADD24O,1.250000X0.950000*%
%ADD25O,1.000000X1.550000*%
%ADD26R,1.700000X1.000000*%
%ADD27C,0.800000*%
%ADD28C,0.200000*%
%ADD29C,0.500000*%
G04 APERTURE END LIST*
D10*
X132080000Y-102641400D03*
X132080000Y-104140000D03*
X149860000Y-102641400D03*
X149860000Y-104140000D03*
D11*
X139700000Y-107315000D03*
X139700000Y-109855000D03*
D12*
X139700000Y-112395000D03*
D10*
X134620000Y-102755700D03*
X134620000Y-104254300D03*
X139700000Y-104140000D03*
X139700000Y-102641400D03*
X147599400Y-78867000D03*
X149098000Y-78867000D03*
D13*
X150885000Y-84765000D03*
D14*
X150435000Y-98265000D03*
D15*
X146285000Y-98265000D03*
D16*
X140085000Y-98265000D03*
X135785000Y-87115000D03*
D17*
X135785000Y-95265000D03*
X135785000Y-94165000D03*
X135785000Y-93065000D03*
X135785000Y-91965000D03*
X135785000Y-90865000D03*
X135785000Y-89765000D03*
X135785000Y-88665000D03*
X135785000Y-96365000D03*
X135785000Y-97315000D03*
D18*
X131445000Y-94615000D03*
D19*
X131445000Y-92075000D03*
D10*
X142240000Y-104140000D03*
X142240000Y-102641400D03*
X137160000Y-104140000D03*
X137160000Y-102641400D03*
D12*
X149860000Y-112395000D03*
D11*
X149860000Y-109855000D03*
X149860000Y-107315000D03*
X147320000Y-107315000D03*
X147320000Y-109855000D03*
D12*
X147320000Y-112395000D03*
D11*
X144780000Y-107315000D03*
X144780000Y-109855000D03*
D12*
X144780000Y-112395000D03*
X142240000Y-112395000D03*
D11*
X142240000Y-109855000D03*
X142240000Y-107315000D03*
D12*
X137160000Y-112395000D03*
D11*
X137160000Y-109855000D03*
X137160000Y-107315000D03*
X134620000Y-107315000D03*
X134620000Y-109855000D03*
D12*
X134620000Y-112395000D03*
X132080000Y-112395000D03*
D11*
X132080000Y-109855000D03*
X132080000Y-107315000D03*
D20*
X127635000Y-92075000D03*
D21*
X127635000Y-94615000D03*
X127635000Y-97155000D03*
X127635000Y-99695000D03*
D10*
X144780000Y-102641400D03*
X144780000Y-104140000D03*
X147320000Y-104254300D03*
X147320000Y-102755700D03*
D22*
X127635000Y-103505000D03*
X154305000Y-103505000D03*
X127635000Y-107950000D03*
X154305000Y-107950000D03*
D23*
X142270900Y-82207540D03*
X141620900Y-82207540D03*
X140970900Y-82207540D03*
X140320900Y-82207540D03*
X139670900Y-82207540D03*
D24*
X143470900Y-82207540D03*
X138470900Y-82207540D03*
D25*
X144470900Y-79507540D03*
X137470900Y-79507540D03*
D26*
X126390000Y-84460000D03*
X132690000Y-84460000D03*
X126390000Y-88260000D03*
X132690000Y-88260000D03*
D27*
X139700000Y-83820000D03*
X137160000Y-85725000D03*
X137795000Y-92710000D03*
X147451957Y-98298000D03*
X145288000Y-90170000D03*
X143256000Y-89154000D03*
X137414000Y-95758000D03*
X146431000Y-78867000D03*
X149225000Y-85852000D03*
X150876000Y-97028000D03*
X147955000Y-90805000D03*
X147320000Y-85725000D03*
X145420010Y-95884934D03*
X137414000Y-97028000D03*
X134366000Y-88519000D03*
X138303000Y-86360000D03*
X137541000Y-89789000D03*
X140100010Y-96754990D03*
X146304000Y-81788000D03*
X150622000Y-78994000D03*
X139420010Y-96012500D03*
X138609145Y-95422541D03*
X130960015Y-100226015D03*
X132989419Y-98693388D03*
X137922000Y-101191358D03*
X139822798Y-101642608D03*
X142423341Y-100978487D03*
X144780000Y-101092000D03*
X146305685Y-100799969D03*
X148590000Y-99822000D03*
X133858004Y-97536000D03*
X139171937Y-100257111D03*
X131572000Y-98806000D03*
X136770066Y-101191352D03*
X133604000Y-91186000D03*
X126492000Y-86868000D03*
X137234488Y-100305725D03*
X140623318Y-100330000D03*
X143877975Y-100392000D03*
X145540001Y-100156734D03*
X146812000Y-99822000D03*
X150368000Y-100330000D03*
X138684000Y-91313000D03*
X137087890Y-92002879D03*
X137655115Y-93839850D03*
X138459658Y-94433765D03*
X150922701Y-99497949D03*
X132080000Y-105410000D03*
X134620000Y-105410000D03*
X137160000Y-105410000D03*
X139700000Y-105442685D03*
X142240000Y-105410000D03*
X144649988Y-105390526D03*
X146050000Y-105410000D03*
X152146000Y-102870000D03*
D28*
X139670900Y-82207540D02*
X139670900Y-83790900D01*
X139670900Y-83790900D02*
X139700000Y-83820000D01*
X137160000Y-85840000D02*
X137160000Y-85725000D01*
X135885000Y-87115000D02*
X137160000Y-85840000D01*
X135600000Y-93980000D02*
X135785000Y-94165000D01*
X150435000Y-98265000D02*
X147484957Y-98265000D01*
X147484957Y-98265000D02*
X147451957Y-98298000D01*
X135785000Y-97315000D02*
X136585000Y-97315000D01*
X136713998Y-97186002D02*
X136713998Y-96458002D01*
X137014001Y-96157999D02*
X137414000Y-95758000D01*
X136713998Y-96458002D02*
X137014001Y-96157999D01*
X136585000Y-97315000D02*
X136713998Y-97186002D01*
X147599400Y-78867000D02*
X146431000Y-78867000D01*
X149352000Y-85852000D02*
X149225000Y-85852000D01*
X150885000Y-84765000D02*
X150439000Y-84765000D01*
X150439000Y-84765000D02*
X149352000Y-85852000D01*
X135785000Y-87115000D02*
X135885000Y-87115000D01*
X137922000Y-95758000D02*
X137414000Y-95758000D01*
X140085000Y-98265000D02*
X140085000Y-97921000D01*
X140085000Y-97921000D02*
X137922000Y-95758000D01*
X137604500Y-92710000D02*
X137795000Y-92710000D01*
X135785000Y-94165000D02*
X136149500Y-94165000D01*
X136149500Y-94165000D02*
X137604500Y-92710000D01*
X150435000Y-97469000D02*
X150876000Y-97028000D01*
X150435000Y-98265000D02*
X150435000Y-97469000D01*
X153670000Y-102870000D02*
X154305000Y-103505000D01*
X137414000Y-97282000D02*
X137414000Y-97028000D01*
X140100010Y-96920010D02*
X140335000Y-96685020D01*
X140184024Y-85867390D02*
X142270900Y-83780514D01*
X140184024Y-96105291D02*
X140184024Y-85867390D01*
X142270900Y-83082540D02*
X142270900Y-82207540D01*
X140100010Y-96754990D02*
X140100010Y-96189305D01*
X140100010Y-96189305D02*
X140184024Y-96105291D01*
X142270900Y-83780514D02*
X142270900Y-83082540D01*
D29*
X142270900Y-83382540D02*
X142270900Y-82207540D01*
X146304000Y-81788000D02*
X146304000Y-82296000D01*
X146304000Y-82296000D02*
X144780000Y-83820000D01*
X144780000Y-83820000D02*
X142708360Y-83820000D01*
X142708360Y-83820000D02*
X142270900Y-83382540D01*
D28*
X149098000Y-78867000D02*
X150495000Y-78867000D01*
X150495000Y-78867000D02*
X150622000Y-78994000D01*
X141620900Y-82207540D02*
X141620900Y-83864816D01*
X139420010Y-95446815D02*
X139420010Y-96012500D01*
X139784013Y-95082812D02*
X139420010Y-95446815D01*
X139784013Y-85701703D02*
X139784013Y-95082812D01*
X141620900Y-83864816D02*
X139784013Y-85701703D01*
X139384002Y-94647684D02*
X139009144Y-95022542D01*
X139009144Y-95022542D02*
X138609145Y-95422541D01*
X139384002Y-85536014D02*
X139384002Y-94647684D01*
X140970900Y-82207540D02*
X140970900Y-83949116D01*
X140970900Y-83949116D02*
X139384002Y-85536014D01*
X130560016Y-108335016D02*
X130560016Y-100626014D01*
X130560016Y-100626014D02*
X130960015Y-100226015D01*
X132080000Y-109855000D02*
X130560016Y-108335016D01*
X134620000Y-109855000D02*
X133350000Y-108585000D01*
X132989419Y-99259073D02*
X132989419Y-98693388D01*
X133350000Y-108585000D02*
X133350000Y-99619654D01*
X133350000Y-99619654D02*
X132989419Y-99259073D01*
X135967236Y-102596835D02*
X136672717Y-101891354D01*
X137160000Y-109855000D02*
X135967236Y-108662236D01*
X136672717Y-101891354D02*
X137222004Y-101891354D01*
X137522001Y-101591357D02*
X137922000Y-101191358D01*
X135967236Y-108662236D02*
X135967236Y-102596835D01*
X137222004Y-101891354D02*
X137522001Y-101591357D01*
X139257113Y-101642608D02*
X139822798Y-101642608D01*
X138522606Y-108677606D02*
X138522606Y-102377115D01*
X139700000Y-109855000D02*
X138522606Y-108677606D01*
X138522606Y-102377115D02*
X139257113Y-101642608D01*
X142023342Y-101378486D02*
X142423341Y-100978487D01*
X140969992Y-108584992D02*
X140969992Y-102431836D01*
X142240000Y-109855000D02*
X140969992Y-108584992D01*
X140969992Y-102431836D02*
X142023342Y-101378486D01*
X144380001Y-101491999D02*
X144780000Y-101092000D01*
X143510000Y-102362000D02*
X144380001Y-101491999D01*
X143510000Y-108585000D02*
X143510000Y-102362000D01*
X144780000Y-109855000D02*
X143510000Y-108585000D01*
X145349998Y-105059822D02*
X146305685Y-104104135D01*
X145984998Y-108519998D02*
X145984998Y-106381002D01*
X145984998Y-106381002D02*
X145349998Y-105746002D01*
X146305685Y-101365654D02*
X146305685Y-100799969D01*
X145349998Y-105746002D02*
X145349998Y-105059822D01*
X147320000Y-109855000D02*
X145984998Y-108519998D01*
X146305685Y-104104135D02*
X146305685Y-101365654D01*
X149860000Y-109855000D02*
X148590000Y-108585000D01*
X148590000Y-108585000D02*
X148590000Y-99822000D01*
X128905000Y-94615000D02*
X131826000Y-97536000D01*
X127635000Y-94615000D02*
X128905000Y-94615000D01*
X131826000Y-97536000D02*
X133858004Y-97536000D01*
X127635000Y-99695000D02*
X128851000Y-99695000D01*
X128851000Y-99695000D02*
X130609989Y-97936011D01*
X138429836Y-99515010D02*
X138771938Y-99857112D01*
X138771938Y-99857112D02*
X139171937Y-100257111D01*
X134801006Y-99515010D02*
X138429836Y-99515010D01*
X133222007Y-97936011D02*
X134801006Y-99515010D01*
X130609989Y-97936011D02*
X133222007Y-97936011D01*
X132080000Y-99314000D02*
X131572000Y-98806000D01*
X132080000Y-102641400D02*
X132080000Y-99314000D01*
X134620000Y-102755700D02*
X135218780Y-102755700D01*
X136770066Y-101204414D02*
X136770066Y-101191352D01*
X135218780Y-102755700D02*
X136770066Y-101204414D01*
X126492000Y-88158000D02*
X126390000Y-88260000D01*
X126492000Y-86868000D02*
X126492000Y-88158000D01*
X132690000Y-88260000D02*
X126390000Y-88260000D01*
X132690000Y-90272000D02*
X133604000Y-91186000D01*
X132690000Y-88260000D02*
X132690000Y-90272000D01*
X138096451Y-100330000D02*
X137414000Y-100330000D01*
X137160000Y-102641400D02*
X137507962Y-102641400D01*
X138622002Y-101527360D02*
X138622002Y-100855551D01*
X137507962Y-102641400D02*
X138622002Y-101527360D01*
X138622002Y-100855551D02*
X138096451Y-100330000D01*
X137258763Y-100330000D02*
X137234488Y-100305725D01*
X137414000Y-100330000D02*
X137258763Y-100330000D01*
X140623318Y-101939351D02*
X140623318Y-100895685D01*
X139921269Y-102641400D02*
X140623318Y-101939351D01*
X139700000Y-102641400D02*
X139921269Y-102641400D01*
X140623318Y-100895685D02*
X140623318Y-100330000D01*
X142240000Y-102641400D02*
X143877975Y-101003425D01*
X143877975Y-101003425D02*
X143877975Y-100392000D01*
X144780000Y-102641400D02*
X144780000Y-102456310D01*
X145540001Y-102480179D02*
X145540001Y-100722419D01*
X144780000Y-102641400D02*
X145378780Y-102641400D01*
X145378780Y-102641400D02*
X145540001Y-102480179D01*
X145540001Y-100722419D02*
X145540001Y-100156734D01*
X147320000Y-102755700D02*
X147320000Y-100330000D01*
X147320000Y-100330000D02*
X146812000Y-99822000D01*
X149860000Y-102641400D02*
X149860000Y-100838000D01*
X149860000Y-100838000D02*
X150368000Y-100330000D01*
X138118315Y-91313000D02*
X138684000Y-91313000D01*
X136480998Y-89765000D02*
X138028998Y-91313000D01*
X138028998Y-91313000D02*
X138118315Y-91313000D01*
X135785000Y-89765000D02*
X136480998Y-89765000D01*
X136591454Y-93065000D02*
X137087890Y-92568564D01*
X135785000Y-93065000D02*
X136591454Y-93065000D01*
X137087890Y-92568564D02*
X137087890Y-92002879D01*
X137554150Y-93839850D02*
X137655115Y-93839850D01*
X135785000Y-95265000D02*
X136129000Y-95265000D01*
X136129000Y-95265000D02*
X137554150Y-93839850D01*
X137015298Y-90865000D02*
X138859657Y-92709359D01*
X138859657Y-92709359D02*
X138859657Y-94033766D01*
X138859657Y-94033766D02*
X138459658Y-94433765D01*
X135785000Y-90865000D02*
X137015298Y-90865000D01*
X150489753Y-99065001D02*
X150922701Y-99497949D01*
X146385001Y-99065001D02*
X150489753Y-99065001D01*
X146285000Y-98265000D02*
X146285000Y-98965000D01*
X146285000Y-98965000D02*
X146385001Y-99065001D01*
X132080000Y-104140000D02*
X132080000Y-105410000D01*
X134620000Y-104254300D02*
X134620000Y-105410000D01*
X137160000Y-104140000D02*
X137160000Y-105410000D01*
X139700000Y-104140000D02*
X139700000Y-105442685D01*
X142240000Y-104140000D02*
X142240000Y-105410000D01*
X144780000Y-105260514D02*
X144649988Y-105390526D01*
X144780000Y-104140000D02*
X144780000Y-105260514D01*
X146763080Y-105410000D02*
X146615685Y-105410000D01*
X146615685Y-105410000D02*
X146050000Y-105410000D01*
X147320000Y-104853080D02*
X146763080Y-105410000D01*
X147320000Y-104254300D02*
X147320000Y-104853080D01*
X150876000Y-104140000D02*
X151746001Y-103269999D01*
X149860000Y-104140000D02*
X150876000Y-104140000D01*
X151746001Y-103269999D02*
X152146000Y-102870000D01*
G36*
X154843626Y-77289731D02*
G01*
X155361739Y-77446158D01*
X155839599Y-77700241D01*
X156259009Y-78042303D01*
X156603990Y-78459314D01*
X156861401Y-78935384D01*
X157021441Y-79452392D01*
X157079995Y-80009489D01*
X157080000Y-80010815D01*
X157080001Y-83800428D01*
X157049456Y-84111948D01*
X156964667Y-84392783D01*
X156826949Y-84651793D01*
X156641542Y-84879123D01*
X156415513Y-85066111D01*
X156157466Y-85205636D01*
X155877237Y-85292382D01*
X155566647Y-85325026D01*
X155560317Y-85325048D01*
X155542926Y-85326814D01*
X155525448Y-85326692D01*
X155519890Y-85327237D01*
X155150135Y-85366100D01*
X155114603Y-85373394D01*
X155079010Y-85380184D01*
X155073663Y-85381798D01*
X154718499Y-85491740D01*
X154685106Y-85505777D01*
X154651465Y-85519369D01*
X154646534Y-85521991D01*
X154319489Y-85698823D01*
X154289448Y-85719086D01*
X154259096Y-85738948D01*
X154254768Y-85742478D01*
X153968298Y-85979467D01*
X153942768Y-86005176D01*
X153916851Y-86030556D01*
X153913291Y-86034860D01*
X153678307Y-86322977D01*
X153658237Y-86353184D01*
X153637762Y-86383088D01*
X153635109Y-86387996D01*
X153635106Y-86388000D01*
X153635106Y-86388001D01*
X153460561Y-86716273D01*
X153446742Y-86749799D01*
X153432464Y-86783113D01*
X153430812Y-86788448D01*
X153323352Y-87144371D01*
X153316305Y-87179963D01*
X153308773Y-87215397D01*
X153308189Y-87220952D01*
X153271909Y-87590967D01*
X153270000Y-87610354D01*
X153270001Y-95904647D01*
X153271775Y-95922659D01*
X153271692Y-95934552D01*
X153272237Y-95940111D01*
X153311100Y-96309865D01*
X153318386Y-96345360D01*
X153325183Y-96380990D01*
X153326798Y-96386337D01*
X153436740Y-96741500D01*
X153450772Y-96774880D01*
X153464369Y-96808535D01*
X153466991Y-96813466D01*
X153643823Y-97140511D01*
X153664112Y-97170590D01*
X153683948Y-97200904D01*
X153687478Y-97205232D01*
X153924467Y-97491702D01*
X153950212Y-97517268D01*
X153975557Y-97543149D01*
X153979860Y-97546710D01*
X154267977Y-97781693D01*
X154298184Y-97801763D01*
X154328088Y-97822238D01*
X154332996Y-97824891D01*
X154333000Y-97824894D01*
X154333004Y-97824896D01*
X154661273Y-97999439D01*
X154694785Y-98013252D01*
X154728112Y-98027536D01*
X154733448Y-98029188D01*
X155089370Y-98136648D01*
X155124977Y-98143698D01*
X155160397Y-98151227D01*
X155165949Y-98151811D01*
X155165951Y-98151811D01*
X155535967Y-98188091D01*
X155866948Y-98220544D01*
X156147784Y-98305334D01*
X156406790Y-98443049D01*
X156634124Y-98628459D01*
X156821111Y-98854487D01*
X156960636Y-99112534D01*
X157047381Y-99392761D01*
X157080000Y-99703105D01*
X157080000Y-101500000D01*
X150260000Y-101500000D01*
X150260000Y-101022231D01*
X150299056Y-101030000D01*
X150436944Y-101030000D01*
X150572182Y-101003099D01*
X150699574Y-100950332D01*
X150814224Y-100873726D01*
X150911726Y-100776224D01*
X150988332Y-100661574D01*
X151041099Y-100534182D01*
X151068000Y-100398944D01*
X151068000Y-100261056D01*
X151053019Y-100185741D01*
X151126883Y-100171048D01*
X151254275Y-100118281D01*
X151368925Y-100041675D01*
X151466427Y-99944173D01*
X151543033Y-99829523D01*
X151595800Y-99702131D01*
X151622701Y-99566893D01*
X151622701Y-99429005D01*
X151595800Y-99293767D01*
X151543033Y-99166375D01*
X151476267Y-99066451D01*
X151835000Y-99066451D01*
X151893810Y-99060659D01*
X151950360Y-99043504D01*
X152002477Y-99015647D01*
X152048158Y-98978158D01*
X152085647Y-98932477D01*
X152113504Y-98880360D01*
X152130659Y-98823810D01*
X152136451Y-98765000D01*
X152136451Y-97765000D01*
X152130659Y-97706190D01*
X152113504Y-97649640D01*
X152085647Y-97597523D01*
X152048158Y-97551842D01*
X152002477Y-97514353D01*
X151950360Y-97486496D01*
X151893810Y-97469341D01*
X151835000Y-97463549D01*
X151426859Y-97463549D01*
X151496332Y-97359574D01*
X151549099Y-97232182D01*
X151576000Y-97096944D01*
X151576000Y-96959056D01*
X151549099Y-96823818D01*
X151496332Y-96696426D01*
X151419726Y-96581776D01*
X151322224Y-96484274D01*
X151207574Y-96407668D01*
X151080182Y-96354901D01*
X150944944Y-96328000D01*
X150807056Y-96328000D01*
X150671818Y-96354901D01*
X150544426Y-96407668D01*
X150429776Y-96484274D01*
X150332274Y-96581776D01*
X150255668Y-96696426D01*
X150202901Y-96823818D01*
X150176000Y-96959056D01*
X150176000Y-97096944D01*
X150186846Y-97151469D01*
X150166047Y-97172268D01*
X150150790Y-97184789D01*
X150138268Y-97200047D01*
X150138265Y-97200050D01*
X150100803Y-97245698D01*
X150063661Y-97315186D01*
X150040788Y-97390587D01*
X150033602Y-97463549D01*
X149960000Y-97463549D01*
X149960000Y-96647000D01*
X149958079Y-96627491D01*
X149952388Y-96608732D01*
X149943147Y-96591443D01*
X149930711Y-96576289D01*
X149915557Y-96563853D01*
X149898268Y-96554612D01*
X149879509Y-96548921D01*
X149860000Y-96547000D01*
X142594000Y-96547000D01*
X142594000Y-90101056D01*
X144588000Y-90101056D01*
X144588000Y-90238944D01*
X144614901Y-90374182D01*
X144667668Y-90501574D01*
X144744274Y-90616224D01*
X144841776Y-90713726D01*
X144956426Y-90790332D01*
X145083818Y-90843099D01*
X145219056Y-90870000D01*
X145356944Y-90870000D01*
X145492182Y-90843099D01*
X145619574Y-90790332D01*
X145734224Y-90713726D01*
X145831726Y-90616224D01*
X145908332Y-90501574D01*
X145961099Y-90374182D01*
X145988000Y-90238944D01*
X145988000Y-90101056D01*
X145961099Y-89965818D01*
X145908332Y-89838426D01*
X145831726Y-89723776D01*
X145734224Y-89626274D01*
X145619574Y-89549668D01*
X145492182Y-89496901D01*
X145356944Y-89470000D01*
X145219056Y-89470000D01*
X145083818Y-89496901D01*
X144956426Y-89549668D01*
X144841776Y-89626274D01*
X144744274Y-89723776D01*
X144667668Y-89838426D01*
X144614901Y-89965818D01*
X144588000Y-90101056D01*
X142594000Y-90101056D01*
X142594000Y-89384978D01*
X142635668Y-89485574D01*
X142712274Y-89600224D01*
X142809776Y-89697726D01*
X142924426Y-89774332D01*
X143051818Y-89827099D01*
X143187056Y-89854000D01*
X143324944Y-89854000D01*
X143460182Y-89827099D01*
X143587574Y-89774332D01*
X143702224Y-89697726D01*
X143799726Y-89600224D01*
X143876332Y-89485574D01*
X143929099Y-89358182D01*
X143956000Y-89222944D01*
X143956000Y-89085056D01*
X143929099Y-88949818D01*
X143876332Y-88822426D01*
X143799726Y-88707776D01*
X143702224Y-88610274D01*
X143587574Y-88533668D01*
X143460182Y-88480901D01*
X143324944Y-88454000D01*
X143187056Y-88454000D01*
X143051818Y-88480901D01*
X142924426Y-88533668D01*
X142809776Y-88610274D01*
X142712274Y-88707776D01*
X142635668Y-88822426D01*
X142594000Y-88923022D01*
X142594000Y-88011000D01*
X142592079Y-87991491D01*
X142586388Y-87972732D01*
X142577147Y-87955443D01*
X142564711Y-87940289D01*
X142549557Y-87927853D01*
X142532268Y-87918612D01*
X142513509Y-87912921D01*
X142494000Y-87911000D01*
X140716000Y-87911000D01*
X140696491Y-87912921D01*
X140677732Y-87918612D01*
X140660443Y-87927853D01*
X140645289Y-87940289D01*
X140632853Y-87955443D01*
X140623612Y-87972732D01*
X140617921Y-87991491D01*
X140616000Y-88011000D01*
X140616000Y-96281030D01*
X140564374Y-96229404D01*
X140578236Y-96183705D01*
X140584024Y-96124938D01*
X140584024Y-96124937D01*
X140585959Y-96105291D01*
X140584024Y-96085644D01*
X140584024Y-86033075D01*
X140834043Y-85783056D01*
X148525000Y-85783056D01*
X148525000Y-85920944D01*
X148551901Y-86056182D01*
X148604668Y-86183574D01*
X148681274Y-86298224D01*
X148778776Y-86395726D01*
X148893426Y-86472332D01*
X149020818Y-86525099D01*
X149156056Y-86552000D01*
X149293944Y-86552000D01*
X149429182Y-86525099D01*
X149556574Y-86472332D01*
X149671224Y-86395726D01*
X149768726Y-86298224D01*
X149845332Y-86183574D01*
X149898099Y-86056182D01*
X149925000Y-85920944D01*
X149925000Y-85844685D01*
X150053234Y-85716451D01*
X151835000Y-85716451D01*
X151893810Y-85710659D01*
X151950360Y-85693504D01*
X152002477Y-85665647D01*
X152048158Y-85628158D01*
X152085647Y-85582477D01*
X152113504Y-85530360D01*
X152130659Y-85473810D01*
X152136451Y-85415000D01*
X152136451Y-84115000D01*
X152130659Y-84056190D01*
X152113504Y-83999640D01*
X152085647Y-83947523D01*
X152048158Y-83901842D01*
X152002477Y-83864353D01*
X151950360Y-83836496D01*
X151893810Y-83819341D01*
X151835000Y-83813549D01*
X149935000Y-83813549D01*
X149876190Y-83819341D01*
X149819640Y-83836496D01*
X149767523Y-83864353D01*
X149721842Y-83901842D01*
X149684353Y-83947523D01*
X149656496Y-83999640D01*
X149639341Y-84056190D01*
X149633549Y-84115000D01*
X149633549Y-85004765D01*
X149450559Y-85187756D01*
X149429182Y-85178901D01*
X149293944Y-85152000D01*
X149156056Y-85152000D01*
X149020818Y-85178901D01*
X148893426Y-85231668D01*
X148778776Y-85308274D01*
X148681274Y-85405776D01*
X148604668Y-85520426D01*
X148551901Y-85647818D01*
X148525000Y-85783056D01*
X140834043Y-85783056D01*
X142366309Y-84250790D01*
X142401318Y-84279521D01*
X142496865Y-84330592D01*
X142520995Y-84337912D01*
X142600541Y-84362042D01*
X142681342Y-84370000D01*
X142681352Y-84370000D01*
X142708360Y-84372660D01*
X142735368Y-84370000D01*
X144752992Y-84370000D01*
X144780000Y-84372660D01*
X144807008Y-84370000D01*
X144807018Y-84370000D01*
X144887819Y-84362042D01*
X144991494Y-84330592D01*
X145087042Y-84279521D01*
X145170790Y-84210790D01*
X145188013Y-84189804D01*
X146673810Y-82704008D01*
X146694790Y-82686790D01*
X146712008Y-82665810D01*
X146712013Y-82665805D01*
X146763520Y-82603043D01*
X146814591Y-82507495D01*
X146814592Y-82507494D01*
X146846042Y-82403819D01*
X146854000Y-82323018D01*
X146854000Y-82323009D01*
X146856660Y-82296001D01*
X146854000Y-82268993D01*
X146854000Y-82224834D01*
X146924332Y-82119574D01*
X146977099Y-81992182D01*
X147004000Y-81856944D01*
X147004000Y-81719056D01*
X146977099Y-81583818D01*
X146924332Y-81456426D01*
X146847726Y-81341776D01*
X146750224Y-81244274D01*
X146635574Y-81167668D01*
X146508182Y-81114901D01*
X146372944Y-81088000D01*
X146235056Y-81088000D01*
X146099818Y-81114901D01*
X145972426Y-81167668D01*
X145857776Y-81244274D01*
X145760274Y-81341776D01*
X145683668Y-81456426D01*
X145630901Y-81583818D01*
X145604000Y-81719056D01*
X145604000Y-81856944D01*
X145630901Y-81992182D01*
X145683668Y-82119574D01*
X145691254Y-82130928D01*
X144552183Y-83270000D01*
X142936178Y-83270000D01*
X142820900Y-83154723D01*
X142820900Y-82799774D01*
X142888250Y-82855046D01*
X143022886Y-82927010D01*
X143168974Y-82971326D01*
X143282835Y-82982540D01*
X143658965Y-82982540D01*
X143772826Y-82971326D01*
X143918914Y-82927010D01*
X144053550Y-82855046D01*
X144171559Y-82758199D01*
X144268406Y-82640190D01*
X144340370Y-82505554D01*
X144384686Y-82359466D01*
X144399649Y-82207540D01*
X144384686Y-82055614D01*
X144340370Y-81909526D01*
X144268406Y-81774890D01*
X144171559Y-81656881D01*
X144053550Y-81560034D01*
X143918914Y-81488070D01*
X143772826Y-81443754D01*
X143658965Y-81432540D01*
X143282835Y-81432540D01*
X143168974Y-81443754D01*
X143022886Y-81488070D01*
X142888250Y-81560034D01*
X142772351Y-81655149D01*
X142772351Y-81532540D01*
X142766559Y-81473730D01*
X142749404Y-81417180D01*
X142721547Y-81365063D01*
X142684058Y-81319382D01*
X142638377Y-81281893D01*
X142586260Y-81254036D01*
X142529710Y-81236881D01*
X142470900Y-81231089D01*
X142070900Y-81231089D01*
X142012090Y-81236881D01*
X141955540Y-81254036D01*
X141945900Y-81259189D01*
X141936260Y-81254036D01*
X141879710Y-81236881D01*
X141820900Y-81231089D01*
X141420900Y-81231089D01*
X141362090Y-81236881D01*
X141305540Y-81254036D01*
X141295900Y-81259189D01*
X141286260Y-81254036D01*
X141229710Y-81236881D01*
X141170900Y-81231089D01*
X140770900Y-81231089D01*
X140712090Y-81236881D01*
X140655540Y-81254036D01*
X140645900Y-81259189D01*
X140636260Y-81254036D01*
X140579710Y-81236881D01*
X140520900Y-81231089D01*
X140120900Y-81231089D01*
X140062090Y-81236881D01*
X140005540Y-81254036D01*
X139995900Y-81259189D01*
X139986260Y-81254036D01*
X139929710Y-81236881D01*
X139870900Y-81231089D01*
X139470900Y-81231089D01*
X139412090Y-81236881D01*
X139355540Y-81254036D01*
X139303423Y-81281893D01*
X139257742Y-81319382D01*
X139220253Y-81365063D01*
X139192396Y-81417180D01*
X139175241Y-81473730D01*
X139169449Y-81532540D01*
X139169449Y-81655149D01*
X139053550Y-81560034D01*
X138918914Y-81488070D01*
X138772826Y-81443754D01*
X138658965Y-81432540D01*
X138282835Y-81432540D01*
X138168974Y-81443754D01*
X138022886Y-81488070D01*
X137888250Y-81560034D01*
X137770241Y-81656881D01*
X137673394Y-81774890D01*
X137601430Y-81909526D01*
X137557114Y-82055614D01*
X137542151Y-82207540D01*
X137557114Y-82359466D01*
X137601430Y-82505554D01*
X137673394Y-82640190D01*
X137770241Y-82758199D01*
X137888250Y-82855046D01*
X138022886Y-82927010D01*
X138168974Y-82971326D01*
X138282835Y-82982540D01*
X138658965Y-82982540D01*
X138772826Y-82971326D01*
X138918914Y-82927010D01*
X139053550Y-82855046D01*
X139169449Y-82759931D01*
X139169449Y-82882540D01*
X139175241Y-82941350D01*
X139192396Y-82997900D01*
X139220253Y-83050017D01*
X139257742Y-83095698D01*
X139270901Y-83106497D01*
X139270901Y-83264832D01*
X139253776Y-83276274D01*
X139156274Y-83373776D01*
X139079668Y-83488426D01*
X139026901Y-83615818D01*
X139000000Y-83751056D01*
X139000000Y-83888944D01*
X139026901Y-84024182D01*
X139079668Y-84151574D01*
X139156274Y-84266224D01*
X139253776Y-84363726D01*
X139368426Y-84440332D01*
X139495818Y-84493099D01*
X139631056Y-84520000D01*
X139768944Y-84520000D01*
X139850567Y-84503764D01*
X139115054Y-85239277D01*
X139099791Y-85251803D01*
X139049805Y-85312712D01*
X139012662Y-85382201D01*
X138994890Y-85440789D01*
X138989790Y-85457601D01*
X138982067Y-85536014D01*
X138984002Y-85555660D01*
X138984003Y-90679591D01*
X138888182Y-90639901D01*
X138752944Y-90613000D01*
X138615056Y-90613000D01*
X138479818Y-90639901D01*
X138352426Y-90692668D01*
X138237776Y-90769274D01*
X138144367Y-90862684D01*
X136777735Y-89496052D01*
X136765209Y-89480789D01*
X136704301Y-89430803D01*
X136686451Y-89421262D01*
X136686451Y-89415000D01*
X136680659Y-89356190D01*
X136663504Y-89299640D01*
X136635647Y-89247523D01*
X136608956Y-89215000D01*
X136635647Y-89182477D01*
X136663504Y-89130360D01*
X136680659Y-89073810D01*
X136686451Y-89015000D01*
X136686451Y-88315000D01*
X136680659Y-88256190D01*
X136663504Y-88199640D01*
X136635647Y-88147523D01*
X136598158Y-88101842D01*
X136552477Y-88064353D01*
X136500360Y-88036496D01*
X136443810Y-88019341D01*
X136385000Y-88013549D01*
X135185000Y-88013549D01*
X135126190Y-88019341D01*
X135069640Y-88036496D01*
X135017523Y-88064353D01*
X134971842Y-88101842D01*
X134934353Y-88147523D01*
X134906496Y-88199640D01*
X134889341Y-88256190D01*
X134883549Y-88315000D01*
X134883549Y-89015000D01*
X134889341Y-89073810D01*
X134906496Y-89130360D01*
X134934353Y-89182477D01*
X134961044Y-89215000D01*
X134934353Y-89247523D01*
X134906496Y-89299640D01*
X134889341Y-89356190D01*
X134883549Y-89415000D01*
X134883549Y-90115000D01*
X134889341Y-90173810D01*
X134906496Y-90230360D01*
X134934353Y-90282477D01*
X134961044Y-90315000D01*
X134934353Y-90347523D01*
X134906496Y-90399640D01*
X134889341Y-90456190D01*
X134883549Y-90515000D01*
X134883549Y-91086725D01*
X134845579Y-91107020D01*
X134752999Y-91182999D01*
X134677020Y-91275579D01*
X134620563Y-91381203D01*
X134585797Y-91495811D01*
X134574058Y-91615000D01*
X134577000Y-91659000D01*
X134729000Y-91811000D01*
X135631000Y-91811000D01*
X135631000Y-91791000D01*
X135939000Y-91791000D01*
X135939000Y-91811000D01*
X135959000Y-91811000D01*
X135959000Y-92119000D01*
X135939000Y-92119000D01*
X135939000Y-92139000D01*
X135631000Y-92139000D01*
X135631000Y-92119000D01*
X134729000Y-92119000D01*
X134577000Y-92271000D01*
X134574058Y-92315000D01*
X134585797Y-92434189D01*
X134620563Y-92548797D01*
X134677020Y-92654421D01*
X134752999Y-92747001D01*
X134845579Y-92822980D01*
X134883549Y-92843275D01*
X134883549Y-93415000D01*
X134889341Y-93473810D01*
X134906496Y-93530360D01*
X134934353Y-93582477D01*
X134961044Y-93615000D01*
X134934353Y-93647523D01*
X134906496Y-93699640D01*
X134889341Y-93756190D01*
X134883549Y-93815000D01*
X134883549Y-94515000D01*
X134889341Y-94573810D01*
X134906496Y-94630360D01*
X134934353Y-94682477D01*
X134961044Y-94715000D01*
X134934353Y-94747523D01*
X134906496Y-94799640D01*
X134889341Y-94856190D01*
X134883549Y-94915000D01*
X134883549Y-95615000D01*
X134889341Y-95673810D01*
X134906496Y-95730360D01*
X134934353Y-95782477D01*
X134961044Y-95815000D01*
X134934353Y-95847523D01*
X134906496Y-95899640D01*
X134889341Y-95956190D01*
X134883549Y-96015000D01*
X134883549Y-96715000D01*
X134889341Y-96773810D01*
X134906496Y-96830360D01*
X134911649Y-96840000D01*
X134906496Y-96849640D01*
X134889341Y-96906190D01*
X134883549Y-96965000D01*
X134883549Y-97665000D01*
X134889341Y-97723810D01*
X134906496Y-97780360D01*
X134934353Y-97832477D01*
X134971842Y-97878158D01*
X135017523Y-97915647D01*
X135069640Y-97943504D01*
X135126190Y-97960659D01*
X135185000Y-97966451D01*
X136385000Y-97966451D01*
X136443810Y-97960659D01*
X136500360Y-97943504D01*
X136552477Y-97915647D01*
X136598158Y-97878158D01*
X136635647Y-97832477D01*
X136663504Y-97780360D01*
X136680659Y-97723810D01*
X136682672Y-97703370D01*
X136738814Y-97686340D01*
X136808303Y-97649197D01*
X136869211Y-97599211D01*
X136881738Y-97583947D01*
X136982942Y-97482742D01*
X136998209Y-97470213D01*
X137048195Y-97409305D01*
X137085338Y-97339816D01*
X137108210Y-97264416D01*
X137113998Y-97205649D01*
X137113998Y-97205648D01*
X137115933Y-97186002D01*
X137113998Y-97166355D01*
X137113998Y-96623687D01*
X137290532Y-96447154D01*
X137345056Y-96458000D01*
X137482944Y-96458000D01*
X137618182Y-96431099D01*
X137745574Y-96378332D01*
X137860224Y-96301726D01*
X137880132Y-96281818D01*
X139220937Y-97622623D01*
X139206496Y-97649640D01*
X139189341Y-97706190D01*
X139183549Y-97765000D01*
X139183549Y-98765000D01*
X139189341Y-98823810D01*
X139206496Y-98880360D01*
X139234353Y-98932477D01*
X139271842Y-98978158D01*
X139317523Y-99015647D01*
X139369640Y-99043504D01*
X139426190Y-99060659D01*
X139485000Y-99066451D01*
X140685000Y-99066451D01*
X140743810Y-99060659D01*
X140800360Y-99043504D01*
X140852477Y-99015647D01*
X140898158Y-98978158D01*
X140935647Y-98932477D01*
X140963504Y-98880360D01*
X140980659Y-98823810D01*
X140986451Y-98765000D01*
X140986451Y-97765000D01*
X140980659Y-97706190D01*
X140963504Y-97649640D01*
X140935647Y-97597523D01*
X140898158Y-97551842D01*
X140852477Y-97514353D01*
X140800360Y-97486496D01*
X140743810Y-97469341D01*
X140685000Y-97463549D01*
X140193235Y-97463549D01*
X140182067Y-97452382D01*
X140304192Y-97428089D01*
X140431584Y-97375322D01*
X140546234Y-97298716D01*
X140643736Y-97201214D01*
X140720342Y-97086564D01*
X140755783Y-97001000D01*
X141886000Y-97001000D01*
X141886000Y-97663000D01*
X141887921Y-97682509D01*
X141893612Y-97701268D01*
X141902853Y-97718557D01*
X141915289Y-97733711D01*
X141930443Y-97746147D01*
X141947732Y-97755388D01*
X141966491Y-97761079D01*
X141986000Y-97763000D01*
X145583746Y-97763000D01*
X145583549Y-97765000D01*
X145583549Y-98765000D01*
X145589341Y-98823810D01*
X145606496Y-98880360D01*
X145634353Y-98932477D01*
X145671842Y-98978158D01*
X145717523Y-99015647D01*
X145769640Y-99043504D01*
X145826190Y-99060659D01*
X145885000Y-99066451D01*
X145897777Y-99066451D01*
X145913661Y-99118814D01*
X145950803Y-99188302D01*
X145988265Y-99233950D01*
X145988268Y-99233953D01*
X146000790Y-99249211D01*
X146016048Y-99261733D01*
X146088264Y-99333949D01*
X146100790Y-99349212D01*
X146161698Y-99399198D01*
X146228696Y-99435009D01*
X146191668Y-99490426D01*
X146138901Y-99617818D01*
X146112036Y-99752877D01*
X146083727Y-99710510D01*
X145986225Y-99613008D01*
X145871575Y-99536402D01*
X145744183Y-99483635D01*
X145608945Y-99456734D01*
X145471057Y-99456734D01*
X145335819Y-99483635D01*
X145208427Y-99536402D01*
X145093777Y-99613008D01*
X144996275Y-99710510D01*
X144919669Y-99825160D01*
X144866902Y-99952552D01*
X144840001Y-100087790D01*
X144840001Y-100225678D01*
X144866902Y-100360916D01*
X144882546Y-100398684D01*
X144848944Y-100392000D01*
X144711056Y-100392000D01*
X144577975Y-100418472D01*
X144577975Y-100323056D01*
X144551074Y-100187818D01*
X144498307Y-100060426D01*
X144421701Y-99945776D01*
X144324199Y-99848274D01*
X144209549Y-99771668D01*
X144082157Y-99718901D01*
X143946919Y-99692000D01*
X143809031Y-99692000D01*
X143673793Y-99718901D01*
X143546401Y-99771668D01*
X143431751Y-99848274D01*
X143334249Y-99945776D01*
X143257643Y-100060426D01*
X143204876Y-100187818D01*
X143177975Y-100323056D01*
X143177975Y-100460944D01*
X143204876Y-100596182D01*
X143257643Y-100723574D01*
X143334249Y-100838224D01*
X143405870Y-100909845D01*
X143070556Y-101245159D01*
X143096440Y-101182669D01*
X143123341Y-101047431D01*
X143123341Y-100909543D01*
X143096440Y-100774305D01*
X143043673Y-100646913D01*
X142967067Y-100532263D01*
X142869565Y-100434761D01*
X142754915Y-100358155D01*
X142627523Y-100305388D01*
X142492285Y-100278487D01*
X142354397Y-100278487D01*
X142219159Y-100305388D01*
X142091767Y-100358155D01*
X141977117Y-100434761D01*
X141879615Y-100532263D01*
X141803009Y-100646913D01*
X141750242Y-100774305D01*
X141723341Y-100909543D01*
X141723341Y-101047431D01*
X141734187Y-101101955D01*
X141336143Y-101500000D01*
X141023318Y-101500000D01*
X141023318Y-100904612D01*
X141069542Y-100873726D01*
X141167044Y-100776224D01*
X141243650Y-100661574D01*
X141296417Y-100534182D01*
X141323318Y-100398944D01*
X141323318Y-100261056D01*
X141296417Y-100125818D01*
X141243650Y-99998426D01*
X141167044Y-99883776D01*
X141069542Y-99786274D01*
X140954892Y-99709668D01*
X140827500Y-99656901D01*
X140692262Y-99630000D01*
X140554374Y-99630000D01*
X140419136Y-99656901D01*
X140291744Y-99709668D01*
X140177094Y-99786274D01*
X140079592Y-99883776D01*
X140002986Y-99998426D01*
X139950219Y-100125818D01*
X139923318Y-100261056D01*
X139923318Y-100398944D01*
X139950219Y-100534182D01*
X140002986Y-100661574D01*
X140079592Y-100776224D01*
X140177094Y-100873726D01*
X140223318Y-100904612D01*
X140223318Y-100915331D01*
X140223319Y-100915341D01*
X140223319Y-101068344D01*
X140154372Y-101022276D01*
X140026980Y-100969509D01*
X139891742Y-100942608D01*
X139753854Y-100942608D01*
X139618616Y-100969509D01*
X139491224Y-101022276D01*
X139376574Y-101098882D01*
X139279072Y-101196384D01*
X139248942Y-101241478D01*
X139178699Y-101248396D01*
X139103299Y-101271268D01*
X139033810Y-101308411D01*
X139022002Y-101318101D01*
X139022002Y-100941001D01*
X139102993Y-100957111D01*
X139240881Y-100957111D01*
X139376119Y-100930210D01*
X139503511Y-100877443D01*
X139618161Y-100800837D01*
X139715663Y-100703335D01*
X139792269Y-100588685D01*
X139845036Y-100461293D01*
X139871937Y-100326055D01*
X139871937Y-100188167D01*
X139845036Y-100052929D01*
X139792269Y-99925537D01*
X139715663Y-99810887D01*
X139618161Y-99713385D01*
X139503511Y-99636779D01*
X139376119Y-99584012D01*
X139240881Y-99557111D01*
X139102993Y-99557111D01*
X139048469Y-99567957D01*
X138726573Y-99246062D01*
X138714047Y-99230799D01*
X138653139Y-99180813D01*
X138583650Y-99143670D01*
X138508250Y-99120798D01*
X138449483Y-99115010D01*
X138449482Y-99115010D01*
X138429836Y-99113075D01*
X138410190Y-99115010D01*
X134966692Y-99115010D01*
X134061014Y-98209332D01*
X134062186Y-98209099D01*
X134189578Y-98156332D01*
X134304228Y-98079726D01*
X134401730Y-97982224D01*
X134478336Y-97867574D01*
X134531103Y-97740182D01*
X134558004Y-97604944D01*
X134558004Y-97467056D01*
X134531103Y-97331818D01*
X134478336Y-97204426D01*
X134401730Y-97089776D01*
X134304228Y-96992274D01*
X134189578Y-96915668D01*
X134062186Y-96862901D01*
X133926948Y-96836000D01*
X133789060Y-96836000D01*
X133653822Y-96862901D01*
X133526430Y-96915668D01*
X133411780Y-96992274D01*
X133314278Y-97089776D01*
X133283392Y-97136000D01*
X131991686Y-97136000D01*
X129201737Y-94346052D01*
X129189211Y-94330789D01*
X129128303Y-94280803D01*
X129058814Y-94243660D01*
X128983414Y-94220788D01*
X128924647Y-94215000D01*
X128924646Y-94215000D01*
X128905000Y-94213065D01*
X128885354Y-94215000D01*
X128882020Y-94215000D01*
X128867628Y-94167555D01*
X128759579Y-93965411D01*
X128614170Y-93788230D01*
X128436989Y-93642821D01*
X128259442Y-93547920D01*
X128651000Y-93549542D01*
X128770189Y-93537803D01*
X128884797Y-93503037D01*
X128990421Y-93446580D01*
X129083001Y-93370601D01*
X129158980Y-93278021D01*
X129215437Y-93172397D01*
X129240128Y-93091000D01*
X129818058Y-93091000D01*
X129829797Y-93210189D01*
X129864563Y-93324797D01*
X129921020Y-93430421D01*
X129996999Y-93523001D01*
X130089579Y-93598980D01*
X130195203Y-93655437D01*
X130309811Y-93690203D01*
X130429000Y-93701942D01*
X130497236Y-93701659D01*
X130422796Y-93776099D01*
X130278776Y-93991640D01*
X130179573Y-94231137D01*
X130129000Y-94485385D01*
X130129000Y-94744615D01*
X130179573Y-94998863D01*
X130278776Y-95238360D01*
X130422796Y-95453901D01*
X130606099Y-95637204D01*
X130821640Y-95781224D01*
X131061137Y-95880427D01*
X131315385Y-95931000D01*
X131574615Y-95931000D01*
X131828863Y-95880427D01*
X132068360Y-95781224D01*
X132283901Y-95637204D01*
X132467204Y-95453901D01*
X132611224Y-95238360D01*
X132710427Y-94998863D01*
X132761000Y-94744615D01*
X132761000Y-94485385D01*
X132710427Y-94231137D01*
X132611224Y-93991640D01*
X132467204Y-93776099D01*
X132392764Y-93701659D01*
X132461000Y-93701942D01*
X132580189Y-93690203D01*
X132694797Y-93655437D01*
X132800421Y-93598980D01*
X132893001Y-93523001D01*
X132968980Y-93430421D01*
X133025437Y-93324797D01*
X133060203Y-93210189D01*
X133071942Y-93091000D01*
X133069000Y-92381000D01*
X132917000Y-92229000D01*
X131599000Y-92229000D01*
X131599000Y-92249000D01*
X131291000Y-92249000D01*
X131291000Y-92229000D01*
X129973000Y-92229000D01*
X129821000Y-92381000D01*
X129818058Y-93091000D01*
X129240128Y-93091000D01*
X129250203Y-93057789D01*
X129261942Y-92938600D01*
X129259000Y-92381000D01*
X129107000Y-92229000D01*
X127789000Y-92229000D01*
X127789000Y-92249000D01*
X127481000Y-92249000D01*
X127481000Y-92229000D01*
X126163000Y-92229000D01*
X126011000Y-92381000D01*
X126008058Y-92938600D01*
X126019797Y-93057789D01*
X126054563Y-93172397D01*
X126111020Y-93278021D01*
X126186999Y-93370601D01*
X126279579Y-93446580D01*
X126385203Y-93503037D01*
X126499811Y-93537803D01*
X126619000Y-93549542D01*
X127010558Y-93547920D01*
X126833011Y-93642821D01*
X126655830Y-93788230D01*
X126510421Y-93965411D01*
X126402372Y-94167555D01*
X126335836Y-94386895D01*
X126313370Y-94615000D01*
X126335836Y-94843105D01*
X126402372Y-95062445D01*
X126510421Y-95264589D01*
X126655830Y-95441770D01*
X126833011Y-95587179D01*
X127035155Y-95695228D01*
X127254495Y-95761764D01*
X127425437Y-95778600D01*
X127844563Y-95778600D01*
X128015505Y-95761764D01*
X128234845Y-95695228D01*
X128436989Y-95587179D01*
X128614170Y-95441770D01*
X128759579Y-95264589D01*
X128839459Y-95115144D01*
X131260325Y-97536011D01*
X130629624Y-97536011D01*
X130609988Y-97534077D01*
X130590352Y-97536011D01*
X130590342Y-97536011D01*
X130531575Y-97541799D01*
X130456175Y-97564671D01*
X130386686Y-97601814D01*
X130355603Y-97627323D01*
X130341038Y-97639276D01*
X130341036Y-97639278D01*
X130325778Y-97651800D01*
X130313256Y-97667058D01*
X128820650Y-99159665D01*
X128759579Y-99045411D01*
X128614170Y-98868230D01*
X128436989Y-98722821D01*
X128234845Y-98614772D01*
X128015505Y-98548236D01*
X127844563Y-98531400D01*
X127425437Y-98531400D01*
X127254495Y-98548236D01*
X127035155Y-98614772D01*
X126833011Y-98722821D01*
X126655830Y-98868230D01*
X126510421Y-99045411D01*
X126402372Y-99247555D01*
X126335836Y-99466895D01*
X126313370Y-99695000D01*
X126335836Y-99923105D01*
X126402372Y-100142445D01*
X126510421Y-100344589D01*
X126655830Y-100521770D01*
X126833011Y-100667179D01*
X127035155Y-100775228D01*
X127254495Y-100841764D01*
X127425437Y-100858600D01*
X127844563Y-100858600D01*
X128015505Y-100841764D01*
X128234845Y-100775228D01*
X128436989Y-100667179D01*
X128614170Y-100521770D01*
X128759579Y-100344589D01*
X128867628Y-100142445D01*
X128882371Y-100093845D01*
X128929414Y-100089212D01*
X129004814Y-100066340D01*
X129074303Y-100029197D01*
X129135211Y-99979211D01*
X129147737Y-99963948D01*
X130775675Y-98336011D01*
X131052039Y-98336011D01*
X131028274Y-98359776D01*
X130951668Y-98474426D01*
X130898901Y-98601818D01*
X130872000Y-98737056D01*
X130872000Y-98874944D01*
X130898901Y-99010182D01*
X130951668Y-99137574D01*
X131028274Y-99252224D01*
X131125776Y-99349726D01*
X131240426Y-99426332D01*
X131367818Y-99479099D01*
X131503056Y-99506000D01*
X131640944Y-99506000D01*
X131680001Y-99498231D01*
X131680000Y-101500000D01*
X130960016Y-101500000D01*
X130960016Y-100926015D01*
X131028959Y-100926015D01*
X131164197Y-100899114D01*
X131291589Y-100846347D01*
X131406239Y-100769741D01*
X131503741Y-100672239D01*
X131580347Y-100557589D01*
X131633114Y-100430197D01*
X131660015Y-100294959D01*
X131660015Y-100157071D01*
X131633114Y-100021833D01*
X131580347Y-99894441D01*
X131503741Y-99779791D01*
X131406239Y-99682289D01*
X131291589Y-99605683D01*
X131164197Y-99552916D01*
X131028959Y-99526015D01*
X130891071Y-99526015D01*
X130755833Y-99552916D01*
X130628441Y-99605683D01*
X130513791Y-99682289D01*
X130416289Y-99779791D01*
X130339683Y-99894441D01*
X130286916Y-100021833D01*
X130260015Y-100157071D01*
X130260015Y-100294959D01*
X130270596Y-100348152D01*
X130263284Y-100357061D01*
X130263281Y-100357064D01*
X130225819Y-100402712D01*
X130188677Y-100472200D01*
X130165804Y-100547601D01*
X130158081Y-100626014D01*
X130160017Y-100645671D01*
X130160017Y-101500000D01*
X124860000Y-101500000D01*
X124860000Y-97155000D01*
X126313370Y-97155000D01*
X126335836Y-97383105D01*
X126402372Y-97602445D01*
X126510421Y-97804589D01*
X126655830Y-97981770D01*
X126833011Y-98127179D01*
X127035155Y-98235228D01*
X127254495Y-98301764D01*
X127425437Y-98318600D01*
X127844563Y-98318600D01*
X128015505Y-98301764D01*
X128234845Y-98235228D01*
X128436989Y-98127179D01*
X128614170Y-97981770D01*
X128759579Y-97804589D01*
X128867628Y-97602445D01*
X128934164Y-97383105D01*
X128956630Y-97155000D01*
X128934164Y-96926895D01*
X128867628Y-96707555D01*
X128759579Y-96505411D01*
X128614170Y-96328230D01*
X128436989Y-96182821D01*
X128234845Y-96074772D01*
X128015505Y-96008236D01*
X127844563Y-95991400D01*
X127425437Y-95991400D01*
X127254495Y-96008236D01*
X127035155Y-96074772D01*
X126833011Y-96182821D01*
X126655830Y-96328230D01*
X126510421Y-96505411D01*
X126402372Y-96707555D01*
X126335836Y-96926895D01*
X126313370Y-97155000D01*
X124860000Y-97155000D01*
X124860000Y-91211400D01*
X126008058Y-91211400D01*
X126011000Y-91769000D01*
X126163000Y-91921000D01*
X127481000Y-91921000D01*
X127481000Y-90755400D01*
X127789000Y-90755400D01*
X127789000Y-91921000D01*
X129107000Y-91921000D01*
X129259000Y-91769000D01*
X129261942Y-91211400D01*
X129250203Y-91092211D01*
X129240129Y-91059000D01*
X129818058Y-91059000D01*
X129821000Y-91769000D01*
X129973000Y-91921000D01*
X131291000Y-91921000D01*
X131291000Y-90603000D01*
X131139000Y-90451000D01*
X130429000Y-90448058D01*
X130309811Y-90459797D01*
X130195203Y-90494563D01*
X130089579Y-90551020D01*
X129996999Y-90626999D01*
X129921020Y-90719579D01*
X129864563Y-90825203D01*
X129829797Y-90939811D01*
X129818058Y-91059000D01*
X129240129Y-91059000D01*
X129215437Y-90977603D01*
X129158980Y-90871979D01*
X129083001Y-90779399D01*
X128990421Y-90703420D01*
X128884797Y-90646963D01*
X128770189Y-90612197D01*
X128651000Y-90600458D01*
X127941000Y-90603400D01*
X127789000Y-90755400D01*
X127481000Y-90755400D01*
X127329000Y-90603400D01*
X126619000Y-90600458D01*
X126499811Y-90612197D01*
X126385203Y-90646963D01*
X126279579Y-90703420D01*
X126186999Y-90779399D01*
X126111020Y-90871979D01*
X126054563Y-90977603D01*
X126019797Y-91092211D01*
X126008058Y-91211400D01*
X124860000Y-91211400D01*
X124860000Y-87760000D01*
X125238549Y-87760000D01*
X125238549Y-88760000D01*
X125244341Y-88818810D01*
X125261496Y-88875360D01*
X125289353Y-88927477D01*
X125326842Y-88973158D01*
X125372523Y-89010647D01*
X125424640Y-89038504D01*
X125481190Y-89055659D01*
X125540000Y-89061451D01*
X127240000Y-89061451D01*
X127298810Y-89055659D01*
X127355360Y-89038504D01*
X127407477Y-89010647D01*
X127453158Y-88973158D01*
X127490647Y-88927477D01*
X127518504Y-88875360D01*
X127535659Y-88818810D01*
X127541451Y-88760000D01*
X127541451Y-88660000D01*
X131538549Y-88660000D01*
X131538549Y-88760000D01*
X131544341Y-88818810D01*
X131561496Y-88875360D01*
X131589353Y-88927477D01*
X131626842Y-88973158D01*
X131672523Y-89010647D01*
X131724640Y-89038504D01*
X131781190Y-89055659D01*
X131840000Y-89061451D01*
X132290000Y-89061451D01*
X132290001Y-90252344D01*
X132288065Y-90272000D01*
X132295788Y-90350413D01*
X132318661Y-90425814D01*
X132330839Y-90448597D01*
X131751000Y-90451000D01*
X131599000Y-90603000D01*
X131599000Y-91921000D01*
X132917000Y-91921000D01*
X133069000Y-91769000D01*
X133069528Y-91641478D01*
X133157776Y-91729726D01*
X133272426Y-91806332D01*
X133399818Y-91859099D01*
X133535056Y-91886000D01*
X133672944Y-91886000D01*
X133808182Y-91859099D01*
X133935574Y-91806332D01*
X134050224Y-91729726D01*
X134147726Y-91632224D01*
X134224332Y-91517574D01*
X134277099Y-91390182D01*
X134304000Y-91254944D01*
X134304000Y-91117056D01*
X134277099Y-90981818D01*
X134224332Y-90854426D01*
X134147726Y-90739776D01*
X134050224Y-90642274D01*
X133935574Y-90565668D01*
X133808182Y-90512901D01*
X133672944Y-90486000D01*
X133535056Y-90486000D01*
X133480531Y-90496846D01*
X133090000Y-90106315D01*
X133090000Y-89061451D01*
X133540000Y-89061451D01*
X133598810Y-89055659D01*
X133655360Y-89038504D01*
X133707477Y-89010647D01*
X133753158Y-88973158D01*
X133790647Y-88927477D01*
X133818504Y-88875360D01*
X133835659Y-88818810D01*
X133841451Y-88760000D01*
X133841451Y-87760000D01*
X133835659Y-87701190D01*
X133818504Y-87644640D01*
X133790647Y-87592523D01*
X133753158Y-87546842D01*
X133707477Y-87509353D01*
X133655360Y-87481496D01*
X133598810Y-87464341D01*
X133540000Y-87458549D01*
X131840000Y-87458549D01*
X131781190Y-87464341D01*
X131724640Y-87481496D01*
X131672523Y-87509353D01*
X131626842Y-87546842D01*
X131589353Y-87592523D01*
X131561496Y-87644640D01*
X131544341Y-87701190D01*
X131538549Y-87760000D01*
X131538549Y-87860000D01*
X127541451Y-87860000D01*
X127541451Y-87760000D01*
X127535659Y-87701190D01*
X127518504Y-87644640D01*
X127490647Y-87592523D01*
X127453158Y-87546842D01*
X127407477Y-87509353D01*
X127355360Y-87481496D01*
X127298810Y-87464341D01*
X127240000Y-87458549D01*
X126892000Y-87458549D01*
X126892000Y-87442612D01*
X126938224Y-87411726D01*
X127035726Y-87314224D01*
X127112332Y-87199574D01*
X127165099Y-87072182D01*
X127192000Y-86936944D01*
X127192000Y-86799056D01*
X127165099Y-86663818D01*
X127144879Y-86615000D01*
X134883549Y-86615000D01*
X134883549Y-87615000D01*
X134889341Y-87673810D01*
X134906496Y-87730360D01*
X134934353Y-87782477D01*
X134971842Y-87828158D01*
X135017523Y-87865647D01*
X135069640Y-87893504D01*
X135126190Y-87910659D01*
X135185000Y-87916451D01*
X136385000Y-87916451D01*
X136443810Y-87910659D01*
X136500360Y-87893504D01*
X136552477Y-87865647D01*
X136598158Y-87828158D01*
X136635647Y-87782477D01*
X136663504Y-87730360D01*
X136680659Y-87673810D01*
X136686451Y-87615000D01*
X136686451Y-86879234D01*
X137140686Y-86425000D01*
X137228944Y-86425000D01*
X137364182Y-86398099D01*
X137491574Y-86345332D01*
X137606224Y-86268726D01*
X137703726Y-86171224D01*
X137780332Y-86056574D01*
X137833099Y-85929182D01*
X137860000Y-85793944D01*
X137860000Y-85656056D01*
X137833099Y-85520818D01*
X137780332Y-85393426D01*
X137703726Y-85278776D01*
X137606224Y-85181274D01*
X137491574Y-85104668D01*
X137364182Y-85051901D01*
X137228944Y-85025000D01*
X137091056Y-85025000D01*
X136955818Y-85051901D01*
X136828426Y-85104668D01*
X136713776Y-85181274D01*
X136616274Y-85278776D01*
X136539668Y-85393426D01*
X136486901Y-85520818D01*
X136460000Y-85656056D01*
X136460000Y-85793944D01*
X136486901Y-85929182D01*
X136492241Y-85942074D01*
X136120766Y-86313549D01*
X135185000Y-86313549D01*
X135126190Y-86319341D01*
X135069640Y-86336496D01*
X135017523Y-86364353D01*
X134971842Y-86401842D01*
X134934353Y-86447523D01*
X134906496Y-86499640D01*
X134889341Y-86556190D01*
X134883549Y-86615000D01*
X127144879Y-86615000D01*
X127112332Y-86536426D01*
X127035726Y-86421776D01*
X126938224Y-86324274D01*
X126823574Y-86247668D01*
X126696182Y-86194901D01*
X126560944Y-86168000D01*
X126423056Y-86168000D01*
X126287818Y-86194901D01*
X126160426Y-86247668D01*
X126045776Y-86324274D01*
X125948274Y-86421776D01*
X125871668Y-86536426D01*
X125818901Y-86663818D01*
X125792000Y-86799056D01*
X125792000Y-86936944D01*
X125818901Y-87072182D01*
X125871668Y-87199574D01*
X125948274Y-87314224D01*
X126045776Y-87411726D01*
X126092000Y-87442612D01*
X126092000Y-87458549D01*
X125540000Y-87458549D01*
X125481190Y-87464341D01*
X125424640Y-87481496D01*
X125372523Y-87509353D01*
X125326842Y-87546842D01*
X125289353Y-87592523D01*
X125261496Y-87644640D01*
X125244341Y-87701190D01*
X125238549Y-87760000D01*
X124860000Y-87760000D01*
X124860000Y-84960000D01*
X124929058Y-84960000D01*
X124940797Y-85079189D01*
X124975563Y-85193797D01*
X125032020Y-85299421D01*
X125107999Y-85392001D01*
X125200579Y-85467980D01*
X125306203Y-85524437D01*
X125420811Y-85559203D01*
X125540000Y-85570942D01*
X126084000Y-85568000D01*
X126236000Y-85416000D01*
X126236000Y-84614000D01*
X126544000Y-84614000D01*
X126544000Y-85416000D01*
X126696000Y-85568000D01*
X127240000Y-85570942D01*
X127359189Y-85559203D01*
X127473797Y-85524437D01*
X127579421Y-85467980D01*
X127672001Y-85392001D01*
X127747980Y-85299421D01*
X127804437Y-85193797D01*
X127839203Y-85079189D01*
X127850942Y-84960000D01*
X131229058Y-84960000D01*
X131240797Y-85079189D01*
X131275563Y-85193797D01*
X131332020Y-85299421D01*
X131407999Y-85392001D01*
X131500579Y-85467980D01*
X131606203Y-85524437D01*
X131720811Y-85559203D01*
X131840000Y-85570942D01*
X132384000Y-85568000D01*
X132536000Y-85416000D01*
X132536000Y-84614000D01*
X132844000Y-84614000D01*
X132844000Y-85416000D01*
X132996000Y-85568000D01*
X133540000Y-85570942D01*
X133659189Y-85559203D01*
X133773797Y-85524437D01*
X133879421Y-85467980D01*
X133972001Y-85392001D01*
X134047980Y-85299421D01*
X134104437Y-85193797D01*
X134139203Y-85079189D01*
X134150942Y-84960000D01*
X134148000Y-84766000D01*
X133996000Y-84614000D01*
X132844000Y-84614000D01*
X132536000Y-84614000D01*
X131384000Y-84614000D01*
X131232000Y-84766000D01*
X131229058Y-84960000D01*
X127850942Y-84960000D01*
X127848000Y-84766000D01*
X127696000Y-84614000D01*
X126544000Y-84614000D01*
X126236000Y-84614000D01*
X125084000Y-84614000D01*
X124932000Y-84766000D01*
X124929058Y-84960000D01*
X124860000Y-84960000D01*
X124860000Y-83960000D01*
X124929058Y-83960000D01*
X124932000Y-84154000D01*
X125084000Y-84306000D01*
X126236000Y-84306000D01*
X126236000Y-83504000D01*
X126544000Y-83504000D01*
X126544000Y-84306000D01*
X127696000Y-84306000D01*
X127848000Y-84154000D01*
X127850942Y-83960000D01*
X131229058Y-83960000D01*
X131232000Y-84154000D01*
X131384000Y-84306000D01*
X132536000Y-84306000D01*
X132536000Y-83504000D01*
X132844000Y-83504000D01*
X132844000Y-84306000D01*
X133996000Y-84306000D01*
X134148000Y-84154000D01*
X134150942Y-83960000D01*
X134139203Y-83840811D01*
X134104437Y-83726203D01*
X134047980Y-83620579D01*
X133972001Y-83527999D01*
X133879421Y-83452020D01*
X133773797Y-83395563D01*
X133659189Y-83360797D01*
X133540000Y-83349058D01*
X132996000Y-83352000D01*
X132844000Y-83504000D01*
X132536000Y-83504000D01*
X132384000Y-83352000D01*
X131840000Y-83349058D01*
X131720811Y-83360797D01*
X131606203Y-83395563D01*
X131500579Y-83452020D01*
X131407999Y-83527999D01*
X131332020Y-83620579D01*
X131275563Y-83726203D01*
X131240797Y-83840811D01*
X131229058Y-83960000D01*
X127850942Y-83960000D01*
X127839203Y-83840811D01*
X127804437Y-83726203D01*
X127747980Y-83620579D01*
X127672001Y-83527999D01*
X127579421Y-83452020D01*
X127473797Y-83395563D01*
X127359189Y-83360797D01*
X127240000Y-83349058D01*
X126696000Y-83352000D01*
X126544000Y-83504000D01*
X126236000Y-83504000D01*
X126084000Y-83352000D01*
X125540000Y-83349058D01*
X125420811Y-83360797D01*
X125306203Y-83395563D01*
X125200579Y-83452020D01*
X125107999Y-83527999D01*
X125032020Y-83620579D01*
X124975563Y-83726203D01*
X124940797Y-83840811D01*
X124929058Y-83960000D01*
X124860000Y-83960000D01*
X124860000Y-80029563D01*
X124887026Y-79753922D01*
X125035000Y-79753922D01*
X125035000Y-80266078D01*
X125134917Y-80768392D01*
X125330910Y-81241562D01*
X125615448Y-81667403D01*
X125977597Y-82029552D01*
X126403438Y-82314090D01*
X126876608Y-82510083D01*
X127378922Y-82610000D01*
X127891078Y-82610000D01*
X128393392Y-82510083D01*
X128866562Y-82314090D01*
X129292403Y-82029552D01*
X129654552Y-81667403D01*
X129939090Y-81241562D01*
X130135083Y-80768392D01*
X130235000Y-80266078D01*
X130235000Y-79753922D01*
X130135083Y-79251608D01*
X130110910Y-79193247D01*
X136670900Y-79193247D01*
X136670900Y-79821832D01*
X136682476Y-79939366D01*
X136728221Y-80090167D01*
X136802507Y-80229145D01*
X136902478Y-80350962D01*
X137024294Y-80450933D01*
X137163272Y-80525219D01*
X137314073Y-80570964D01*
X137470900Y-80586410D01*
X137627726Y-80570964D01*
X137778527Y-80525219D01*
X137917505Y-80450933D01*
X138039322Y-80350962D01*
X138139293Y-80229146D01*
X138213579Y-80090168D01*
X138259324Y-79939367D01*
X138270900Y-79821833D01*
X138270900Y-79193247D01*
X143670900Y-79193247D01*
X143670900Y-79821832D01*
X143682476Y-79939366D01*
X143728221Y-80090167D01*
X143802507Y-80229145D01*
X143902478Y-80350962D01*
X144024294Y-80450933D01*
X144163272Y-80525219D01*
X144314073Y-80570964D01*
X144470900Y-80586410D01*
X144627726Y-80570964D01*
X144778527Y-80525219D01*
X144917505Y-80450933D01*
X145039322Y-80350962D01*
X145139293Y-80229146D01*
X145213579Y-80090168D01*
X145259324Y-79939367D01*
X145270900Y-79821833D01*
X145270900Y-79753922D01*
X151705000Y-79753922D01*
X151705000Y-80266078D01*
X151804917Y-80768392D01*
X152000910Y-81241562D01*
X152285448Y-81667403D01*
X152647597Y-82029552D01*
X153073438Y-82314090D01*
X153546608Y-82510083D01*
X154048922Y-82610000D01*
X154561078Y-82610000D01*
X155063392Y-82510083D01*
X155536562Y-82314090D01*
X155962403Y-82029552D01*
X156324552Y-81667403D01*
X156609090Y-81241562D01*
X156805083Y-80768392D01*
X156905000Y-80266078D01*
X156905000Y-79753922D01*
X156805083Y-79251608D01*
X156609090Y-78778438D01*
X156324552Y-78352597D01*
X155962403Y-77990448D01*
X155536562Y-77705910D01*
X155063392Y-77509917D01*
X154561078Y-77410000D01*
X154048922Y-77410000D01*
X153546608Y-77509917D01*
X153073438Y-77705910D01*
X152647597Y-77990448D01*
X152285448Y-78352597D01*
X152000910Y-78778438D01*
X151804917Y-79251608D01*
X151705000Y-79753922D01*
X145270900Y-79753922D01*
X145270900Y-79193247D01*
X145259324Y-79075713D01*
X145213579Y-78924912D01*
X145145773Y-78798056D01*
X145731000Y-78798056D01*
X145731000Y-78935944D01*
X145757901Y-79071182D01*
X145810668Y-79198574D01*
X145887274Y-79313224D01*
X145984776Y-79410726D01*
X146099426Y-79487332D01*
X146226818Y-79540099D01*
X146362056Y-79567000D01*
X146499944Y-79567000D01*
X146635182Y-79540099D01*
X146762574Y-79487332D01*
X146877224Y-79410726D01*
X146918553Y-79369397D01*
X146922116Y-79381140D01*
X146949973Y-79433257D01*
X146987462Y-79478938D01*
X147033143Y-79516427D01*
X147085260Y-79544284D01*
X147141810Y-79561439D01*
X147200620Y-79567231D01*
X147998180Y-79567231D01*
X148056990Y-79561439D01*
X148113540Y-79544284D01*
X148165657Y-79516427D01*
X148211338Y-79478938D01*
X148248827Y-79433257D01*
X148276684Y-79381140D01*
X148293839Y-79324590D01*
X148299631Y-79265780D01*
X148299631Y-78468220D01*
X148397769Y-78468220D01*
X148397769Y-79265780D01*
X148403561Y-79324590D01*
X148420716Y-79381140D01*
X148448573Y-79433257D01*
X148486062Y-79478938D01*
X148531743Y-79516427D01*
X148583860Y-79544284D01*
X148640410Y-79561439D01*
X148699220Y-79567231D01*
X149496780Y-79567231D01*
X149555590Y-79561439D01*
X149612140Y-79544284D01*
X149664257Y-79516427D01*
X149709938Y-79478938D01*
X149747427Y-79433257D01*
X149775284Y-79381140D01*
X149792439Y-79324590D01*
X149798111Y-79267000D01*
X149977406Y-79267000D01*
X150001668Y-79325574D01*
X150078274Y-79440224D01*
X150175776Y-79537726D01*
X150290426Y-79614332D01*
X150417818Y-79667099D01*
X150553056Y-79694000D01*
X150690944Y-79694000D01*
X150826182Y-79667099D01*
X150953574Y-79614332D01*
X151068224Y-79537726D01*
X151165726Y-79440224D01*
X151242332Y-79325574D01*
X151295099Y-79198182D01*
X151322000Y-79062944D01*
X151322000Y-78925056D01*
X151295099Y-78789818D01*
X151242332Y-78662426D01*
X151165726Y-78547776D01*
X151068224Y-78450274D01*
X150953574Y-78373668D01*
X150826182Y-78320901D01*
X150690944Y-78294000D01*
X150553056Y-78294000D01*
X150417818Y-78320901D01*
X150290426Y-78373668D01*
X150175776Y-78450274D01*
X150159050Y-78467000D01*
X149798111Y-78467000D01*
X149792439Y-78409410D01*
X149775284Y-78352860D01*
X149747427Y-78300743D01*
X149709938Y-78255062D01*
X149664257Y-78217573D01*
X149612140Y-78189716D01*
X149555590Y-78172561D01*
X149496780Y-78166769D01*
X148699220Y-78166769D01*
X148640410Y-78172561D01*
X148583860Y-78189716D01*
X148531743Y-78217573D01*
X148486062Y-78255062D01*
X148448573Y-78300743D01*
X148420716Y-78352860D01*
X148403561Y-78409410D01*
X148397769Y-78468220D01*
X148299631Y-78468220D01*
X148293839Y-78409410D01*
X148276684Y-78352860D01*
X148248827Y-78300743D01*
X148211338Y-78255062D01*
X148165657Y-78217573D01*
X148113540Y-78189716D01*
X148056990Y-78172561D01*
X147998180Y-78166769D01*
X147200620Y-78166769D01*
X147141810Y-78172561D01*
X147085260Y-78189716D01*
X147033143Y-78217573D01*
X146987462Y-78255062D01*
X146949973Y-78300743D01*
X146922116Y-78352860D01*
X146918553Y-78364603D01*
X146877224Y-78323274D01*
X146762574Y-78246668D01*
X146635182Y-78193901D01*
X146499944Y-78167000D01*
X146362056Y-78167000D01*
X146226818Y-78193901D01*
X146099426Y-78246668D01*
X145984776Y-78323274D01*
X145887274Y-78420776D01*
X145810668Y-78535426D01*
X145757901Y-78662818D01*
X145731000Y-78798056D01*
X145145773Y-78798056D01*
X145139293Y-78785934D01*
X145039322Y-78664118D01*
X144917506Y-78564147D01*
X144778528Y-78489861D01*
X144627727Y-78444116D01*
X144470900Y-78428670D01*
X144314074Y-78444116D01*
X144163273Y-78489861D01*
X144024295Y-78564147D01*
X143902479Y-78664118D01*
X143802508Y-78785934D01*
X143728221Y-78924912D01*
X143682476Y-79075713D01*
X143670900Y-79193247D01*
X138270900Y-79193247D01*
X138259324Y-79075713D01*
X138213579Y-78924912D01*
X138139293Y-78785934D01*
X138039322Y-78664118D01*
X137917506Y-78564147D01*
X137778528Y-78489861D01*
X137627727Y-78444116D01*
X137470900Y-78428670D01*
X137314074Y-78444116D01*
X137163273Y-78489861D01*
X137024295Y-78564147D01*
X136902479Y-78664118D01*
X136802508Y-78785934D01*
X136728221Y-78924912D01*
X136682476Y-79075713D01*
X136670900Y-79193247D01*
X130110910Y-79193247D01*
X129939090Y-78778438D01*
X129654552Y-78352597D01*
X129292403Y-77990448D01*
X128866562Y-77705910D01*
X128393392Y-77509917D01*
X127891078Y-77410000D01*
X127378922Y-77410000D01*
X126876608Y-77509917D01*
X126403438Y-77705910D01*
X125977597Y-77990448D01*
X125615448Y-78352597D01*
X125330910Y-78778438D01*
X125134917Y-79251608D01*
X125035000Y-79753922D01*
X124887026Y-79753922D01*
X124914731Y-79471374D01*
X125071158Y-78953261D01*
X125325241Y-78475401D01*
X125667303Y-78055991D01*
X126084314Y-77711010D01*
X126560384Y-77453599D01*
X127077392Y-77293559D01*
X127634489Y-77235005D01*
X127635813Y-77235000D01*
X154285437Y-77235000D01*
X154843626Y-77289731D01*
G37*
X154843626Y-77289731D02*
X155361739Y-77446158D01*
X155839599Y-77700241D01*
X156259009Y-78042303D01*
X156603990Y-78459314D01*
X156861401Y-78935384D01*
X157021441Y-79452392D01*
X157079995Y-80009489D01*
X157080000Y-80010815D01*
X157080001Y-83800428D01*
X157049456Y-84111948D01*
X156964667Y-84392783D01*
X156826949Y-84651793D01*
X156641542Y-84879123D01*
X156415513Y-85066111D01*
X156157466Y-85205636D01*
X155877237Y-85292382D01*
X155566647Y-85325026D01*
X155560317Y-85325048D01*
X155542926Y-85326814D01*
X155525448Y-85326692D01*
X155519890Y-85327237D01*
X155150135Y-85366100D01*
X155114603Y-85373394D01*
X155079010Y-85380184D01*
X155073663Y-85381798D01*
X154718499Y-85491740D01*
X154685106Y-85505777D01*
X154651465Y-85519369D01*
X154646534Y-85521991D01*
X154319489Y-85698823D01*
X154289448Y-85719086D01*
X154259096Y-85738948D01*
X154254768Y-85742478D01*
X153968298Y-85979467D01*
X153942768Y-86005176D01*
X153916851Y-86030556D01*
X153913291Y-86034860D01*
X153678307Y-86322977D01*
X153658237Y-86353184D01*
X153637762Y-86383088D01*
X153635109Y-86387996D01*
X153635106Y-86388000D01*
X153635106Y-86388001D01*
X153460561Y-86716273D01*
X153446742Y-86749799D01*
X153432464Y-86783113D01*
X153430812Y-86788448D01*
X153323352Y-87144371D01*
X153316305Y-87179963D01*
X153308773Y-87215397D01*
X153308189Y-87220952D01*
X153271909Y-87590967D01*
X153270000Y-87610354D01*
X153270001Y-95904647D01*
X153271775Y-95922659D01*
X153271692Y-95934552D01*
X153272237Y-95940111D01*
X153311100Y-96309865D01*
X153318386Y-96345360D01*
X153325183Y-96380990D01*
X153326798Y-96386337D01*
X153436740Y-96741500D01*
X153450772Y-96774880D01*
X153464369Y-96808535D01*
X153466991Y-96813466D01*
X153643823Y-97140511D01*
X153664112Y-97170590D01*
X153683948Y-97200904D01*
X153687478Y-97205232D01*
X153924467Y-97491702D01*
X153950212Y-97517268D01*
X153975557Y-97543149D01*
X153979860Y-97546710D01*
X154267977Y-97781693D01*
X154298184Y-97801763D01*
X154328088Y-97822238D01*
X154332996Y-97824891D01*
X154333000Y-97824894D01*
X154333004Y-97824896D01*
X154661273Y-97999439D01*
X154694785Y-98013252D01*
X154728112Y-98027536D01*
X154733448Y-98029188D01*
X155089370Y-98136648D01*
X155124977Y-98143698D01*
X155160397Y-98151227D01*
X155165949Y-98151811D01*
X155165951Y-98151811D01*
X155535967Y-98188091D01*
X155866948Y-98220544D01*
X156147784Y-98305334D01*
X156406790Y-98443049D01*
X156634124Y-98628459D01*
X156821111Y-98854487D01*
X156960636Y-99112534D01*
X157047381Y-99392761D01*
X157080000Y-99703105D01*
X157080000Y-101500000D01*
X150260000Y-101500000D01*
X150260000Y-101022231D01*
X150299056Y-101030000D01*
X150436944Y-101030000D01*
X150572182Y-101003099D01*
X150699574Y-100950332D01*
X150814224Y-100873726D01*
X150911726Y-100776224D01*
X150988332Y-100661574D01*
X151041099Y-100534182D01*
X151068000Y-100398944D01*
X151068000Y-100261056D01*
X151053019Y-100185741D01*
X151126883Y-100171048D01*
X151254275Y-100118281D01*
X151368925Y-100041675D01*
X151466427Y-99944173D01*
X151543033Y-99829523D01*
X151595800Y-99702131D01*
X151622701Y-99566893D01*
X151622701Y-99429005D01*
X151595800Y-99293767D01*
X151543033Y-99166375D01*
X151476267Y-99066451D01*
X151835000Y-99066451D01*
X151893810Y-99060659D01*
X151950360Y-99043504D01*
X152002477Y-99015647D01*
X152048158Y-98978158D01*
X152085647Y-98932477D01*
X152113504Y-98880360D01*
X152130659Y-98823810D01*
X152136451Y-98765000D01*
X152136451Y-97765000D01*
X152130659Y-97706190D01*
X152113504Y-97649640D01*
X152085647Y-97597523D01*
X152048158Y-97551842D01*
X152002477Y-97514353D01*
X151950360Y-97486496D01*
X151893810Y-97469341D01*
X151835000Y-97463549D01*
X151426859Y-97463549D01*
X151496332Y-97359574D01*
X151549099Y-97232182D01*
X151576000Y-97096944D01*
X151576000Y-96959056D01*
X151549099Y-96823818D01*
X151496332Y-96696426D01*
X151419726Y-96581776D01*
X151322224Y-96484274D01*
X151207574Y-96407668D01*
X151080182Y-96354901D01*
X150944944Y-96328000D01*
X150807056Y-96328000D01*
X150671818Y-96354901D01*
X150544426Y-96407668D01*
X150429776Y-96484274D01*
X150332274Y-96581776D01*
X150255668Y-96696426D01*
X150202901Y-96823818D01*
X150176000Y-96959056D01*
X150176000Y-97096944D01*
X150186846Y-97151469D01*
X150166047Y-97172268D01*
X150150790Y-97184789D01*
X150138268Y-97200047D01*
X150138265Y-97200050D01*
X150100803Y-97245698D01*
X150063661Y-97315186D01*
X150040788Y-97390587D01*
X150033602Y-97463549D01*
X149960000Y-97463549D01*
X149960000Y-96647000D01*
X149958079Y-96627491D01*
X149952388Y-96608732D01*
X149943147Y-96591443D01*
X149930711Y-96576289D01*
X149915557Y-96563853D01*
X149898268Y-96554612D01*
X149879509Y-96548921D01*
X149860000Y-96547000D01*
X142594000Y-96547000D01*
X142594000Y-90101056D01*
X144588000Y-90101056D01*
X144588000Y-90238944D01*
X144614901Y-90374182D01*
X144667668Y-90501574D01*
X144744274Y-90616224D01*
X144841776Y-90713726D01*
X144956426Y-90790332D01*
X145083818Y-90843099D01*
X145219056Y-90870000D01*
X145356944Y-90870000D01*
X145492182Y-90843099D01*
X145619574Y-90790332D01*
X145734224Y-90713726D01*
X145831726Y-90616224D01*
X145908332Y-90501574D01*
X145961099Y-90374182D01*
X145988000Y-90238944D01*
X145988000Y-90101056D01*
X145961099Y-89965818D01*
X145908332Y-89838426D01*
X145831726Y-89723776D01*
X145734224Y-89626274D01*
X145619574Y-89549668D01*
X145492182Y-89496901D01*
X145356944Y-89470000D01*
X145219056Y-89470000D01*
X145083818Y-89496901D01*
X144956426Y-89549668D01*
X144841776Y-89626274D01*
X144744274Y-89723776D01*
X144667668Y-89838426D01*
X144614901Y-89965818D01*
X144588000Y-90101056D01*
X142594000Y-90101056D01*
X142594000Y-89384978D01*
X142635668Y-89485574D01*
X142712274Y-89600224D01*
X142809776Y-89697726D01*
X142924426Y-89774332D01*
X143051818Y-89827099D01*
X143187056Y-89854000D01*
X143324944Y-89854000D01*
X143460182Y-89827099D01*
X143587574Y-89774332D01*
X143702224Y-89697726D01*
X143799726Y-89600224D01*
X143876332Y-89485574D01*
X143929099Y-89358182D01*
X143956000Y-89222944D01*
X143956000Y-89085056D01*
X143929099Y-88949818D01*
X143876332Y-88822426D01*
X143799726Y-88707776D01*
X143702224Y-88610274D01*
X143587574Y-88533668D01*
X143460182Y-88480901D01*
X143324944Y-88454000D01*
X143187056Y-88454000D01*
X143051818Y-88480901D01*
X142924426Y-88533668D01*
X142809776Y-88610274D01*
X142712274Y-88707776D01*
X142635668Y-88822426D01*
X142594000Y-88923022D01*
X142594000Y-88011000D01*
X142592079Y-87991491D01*
X142586388Y-87972732D01*
X142577147Y-87955443D01*
X142564711Y-87940289D01*
X142549557Y-87927853D01*
X142532268Y-87918612D01*
X142513509Y-87912921D01*
X142494000Y-87911000D01*
X140716000Y-87911000D01*
X140696491Y-87912921D01*
X140677732Y-87918612D01*
X140660443Y-87927853D01*
X140645289Y-87940289D01*
X140632853Y-87955443D01*
X140623612Y-87972732D01*
X140617921Y-87991491D01*
X140616000Y-88011000D01*
X140616000Y-96281030D01*
X140564374Y-96229404D01*
X140578236Y-96183705D01*
X140584024Y-96124938D01*
X140584024Y-96124937D01*
X140585959Y-96105291D01*
X140584024Y-96085644D01*
X140584024Y-86033075D01*
X140834043Y-85783056D01*
X148525000Y-85783056D01*
X148525000Y-85920944D01*
X148551901Y-86056182D01*
X148604668Y-86183574D01*
X148681274Y-86298224D01*
X148778776Y-86395726D01*
X148893426Y-86472332D01*
X149020818Y-86525099D01*
X149156056Y-86552000D01*
X149293944Y-86552000D01*
X149429182Y-86525099D01*
X149556574Y-86472332D01*
X149671224Y-86395726D01*
X149768726Y-86298224D01*
X149845332Y-86183574D01*
X149898099Y-86056182D01*
X149925000Y-85920944D01*
X149925000Y-85844685D01*
X150053234Y-85716451D01*
X151835000Y-85716451D01*
X151893810Y-85710659D01*
X151950360Y-85693504D01*
X152002477Y-85665647D01*
X152048158Y-85628158D01*
X152085647Y-85582477D01*
X152113504Y-85530360D01*
X152130659Y-85473810D01*
X152136451Y-85415000D01*
X152136451Y-84115000D01*
X152130659Y-84056190D01*
X152113504Y-83999640D01*
X152085647Y-83947523D01*
X152048158Y-83901842D01*
X152002477Y-83864353D01*
X151950360Y-83836496D01*
X151893810Y-83819341D01*
X151835000Y-83813549D01*
X149935000Y-83813549D01*
X149876190Y-83819341D01*
X149819640Y-83836496D01*
X149767523Y-83864353D01*
X149721842Y-83901842D01*
X149684353Y-83947523D01*
X149656496Y-83999640D01*
X149639341Y-84056190D01*
X149633549Y-84115000D01*
X149633549Y-85004765D01*
X149450559Y-85187756D01*
X149429182Y-85178901D01*
X149293944Y-85152000D01*
X149156056Y-85152000D01*
X149020818Y-85178901D01*
X148893426Y-85231668D01*
X148778776Y-85308274D01*
X148681274Y-85405776D01*
X148604668Y-85520426D01*
X148551901Y-85647818D01*
X148525000Y-85783056D01*
X140834043Y-85783056D01*
X142366309Y-84250790D01*
X142401318Y-84279521D01*
X142496865Y-84330592D01*
X142520995Y-84337912D01*
X142600541Y-84362042D01*
X142681342Y-84370000D01*
X142681352Y-84370000D01*
X142708360Y-84372660D01*
X142735368Y-84370000D01*
X144752992Y-84370000D01*
X144780000Y-84372660D01*
X144807008Y-84370000D01*
X144807018Y-84370000D01*
X144887819Y-84362042D01*
X144991494Y-84330592D01*
X145087042Y-84279521D01*
X145170790Y-84210790D01*
X145188013Y-84189804D01*
X146673810Y-82704008D01*
X146694790Y-82686790D01*
X146712008Y-82665810D01*
X146712013Y-82665805D01*
X146763520Y-82603043D01*
X146814591Y-82507495D01*
X146814592Y-82507494D01*
X146846042Y-82403819D01*
X146854000Y-82323018D01*
X146854000Y-82323009D01*
X146856660Y-82296001D01*
X146854000Y-82268993D01*
X146854000Y-82224834D01*
X146924332Y-82119574D01*
X146977099Y-81992182D01*
X147004000Y-81856944D01*
X147004000Y-81719056D01*
X146977099Y-81583818D01*
X146924332Y-81456426D01*
X146847726Y-81341776D01*
X146750224Y-81244274D01*
X146635574Y-81167668D01*
X146508182Y-81114901D01*
X146372944Y-81088000D01*
X146235056Y-81088000D01*
X146099818Y-81114901D01*
X145972426Y-81167668D01*
X145857776Y-81244274D01*
X145760274Y-81341776D01*
X145683668Y-81456426D01*
X145630901Y-81583818D01*
X145604000Y-81719056D01*
X145604000Y-81856944D01*
X145630901Y-81992182D01*
X145683668Y-82119574D01*
X145691254Y-82130928D01*
X144552183Y-83270000D01*
X142936178Y-83270000D01*
X142820900Y-83154723D01*
X142820900Y-82799774D01*
X142888250Y-82855046D01*
X143022886Y-82927010D01*
X143168974Y-82971326D01*
X143282835Y-82982540D01*
X143658965Y-82982540D01*
X143772826Y-82971326D01*
X143918914Y-82927010D01*
X144053550Y-82855046D01*
X144171559Y-82758199D01*
X144268406Y-82640190D01*
X144340370Y-82505554D01*
X144384686Y-82359466D01*
X144399649Y-82207540D01*
X144384686Y-82055614D01*
X144340370Y-81909526D01*
X144268406Y-81774890D01*
X144171559Y-81656881D01*
X144053550Y-81560034D01*
X143918914Y-81488070D01*
X143772826Y-81443754D01*
X143658965Y-81432540D01*
X143282835Y-81432540D01*
X143168974Y-81443754D01*
X143022886Y-81488070D01*
X142888250Y-81560034D01*
X142772351Y-81655149D01*
X142772351Y-81532540D01*
X142766559Y-81473730D01*
X142749404Y-81417180D01*
X142721547Y-81365063D01*
X142684058Y-81319382D01*
X142638377Y-81281893D01*
X142586260Y-81254036D01*
X142529710Y-81236881D01*
X142470900Y-81231089D01*
X142070900Y-81231089D01*
X142012090Y-81236881D01*
X141955540Y-81254036D01*
X141945900Y-81259189D01*
X141936260Y-81254036D01*
X141879710Y-81236881D01*
X141820900Y-81231089D01*
X141420900Y-81231089D01*
X141362090Y-81236881D01*
X141305540Y-81254036D01*
X141295900Y-81259189D01*
X141286260Y-81254036D01*
X141229710Y-81236881D01*
X141170900Y-81231089D01*
X140770900Y-81231089D01*
X140712090Y-81236881D01*
X140655540Y-81254036D01*
X140645900Y-81259189D01*
X140636260Y-81254036D01*
X140579710Y-81236881D01*
X140520900Y-81231089D01*
X140120900Y-81231089D01*
X140062090Y-81236881D01*
X140005540Y-81254036D01*
X139995900Y-81259189D01*
X139986260Y-81254036D01*
X139929710Y-81236881D01*
X139870900Y-81231089D01*
X139470900Y-81231089D01*
X139412090Y-81236881D01*
X139355540Y-81254036D01*
X139303423Y-81281893D01*
X139257742Y-81319382D01*
X139220253Y-81365063D01*
X139192396Y-81417180D01*
X139175241Y-81473730D01*
X139169449Y-81532540D01*
X139169449Y-81655149D01*
X139053550Y-81560034D01*
X138918914Y-81488070D01*
X138772826Y-81443754D01*
X138658965Y-81432540D01*
X138282835Y-81432540D01*
X138168974Y-81443754D01*
X138022886Y-81488070D01*
X137888250Y-81560034D01*
X137770241Y-81656881D01*
X137673394Y-81774890D01*
X137601430Y-81909526D01*
X137557114Y-82055614D01*
X137542151Y-82207540D01*
X137557114Y-82359466D01*
X137601430Y-82505554D01*
X137673394Y-82640190D01*
X137770241Y-82758199D01*
X137888250Y-82855046D01*
X138022886Y-82927010D01*
X138168974Y-82971326D01*
X138282835Y-82982540D01*
X138658965Y-82982540D01*
X138772826Y-82971326D01*
X138918914Y-82927010D01*
X139053550Y-82855046D01*
X139169449Y-82759931D01*
X139169449Y-82882540D01*
X139175241Y-82941350D01*
X139192396Y-82997900D01*
X139220253Y-83050017D01*
X139257742Y-83095698D01*
X139270901Y-83106497D01*
X139270901Y-83264832D01*
X139253776Y-83276274D01*
X139156274Y-83373776D01*
X139079668Y-83488426D01*
X139026901Y-83615818D01*
X139000000Y-83751056D01*
X139000000Y-83888944D01*
X139026901Y-84024182D01*
X139079668Y-84151574D01*
X139156274Y-84266224D01*
X139253776Y-84363726D01*
X139368426Y-84440332D01*
X139495818Y-84493099D01*
X139631056Y-84520000D01*
X139768944Y-84520000D01*
X139850567Y-84503764D01*
X139115054Y-85239277D01*
X139099791Y-85251803D01*
X139049805Y-85312712D01*
X139012662Y-85382201D01*
X138994890Y-85440789D01*
X138989790Y-85457601D01*
X138982067Y-85536014D01*
X138984002Y-85555660D01*
X138984003Y-90679591D01*
X138888182Y-90639901D01*
X138752944Y-90613000D01*
X138615056Y-90613000D01*
X138479818Y-90639901D01*
X138352426Y-90692668D01*
X138237776Y-90769274D01*
X138144367Y-90862684D01*
X136777735Y-89496052D01*
X136765209Y-89480789D01*
X136704301Y-89430803D01*
X136686451Y-89421262D01*
X136686451Y-89415000D01*
X136680659Y-89356190D01*
X136663504Y-89299640D01*
X136635647Y-89247523D01*
X136608956Y-89215000D01*
X136635647Y-89182477D01*
X136663504Y-89130360D01*
X136680659Y-89073810D01*
X136686451Y-89015000D01*
X136686451Y-88315000D01*
X136680659Y-88256190D01*
X136663504Y-88199640D01*
X136635647Y-88147523D01*
X136598158Y-88101842D01*
X136552477Y-88064353D01*
X136500360Y-88036496D01*
X136443810Y-88019341D01*
X136385000Y-88013549D01*
X135185000Y-88013549D01*
X135126190Y-88019341D01*
X135069640Y-88036496D01*
X135017523Y-88064353D01*
X134971842Y-88101842D01*
X134934353Y-88147523D01*
X134906496Y-88199640D01*
X134889341Y-88256190D01*
X134883549Y-88315000D01*
X134883549Y-89015000D01*
X134889341Y-89073810D01*
X134906496Y-89130360D01*
X134934353Y-89182477D01*
X134961044Y-89215000D01*
X134934353Y-89247523D01*
X134906496Y-89299640D01*
X134889341Y-89356190D01*
X134883549Y-89415000D01*
X134883549Y-90115000D01*
X134889341Y-90173810D01*
X134906496Y-90230360D01*
X134934353Y-90282477D01*
X134961044Y-90315000D01*
X134934353Y-90347523D01*
X134906496Y-90399640D01*
X134889341Y-90456190D01*
X134883549Y-90515000D01*
X134883549Y-91086725D01*
X134845579Y-91107020D01*
X134752999Y-91182999D01*
X134677020Y-91275579D01*
X134620563Y-91381203D01*
X134585797Y-91495811D01*
X134574058Y-91615000D01*
X134577000Y-91659000D01*
X134729000Y-91811000D01*
X135631000Y-91811000D01*
X135631000Y-91791000D01*
X135939000Y-91791000D01*
X135939000Y-91811000D01*
X135959000Y-91811000D01*
X135959000Y-92119000D01*
X135939000Y-92119000D01*
X135939000Y-92139000D01*
X135631000Y-92139000D01*
X135631000Y-92119000D01*
X134729000Y-92119000D01*
X134577000Y-92271000D01*
X134574058Y-92315000D01*
X134585797Y-92434189D01*
X134620563Y-92548797D01*
X134677020Y-92654421D01*
X134752999Y-92747001D01*
X134845579Y-92822980D01*
X134883549Y-92843275D01*
X134883549Y-93415000D01*
X134889341Y-93473810D01*
X134906496Y-93530360D01*
X134934353Y-93582477D01*
X134961044Y-93615000D01*
X134934353Y-93647523D01*
X134906496Y-93699640D01*
X134889341Y-93756190D01*
X134883549Y-93815000D01*
X134883549Y-94515000D01*
X134889341Y-94573810D01*
X134906496Y-94630360D01*
X134934353Y-94682477D01*
X134961044Y-94715000D01*
X134934353Y-94747523D01*
X134906496Y-94799640D01*
X134889341Y-94856190D01*
X134883549Y-94915000D01*
X134883549Y-95615000D01*
X134889341Y-95673810D01*
X134906496Y-95730360D01*
X134934353Y-95782477D01*
X134961044Y-95815000D01*
X134934353Y-95847523D01*
X134906496Y-95899640D01*
X134889341Y-95956190D01*
X134883549Y-96015000D01*
X134883549Y-96715000D01*
X134889341Y-96773810D01*
X134906496Y-96830360D01*
X134911649Y-96840000D01*
X134906496Y-96849640D01*
X134889341Y-96906190D01*
X134883549Y-96965000D01*
X134883549Y-97665000D01*
X134889341Y-97723810D01*
X134906496Y-97780360D01*
X134934353Y-97832477D01*
X134971842Y-97878158D01*
X135017523Y-97915647D01*
X135069640Y-97943504D01*
X135126190Y-97960659D01*
X135185000Y-97966451D01*
X136385000Y-97966451D01*
X136443810Y-97960659D01*
X136500360Y-97943504D01*
X136552477Y-97915647D01*
X136598158Y-97878158D01*
X136635647Y-97832477D01*
X136663504Y-97780360D01*
X136680659Y-97723810D01*
X136682672Y-97703370D01*
X136738814Y-97686340D01*
X136808303Y-97649197D01*
X136869211Y-97599211D01*
X136881738Y-97583947D01*
X136982942Y-97482742D01*
X136998209Y-97470213D01*
X137048195Y-97409305D01*
X137085338Y-97339816D01*
X137108210Y-97264416D01*
X137113998Y-97205649D01*
X137113998Y-97205648D01*
X137115933Y-97186002D01*
X137113998Y-97166355D01*
X137113998Y-96623687D01*
X137290532Y-96447154D01*
X137345056Y-96458000D01*
X137482944Y-96458000D01*
X137618182Y-96431099D01*
X137745574Y-96378332D01*
X137860224Y-96301726D01*
X137880132Y-96281818D01*
X139220937Y-97622623D01*
X139206496Y-97649640D01*
X139189341Y-97706190D01*
X139183549Y-97765000D01*
X139183549Y-98765000D01*
X139189341Y-98823810D01*
X139206496Y-98880360D01*
X139234353Y-98932477D01*
X139271842Y-98978158D01*
X139317523Y-99015647D01*
X139369640Y-99043504D01*
X139426190Y-99060659D01*
X139485000Y-99066451D01*
X140685000Y-99066451D01*
X140743810Y-99060659D01*
X140800360Y-99043504D01*
X140852477Y-99015647D01*
X140898158Y-98978158D01*
X140935647Y-98932477D01*
X140963504Y-98880360D01*
X140980659Y-98823810D01*
X140986451Y-98765000D01*
X140986451Y-97765000D01*
X140980659Y-97706190D01*
X140963504Y-97649640D01*
X140935647Y-97597523D01*
X140898158Y-97551842D01*
X140852477Y-97514353D01*
X140800360Y-97486496D01*
X140743810Y-97469341D01*
X140685000Y-97463549D01*
X140193235Y-97463549D01*
X140182067Y-97452382D01*
X140304192Y-97428089D01*
X140431584Y-97375322D01*
X140546234Y-97298716D01*
X140643736Y-97201214D01*
X140720342Y-97086564D01*
X140755783Y-97001000D01*
X141886000Y-97001000D01*
X141886000Y-97663000D01*
X141887921Y-97682509D01*
X141893612Y-97701268D01*
X141902853Y-97718557D01*
X141915289Y-97733711D01*
X141930443Y-97746147D01*
X141947732Y-97755388D01*
X141966491Y-97761079D01*
X141986000Y-97763000D01*
X145583746Y-97763000D01*
X145583549Y-97765000D01*
X145583549Y-98765000D01*
X145589341Y-98823810D01*
X145606496Y-98880360D01*
X145634353Y-98932477D01*
X145671842Y-98978158D01*
X145717523Y-99015647D01*
X145769640Y-99043504D01*
X145826190Y-99060659D01*
X145885000Y-99066451D01*
X145897777Y-99066451D01*
X145913661Y-99118814D01*
X145950803Y-99188302D01*
X145988265Y-99233950D01*
X145988268Y-99233953D01*
X146000790Y-99249211D01*
X146016048Y-99261733D01*
X146088264Y-99333949D01*
X146100790Y-99349212D01*
X146161698Y-99399198D01*
X146228696Y-99435009D01*
X146191668Y-99490426D01*
X146138901Y-99617818D01*
X146112036Y-99752877D01*
X146083727Y-99710510D01*
X145986225Y-99613008D01*
X145871575Y-99536402D01*
X145744183Y-99483635D01*
X145608945Y-99456734D01*
X145471057Y-99456734D01*
X145335819Y-99483635D01*
X145208427Y-99536402D01*
X145093777Y-99613008D01*
X144996275Y-99710510D01*
X144919669Y-99825160D01*
X144866902Y-99952552D01*
X144840001Y-100087790D01*
X144840001Y-100225678D01*
X144866902Y-100360916D01*
X144882546Y-100398684D01*
X144848944Y-100392000D01*
X144711056Y-100392000D01*
X144577975Y-100418472D01*
X144577975Y-100323056D01*
X144551074Y-100187818D01*
X144498307Y-100060426D01*
X144421701Y-99945776D01*
X144324199Y-99848274D01*
X144209549Y-99771668D01*
X144082157Y-99718901D01*
X143946919Y-99692000D01*
X143809031Y-99692000D01*
X143673793Y-99718901D01*
X143546401Y-99771668D01*
X143431751Y-99848274D01*
X143334249Y-99945776D01*
X143257643Y-100060426D01*
X143204876Y-100187818D01*
X143177975Y-100323056D01*
X143177975Y-100460944D01*
X143204876Y-100596182D01*
X143257643Y-100723574D01*
X143334249Y-100838224D01*
X143405870Y-100909845D01*
X143070556Y-101245159D01*
X143096440Y-101182669D01*
X143123341Y-101047431D01*
X143123341Y-100909543D01*
X143096440Y-100774305D01*
X143043673Y-100646913D01*
X142967067Y-100532263D01*
X142869565Y-100434761D01*
X142754915Y-100358155D01*
X142627523Y-100305388D01*
X142492285Y-100278487D01*
X142354397Y-100278487D01*
X142219159Y-100305388D01*
X142091767Y-100358155D01*
X141977117Y-100434761D01*
X141879615Y-100532263D01*
X141803009Y-100646913D01*
X141750242Y-100774305D01*
X141723341Y-100909543D01*
X141723341Y-101047431D01*
X141734187Y-101101955D01*
X141336143Y-101500000D01*
X141023318Y-101500000D01*
X141023318Y-100904612D01*
X141069542Y-100873726D01*
X141167044Y-100776224D01*
X141243650Y-100661574D01*
X141296417Y-100534182D01*
X141323318Y-100398944D01*
X141323318Y-100261056D01*
X141296417Y-100125818D01*
X141243650Y-99998426D01*
X141167044Y-99883776D01*
X141069542Y-99786274D01*
X140954892Y-99709668D01*
X140827500Y-99656901D01*
X140692262Y-99630000D01*
X140554374Y-99630000D01*
X140419136Y-99656901D01*
X140291744Y-99709668D01*
X140177094Y-99786274D01*
X140079592Y-99883776D01*
X140002986Y-99998426D01*
X139950219Y-100125818D01*
X139923318Y-100261056D01*
X139923318Y-100398944D01*
X139950219Y-100534182D01*
X140002986Y-100661574D01*
X140079592Y-100776224D01*
X140177094Y-100873726D01*
X140223318Y-100904612D01*
X140223318Y-100915331D01*
X140223319Y-100915341D01*
X140223319Y-101068344D01*
X140154372Y-101022276D01*
X140026980Y-100969509D01*
X139891742Y-100942608D01*
X139753854Y-100942608D01*
X139618616Y-100969509D01*
X139491224Y-101022276D01*
X139376574Y-101098882D01*
X139279072Y-101196384D01*
X139248942Y-101241478D01*
X139178699Y-101248396D01*
X139103299Y-101271268D01*
X139033810Y-101308411D01*
X139022002Y-101318101D01*
X139022002Y-100941001D01*
X139102993Y-100957111D01*
X139240881Y-100957111D01*
X139376119Y-100930210D01*
X139503511Y-100877443D01*
X139618161Y-100800837D01*
X139715663Y-100703335D01*
X139792269Y-100588685D01*
X139845036Y-100461293D01*
X139871937Y-100326055D01*
X139871937Y-100188167D01*
X139845036Y-100052929D01*
X139792269Y-99925537D01*
X139715663Y-99810887D01*
X139618161Y-99713385D01*
X139503511Y-99636779D01*
X139376119Y-99584012D01*
X139240881Y-99557111D01*
X139102993Y-99557111D01*
X139048469Y-99567957D01*
X138726573Y-99246062D01*
X138714047Y-99230799D01*
X138653139Y-99180813D01*
X138583650Y-99143670D01*
X138508250Y-99120798D01*
X138449483Y-99115010D01*
X138449482Y-99115010D01*
X138429836Y-99113075D01*
X138410190Y-99115010D01*
X134966692Y-99115010D01*
X134061014Y-98209332D01*
X134062186Y-98209099D01*
X134189578Y-98156332D01*
X134304228Y-98079726D01*
X134401730Y-97982224D01*
X134478336Y-97867574D01*
X134531103Y-97740182D01*
X134558004Y-97604944D01*
X134558004Y-97467056D01*
X134531103Y-97331818D01*
X134478336Y-97204426D01*
X134401730Y-97089776D01*
X134304228Y-96992274D01*
X134189578Y-96915668D01*
X134062186Y-96862901D01*
X133926948Y-96836000D01*
X133789060Y-96836000D01*
X133653822Y-96862901D01*
X133526430Y-96915668D01*
X133411780Y-96992274D01*
X133314278Y-97089776D01*
X133283392Y-97136000D01*
X131991686Y-97136000D01*
X129201737Y-94346052D01*
X129189211Y-94330789D01*
X129128303Y-94280803D01*
X129058814Y-94243660D01*
X128983414Y-94220788D01*
X128924647Y-94215000D01*
X128924646Y-94215000D01*
X128905000Y-94213065D01*
X128885354Y-94215000D01*
X128882020Y-94215000D01*
X128867628Y-94167555D01*
X128759579Y-93965411D01*
X128614170Y-93788230D01*
X128436989Y-93642821D01*
X128259442Y-93547920D01*
X128651000Y-93549542D01*
X128770189Y-93537803D01*
X128884797Y-93503037D01*
X128990421Y-93446580D01*
X129083001Y-93370601D01*
X129158980Y-93278021D01*
X129215437Y-93172397D01*
X129240128Y-93091000D01*
X129818058Y-93091000D01*
X129829797Y-93210189D01*
X129864563Y-93324797D01*
X129921020Y-93430421D01*
X129996999Y-93523001D01*
X130089579Y-93598980D01*
X130195203Y-93655437D01*
X130309811Y-93690203D01*
X130429000Y-93701942D01*
X130497236Y-93701659D01*
X130422796Y-93776099D01*
X130278776Y-93991640D01*
X130179573Y-94231137D01*
X130129000Y-94485385D01*
X130129000Y-94744615D01*
X130179573Y-94998863D01*
X130278776Y-95238360D01*
X130422796Y-95453901D01*
X130606099Y-95637204D01*
X130821640Y-95781224D01*
X131061137Y-95880427D01*
X131315385Y-95931000D01*
X131574615Y-95931000D01*
X131828863Y-95880427D01*
X132068360Y-95781224D01*
X132283901Y-95637204D01*
X132467204Y-95453901D01*
X132611224Y-95238360D01*
X132710427Y-94998863D01*
X132761000Y-94744615D01*
X132761000Y-94485385D01*
X132710427Y-94231137D01*
X132611224Y-93991640D01*
X132467204Y-93776099D01*
X132392764Y-93701659D01*
X132461000Y-93701942D01*
X132580189Y-93690203D01*
X132694797Y-93655437D01*
X132800421Y-93598980D01*
X132893001Y-93523001D01*
X132968980Y-93430421D01*
X133025437Y-93324797D01*
X133060203Y-93210189D01*
X133071942Y-93091000D01*
X133069000Y-92381000D01*
X132917000Y-92229000D01*
X131599000Y-92229000D01*
X131599000Y-92249000D01*
X131291000Y-92249000D01*
X131291000Y-92229000D01*
X129973000Y-92229000D01*
X129821000Y-92381000D01*
X129818058Y-93091000D01*
X129240128Y-93091000D01*
X129250203Y-93057789D01*
X129261942Y-92938600D01*
X129259000Y-92381000D01*
X129107000Y-92229000D01*
X127789000Y-92229000D01*
X127789000Y-92249000D01*
X127481000Y-92249000D01*
X127481000Y-92229000D01*
X126163000Y-92229000D01*
X126011000Y-92381000D01*
X126008058Y-92938600D01*
X126019797Y-93057789D01*
X126054563Y-93172397D01*
X126111020Y-93278021D01*
X126186999Y-93370601D01*
X126279579Y-93446580D01*
X126385203Y-93503037D01*
X126499811Y-93537803D01*
X126619000Y-93549542D01*
X127010558Y-93547920D01*
X126833011Y-93642821D01*
X126655830Y-93788230D01*
X126510421Y-93965411D01*
X126402372Y-94167555D01*
X126335836Y-94386895D01*
X126313370Y-94615000D01*
X126335836Y-94843105D01*
X126402372Y-95062445D01*
X126510421Y-95264589D01*
X126655830Y-95441770D01*
X126833011Y-95587179D01*
X127035155Y-95695228D01*
X127254495Y-95761764D01*
X127425437Y-95778600D01*
X127844563Y-95778600D01*
X128015505Y-95761764D01*
X128234845Y-95695228D01*
X128436989Y-95587179D01*
X128614170Y-95441770D01*
X128759579Y-95264589D01*
X128839459Y-95115144D01*
X131260325Y-97536011D01*
X130629624Y-97536011D01*
X130609988Y-97534077D01*
X130590352Y-97536011D01*
X130590342Y-97536011D01*
X130531575Y-97541799D01*
X130456175Y-97564671D01*
X130386686Y-97601814D01*
X130355603Y-97627323D01*
X130341038Y-97639276D01*
X130341036Y-97639278D01*
X130325778Y-97651800D01*
X130313256Y-97667058D01*
X128820650Y-99159665D01*
X128759579Y-99045411D01*
X128614170Y-98868230D01*
X128436989Y-98722821D01*
X128234845Y-98614772D01*
X128015505Y-98548236D01*
X127844563Y-98531400D01*
X127425437Y-98531400D01*
X127254495Y-98548236D01*
X127035155Y-98614772D01*
X126833011Y-98722821D01*
X126655830Y-98868230D01*
X126510421Y-99045411D01*
X126402372Y-99247555D01*
X126335836Y-99466895D01*
X126313370Y-99695000D01*
X126335836Y-99923105D01*
X126402372Y-100142445D01*
X126510421Y-100344589D01*
X126655830Y-100521770D01*
X126833011Y-100667179D01*
X127035155Y-100775228D01*
X127254495Y-100841764D01*
X127425437Y-100858600D01*
X127844563Y-100858600D01*
X128015505Y-100841764D01*
X128234845Y-100775228D01*
X128436989Y-100667179D01*
X128614170Y-100521770D01*
X128759579Y-100344589D01*
X128867628Y-100142445D01*
X128882371Y-100093845D01*
X128929414Y-100089212D01*
X129004814Y-100066340D01*
X129074303Y-100029197D01*
X129135211Y-99979211D01*
X129147737Y-99963948D01*
X130775675Y-98336011D01*
X131052039Y-98336011D01*
X131028274Y-98359776D01*
X130951668Y-98474426D01*
X130898901Y-98601818D01*
X130872000Y-98737056D01*
X130872000Y-98874944D01*
X130898901Y-99010182D01*
X130951668Y-99137574D01*
X131028274Y-99252224D01*
X131125776Y-99349726D01*
X131240426Y-99426332D01*
X131367818Y-99479099D01*
X131503056Y-99506000D01*
X131640944Y-99506000D01*
X131680001Y-99498231D01*
X131680000Y-101500000D01*
X130960016Y-101500000D01*
X130960016Y-100926015D01*
X131028959Y-100926015D01*
X131164197Y-100899114D01*
X131291589Y-100846347D01*
X131406239Y-100769741D01*
X131503741Y-100672239D01*
X131580347Y-100557589D01*
X131633114Y-100430197D01*
X131660015Y-100294959D01*
X131660015Y-100157071D01*
X131633114Y-100021833D01*
X131580347Y-99894441D01*
X131503741Y-99779791D01*
X131406239Y-99682289D01*
X131291589Y-99605683D01*
X131164197Y-99552916D01*
X131028959Y-99526015D01*
X130891071Y-99526015D01*
X130755833Y-99552916D01*
X130628441Y-99605683D01*
X130513791Y-99682289D01*
X130416289Y-99779791D01*
X130339683Y-99894441D01*
X130286916Y-100021833D01*
X130260015Y-100157071D01*
X130260015Y-100294959D01*
X130270596Y-100348152D01*
X130263284Y-100357061D01*
X130263281Y-100357064D01*
X130225819Y-100402712D01*
X130188677Y-100472200D01*
X130165804Y-100547601D01*
X130158081Y-100626014D01*
X130160017Y-100645671D01*
X130160017Y-101500000D01*
X124860000Y-101500000D01*
X124860000Y-97155000D01*
X126313370Y-97155000D01*
X126335836Y-97383105D01*
X126402372Y-97602445D01*
X126510421Y-97804589D01*
X126655830Y-97981770D01*
X126833011Y-98127179D01*
X127035155Y-98235228D01*
X127254495Y-98301764D01*
X127425437Y-98318600D01*
X127844563Y-98318600D01*
X128015505Y-98301764D01*
X128234845Y-98235228D01*
X128436989Y-98127179D01*
X128614170Y-97981770D01*
X128759579Y-97804589D01*
X128867628Y-97602445D01*
X128934164Y-97383105D01*
X128956630Y-97155000D01*
X128934164Y-96926895D01*
X128867628Y-96707555D01*
X128759579Y-96505411D01*
X128614170Y-96328230D01*
X128436989Y-96182821D01*
X128234845Y-96074772D01*
X128015505Y-96008236D01*
X127844563Y-95991400D01*
X127425437Y-95991400D01*
X127254495Y-96008236D01*
X127035155Y-96074772D01*
X126833011Y-96182821D01*
X126655830Y-96328230D01*
X126510421Y-96505411D01*
X126402372Y-96707555D01*
X126335836Y-96926895D01*
X126313370Y-97155000D01*
X124860000Y-97155000D01*
X124860000Y-91211400D01*
X126008058Y-91211400D01*
X126011000Y-91769000D01*
X126163000Y-91921000D01*
X127481000Y-91921000D01*
X127481000Y-90755400D01*
X127789000Y-90755400D01*
X127789000Y-91921000D01*
X129107000Y-91921000D01*
X129259000Y-91769000D01*
X129261942Y-91211400D01*
X129250203Y-91092211D01*
X129240129Y-91059000D01*
X129818058Y-91059000D01*
X129821000Y-91769000D01*
X129973000Y-91921000D01*
X131291000Y-91921000D01*
X131291000Y-90603000D01*
X131139000Y-90451000D01*
X130429000Y-90448058D01*
X130309811Y-90459797D01*
X130195203Y-90494563D01*
X130089579Y-90551020D01*
X129996999Y-90626999D01*
X129921020Y-90719579D01*
X129864563Y-90825203D01*
X129829797Y-90939811D01*
X129818058Y-91059000D01*
X129240129Y-91059000D01*
X129215437Y-90977603D01*
X129158980Y-90871979D01*
X129083001Y-90779399D01*
X128990421Y-90703420D01*
X128884797Y-90646963D01*
X128770189Y-90612197D01*
X128651000Y-90600458D01*
X127941000Y-90603400D01*
X127789000Y-90755400D01*
X127481000Y-90755400D01*
X127329000Y-90603400D01*
X126619000Y-90600458D01*
X126499811Y-90612197D01*
X126385203Y-90646963D01*
X126279579Y-90703420D01*
X126186999Y-90779399D01*
X126111020Y-90871979D01*
X126054563Y-90977603D01*
X126019797Y-91092211D01*
X126008058Y-91211400D01*
X124860000Y-91211400D01*
X124860000Y-87760000D01*
X125238549Y-87760000D01*
X125238549Y-88760000D01*
X125244341Y-88818810D01*
X125261496Y-88875360D01*
X125289353Y-88927477D01*
X125326842Y-88973158D01*
X125372523Y-89010647D01*
X125424640Y-89038504D01*
X125481190Y-89055659D01*
X125540000Y-89061451D01*
X127240000Y-89061451D01*
X127298810Y-89055659D01*
X127355360Y-89038504D01*
X127407477Y-89010647D01*
X127453158Y-88973158D01*
X127490647Y-88927477D01*
X127518504Y-88875360D01*
X127535659Y-88818810D01*
X127541451Y-88760000D01*
X127541451Y-88660000D01*
X131538549Y-88660000D01*
X131538549Y-88760000D01*
X131544341Y-88818810D01*
X131561496Y-88875360D01*
X131589353Y-88927477D01*
X131626842Y-88973158D01*
X131672523Y-89010647D01*
X131724640Y-89038504D01*
X131781190Y-89055659D01*
X131840000Y-89061451D01*
X132290000Y-89061451D01*
X132290001Y-90252344D01*
X132288065Y-90272000D01*
X132295788Y-90350413D01*
X132318661Y-90425814D01*
X132330839Y-90448597D01*
X131751000Y-90451000D01*
X131599000Y-90603000D01*
X131599000Y-91921000D01*
X132917000Y-91921000D01*
X133069000Y-91769000D01*
X133069528Y-91641478D01*
X133157776Y-91729726D01*
X133272426Y-91806332D01*
X133399818Y-91859099D01*
X133535056Y-91886000D01*
X133672944Y-91886000D01*
X133808182Y-91859099D01*
X133935574Y-91806332D01*
X134050224Y-91729726D01*
X134147726Y-91632224D01*
X134224332Y-91517574D01*
X134277099Y-91390182D01*
X134304000Y-91254944D01*
X134304000Y-91117056D01*
X134277099Y-90981818D01*
X134224332Y-90854426D01*
X134147726Y-90739776D01*
X134050224Y-90642274D01*
X133935574Y-90565668D01*
X133808182Y-90512901D01*
X133672944Y-90486000D01*
X133535056Y-90486000D01*
X133480531Y-90496846D01*
X133090000Y-90106315D01*
X133090000Y-89061451D01*
X133540000Y-89061451D01*
X133598810Y-89055659D01*
X133655360Y-89038504D01*
X133707477Y-89010647D01*
X133753158Y-88973158D01*
X133790647Y-88927477D01*
X133818504Y-88875360D01*
X133835659Y-88818810D01*
X133841451Y-88760000D01*
X133841451Y-87760000D01*
X133835659Y-87701190D01*
X133818504Y-87644640D01*
X133790647Y-87592523D01*
X133753158Y-87546842D01*
X133707477Y-87509353D01*
X133655360Y-87481496D01*
X133598810Y-87464341D01*
X133540000Y-87458549D01*
X131840000Y-87458549D01*
X131781190Y-87464341D01*
X131724640Y-87481496D01*
X131672523Y-87509353D01*
X131626842Y-87546842D01*
X131589353Y-87592523D01*
X131561496Y-87644640D01*
X131544341Y-87701190D01*
X131538549Y-87760000D01*
X131538549Y-87860000D01*
X127541451Y-87860000D01*
X127541451Y-87760000D01*
X127535659Y-87701190D01*
X127518504Y-87644640D01*
X127490647Y-87592523D01*
X127453158Y-87546842D01*
X127407477Y-87509353D01*
X127355360Y-87481496D01*
X127298810Y-87464341D01*
X127240000Y-87458549D01*
X126892000Y-87458549D01*
X126892000Y-87442612D01*
X126938224Y-87411726D01*
X127035726Y-87314224D01*
X127112332Y-87199574D01*
X127165099Y-87072182D01*
X127192000Y-86936944D01*
X127192000Y-86799056D01*
X127165099Y-86663818D01*
X127144879Y-86615000D01*
X134883549Y-86615000D01*
X134883549Y-87615000D01*
X134889341Y-87673810D01*
X134906496Y-87730360D01*
X134934353Y-87782477D01*
X134971842Y-87828158D01*
X135017523Y-87865647D01*
X135069640Y-87893504D01*
X135126190Y-87910659D01*
X135185000Y-87916451D01*
X136385000Y-87916451D01*
X136443810Y-87910659D01*
X136500360Y-87893504D01*
X136552477Y-87865647D01*
X136598158Y-87828158D01*
X136635647Y-87782477D01*
X136663504Y-87730360D01*
X136680659Y-87673810D01*
X136686451Y-87615000D01*
X136686451Y-86879234D01*
X137140686Y-86425000D01*
X137228944Y-86425000D01*
X137364182Y-86398099D01*
X137491574Y-86345332D01*
X137606224Y-86268726D01*
X137703726Y-86171224D01*
X137780332Y-86056574D01*
X137833099Y-85929182D01*
X137860000Y-85793944D01*
X137860000Y-85656056D01*
X137833099Y-85520818D01*
X137780332Y-85393426D01*
X137703726Y-85278776D01*
X137606224Y-85181274D01*
X137491574Y-85104668D01*
X137364182Y-85051901D01*
X137228944Y-85025000D01*
X137091056Y-85025000D01*
X136955818Y-85051901D01*
X136828426Y-85104668D01*
X136713776Y-85181274D01*
X136616274Y-85278776D01*
X136539668Y-85393426D01*
X136486901Y-85520818D01*
X136460000Y-85656056D01*
X136460000Y-85793944D01*
X136486901Y-85929182D01*
X136492241Y-85942074D01*
X136120766Y-86313549D01*
X135185000Y-86313549D01*
X135126190Y-86319341D01*
X135069640Y-86336496D01*
X135017523Y-86364353D01*
X134971842Y-86401842D01*
X134934353Y-86447523D01*
X134906496Y-86499640D01*
X134889341Y-86556190D01*
X134883549Y-86615000D01*
X127144879Y-86615000D01*
X127112332Y-86536426D01*
X127035726Y-86421776D01*
X126938224Y-86324274D01*
X126823574Y-86247668D01*
X126696182Y-86194901D01*
X126560944Y-86168000D01*
X126423056Y-86168000D01*
X126287818Y-86194901D01*
X126160426Y-86247668D01*
X126045776Y-86324274D01*
X125948274Y-86421776D01*
X125871668Y-86536426D01*
X125818901Y-86663818D01*
X125792000Y-86799056D01*
X125792000Y-86936944D01*
X125818901Y-87072182D01*
X125871668Y-87199574D01*
X125948274Y-87314224D01*
X126045776Y-87411726D01*
X126092000Y-87442612D01*
X126092000Y-87458549D01*
X125540000Y-87458549D01*
X125481190Y-87464341D01*
X125424640Y-87481496D01*
X125372523Y-87509353D01*
X125326842Y-87546842D01*
X125289353Y-87592523D01*
X125261496Y-87644640D01*
X125244341Y-87701190D01*
X125238549Y-87760000D01*
X124860000Y-87760000D01*
X124860000Y-84960000D01*
X124929058Y-84960000D01*
X124940797Y-85079189D01*
X124975563Y-85193797D01*
X125032020Y-85299421D01*
X125107999Y-85392001D01*
X125200579Y-85467980D01*
X125306203Y-85524437D01*
X125420811Y-85559203D01*
X125540000Y-85570942D01*
X126084000Y-85568000D01*
X126236000Y-85416000D01*
X126236000Y-84614000D01*
X126544000Y-84614000D01*
X126544000Y-85416000D01*
X126696000Y-85568000D01*
X127240000Y-85570942D01*
X127359189Y-85559203D01*
X127473797Y-85524437D01*
X127579421Y-85467980D01*
X127672001Y-85392001D01*
X127747980Y-85299421D01*
X127804437Y-85193797D01*
X127839203Y-85079189D01*
X127850942Y-84960000D01*
X131229058Y-84960000D01*
X131240797Y-85079189D01*
X131275563Y-85193797D01*
X131332020Y-85299421D01*
X131407999Y-85392001D01*
X131500579Y-85467980D01*
X131606203Y-85524437D01*
X131720811Y-85559203D01*
X131840000Y-85570942D01*
X132384000Y-85568000D01*
X132536000Y-85416000D01*
X132536000Y-84614000D01*
X132844000Y-84614000D01*
X132844000Y-85416000D01*
X132996000Y-85568000D01*
X133540000Y-85570942D01*
X133659189Y-85559203D01*
X133773797Y-85524437D01*
X133879421Y-85467980D01*
X133972001Y-85392001D01*
X134047980Y-85299421D01*
X134104437Y-85193797D01*
X134139203Y-85079189D01*
X134150942Y-84960000D01*
X134148000Y-84766000D01*
X133996000Y-84614000D01*
X132844000Y-84614000D01*
X132536000Y-84614000D01*
X131384000Y-84614000D01*
X131232000Y-84766000D01*
X131229058Y-84960000D01*
X127850942Y-84960000D01*
X127848000Y-84766000D01*
X127696000Y-84614000D01*
X126544000Y-84614000D01*
X126236000Y-84614000D01*
X125084000Y-84614000D01*
X124932000Y-84766000D01*
X124929058Y-84960000D01*
X124860000Y-84960000D01*
X124860000Y-83960000D01*
X124929058Y-83960000D01*
X124932000Y-84154000D01*
X125084000Y-84306000D01*
X126236000Y-84306000D01*
X126236000Y-83504000D01*
X126544000Y-83504000D01*
X126544000Y-84306000D01*
X127696000Y-84306000D01*
X127848000Y-84154000D01*
X127850942Y-83960000D01*
X131229058Y-83960000D01*
X131232000Y-84154000D01*
X131384000Y-84306000D01*
X132536000Y-84306000D01*
X132536000Y-83504000D01*
X132844000Y-83504000D01*
X132844000Y-84306000D01*
X133996000Y-84306000D01*
X134148000Y-84154000D01*
X134150942Y-83960000D01*
X134139203Y-83840811D01*
X134104437Y-83726203D01*
X134047980Y-83620579D01*
X133972001Y-83527999D01*
X133879421Y-83452020D01*
X133773797Y-83395563D01*
X133659189Y-83360797D01*
X133540000Y-83349058D01*
X132996000Y-83352000D01*
X132844000Y-83504000D01*
X132536000Y-83504000D01*
X132384000Y-83352000D01*
X131840000Y-83349058D01*
X131720811Y-83360797D01*
X131606203Y-83395563D01*
X131500579Y-83452020D01*
X131407999Y-83527999D01*
X131332020Y-83620579D01*
X131275563Y-83726203D01*
X131240797Y-83840811D01*
X131229058Y-83960000D01*
X127850942Y-83960000D01*
X127839203Y-83840811D01*
X127804437Y-83726203D01*
X127747980Y-83620579D01*
X127672001Y-83527999D01*
X127579421Y-83452020D01*
X127473797Y-83395563D01*
X127359189Y-83360797D01*
X127240000Y-83349058D01*
X126696000Y-83352000D01*
X126544000Y-83504000D01*
X126236000Y-83504000D01*
X126084000Y-83352000D01*
X125540000Y-83349058D01*
X125420811Y-83360797D01*
X125306203Y-83395563D01*
X125200579Y-83452020D01*
X125107999Y-83527999D01*
X125032020Y-83620579D01*
X124975563Y-83726203D01*
X124940797Y-83840811D01*
X124929058Y-83960000D01*
X124860000Y-83960000D01*
X124860000Y-80029563D01*
X124887026Y-79753922D01*
X125035000Y-79753922D01*
X125035000Y-80266078D01*
X125134917Y-80768392D01*
X125330910Y-81241562D01*
X125615448Y-81667403D01*
X125977597Y-82029552D01*
X126403438Y-82314090D01*
X126876608Y-82510083D01*
X127378922Y-82610000D01*
X127891078Y-82610000D01*
X128393392Y-82510083D01*
X128866562Y-82314090D01*
X129292403Y-82029552D01*
X129654552Y-81667403D01*
X129939090Y-81241562D01*
X130135083Y-80768392D01*
X130235000Y-80266078D01*
X130235000Y-79753922D01*
X130135083Y-79251608D01*
X130110910Y-79193247D01*
X136670900Y-79193247D01*
X136670900Y-79821832D01*
X136682476Y-79939366D01*
X136728221Y-80090167D01*
X136802507Y-80229145D01*
X136902478Y-80350962D01*
X137024294Y-80450933D01*
X137163272Y-80525219D01*
X137314073Y-80570964D01*
X137470900Y-80586410D01*
X137627726Y-80570964D01*
X137778527Y-80525219D01*
X137917505Y-80450933D01*
X138039322Y-80350962D01*
X138139293Y-80229146D01*
X138213579Y-80090168D01*
X138259324Y-79939367D01*
X138270900Y-79821833D01*
X138270900Y-79193247D01*
X143670900Y-79193247D01*
X143670900Y-79821832D01*
X143682476Y-79939366D01*
X143728221Y-80090167D01*
X143802507Y-80229145D01*
X143902478Y-80350962D01*
X144024294Y-80450933D01*
X144163272Y-80525219D01*
X144314073Y-80570964D01*
X144470900Y-80586410D01*
X144627726Y-80570964D01*
X144778527Y-80525219D01*
X144917505Y-80450933D01*
X145039322Y-80350962D01*
X145139293Y-80229146D01*
X145213579Y-80090168D01*
X145259324Y-79939367D01*
X145270900Y-79821833D01*
X145270900Y-79753922D01*
X151705000Y-79753922D01*
X151705000Y-80266078D01*
X151804917Y-80768392D01*
X152000910Y-81241562D01*
X152285448Y-81667403D01*
X152647597Y-82029552D01*
X153073438Y-82314090D01*
X153546608Y-82510083D01*
X154048922Y-82610000D01*
X154561078Y-82610000D01*
X155063392Y-82510083D01*
X155536562Y-82314090D01*
X155962403Y-82029552D01*
X156324552Y-81667403D01*
X156609090Y-81241562D01*
X156805083Y-80768392D01*
X156905000Y-80266078D01*
X156905000Y-79753922D01*
X156805083Y-79251608D01*
X156609090Y-78778438D01*
X156324552Y-78352597D01*
X155962403Y-77990448D01*
X155536562Y-77705910D01*
X155063392Y-77509917D01*
X154561078Y-77410000D01*
X154048922Y-77410000D01*
X153546608Y-77509917D01*
X153073438Y-77705910D01*
X152647597Y-77990448D01*
X152285448Y-78352597D01*
X152000910Y-78778438D01*
X151804917Y-79251608D01*
X151705000Y-79753922D01*
X145270900Y-79753922D01*
X145270900Y-79193247D01*
X145259324Y-79075713D01*
X145213579Y-78924912D01*
X145145773Y-78798056D01*
X145731000Y-78798056D01*
X145731000Y-78935944D01*
X145757901Y-79071182D01*
X145810668Y-79198574D01*
X145887274Y-79313224D01*
X145984776Y-79410726D01*
X146099426Y-79487332D01*
X146226818Y-79540099D01*
X146362056Y-79567000D01*
X146499944Y-79567000D01*
X146635182Y-79540099D01*
X146762574Y-79487332D01*
X146877224Y-79410726D01*
X146918553Y-79369397D01*
X146922116Y-79381140D01*
X146949973Y-79433257D01*
X146987462Y-79478938D01*
X147033143Y-79516427D01*
X147085260Y-79544284D01*
X147141810Y-79561439D01*
X147200620Y-79567231D01*
X147998180Y-79567231D01*
X148056990Y-79561439D01*
X148113540Y-79544284D01*
X148165657Y-79516427D01*
X148211338Y-79478938D01*
X148248827Y-79433257D01*
X148276684Y-79381140D01*
X148293839Y-79324590D01*
X148299631Y-79265780D01*
X148299631Y-78468220D01*
X148397769Y-78468220D01*
X148397769Y-79265780D01*
X148403561Y-79324590D01*
X148420716Y-79381140D01*
X148448573Y-79433257D01*
X148486062Y-79478938D01*
X148531743Y-79516427D01*
X148583860Y-79544284D01*
X148640410Y-79561439D01*
X148699220Y-79567231D01*
X149496780Y-79567231D01*
X149555590Y-79561439D01*
X149612140Y-79544284D01*
X149664257Y-79516427D01*
X149709938Y-79478938D01*
X149747427Y-79433257D01*
X149775284Y-79381140D01*
X149792439Y-79324590D01*
X149798111Y-79267000D01*
X149977406Y-79267000D01*
X150001668Y-79325574D01*
X150078274Y-79440224D01*
X150175776Y-79537726D01*
X150290426Y-79614332D01*
X150417818Y-79667099D01*
X150553056Y-79694000D01*
X150690944Y-79694000D01*
X150826182Y-79667099D01*
X150953574Y-79614332D01*
X151068224Y-79537726D01*
X151165726Y-79440224D01*
X151242332Y-79325574D01*
X151295099Y-79198182D01*
X151322000Y-79062944D01*
X151322000Y-78925056D01*
X151295099Y-78789818D01*
X151242332Y-78662426D01*
X151165726Y-78547776D01*
X151068224Y-78450274D01*
X150953574Y-78373668D01*
X150826182Y-78320901D01*
X150690944Y-78294000D01*
X150553056Y-78294000D01*
X150417818Y-78320901D01*
X150290426Y-78373668D01*
X150175776Y-78450274D01*
X150159050Y-78467000D01*
X149798111Y-78467000D01*
X149792439Y-78409410D01*
X149775284Y-78352860D01*
X149747427Y-78300743D01*
X149709938Y-78255062D01*
X149664257Y-78217573D01*
X149612140Y-78189716D01*
X149555590Y-78172561D01*
X149496780Y-78166769D01*
X148699220Y-78166769D01*
X148640410Y-78172561D01*
X148583860Y-78189716D01*
X148531743Y-78217573D01*
X148486062Y-78255062D01*
X148448573Y-78300743D01*
X148420716Y-78352860D01*
X148403561Y-78409410D01*
X148397769Y-78468220D01*
X148299631Y-78468220D01*
X148293839Y-78409410D01*
X148276684Y-78352860D01*
X148248827Y-78300743D01*
X148211338Y-78255062D01*
X148165657Y-78217573D01*
X148113540Y-78189716D01*
X148056990Y-78172561D01*
X147998180Y-78166769D01*
X147200620Y-78166769D01*
X147141810Y-78172561D01*
X147085260Y-78189716D01*
X147033143Y-78217573D01*
X146987462Y-78255062D01*
X146949973Y-78300743D01*
X146922116Y-78352860D01*
X146918553Y-78364603D01*
X146877224Y-78323274D01*
X146762574Y-78246668D01*
X146635182Y-78193901D01*
X146499944Y-78167000D01*
X146362056Y-78167000D01*
X146226818Y-78193901D01*
X146099426Y-78246668D01*
X145984776Y-78323274D01*
X145887274Y-78420776D01*
X145810668Y-78535426D01*
X145757901Y-78662818D01*
X145731000Y-78798056D01*
X145145773Y-78798056D01*
X145139293Y-78785934D01*
X145039322Y-78664118D01*
X144917506Y-78564147D01*
X144778528Y-78489861D01*
X144627727Y-78444116D01*
X144470900Y-78428670D01*
X144314074Y-78444116D01*
X144163273Y-78489861D01*
X144024295Y-78564147D01*
X143902479Y-78664118D01*
X143802508Y-78785934D01*
X143728221Y-78924912D01*
X143682476Y-79075713D01*
X143670900Y-79193247D01*
X138270900Y-79193247D01*
X138259324Y-79075713D01*
X138213579Y-78924912D01*
X138139293Y-78785934D01*
X138039322Y-78664118D01*
X137917506Y-78564147D01*
X137778528Y-78489861D01*
X137627727Y-78444116D01*
X137470900Y-78428670D01*
X137314074Y-78444116D01*
X137163273Y-78489861D01*
X137024295Y-78564147D01*
X136902479Y-78664118D01*
X136802508Y-78785934D01*
X136728221Y-78924912D01*
X136682476Y-79075713D01*
X136670900Y-79193247D01*
X130110910Y-79193247D01*
X129939090Y-78778438D01*
X129654552Y-78352597D01*
X129292403Y-77990448D01*
X128866562Y-77705910D01*
X128393392Y-77509917D01*
X127891078Y-77410000D01*
X127378922Y-77410000D01*
X126876608Y-77509917D01*
X126403438Y-77705910D01*
X125977597Y-77990448D01*
X125615448Y-78352597D01*
X125330910Y-78778438D01*
X125134917Y-79251608D01*
X125035000Y-79753922D01*
X124887026Y-79753922D01*
X124914731Y-79471374D01*
X125071158Y-78953261D01*
X125325241Y-78475401D01*
X125667303Y-78055991D01*
X126084314Y-77711010D01*
X126560384Y-77453599D01*
X127077392Y-77293559D01*
X127634489Y-77235005D01*
X127635813Y-77235000D01*
X154285437Y-77235000D01*
X154843626Y-77289731D01*
M02*
