M48
;DRILL file {KiCad 5.0.0} date Mon Nov 12 22:36:10 2018
;FORMAT={-:-/ absolute / inch / decimal}
FMAT,2
INCH,TZ
T1C0.0157
T2C0.0197
T3C0.0217
T4C0.0400
T5C0.0591
%
G90
G05
M72
T1
X5.1472Y-4.2222
X5.175Y-4.25
X5.2Y-3.9776
X5.25Y-3.525
X5.25Y-3.6
X5.25Y-3.9776
X5.25Y-4.25
X5.3051Y-3.925
X5.3305Y-3.9695
X5.35Y-3.925
X5.35Y-4.25
X5.4Y-3.375
X5.4Y-3.7
X5.425Y-3.825
X5.425Y-3.975
X5.45Y-4.25
X5.475Y-3.625
X5.475Y-3.7
X5.475Y-3.75
X5.475Y-3.8
X5.475Y-3.575
X5.5Y-3.3
X5.5Y-3.975
X5.5144Y-3.8
X5.55Y-4.25
X5.6Y-3.35
X5.65Y-3.7804
X5.65Y-4.25
X5.6606Y-3.975
X5.675Y-3.7
X5.7Y-3.975
X5.7Y-3.6
X5.7Y-3.3
X5.7Y-3.775
X5.701Y-3.648
X5.705Y-3.7359
X5.75Y-4.25
X5.7528Y-3.9472
X5.8Y-3.375
X5.8Y-3.925
X5.8183Y-3.875
X5.825Y-3.575
X5.8474Y-3.925
X5.85Y-4.25
X5.9Y-3.95
X5.925Y-3.8
X5.95Y-4.225
X6.Y-3.975
X6.025Y-3.9
X6.05Y-3.325
T4
X5.6Y-4.35
X5.6Y-4.45
X5.6Y-4.55
X5.7Y-4.35
X5.7Y-4.45
X5.7Y-4.55
X5.5Y-4.35
X5.5Y-4.45
X5.5Y-4.55
X5.3Y-4.35
X5.3Y-4.45
X5.3Y-4.55
X5.4Y-4.35
X5.4Y-4.45
X5.4Y-4.55
X5.9Y-4.35
X5.9Y-4.45
X5.9Y-4.55
X5.8Y-4.35
X5.8Y-4.45
X5.8Y-4.55
X5.2Y-4.35
X5.2Y-4.45
X5.2Y-4.55
X5.Y-3.75
X5.Y-3.85
X5.Y-3.95
X5.Y-4.05
T5
X6.075Y-4.55
X5.025Y-4.2
X6.075Y-4.2
X5.025Y-4.55
T2
X5.4122Y-3.1174G85X5.4122Y-3.143
G05
X5.6878Y-3.1174G85X5.6878Y-3.143
G05
T3
X5.4575Y-3.2365G85X5.4457Y-3.2365
G05
X5.6544Y-3.2365G85X5.6426Y-3.2365
G05
T0
M30
