G04 #@! TF.GenerationSoftware,KiCad,Pcbnew,5.1.5*
G04 #@! TF.CreationDate,2020-03-16T00:35:52-04:00*
G04 #@! TF.ProjectId,dot-driver,646f742d-6472-4697-9665-722e6b696361,rev?*
G04 #@! TF.SameCoordinates,Original*
G04 #@! TF.FileFunction,Paste,Bot*
G04 #@! TF.FilePolarity,Positive*
%FSLAX46Y46*%
G04 Gerber Fmt 4.6, Leading zero omitted, Abs format (unit mm)*
G04 Created by KiCad (PCBNEW 5.1.5) date 2020-03-16 00:35:52*
%MOMM*%
%LPD*%
G04 APERTURE LIST*
%ADD10R,0.250000X1.000000*%
%ADD11R,1.000000X0.250000*%
%ADD12R,0.500000X0.900000*%
%ADD13R,1.300000X2.000000*%
%ADD14R,0.800000X0.750000*%
%ADD15R,0.320000X0.800000*%
%ADD16R,0.480000X0.800000*%
%ADD17R,0.800100X0.800100*%
%ADD18R,0.750000X0.800000*%
%ADD19R,0.900000X0.500000*%
G04 APERTURE END LIST*
D10*
X137220000Y-87715000D03*
X137720000Y-87715000D03*
X138220000Y-87715000D03*
X138720000Y-87715000D03*
X139220000Y-87715000D03*
X139720000Y-87715000D03*
X140220000Y-87715000D03*
X140720000Y-87715000D03*
X141220000Y-87715000D03*
X141720000Y-87715000D03*
X142220000Y-87715000D03*
X142720000Y-87715000D03*
X143220000Y-87715000D03*
X143720000Y-87715000D03*
X144220000Y-87715000D03*
X144720000Y-87715000D03*
D11*
X146670000Y-89665000D03*
X146670000Y-90165000D03*
X146670000Y-90665000D03*
X146670000Y-91165000D03*
X146670000Y-91665000D03*
X146670000Y-92165000D03*
X146670000Y-92665000D03*
X146670000Y-93165000D03*
X146670000Y-93665000D03*
X146670000Y-94165000D03*
X146670000Y-94665000D03*
X146670000Y-95165000D03*
X146670000Y-95665000D03*
X146670000Y-96165000D03*
X146670000Y-96665000D03*
X146670000Y-97165000D03*
D10*
X144720000Y-99115000D03*
X144220000Y-99115000D03*
X143720000Y-99115000D03*
X143220000Y-99115000D03*
X142720000Y-99115000D03*
X142220000Y-99115000D03*
X141720000Y-99115000D03*
X141220000Y-99115000D03*
X140720000Y-99115000D03*
X140220000Y-99115000D03*
X139720000Y-99115000D03*
X139220000Y-99115000D03*
X138720000Y-99115000D03*
X138220000Y-99115000D03*
X137720000Y-99115000D03*
X137220000Y-99115000D03*
D11*
X135270000Y-97165000D03*
X135270000Y-96665000D03*
X135270000Y-96165000D03*
X135270000Y-95665000D03*
X135270000Y-95165000D03*
X135270000Y-94665000D03*
X135270000Y-94165000D03*
X135270000Y-93665000D03*
X135270000Y-93165000D03*
X135270000Y-92665000D03*
X135270000Y-92165000D03*
X135270000Y-91665000D03*
X135270000Y-91165000D03*
X135270000Y-90665000D03*
X135270000Y-90165000D03*
X135270000Y-89665000D03*
D12*
X149340000Y-78994000D03*
X147840000Y-78994000D03*
D13*
X132150000Y-85820000D03*
X132150000Y-81820000D03*
X134550000Y-81820000D03*
X134550000Y-85820000D03*
D14*
X148360000Y-86995000D03*
X149860000Y-86995000D03*
D15*
X149770000Y-101705000D03*
D16*
X148410000Y-101705000D03*
D15*
X150410000Y-101705000D03*
D16*
X151130000Y-101705000D03*
D15*
X149130000Y-101705000D03*
X149770000Y-103505000D03*
X149130000Y-103505000D03*
D16*
X148410000Y-103505000D03*
D15*
X150410000Y-103505000D03*
D16*
X151130000Y-103505000D03*
D15*
X132170000Y-101705000D03*
D16*
X130810000Y-101705000D03*
D15*
X132810000Y-101705000D03*
D16*
X133530000Y-101705000D03*
D15*
X131530000Y-101705000D03*
X132170000Y-103505000D03*
X131530000Y-103505000D03*
D16*
X130810000Y-103505000D03*
D15*
X132810000Y-103505000D03*
D16*
X133530000Y-103505000D03*
D17*
X144592000Y-83980020D03*
X143642000Y-85979000D03*
X145542000Y-85979000D03*
X147607020Y-81722000D03*
X149606000Y-82672000D03*
X149606000Y-80772000D03*
D14*
X147840000Y-84455000D03*
X149340000Y-84455000D03*
D18*
X129540000Y-85725000D03*
X129540000Y-84225000D03*
D14*
X132600000Y-78740000D03*
X134100000Y-78740000D03*
D19*
X129286000Y-89027000D03*
X129286000Y-87527000D03*
D18*
X131445000Y-88265000D03*
X131445000Y-89765000D03*
D14*
X149860000Y-88900000D03*
X148360000Y-88900000D03*
M02*
