G04 #@! TF.GenerationSoftware,KiCad,Pcbnew,5.1.5*
G04 #@! TF.CreationDate,2020-03-16T00:35:52-04:00*
G04 #@! TF.ProjectId,dot-driver,646f742d-6472-4697-9665-722e6b696361,rev?*
G04 #@! TF.SameCoordinates,Original*
G04 #@! TF.FileFunction,Legend,Top*
G04 #@! TF.FilePolarity,Positive*
%FSLAX46Y46*%
G04 Gerber Fmt 4.6, Leading zero omitted, Abs format (unit mm)*
G04 Created by KiCad (PCBNEW 5.1.5) date 2020-03-16 00:35:52*
%MOMM*%
%LPD*%
G04 APERTURE LIST*
%ADD10C,0.150000*%
%ADD11C,0.200000*%
%ADD12C,0.800000*%
%ADD13C,0.300000*%
%ADD14C,0.120000*%
G04 APERTURE END LIST*
D10*
X148590000Y-80010000D02*
X148590000Y-80518000D01*
X148209000Y-80518000D02*
X148209000Y-80010000D01*
X148844000Y-80264000D02*
X147828000Y-80264000D01*
X148590000Y-80518000D02*
X148336000Y-80264000D01*
X148336000Y-80264000D02*
X148590000Y-80010000D01*
X151511000Y-103632000D02*
X151003000Y-103632000D01*
X151257000Y-103505000D02*
X151003000Y-103251000D01*
X151511000Y-103251000D02*
X151257000Y-103505000D01*
X151003000Y-103251000D02*
X151511000Y-103251000D01*
X151257000Y-102997000D02*
X151257000Y-104013000D01*
D11*
X133786571Y-95733904D02*
X133834190Y-95591047D01*
X133881809Y-95543428D01*
X133977047Y-95495809D01*
X134119904Y-95495809D01*
X134215142Y-95543428D01*
X134262761Y-95591047D01*
X134310380Y-95686285D01*
X134310380Y-96067238D01*
X133310380Y-96067238D01*
X133310380Y-95733904D01*
X133358000Y-95638666D01*
X133405619Y-95591047D01*
X133500857Y-95543428D01*
X133596095Y-95543428D01*
X133691333Y-95591047D01*
X133738952Y-95638666D01*
X133786571Y-95733904D01*
X133786571Y-96067238D01*
X133310380Y-95067238D02*
X134119904Y-95067238D01*
X134215142Y-95019619D01*
X134262761Y-94972000D01*
X134310380Y-94876761D01*
X134310380Y-94686285D01*
X134262761Y-94591047D01*
X134215142Y-94543428D01*
X134119904Y-94495809D01*
X133310380Y-94495809D01*
X133310380Y-94162476D02*
X133310380Y-93591047D01*
X134310380Y-93876761D02*
X133310380Y-93876761D01*
X133310380Y-93400571D02*
X133310380Y-92829142D01*
X134310380Y-93114857D02*
X133310380Y-93114857D01*
X133310380Y-92305333D02*
X133310380Y-92114857D01*
X133358000Y-92019619D01*
X133453238Y-91924380D01*
X133643714Y-91876761D01*
X133977047Y-91876761D01*
X134167523Y-91924380D01*
X134262761Y-92019619D01*
X134310380Y-92114857D01*
X134310380Y-92305333D01*
X134262761Y-92400571D01*
X134167523Y-92495809D01*
X133977047Y-92543428D01*
X133643714Y-92543428D01*
X133453238Y-92495809D01*
X133358000Y-92400571D01*
X133310380Y-92305333D01*
X134310380Y-91448190D02*
X133310380Y-91448190D01*
X134310380Y-90876761D01*
X133310380Y-90876761D01*
D12*
X127918981Y-89662000D02*
G75*
G03X127918981Y-89662000I-283981J0D01*
G01*
D11*
X130452761Y-100417142D02*
X130500380Y-100274285D01*
X130500380Y-100036190D01*
X130452761Y-99940952D01*
X130405142Y-99893333D01*
X130309904Y-99845714D01*
X130214666Y-99845714D01*
X130119428Y-99893333D01*
X130071809Y-99940952D01*
X130024190Y-100036190D01*
X129976571Y-100226666D01*
X129928952Y-100321904D01*
X129881333Y-100369523D01*
X129786095Y-100417142D01*
X129690857Y-100417142D01*
X129595619Y-100369523D01*
X129548000Y-100321904D01*
X129500380Y-100226666D01*
X129500380Y-99988571D01*
X129548000Y-99845714D01*
X129500380Y-99512380D02*
X130500380Y-99274285D01*
X129786095Y-99083809D01*
X130500380Y-98893333D01*
X129500380Y-98655238D01*
X130500380Y-98274285D02*
X129500380Y-98274285D01*
X129500380Y-98036190D01*
X129548000Y-97893333D01*
X129643238Y-97798095D01*
X129738476Y-97750476D01*
X129928952Y-97702857D01*
X130071809Y-97702857D01*
X130262285Y-97750476D01*
X130357523Y-97798095D01*
X130452761Y-97893333D01*
X130500380Y-98036190D01*
X130500380Y-98274285D01*
X154241523Y-100290380D02*
X153765333Y-100290380D01*
X153717714Y-100766571D01*
X153765333Y-100718952D01*
X153860571Y-100671333D01*
X154098666Y-100671333D01*
X154193904Y-100718952D01*
X154241523Y-100766571D01*
X154289142Y-100861809D01*
X154289142Y-101099904D01*
X154241523Y-101195142D01*
X154193904Y-101242761D01*
X154098666Y-101290380D01*
X153860571Y-101290380D01*
X153765333Y-101242761D01*
X153717714Y-101195142D01*
X154574857Y-100290380D02*
X154908190Y-101290380D01*
X155241523Y-100290380D01*
X153670095Y-109990000D02*
X153574857Y-109942380D01*
X153432000Y-109942380D01*
X153289142Y-109990000D01*
X153193904Y-110085238D01*
X153146285Y-110180476D01*
X153098666Y-110370952D01*
X153098666Y-110513809D01*
X153146285Y-110704285D01*
X153193904Y-110799523D01*
X153289142Y-110894761D01*
X153432000Y-110942380D01*
X153527238Y-110942380D01*
X153670095Y-110894761D01*
X153717714Y-110847142D01*
X153717714Y-110513809D01*
X153527238Y-110513809D01*
X154146285Y-110942380D02*
X154146285Y-109942380D01*
X154717714Y-110942380D01*
X154717714Y-109942380D01*
X155193904Y-110942380D02*
X155193904Y-109942380D01*
X155432000Y-109942380D01*
X155574857Y-109990000D01*
X155670095Y-110085238D01*
X155717714Y-110180476D01*
X155765333Y-110370952D01*
X155765333Y-110513809D01*
X155717714Y-110704285D01*
X155670095Y-110799523D01*
X155574857Y-110894761D01*
X155432000Y-110942380D01*
X155193904Y-110942380D01*
X126746095Y-109990000D02*
X126650857Y-109942380D01*
X126508000Y-109942380D01*
X126365142Y-109990000D01*
X126269904Y-110085238D01*
X126222285Y-110180476D01*
X126174666Y-110370952D01*
X126174666Y-110513809D01*
X126222285Y-110704285D01*
X126269904Y-110799523D01*
X126365142Y-110894761D01*
X126508000Y-110942380D01*
X126603238Y-110942380D01*
X126746095Y-110894761D01*
X126793714Y-110847142D01*
X126793714Y-110513809D01*
X126603238Y-110513809D01*
X127222285Y-110942380D02*
X127222285Y-109942380D01*
X127793714Y-110942380D01*
X127793714Y-109942380D01*
X128269904Y-110942380D02*
X128269904Y-109942380D01*
X128508000Y-109942380D01*
X128650857Y-109990000D01*
X128746095Y-110085238D01*
X128793714Y-110180476D01*
X128841333Y-110370952D01*
X128841333Y-110513809D01*
X128793714Y-110704285D01*
X128746095Y-110799523D01*
X128650857Y-110894761D01*
X128508000Y-110942380D01*
X128269904Y-110942380D01*
X129627380Y-103695476D02*
X129627380Y-104171666D01*
X130103571Y-104219285D01*
X130055952Y-104171666D01*
X130008333Y-104076428D01*
X130008333Y-103838333D01*
X130055952Y-103743095D01*
X130103571Y-103695476D01*
X130198809Y-103647857D01*
X130436904Y-103647857D01*
X130532142Y-103695476D01*
X130579761Y-103743095D01*
X130627380Y-103838333D01*
X130627380Y-104076428D01*
X130579761Y-104171666D01*
X130532142Y-104219285D01*
X129627380Y-103362142D02*
X130627380Y-103028809D01*
X129627380Y-102695476D01*
D13*
X149460000Y-100434857D02*
X150260000Y-100434857D01*
X149745714Y-101634857D01*
X147548571Y-100434857D02*
X147320000Y-100434857D01*
X147205714Y-100492000D01*
X147148571Y-100549142D01*
X147034285Y-100720571D01*
X146977142Y-100949142D01*
X146977142Y-101406285D01*
X147034285Y-101520571D01*
X147091428Y-101577714D01*
X147205714Y-101634857D01*
X147434285Y-101634857D01*
X147548571Y-101577714D01*
X147605714Y-101520571D01*
X147662857Y-101406285D01*
X147662857Y-101120571D01*
X147605714Y-101006285D01*
X147548571Y-100949142D01*
X147434285Y-100892000D01*
X147205714Y-100892000D01*
X147091428Y-100949142D01*
X147034285Y-101006285D01*
X146977142Y-101120571D01*
X145065714Y-100434857D02*
X144494285Y-100434857D01*
X144437142Y-101006285D01*
X144494285Y-100949142D01*
X144608571Y-100892000D01*
X144894285Y-100892000D01*
X145008571Y-100949142D01*
X145065714Y-101006285D01*
X145122857Y-101120571D01*
X145122857Y-101406285D01*
X145065714Y-101520571D01*
X145008571Y-101577714D01*
X144894285Y-101634857D01*
X144608571Y-101634857D01*
X144494285Y-101577714D01*
X144437142Y-101520571D01*
X142468571Y-100834857D02*
X142468571Y-101634857D01*
X142182857Y-100377714D02*
X141897142Y-101234857D01*
X142640000Y-101234857D01*
X139300000Y-100434857D02*
X140042857Y-100434857D01*
X139642857Y-100892000D01*
X139814285Y-100892000D01*
X139928571Y-100949142D01*
X139985714Y-101006285D01*
X140042857Y-101120571D01*
X140042857Y-101406285D01*
X139985714Y-101520571D01*
X139928571Y-101577714D01*
X139814285Y-101634857D01*
X139471428Y-101634857D01*
X139357142Y-101577714D01*
X139300000Y-101520571D01*
X136817142Y-100549142D02*
X136874285Y-100492000D01*
X136988571Y-100434857D01*
X137274285Y-100434857D01*
X137388571Y-100492000D01*
X137445714Y-100549142D01*
X137502857Y-100663428D01*
X137502857Y-100777714D01*
X137445714Y-100949142D01*
X136760000Y-101634857D01*
X137502857Y-101634857D01*
X134962857Y-101634857D02*
X134277142Y-101634857D01*
X134620000Y-101634857D02*
X134620000Y-100434857D01*
X134505714Y-100606285D01*
X134391428Y-100720571D01*
X134277142Y-100777714D01*
X132022857Y-100434857D02*
X132137142Y-100434857D01*
X132251428Y-100492000D01*
X132308571Y-100549142D01*
X132365714Y-100663428D01*
X132422857Y-100892000D01*
X132422857Y-101177714D01*
X132365714Y-101406285D01*
X132308571Y-101520571D01*
X132251428Y-101577714D01*
X132137142Y-101634857D01*
X132022857Y-101634857D01*
X131908571Y-101577714D01*
X131851428Y-101520571D01*
X131794285Y-101406285D01*
X131737142Y-101177714D01*
X131737142Y-100892000D01*
X131794285Y-100663428D01*
X131851428Y-100549142D01*
X131908571Y-100492000D01*
X132022857Y-100434857D01*
D10*
X132630000Y-104490700D02*
X132630000Y-102590700D01*
X131530000Y-104490700D02*
X131530000Y-102590700D01*
X132080000Y-103590700D02*
X132080000Y-103140700D01*
X131830000Y-103640700D02*
X132330000Y-103640700D01*
X132080000Y-103640700D02*
X131830000Y-103390700D01*
X131830000Y-103390700D02*
X132330000Y-103390700D01*
X132330000Y-103390700D02*
X132080000Y-103640700D01*
X150410000Y-104490700D02*
X150410000Y-102590700D01*
X149310000Y-104490700D02*
X149310000Y-102590700D01*
X149860000Y-103590700D02*
X149860000Y-103140700D01*
X149610000Y-103640700D02*
X150110000Y-103640700D01*
X149860000Y-103640700D02*
X149610000Y-103390700D01*
X149610000Y-103390700D02*
X150110000Y-103390700D01*
X150110000Y-103390700D02*
X149860000Y-103640700D01*
X138430000Y-113665000D02*
X140970000Y-113665000D01*
X138430000Y-106045000D02*
X138430000Y-113665000D01*
X140970000Y-106045000D02*
X138430000Y-106045000D01*
X140970000Y-113665000D02*
X140970000Y-106045000D01*
X135170000Y-104605000D02*
X135170000Y-102705000D01*
X134070000Y-104605000D02*
X134070000Y-102705000D01*
X134620000Y-103705000D02*
X134620000Y-103255000D01*
X134370000Y-103755000D02*
X134870000Y-103755000D01*
X134620000Y-103755000D02*
X134370000Y-103505000D01*
X134370000Y-103505000D02*
X134870000Y-103505000D01*
X134870000Y-103505000D02*
X134620000Y-103755000D01*
X139950000Y-103390700D02*
X139700000Y-103640700D01*
X139450000Y-103390700D02*
X139950000Y-103390700D01*
X139700000Y-103640700D02*
X139450000Y-103390700D01*
X139450000Y-103640700D02*
X139950000Y-103640700D01*
X139700000Y-103590700D02*
X139700000Y-103140700D01*
X139150000Y-104490700D02*
X139150000Y-102590700D01*
X140250000Y-104490700D02*
X140250000Y-102590700D01*
X148348700Y-79117000D02*
X148098700Y-78867000D01*
X148348700Y-78617000D02*
X148348700Y-79117000D01*
X148098700Y-78867000D02*
X148348700Y-78617000D01*
X148098700Y-78617000D02*
X148098700Y-79117000D01*
X148148700Y-78867000D02*
X148598700Y-78867000D01*
X147248700Y-78317000D02*
X149148700Y-78317000D01*
X147248700Y-79417000D02*
X149148700Y-79417000D01*
D14*
X135625000Y-86365000D02*
X135625000Y-84445000D01*
X135625000Y-84445000D02*
X149635000Y-84445000D01*
X135625000Y-97965000D02*
X135625000Y-98415000D01*
X135625000Y-98415000D02*
X139235000Y-98415000D01*
X151895000Y-86125000D02*
X151895000Y-88435000D01*
X151895000Y-97385000D02*
X151895000Y-95525000D01*
X151895000Y-97385000D02*
X151695000Y-97585000D01*
X140935000Y-98415000D02*
X145635000Y-98415000D01*
X146935000Y-98415000D02*
X148735000Y-98415000D01*
X151545000Y-95315000D02*
X151545000Y-88945000D01*
X151545000Y-95315000D02*
X151695000Y-95315000D01*
X151895000Y-95525000D02*
X151695000Y-95315000D01*
X151895000Y-86125000D02*
X151695000Y-85925000D01*
X151695000Y-85925000D02*
X151695000Y-85665000D01*
X151895000Y-88435000D02*
X151545000Y-88945000D01*
D10*
X130175000Y-95885000D02*
X132715000Y-95885000D01*
X130175000Y-93345000D02*
X130175000Y-95885000D01*
X129895000Y-90525000D02*
X132995000Y-90525000D01*
X129895000Y-92075000D02*
X129895000Y-90525000D01*
X132715000Y-93345000D02*
X130175000Y-93345000D01*
X132995000Y-90525000D02*
X132995000Y-92075000D01*
X132715000Y-93345000D02*
X132715000Y-95885000D01*
X142490000Y-103390700D02*
X142240000Y-103640700D01*
X141990000Y-103390700D02*
X142490000Y-103390700D01*
X142240000Y-103640700D02*
X141990000Y-103390700D01*
X141990000Y-103640700D02*
X142490000Y-103640700D01*
X142240000Y-103590700D02*
X142240000Y-103140700D01*
X141690000Y-104490700D02*
X141690000Y-102590700D01*
X142790000Y-104490700D02*
X142790000Y-102590700D01*
X137410000Y-103390700D02*
X137160000Y-103640700D01*
X136910000Y-103390700D02*
X137410000Y-103390700D01*
X137160000Y-103640700D02*
X136910000Y-103390700D01*
X136910000Y-103640700D02*
X137410000Y-103640700D01*
X137160000Y-103590700D02*
X137160000Y-103140700D01*
X136610000Y-104490700D02*
X136610000Y-102590700D01*
X137710000Y-104490700D02*
X137710000Y-102590700D01*
X151130000Y-113665000D02*
X151130000Y-106045000D01*
X151130000Y-106045000D02*
X148590000Y-106045000D01*
X148590000Y-106045000D02*
X148590000Y-113665000D01*
X148590000Y-113665000D02*
X151130000Y-113665000D01*
X146050000Y-113665000D02*
X148590000Y-113665000D01*
X146050000Y-106045000D02*
X146050000Y-113665000D01*
X148590000Y-106045000D02*
X146050000Y-106045000D01*
X148590000Y-113665000D02*
X148590000Y-106045000D01*
X143510000Y-113665000D02*
X146050000Y-113665000D01*
X143510000Y-106045000D02*
X143510000Y-113665000D01*
X146050000Y-106045000D02*
X143510000Y-106045000D01*
X146050000Y-113665000D02*
X146050000Y-106045000D01*
X143510000Y-113665000D02*
X143510000Y-106045000D01*
X143510000Y-106045000D02*
X140970000Y-106045000D01*
X140970000Y-106045000D02*
X140970000Y-113665000D01*
X140970000Y-113665000D02*
X143510000Y-113665000D01*
X138430000Y-113665000D02*
X138430000Y-106045000D01*
X138430000Y-106045000D02*
X135890000Y-106045000D01*
X135890000Y-106045000D02*
X135890000Y-113665000D01*
X135890000Y-113665000D02*
X138430000Y-113665000D01*
X133350000Y-113665000D02*
X135890000Y-113665000D01*
X133350000Y-106045000D02*
X133350000Y-113665000D01*
X135890000Y-106045000D02*
X133350000Y-106045000D01*
X135890000Y-113665000D02*
X135890000Y-106045000D01*
X133350000Y-113665000D02*
X133350000Y-106045000D01*
X133350000Y-106045000D02*
X130810000Y-106045000D01*
X130810000Y-106045000D02*
X130810000Y-113665000D01*
X130810000Y-113665000D02*
X133350000Y-113665000D01*
X126365000Y-93345000D02*
X126365000Y-100965000D01*
X128905000Y-93345000D02*
X128905000Y-100965000D01*
X129185000Y-90525000D02*
X129185000Y-92075000D01*
X126365000Y-100965000D02*
X128905000Y-100965000D01*
X128905000Y-93345000D02*
X126365000Y-93345000D01*
X126085000Y-92075000D02*
X126085000Y-90525000D01*
X126085000Y-90525000D02*
X129185000Y-90525000D01*
X145330000Y-104490700D02*
X145330000Y-102590700D01*
X144230000Y-104490700D02*
X144230000Y-102590700D01*
X144780000Y-103590700D02*
X144780000Y-103140700D01*
X144530000Y-103640700D02*
X145030000Y-103640700D01*
X144780000Y-103640700D02*
X144530000Y-103390700D01*
X144530000Y-103390700D02*
X145030000Y-103390700D01*
X145030000Y-103390700D02*
X144780000Y-103640700D01*
X147570000Y-103505000D02*
X147320000Y-103755000D01*
X147070000Y-103505000D02*
X147570000Y-103505000D01*
X147320000Y-103755000D02*
X147070000Y-103505000D01*
X147070000Y-103755000D02*
X147570000Y-103755000D01*
X147320000Y-103705000D02*
X147320000Y-103255000D01*
X146770000Y-104605000D02*
X146770000Y-102705000D01*
X147870000Y-104605000D02*
X147870000Y-102705000D01*
X126085000Y-105055000D02*
X126085000Y-103505000D01*
X129185000Y-103505000D02*
X129185000Y-105055000D01*
X129185000Y-105055000D02*
X126085000Y-105055000D01*
X128905000Y-102235000D02*
X126365000Y-102235000D01*
X155575000Y-102235000D02*
X153035000Y-102235000D01*
X155855000Y-105055000D02*
X152755000Y-105055000D01*
X155855000Y-103505000D02*
X155855000Y-105055000D01*
X152755000Y-105055000D02*
X152755000Y-103505000D01*
X126365000Y-109220000D02*
X128905000Y-109220000D01*
X126085000Y-106400000D02*
X129185000Y-106400000D01*
X126085000Y-107950000D02*
X126085000Y-106400000D01*
X129185000Y-106400000D02*
X129185000Y-107950000D01*
X155855000Y-106400000D02*
X155855000Y-107950000D01*
X152755000Y-107950000D02*
X152755000Y-106400000D01*
X152755000Y-106400000D02*
X155855000Y-106400000D01*
X153035000Y-109220000D02*
X155575000Y-109220000D01*
X145320900Y-76827540D02*
X136620900Y-76827540D01*
X145320900Y-83232540D02*
X136620900Y-83232540D01*
X136620900Y-83232540D02*
X136620900Y-76827540D01*
X136620900Y-78057540D02*
X145320900Y-78057540D01*
X145320900Y-76827540D02*
X145320900Y-83232540D01*
X127840000Y-88660000D02*
X128290000Y-89110000D01*
X131240000Y-88660000D02*
X130790000Y-89110000D01*
X131240000Y-84060000D02*
X130790000Y-83610000D01*
X127840000Y-84060000D02*
X128290000Y-83610000D01*
X127540000Y-85360000D02*
X128540000Y-84360000D01*
X128540000Y-84360000D02*
X130540000Y-84360000D01*
X130540000Y-84360000D02*
X131540000Y-85360000D01*
X131540000Y-85360000D02*
X131540000Y-87360000D01*
X131540000Y-87360000D02*
X130540000Y-88360000D01*
X130540000Y-88360000D02*
X128540000Y-88360000D01*
X128540000Y-88360000D02*
X127540000Y-87360000D01*
X127540000Y-87360000D02*
X127540000Y-85360000D01*
X132290000Y-85360000D02*
X132290000Y-87360000D01*
X128290000Y-89110000D02*
X130790000Y-89110000D01*
X126790000Y-85360000D02*
X126790000Y-87360000D01*
X128290000Y-83610000D02*
X130790000Y-83610000D01*
X130540000Y-86360000D02*
G75*
G03X130540000Y-86360000I-1000000J0D01*
G01*
X131126666Y-105672666D02*
X130426666Y-105672666D01*
X130426666Y-105506000D01*
X130460000Y-105406000D01*
X130526666Y-105339333D01*
X130593333Y-105306000D01*
X130726666Y-105272666D01*
X130826666Y-105272666D01*
X130960000Y-105306000D01*
X131026666Y-105339333D01*
X131093333Y-105406000D01*
X131126666Y-105506000D01*
X131126666Y-105672666D01*
X131126666Y-104606000D02*
X131126666Y-105006000D01*
X131126666Y-104806000D02*
X130426666Y-104806000D01*
X130526666Y-104872666D01*
X130593333Y-104939333D01*
X130626666Y-105006000D01*
X148906666Y-103907366D02*
X148206666Y-103907366D01*
X148206666Y-103740700D01*
X148240000Y-103640700D01*
X148306666Y-103574033D01*
X148373333Y-103540700D01*
X148506666Y-103507366D01*
X148606666Y-103507366D01*
X148740000Y-103540700D01*
X148806666Y-103574033D01*
X148873333Y-103640700D01*
X148906666Y-103740700D01*
X148906666Y-103907366D01*
X148906666Y-103174033D02*
X148906666Y-103040700D01*
X148873333Y-102974033D01*
X148840000Y-102940700D01*
X148740000Y-102874033D01*
X148606666Y-102840700D01*
X148340000Y-102840700D01*
X148273333Y-102874033D01*
X148240000Y-102907366D01*
X148206666Y-102974033D01*
X148206666Y-103107366D01*
X148240000Y-103174033D01*
X148273333Y-103207366D01*
X148340000Y-103240700D01*
X148506666Y-103240700D01*
X148573333Y-103207366D01*
X148606666Y-103174033D01*
X148640000Y-103107366D01*
X148640000Y-102974033D01*
X148606666Y-102907366D01*
X148573333Y-102874033D01*
X148506666Y-102840700D01*
X133666666Y-104021666D02*
X132966666Y-104021666D01*
X132966666Y-103855000D01*
X133000000Y-103755000D01*
X133066666Y-103688333D01*
X133133333Y-103655000D01*
X133266666Y-103621666D01*
X133366666Y-103621666D01*
X133500000Y-103655000D01*
X133566666Y-103688333D01*
X133633333Y-103755000D01*
X133666666Y-103855000D01*
X133666666Y-104021666D01*
X133033333Y-103355000D02*
X133000000Y-103321666D01*
X132966666Y-103255000D01*
X132966666Y-103088333D01*
X133000000Y-103021666D01*
X133033333Y-102988333D01*
X133100000Y-102955000D01*
X133166666Y-102955000D01*
X133266666Y-102988333D01*
X133666666Y-103388333D01*
X133666666Y-102955000D01*
X138746666Y-103907366D02*
X138046666Y-103907366D01*
X138046666Y-103740700D01*
X138080000Y-103640700D01*
X138146666Y-103574033D01*
X138213333Y-103540700D01*
X138346666Y-103507366D01*
X138446666Y-103507366D01*
X138580000Y-103540700D01*
X138646666Y-103574033D01*
X138713333Y-103640700D01*
X138746666Y-103740700D01*
X138746666Y-103907366D01*
X138280000Y-102907366D02*
X138746666Y-102907366D01*
X138013333Y-103074033D02*
X138513333Y-103240700D01*
X138513333Y-102807366D01*
X150684666Y-79383666D02*
X149984666Y-79383666D01*
X149984666Y-79217000D01*
X150018000Y-79117000D01*
X150084666Y-79050333D01*
X150151333Y-79017000D01*
X150284666Y-78983666D01*
X150384666Y-78983666D01*
X150518000Y-79017000D01*
X150584666Y-79050333D01*
X150651333Y-79117000D01*
X150684666Y-79217000D01*
X150684666Y-79383666D01*
X149984666Y-78350333D02*
X149984666Y-78683666D01*
X150318000Y-78717000D01*
X150284666Y-78683666D01*
X150251333Y-78617000D01*
X150251333Y-78450333D01*
X150284666Y-78383666D01*
X150318000Y-78350333D01*
X150384666Y-78317000D01*
X150551333Y-78317000D01*
X150618000Y-78350333D01*
X150651333Y-78383666D01*
X150684666Y-78450333D01*
X150684666Y-78617000D01*
X150651333Y-78683666D01*
X150618000Y-78717000D01*
X147769333Y-83436666D02*
X147769333Y-83936666D01*
X147736000Y-84036666D01*
X147669333Y-84103333D01*
X147569333Y-84136666D01*
X147502666Y-84136666D01*
X148469333Y-84136666D02*
X148069333Y-84136666D01*
X148269333Y-84136666D02*
X148269333Y-83436666D01*
X148202666Y-83536666D01*
X148136000Y-83603333D01*
X148069333Y-83636666D01*
X149102666Y-83436666D02*
X148769333Y-83436666D01*
X148736000Y-83770000D01*
X148769333Y-83736666D01*
X148836000Y-83703333D01*
X149002666Y-83703333D01*
X149069333Y-83736666D01*
X149102666Y-83770000D01*
X149136000Y-83836666D01*
X149136000Y-84003333D01*
X149102666Y-84070000D01*
X149069333Y-84103333D01*
X149002666Y-84136666D01*
X148836000Y-84136666D01*
X148769333Y-84103333D01*
X148736000Y-84070000D01*
X131084666Y-96136666D02*
X131084666Y-96636666D01*
X131051333Y-96736666D01*
X130984666Y-96803333D01*
X130884666Y-96836666D01*
X130818000Y-96836666D01*
X131751333Y-96136666D02*
X131418000Y-96136666D01*
X131384666Y-96470000D01*
X131418000Y-96436666D01*
X131484666Y-96403333D01*
X131651333Y-96403333D01*
X131718000Y-96436666D01*
X131751333Y-96470000D01*
X131784666Y-96536666D01*
X131784666Y-96703333D01*
X131751333Y-96770000D01*
X131718000Y-96803333D01*
X131651333Y-96836666D01*
X131484666Y-96836666D01*
X131418000Y-96803333D01*
X131384666Y-96770000D01*
X141286666Y-103907366D02*
X140586666Y-103907366D01*
X140586666Y-103740700D01*
X140620000Y-103640700D01*
X140686666Y-103574033D01*
X140753333Y-103540700D01*
X140886666Y-103507366D01*
X140986666Y-103507366D01*
X141120000Y-103540700D01*
X141186666Y-103574033D01*
X141253333Y-103640700D01*
X141286666Y-103740700D01*
X141286666Y-103907366D01*
X140586666Y-102907366D02*
X140586666Y-103040700D01*
X140620000Y-103107366D01*
X140653333Y-103140700D01*
X140753333Y-103207366D01*
X140886666Y-103240700D01*
X141153333Y-103240700D01*
X141220000Y-103207366D01*
X141253333Y-103174033D01*
X141286666Y-103107366D01*
X141286666Y-102974033D01*
X141253333Y-102907366D01*
X141220000Y-102874033D01*
X141153333Y-102840700D01*
X140986666Y-102840700D01*
X140920000Y-102874033D01*
X140886666Y-102907366D01*
X140853333Y-102974033D01*
X140853333Y-103107366D01*
X140886666Y-103174033D01*
X140920000Y-103207366D01*
X140986666Y-103240700D01*
X136206666Y-103907366D02*
X135506666Y-103907366D01*
X135506666Y-103740700D01*
X135540000Y-103640700D01*
X135606666Y-103574033D01*
X135673333Y-103540700D01*
X135806666Y-103507366D01*
X135906666Y-103507366D01*
X136040000Y-103540700D01*
X136106666Y-103574033D01*
X136173333Y-103640700D01*
X136206666Y-103740700D01*
X136206666Y-103907366D01*
X135506666Y-103274033D02*
X135506666Y-102840700D01*
X135773333Y-103074033D01*
X135773333Y-102974033D01*
X135806666Y-102907366D01*
X135840000Y-102874033D01*
X135906666Y-102840700D01*
X136073333Y-102840700D01*
X136140000Y-102874033D01*
X136173333Y-102907366D01*
X136206666Y-102974033D01*
X136206666Y-103174033D01*
X136173333Y-103240700D01*
X136140000Y-103274033D01*
X126941333Y-101216666D02*
X126941333Y-101716666D01*
X126908000Y-101816666D01*
X126841333Y-101883333D01*
X126741333Y-101916666D01*
X126674666Y-101916666D01*
X127641333Y-101916666D02*
X127241333Y-101916666D01*
X127441333Y-101916666D02*
X127441333Y-101216666D01*
X127374666Y-101316666D01*
X127308000Y-101383333D01*
X127241333Y-101416666D01*
X128241333Y-101216666D02*
X128108000Y-101216666D01*
X128041333Y-101250000D01*
X128008000Y-101283333D01*
X127941333Y-101383333D01*
X127908000Y-101516666D01*
X127908000Y-101783333D01*
X127941333Y-101850000D01*
X127974666Y-101883333D01*
X128041333Y-101916666D01*
X128174666Y-101916666D01*
X128241333Y-101883333D01*
X128274666Y-101850000D01*
X128308000Y-101783333D01*
X128308000Y-101616666D01*
X128274666Y-101550000D01*
X128241333Y-101516666D01*
X128174666Y-101483333D01*
X128041333Y-101483333D01*
X127974666Y-101516666D01*
X127941333Y-101550000D01*
X127908000Y-101616666D01*
X143826666Y-103907366D02*
X143126666Y-103907366D01*
X143126666Y-103740700D01*
X143160000Y-103640700D01*
X143226666Y-103574033D01*
X143293333Y-103540700D01*
X143426666Y-103507366D01*
X143526666Y-103507366D01*
X143660000Y-103540700D01*
X143726666Y-103574033D01*
X143793333Y-103640700D01*
X143826666Y-103740700D01*
X143826666Y-103907366D01*
X143126666Y-103274033D02*
X143126666Y-102807366D01*
X143826666Y-103107366D01*
X146366666Y-104021666D02*
X145666666Y-104021666D01*
X145666666Y-103855000D01*
X145700000Y-103755000D01*
X145766666Y-103688333D01*
X145833333Y-103655000D01*
X145966666Y-103621666D01*
X146066666Y-103621666D01*
X146200000Y-103655000D01*
X146266666Y-103688333D01*
X146333333Y-103755000D01*
X146366666Y-103855000D01*
X146366666Y-104021666D01*
X145966666Y-103221666D02*
X145933333Y-103288333D01*
X145900000Y-103321666D01*
X145833333Y-103355000D01*
X145800000Y-103355000D01*
X145733333Y-103321666D01*
X145700000Y-103288333D01*
X145666666Y-103221666D01*
X145666666Y-103088333D01*
X145700000Y-103021666D01*
X145733333Y-102988333D01*
X145800000Y-102955000D01*
X145833333Y-102955000D01*
X145900000Y-102988333D01*
X145933333Y-103021666D01*
X145966666Y-103088333D01*
X145966666Y-103221666D01*
X146000000Y-103288333D01*
X146033333Y-103321666D01*
X146100000Y-103355000D01*
X146233333Y-103355000D01*
X146300000Y-103321666D01*
X146333333Y-103288333D01*
X146366666Y-103221666D01*
X146366666Y-103088333D01*
X146333333Y-103021666D01*
X146300000Y-102988333D01*
X146233333Y-102955000D01*
X146100000Y-102955000D01*
X146033333Y-102988333D01*
X146000000Y-103021666D01*
X145966666Y-103088333D01*
X135506666Y-81513333D02*
X136006666Y-81513333D01*
X136106666Y-81546666D01*
X136173333Y-81613333D01*
X136206666Y-81713333D01*
X136206666Y-81780000D01*
X135573333Y-81213333D02*
X135540000Y-81180000D01*
X135506666Y-81113333D01*
X135506666Y-80946666D01*
X135540000Y-80880000D01*
X135573333Y-80846666D01*
X135640000Y-80813333D01*
X135706666Y-80813333D01*
X135806666Y-80846666D01*
X136206666Y-81246666D01*
X136206666Y-80813333D01*
X131654666Y-83087333D02*
X131754666Y-83120666D01*
X131921333Y-83120666D01*
X131988000Y-83087333D01*
X132021333Y-83054000D01*
X132054666Y-82987333D01*
X132054666Y-82920666D01*
X132021333Y-82854000D01*
X131988000Y-82820666D01*
X131921333Y-82787333D01*
X131788000Y-82754000D01*
X131721333Y-82720666D01*
X131688000Y-82687333D01*
X131654666Y-82620666D01*
X131654666Y-82554000D01*
X131688000Y-82487333D01*
X131721333Y-82454000D01*
X131788000Y-82420666D01*
X131954666Y-82420666D01*
X132054666Y-82454000D01*
X132288000Y-82420666D02*
X132454666Y-83120666D01*
X132588000Y-82620666D01*
X132721333Y-83120666D01*
X132888000Y-82420666D01*
X133521333Y-83120666D02*
X133121333Y-83120666D01*
X133321333Y-83120666D02*
X133321333Y-82420666D01*
X133254666Y-82520666D01*
X133188000Y-82587333D01*
X133121333Y-82620666D01*
M02*
