G04 #@! TF.GenerationSoftware,KiCad,Pcbnew,5.1.5*
G04 #@! TF.CreationDate,2020-03-16T00:35:52-04:00*
G04 #@! TF.ProjectId,dot-driver,646f742d-6472-4697-9665-722e6b696361,rev?*
G04 #@! TF.SameCoordinates,Original*
G04 #@! TF.FileFunction,Soldermask,Bot*
G04 #@! TF.FilePolarity,Negative*
%FSLAX46Y46*%
G04 Gerber Fmt 4.6, Leading zero omitted, Abs format (unit mm)*
G04 Created by KiCad (PCBNEW 5.1.5) date 2020-03-16 00:35:52*
%MOMM*%
%LPD*%
G04 APERTURE LIST*
%ADD10C,0.150000*%
%ADD11C,0.100000*%
%ADD12R,0.650000X1.400000*%
%ADD13R,1.400000X0.650000*%
%ADD14R,0.900000X1.300000*%
%ADD15R,1.700000X2.400000*%
%ADD16R,1.200000X1.150000*%
%ADD17O,2.127200X2.127200*%
%ADD18R,2.127200X2.127200*%
%ADD19R,0.720000X1.200000*%
%ADD20R,0.880000X1.200000*%
%ADD21C,4.700000*%
%ADD22R,1.200100X1.200100*%
%ADD23O,2.432000X2.432000*%
%ADD24R,2.432000X2.432000*%
%ADD25C,4.800000*%
%ADD26R,2.432000X2.127200*%
%ADD27O,2.432000X2.127200*%
%ADD28R,1.150000X1.200000*%
%ADD29R,2.635200X2.635200*%
%ADD30O,1.650000X1.350000*%
%ADD31O,1.400000X1.950000*%
%ADD32R,1.300000X0.900000*%
G04 APERTURE END LIST*
D10*
G36*
X154305000Y-103505000D02*
G01*
X149860000Y-107950000D01*
X132080000Y-107950000D01*
X127635000Y-103505000D01*
X128270000Y-102870000D01*
X132080000Y-106680000D01*
X149860000Y-106680000D01*
X153670000Y-102870000D01*
X154305000Y-103505000D01*
G37*
X154305000Y-103505000D02*
X149860000Y-107950000D01*
X132080000Y-107950000D01*
X127635000Y-103505000D01*
X128270000Y-102870000D01*
X132080000Y-106680000D01*
X149860000Y-106680000D01*
X153670000Y-102870000D01*
X154305000Y-103505000D01*
D11*
G36*
X157734000Y-123063000D02*
G01*
X157734000Y-126619000D01*
X124206000Y-126619000D01*
X124206000Y-123063000D01*
X130302000Y-115443000D01*
X151638000Y-115443000D01*
X157734000Y-123063000D01*
G37*
X157734000Y-123063000D02*
X157734000Y-126619000D01*
X124206000Y-126619000D01*
X124206000Y-123063000D01*
X130302000Y-115443000D01*
X151638000Y-115443000D01*
X157734000Y-123063000D01*
D10*
G36*
X150495000Y-113030000D02*
G01*
X131318000Y-112903000D01*
X127000000Y-108585000D01*
X128270000Y-108585000D01*
X131445000Y-111760000D01*
X150495000Y-111760000D01*
X153924000Y-108331000D01*
X155194000Y-108331000D01*
X150495000Y-113030000D01*
G37*
X150495000Y-113030000D02*
X131318000Y-112903000D01*
X127000000Y-108585000D01*
X128270000Y-108585000D01*
X131445000Y-111760000D01*
X150495000Y-111760000D01*
X153924000Y-108331000D01*
X155194000Y-108331000D01*
X150495000Y-113030000D01*
D12*
X137220000Y-87715000D03*
X137720000Y-87715000D03*
X138220000Y-87715000D03*
X138720000Y-87715000D03*
X139220000Y-87715000D03*
X139720000Y-87715000D03*
X140220000Y-87715000D03*
X140720000Y-87715000D03*
X141220000Y-87715000D03*
X141720000Y-87715000D03*
X142220000Y-87715000D03*
X142720000Y-87715000D03*
X143220000Y-87715000D03*
X143720000Y-87715000D03*
X144220000Y-87715000D03*
X144720000Y-87715000D03*
D13*
X146670000Y-89665000D03*
X146670000Y-90165000D03*
X146670000Y-90665000D03*
X146670000Y-91165000D03*
X146670000Y-91665000D03*
X146670000Y-92165000D03*
X146670000Y-92665000D03*
X146670000Y-93165000D03*
X146670000Y-93665000D03*
X146670000Y-94165000D03*
X146670000Y-94665000D03*
X146670000Y-95165000D03*
X146670000Y-95665000D03*
X146670000Y-96165000D03*
X146670000Y-96665000D03*
X146670000Y-97165000D03*
D12*
X144720000Y-99115000D03*
X144220000Y-99115000D03*
X143720000Y-99115000D03*
X143220000Y-99115000D03*
X142720000Y-99115000D03*
X142220000Y-99115000D03*
X141720000Y-99115000D03*
X141220000Y-99115000D03*
X140720000Y-99115000D03*
X140220000Y-99115000D03*
X139720000Y-99115000D03*
X139220000Y-99115000D03*
X138720000Y-99115000D03*
X138220000Y-99115000D03*
X137720000Y-99115000D03*
X137220000Y-99115000D03*
D13*
X135270000Y-97165000D03*
X135270000Y-96665000D03*
X135270000Y-96165000D03*
X135270000Y-95665000D03*
X135270000Y-95165000D03*
X135270000Y-94665000D03*
X135270000Y-94165000D03*
X135270000Y-93665000D03*
X135270000Y-93165000D03*
X135270000Y-92665000D03*
X135270000Y-92165000D03*
X135270000Y-91665000D03*
X135270000Y-91165000D03*
X135270000Y-90665000D03*
X135270000Y-90165000D03*
X135270000Y-89665000D03*
D14*
X149340000Y-78994000D03*
X147840000Y-78994000D03*
D15*
X132150000Y-85820000D03*
X132150000Y-81820000D03*
X134550000Y-81820000D03*
X134550000Y-85820000D03*
D16*
X148360000Y-86995000D03*
X149860000Y-86995000D03*
D17*
X139700000Y-107315000D03*
X139700000Y-109855000D03*
D18*
X139700000Y-112395000D03*
D19*
X149770000Y-101705000D03*
D20*
X148410000Y-101705000D03*
D19*
X150410000Y-101705000D03*
D20*
X151130000Y-101705000D03*
D19*
X149130000Y-101705000D03*
X149770000Y-103505000D03*
X149130000Y-103505000D03*
D20*
X148410000Y-103505000D03*
D19*
X150410000Y-103505000D03*
D20*
X151130000Y-103505000D03*
D19*
X132170000Y-101705000D03*
D20*
X130810000Y-101705000D03*
D19*
X132810000Y-101705000D03*
D20*
X133530000Y-101705000D03*
D19*
X131530000Y-101705000D03*
X132170000Y-103505000D03*
X131530000Y-103505000D03*
D20*
X130810000Y-103505000D03*
D19*
X132810000Y-103505000D03*
D20*
X133530000Y-103505000D03*
D21*
X153670000Y-123190000D03*
X147320000Y-123190000D03*
X150495000Y-118745000D03*
X140970000Y-123190000D03*
X144145000Y-118745000D03*
X134620000Y-123190000D03*
X137795000Y-118745000D03*
X128270000Y-123190000D03*
X131445000Y-118745000D03*
D22*
X144592000Y-83980020D03*
X143642000Y-85979000D03*
X145542000Y-85979000D03*
X147607020Y-81722000D03*
X149606000Y-82672000D03*
X149606000Y-80772000D03*
D23*
X131445000Y-94615000D03*
D24*
X131445000Y-92075000D03*
D25*
X127635000Y-80010000D03*
X154305000Y-80010000D03*
X127635000Y-113665000D03*
X154305000Y-113665000D03*
D18*
X149860000Y-112395000D03*
D17*
X149860000Y-109855000D03*
X149860000Y-107315000D03*
X147320000Y-107315000D03*
X147320000Y-109855000D03*
D18*
X147320000Y-112395000D03*
D17*
X144780000Y-107315000D03*
X144780000Y-109855000D03*
D18*
X144780000Y-112395000D03*
X142240000Y-112395000D03*
D17*
X142240000Y-109855000D03*
X142240000Y-107315000D03*
D18*
X137160000Y-112395000D03*
D17*
X137160000Y-109855000D03*
X137160000Y-107315000D03*
X134620000Y-107315000D03*
X134620000Y-109855000D03*
D18*
X134620000Y-112395000D03*
X132080000Y-112395000D03*
D17*
X132080000Y-109855000D03*
X132080000Y-107315000D03*
D26*
X127635000Y-92075000D03*
D27*
X127635000Y-94615000D03*
X127635000Y-97155000D03*
X127635000Y-99695000D03*
D16*
X147840000Y-84455000D03*
X149340000Y-84455000D03*
D28*
X129540000Y-85725000D03*
X129540000Y-84225000D03*
D16*
X132600000Y-78740000D03*
X134100000Y-78740000D03*
D29*
X127635000Y-103505000D03*
X154305000Y-103505000D03*
X127635000Y-107950000D03*
X154305000Y-107950000D03*
D30*
X143470900Y-82207540D03*
X138470900Y-82207540D03*
D31*
X144470900Y-79507540D03*
X137470900Y-79507540D03*
D32*
X129286000Y-89027000D03*
X129286000Y-87527000D03*
D28*
X131445000Y-88265000D03*
X131445000Y-89765000D03*
D16*
X149860000Y-88900000D03*
X148360000Y-88900000D03*
M02*
